<?plantuml 1.2026.2?><svg xmlns="http://www.w3.org/2000/svg" xmlns:xlink="http://www.w3.org/1999/xlink" contentStyleType="text/css" data-diagram-type="CLASS" height="2514.375px" preserveAspectRatio="none" style="width:4080px;height:2514px;background:#FFFFFF;" version="1.1" viewBox="0 0 4080 2514" width="4080px" zoomAndPan="magnify"><defs/><g><!--cluster Bootstrap--><g class="cluster" data-qualified-name="Bootstrap" data-source-line="17" id="ent0002"><rect fill="#F3F4F6" height="433.125" rx="4.6875" ry="4.6875" style="stroke:#AEB8C2;stroke-width:2.8125;" width="513.75" x="30" y="14.0625"/><text fill="#1F2937" font-family="Calibri" font-size="37.5" font-weight="bold" lengthAdjust="spacing" textLength="154.2664" x="209.7418" y="54.2139">Bootstrap</text></g><!--cluster Controller--><g class="cluster" data-qualified-name="Controller" data-source-line="27" id="ent0004"><rect fill="#EAF4FF" height="892.5" rx="4.6875" ry="4.6875" style="stroke:#AEB8C2;stroke-width:2.8125;" width="547.5" x="13.125" y="492.1875"/><text fill="#1F2937" font-family="Calibri" font-size="37.5" font-weight="bold" lengthAdjust="spacing" textLength="157.251" x="208.2495" y="532.3389">Controller</text></g><!--cluster Service--><g class="cluster" data-qualified-name="Service" data-source-line="45" id="ent0007"><rect fill="#EEF7EA" height="751.875" rx="4.6875" ry="4.6875" style="stroke:#AEB8C2;stroke-width:2.8125;" width="1398.75" x="605.625" y="974.0625"/><text fill="#1F2937" font-family="Calibri" font-size="37.5" font-weight="bold" lengthAdjust="spacing" textLength="111.4563" x="1249.2719" y="1014.2139">Service</text></g><!--cluster Persistence--><g class="cluster" data-qualified-name="Persistence" data-source-line="69" id="ent0012"><rect fill="#FFF4E5" height="296.25" rx="4.6875" ry="4.6875" style="stroke:#AEB8C2;stroke-width:2.8125;" width="1143.75" x="2049.375" y="1429.6875"/><text fill="#1F2937" font-family="Calibri" font-size="37.5" font-weight="bold" lengthAdjust="spacing" textLength="177.8687" x="2532.3157" y="1469.8389">Persistence</text></g><!--cluster Integration--><g class="cluster" data-qualified-name="Integration" data-source-line="86" id="ent0016"><rect fill="#F3E8FF" height="710.625" rx="4.6875" ry="4.6875" style="stroke:#AEB8C2;stroke-width:2.8125;" width="864.375" x="146.25" y="1793.4375"/><text fill="#1F2937" font-family="Calibri" font-size="37.5" font-weight="bold" lengthAdjust="spacing" textLength="174.115" x="491.38" y="1833.5889">Integration</text></g><!--cluster Model--><g class="cluster" data-qualified-name="Model" data-source-line="104" id="ent0020"><rect fill="#FFF1F2" height="388.125" rx="4.6875" ry="4.6875" style="stroke:#AEB8C2;stroke-width:2.8125;" width="1595.625" x="2473.125" y="1770.9375"/><text fill="#1F2937" font-family="Calibri" font-size="37.5" font-weight="bold" lengthAdjust="spacing" textLength="101.1475" x="3220.3638" y="1811.0889">Model</text></g><!--class MediManageApplication--><g class="entity" data-qualified-name="Bootstrap.MediManageApplication" data-source-line="18" id="ent0003"><rect fill="#FFFFFF" height="323.4082" rx="4.6875" ry="4.6875" style="stroke:#8C98A4;stroke-width:0.9375;" width="454.4275" x="60" y="94.6875"/><ellipse cx="96.6923" cy="126.9507" fill="#ADD1B2" rx="22.5" ry="22.5" style="stroke:#181818;stroke-width:1.875;"/><path d="M100.706,117.4292 Q101.0576,116.9604 101.4677,116.7261 Q101.8779,116.4624 102.3466,116.4624 Q103.1669,116.4624 103.6943,117.0483 Q104.2216,117.605 104.2216,118.9526 L104.2216,122.146 Q104.2216,123.4937 103.6943,124.0796 Q103.1669,124.6655 102.3466,124.6655 Q101.6142,124.6655 101.1454,124.2261 Q100.6767,123.8159 100.4716,122.6733 Q100.3544,121.8823 99.9443,121.4722 Q99.2119,120.6519 97.8642,120.1538 Q96.5165,119.6558 95.1689,119.6558 Q93.4697,119.6558 92.0634,120.3882 Q90.6572,121.1206 89.5732,122.7905 Q88.4892,124.4312 88.4892,126.687 L88.4892,129.1187 Q88.4892,131.8433 90.4521,133.6597 Q92.4443,135.4761 95.9306,135.4761 Q98.0107,135.4761 99.4755,134.8901 Q100.2958,134.5679 101.2626,133.6011 Q101.8486,133.0151 102.1708,132.8394 Q102.4931,132.6636 102.9326,132.6636 Q103.665,132.6636 104.2216,133.2495 Q104.8076,133.8062 104.8076,134.5679 Q104.8076,135.3296 104.0458,136.2085 Q102.9326,137.4976 101.1747,138.23 Q98.8017,139.2261 95.9599,139.2261 Q92.6201,139.2261 89.954,137.8491 Q87.7861,136.7358 86.2626,134.3628 Q84.7392,131.9897 84.7392,129.2065 L84.7392,126.6577 Q84.7392,123.728 86.0869,121.2085 Q87.4638,118.6597 89.8661,117.2827 Q92.2978,115.9058 95.0224,115.9058 Q96.6337,115.9058 98.04,116.2866 Q99.4755,116.6675 100.706,117.4292 Z " fill="#000000"/><text fill="#1F2937" font-family="Calibri" font-size="37.5" lengthAdjust="spacing" textLength="375.8057" x="126.3045" y="140.4639">MediManageApplication</text><line style="stroke:#8C98A4;stroke-width:0.9375;" x1="61.875" x2="512.5525" y1="159.2139" y2="159.2139"/><line style="stroke:#8C98A4;stroke-width:0.9375;" x1="61.875" x2="512.5525" y1="174.2139" y2="174.2139"/><text fill="#000000" font-family="Calibri" font-size="37.5" lengthAdjust="spacing" textLength="193.7439" x="71.25" y="218.1152">+start(stage)</text><text fill="#000000" font-family="Calibri" font-size="37.5" lengthAdjust="spacing" textLength="303.4973" x="71.25" y="263.8916">-initializeDatabase()</text><text fill="#000000" font-family="Calibri" font-size="37.5" lengthAdjust="spacing" textLength="310.7666" x="71.25" y="309.668">-startPythonServer()</text><text fill="#000000" font-family="Calibri" font-size="37.5" lengthAdjust="spacing" textLength="431.9275" x="71.25" y="355.4443">-startMcpServer(pythonExe)</text><text fill="#000000" font-family="Calibri" font-size="37.5" lengthAdjust="spacing" textLength="362.4939" x="71.25" y="401.2207">-startWhatsAppBridge()</text></g><!--class BillingController--><g class="entity" data-qualified-name="Controller.BillingController" data-source-line="28" id="ent0005"><rect fill="#FFFFFF" height="369.1846" rx="4.6875" ry="4.6875" style="stroke:#8C98A4;stroke-width:0.9375;" width="485.116" x="44.0625" y="572.8125"/><ellipse cx="155.1819" cy="605.0757" fill="#ADD1B2" rx="22.5" ry="22.5" style="stroke:#181818;stroke-width:1.875;"/><path d="M159.1956,595.5542 Q159.5471,595.0854 159.9573,594.8511 Q160.3674,594.5874 160.8362,594.5874 Q161.6565,594.5874 162.1838,595.1733 Q162.7112,595.73 162.7112,597.0776 L162.7112,600.271 Q162.7112,601.6187 162.1838,602.2046 Q161.6565,602.7905 160.8362,602.7905 Q160.1038,602.7905 159.635,602.3511 Q159.1663,601.9409 158.9612,600.7983 Q158.844,600.0073 158.4338,599.5972 Q157.7014,598.7769 156.3538,598.2788 Q155.0061,597.7808 153.6584,597.7808 Q151.9592,597.7808 150.553,598.5132 Q149.1467,599.2456 148.0627,600.9155 Q146.9788,602.5562 146.9788,604.812 L146.9788,607.2437 Q146.9788,609.9683 148.9417,611.7847 Q150.9338,613.6011 154.4202,613.6011 Q156.5002,613.6011 157.9651,613.0151 Q158.7854,612.6929 159.7522,611.7261 Q160.3381,611.1401 160.6604,610.9644 Q160.9827,610.7886 161.4221,610.7886 Q162.1545,610.7886 162.7112,611.3745 Q163.2971,611.9312 163.2971,612.6929 Q163.2971,613.4546 162.5354,614.3335 Q161.4221,615.6226 159.6643,616.355 Q157.2913,617.3511 154.4495,617.3511 Q151.1096,617.3511 148.4436,615.9741 Q146.2756,614.8608 144.7522,612.4878 Q143.2288,610.1147 143.2288,607.3315 L143.2288,604.7827 Q143.2288,601.853 144.5764,599.3335 Q145.9534,596.7847 148.3557,595.4077 Q150.7874,594.0308 153.512,594.0308 Q155.1233,594.0308 156.5295,594.4116 Q157.9651,594.7925 159.1956,595.5542 Z " fill="#000000"/><text fill="#1F2937" font-family="Calibri" font-size="37.5" lengthAdjust="spacing" textLength="246.0022" x="196.4319" y="618.5889">BillingController</text><line style="stroke:#8C98A4;stroke-width:0.9375;" x1="45.9375" x2="527.3035" y1="637.3389" y2="637.3389"/><text fill="#000000" font-family="Calibri" font-size="37.5" lengthAdjust="spacing" textLength="359.9854" x="55.3125" y="681.2402">-billList : ObservableList</text><text fill="#000000" font-family="Calibri" font-size="37.5" lengthAdjust="spacing" textLength="462.616" x="55.3125" y="727.0166">-selectedCustomer : Customer</text><text fill="#000000" font-family="Calibri" font-size="37.5" lengthAdjust="spacing" textLength="449.5422" x="55.3125" y="772.793">-selectedMedicine : Medicine</text><line style="stroke:#8C98A4;stroke-width:0.9375;" x1="45.9375" x2="527.3035" y1="789.668" y2="789.668"/><text fill="#000000" font-family="Calibri" font-size="37.5" lengthAdjust="spacing" textLength="168.1458" x="55.3125" y="833.5693">+initialize()</text><text fill="#000000" font-family="Calibri" font-size="37.5" lengthAdjust="spacing" textLength="199.6582" x="55.3125" y="879.3457">-handleAdd()</text><text fill="#000000" font-family="Calibri" font-size="37.5" lengthAdjust="spacing" textLength="281.8542" x="55.3125" y="925.1221">-handleCheckout()</text></g><!--class BillingCheckoutSupport--><g class="entity" data-qualified-name="Controller.BillingCheckoutSupport" data-source-line="37" id="ent0006"><rect fill="#FFFFFF" height="277.6318" rx="4.6875" ry="4.6875" style="stroke:#8C98A4;stroke-width:0.9375;" width="450.2161" x="71.25" y="1077.1875"/><ellipse cx="114.4105" cy="1109.4507" fill="#ADD1B2" rx="22.5" ry="22.5" style="stroke:#181818;stroke-width:1.875;"/><path d="M118.4242,1099.9292 Q118.7758,1099.4604 119.1859,1099.2261 Q119.5961,1098.9624 120.0648,1098.9624 Q120.8851,1098.9624 121.4125,1099.5483 Q121.9398,1100.105 121.9398,1101.4526 L121.9398,1104.646 Q121.9398,1105.9937 121.4125,1106.5796 Q120.8851,1107.1655 120.0648,1107.1655 Q119.3324,1107.1655 118.8636,1106.7261 Q118.3949,1106.3159 118.1898,1105.1733 Q118.0726,1104.3823 117.6625,1103.9722 Q116.9301,1103.1519 115.5824,1102.6538 Q114.2347,1102.1558 112.8871,1102.1558 Q111.1879,1102.1558 109.7816,1102.8882 Q108.3754,1103.6206 107.2914,1105.2905 Q106.2074,1106.9312 106.2074,1109.187 L106.2074,1111.6187 Q106.2074,1114.3433 108.1703,1116.1597 Q110.1625,1117.9761 113.6488,1117.9761 Q115.7289,1117.9761 117.1937,1117.3901 Q118.014,1117.0679 118.9808,1116.1011 Q119.5668,1115.5151 119.889,1115.3394 Q120.2113,1115.1636 120.6508,1115.1636 Q121.3832,1115.1636 121.9398,1115.7495 Q122.5258,1116.3062 122.5258,1117.0679 Q122.5258,1117.8296 121.764,1118.7085 Q120.6508,1119.9976 118.8929,1120.73 Q116.5199,1121.7261 113.6781,1121.7261 Q110.3383,1121.7261 107.6722,1120.3491 Q105.5043,1119.2358 103.9808,1116.8628 Q102.4574,1114.4897 102.4574,1111.7065 L102.4574,1109.1577 Q102.4574,1106.228 103.8051,1103.7085 Q105.182,1101.1597 107.5844,1099.7827 Q110.016,1098.4058 112.7406,1098.4058 Q114.3519,1098.4058 115.7582,1098.7866 Q117.1937,1099.1675 118.4242,1099.9292 Z " fill="#000000"/><text fill="#1F2937" font-family="Calibri" font-size="37.5" lengthAdjust="spacing" textLength="357.2205" x="145.4601" y="1122.9639">BillingCheckoutSupport</text><line style="stroke:#8C98A4;stroke-width:0.9375;" x1="73.125" x2="519.5911" y1="1141.7139" y2="1141.7139"/><line style="stroke:#8C98A4;stroke-width:0.9375;" x1="73.125" x2="519.5911" y1="1156.7139" y2="1156.7139"/><text fill="#000000" font-family="Calibri" font-size="37.5" lengthAdjust="spacing" textLength="284.7473" x="82.5" y="1200.6152">~showSplitDialog()</text><text fill="#000000" font-family="Calibri" font-size="37.5" lengthAdjust="spacing" textLength="427.7161" x="82.5" y="1246.3916">~showPostCheckoutDialog()</text><text fill="#000000" font-family="Calibri" font-size="37.5" lengthAdjust="spacing" textLength="343.1213" x="82.5" y="1292.168">~buildPaymentMode()</text><text fill="#000000" font-family="Calibri" font-size="37.5" lengthAdjust="spacing" textLength="306.2988" x="82.5" y="1337.9443">~validateSplitTotal()</text></g><!--class BillingService--><g class="entity" data-qualified-name="Service.BillingService" data-source-line="46" id="ent0008"><rect fill="#FFFFFF" height="323.4082" rx="4.6875" ry="4.6875" style="stroke:#8C98A4;stroke-width:0.9375;" width="399.3311" x="1547.8125" y="1054.6875"/><ellipse cx="1638.4424" cy="1086.9507" fill="#ADD1B2" rx="22.5" ry="22.5" style="stroke:#181818;stroke-width:1.875;"/><path d="M1642.4561,1077.4292 Q1642.8076,1076.9604 1643.2178,1076.7261 Q1643.6279,1076.4624 1644.0967,1076.4624 Q1644.917,1076.4624 1645.4443,1077.0483 Q1645.9717,1077.605 1645.9717,1078.9526 L1645.9717,1082.146 Q1645.9717,1083.4937 1645.4443,1084.0796 Q1644.917,1084.6655 1644.0967,1084.6655 Q1643.3643,1084.6655 1642.8955,1084.2261 Q1642.4268,1083.8159 1642.2217,1082.6733 Q1642.1045,1081.8823 1641.6943,1081.4722 Q1640.9619,1080.6519 1639.6143,1080.1538 Q1638.2666,1079.6558 1636.9189,1079.6558 Q1635.2197,1079.6558 1633.8135,1080.3882 Q1632.4072,1081.1206 1631.3232,1082.7905 Q1630.2393,1084.4312 1630.2393,1086.687 L1630.2393,1089.1187 Q1630.2393,1091.8433 1632.2021,1093.6597 Q1634.1943,1095.4761 1637.6807,1095.4761 Q1639.7607,1095.4761 1641.2256,1094.8901 Q1642.0459,1094.5679 1643.0127,1093.6011 Q1643.5986,1093.0151 1643.9209,1092.8394 Q1644.2432,1092.6636 1644.6826,1092.6636 Q1645.415,1092.6636 1645.9717,1093.2495 Q1646.5576,1093.8062 1646.5576,1094.5679 Q1646.5576,1095.3296 1645.7959,1096.2085 Q1644.6826,1097.4976 1642.9248,1098.23 Q1640.5518,1099.2261 1637.71,1099.2261 Q1634.3701,1099.2261 1631.7041,1097.8491 Q1629.5361,1096.7358 1628.0127,1094.3628 Q1626.4893,1091.9897 1626.4893,1089.2065 L1626.4893,1086.6577 Q1626.4893,1083.728 1627.8369,1081.2085 Q1629.2139,1078.6597 1631.6162,1077.2827 Q1634.0479,1075.9058 1636.7725,1075.9058 Q1638.3838,1075.9058 1639.79,1076.2866 Q1641.2256,1076.6675 1642.4561,1077.4292 Z " fill="#000000"/><text fill="#1F2937" font-family="Calibri" font-size="37.5" lengthAdjust="spacing" textLength="201.1963" x="1679.6924" y="1100.4639">BillingService</text><line style="stroke:#8C98A4;stroke-width:0.9375;" x1="1549.6875" x2="1945.2686" y1="1119.2139" y2="1119.2139"/><line style="stroke:#8C98A4;stroke-width:0.9375;" x1="1549.6875" x2="1945.2686" y1="1134.2139" y2="1134.2139"/><text fill="#000000" font-family="Calibri" font-size="37.5" lengthAdjust="spacing" textLength="240.6372" x="1559.0625" y="1178.1152">+addMedicine()</text><text fill="#000000" font-family="Calibri" font-size="37.5" lengthAdjust="spacing" textLength="254.3701" x="1559.0625" y="1223.8916">+calculateTotal()</text><text fill="#000000" font-family="Calibri" font-size="37.5" lengthAdjust="spacing" textLength="376.8311" x="1559.0625" y="1269.668">+generateCareProtocol()</text><text fill="#000000" font-family="Calibri" font-size="37.5" lengthAdjust="spacing" textLength="328.4912" x="1559.0625" y="1315.4443">+completeCheckout()</text><text fill="#000000" font-family="Calibri" font-size="37.5" lengthAdjust="spacing" textLength="265.448" x="1559.0625" y="1361.2207">+snapshotItems()</text></g><!--class ReportService--><g class="entity" data-qualified-name="Service.ReportService" data-source-line="54" id="ent0009"><rect fill="#FFFFFF" height="140.3027" rx="4.6875" ry="4.6875" style="stroke:#8C98A4;stroke-width:0.9375;" width="360.3479" x="1095" y="1532.8125"/><ellipse cx="1162.5502" cy="1565.0757" fill="#ADD1B2" rx="22.5" ry="22.5" style="stroke:#181818;stroke-width:1.875;"/><path d="M1166.5638,1555.5542 Q1166.9154,1555.0854 1167.3256,1554.8511 Q1167.7357,1554.5874 1168.2045,1554.5874 Q1169.0248,1554.5874 1169.5521,1555.1733 Q1170.0795,1555.73 1170.0795,1557.0776 L1170.0795,1560.271 Q1170.0795,1561.6187 1169.5521,1562.2046 Q1169.0248,1562.7905 1168.2045,1562.7905 Q1167.472,1562.7905 1167.0033,1562.3511 Q1166.5345,1561.9409 1166.3295,1560.7983 Q1166.2123,1560.0073 1165.8021,1559.5972 Q1165.0697,1558.7769 1163.722,1558.2788 Q1162.3744,1557.7808 1161.0267,1557.7808 Q1159.3275,1557.7808 1157.9213,1558.5132 Q1156.515,1559.2456 1155.431,1560.9155 Q1154.347,1562.5562 1154.347,1564.812 L1154.347,1567.2437 Q1154.347,1569.9683 1156.3099,1571.7847 Q1158.3021,1573.6011 1161.7885,1573.6011 Q1163.8685,1573.6011 1165.3334,1573.0151 Q1166.1537,1572.6929 1167.1205,1571.7261 Q1167.7064,1571.1401 1168.0287,1570.9644 Q1168.351,1570.7886 1168.7904,1570.7886 Q1169.5228,1570.7886 1170.0795,1571.3745 Q1170.6654,1571.9312 1170.6654,1572.6929 Q1170.6654,1573.4546 1169.9037,1574.3335 Q1168.7904,1575.6226 1167.0326,1576.355 Q1164.6595,1577.3511 1161.8177,1577.3511 Q1158.4779,1577.3511 1155.8119,1575.9741 Q1153.6439,1574.8608 1152.1205,1572.4878 Q1150.597,1570.1147 1150.597,1567.3315 L1150.597,1564.7827 Q1150.597,1561.853 1151.9447,1559.3335 Q1153.3217,1556.7847 1155.724,1555.4077 Q1158.1556,1554.0308 1160.8802,1554.0308 Q1162.4916,1554.0308 1163.8978,1554.4116 Q1165.3334,1554.7925 1166.5638,1555.5542 Z " fill="#000000"/><text fill="#1F2937" font-family="Calibri" font-size="37.5" lengthAdjust="spacing" textLength="213.1531" x="1199.0197" y="1578.5889">ReportService</text><line style="stroke:#8C98A4;stroke-width:0.9375;" x1="1096.875" x2="1453.4729" y1="1597.3389" y2="1597.3389"/><line style="stroke:#8C98A4;stroke-width:0.9375;" x1="1096.875" x2="1453.4729" y1="1612.3389" y2="1612.3389"/><text fill="#000000" font-family="Calibri" font-size="37.5" lengthAdjust="spacing" textLength="337.8479" x="1106.25" y="1656.2402">+generateInvoicePdf()</text></g><!--class LoyaltyService--><g class="entity" data-qualified-name="Service.LoyaltyService" data-source-line="58" id="ent0010"><rect fill="#FFFFFF" height="186.0791" rx="4.6875" ry="4.6875" style="stroke:#8C98A4;stroke-width:0.9375;" width="452.6331" x="1521.5625" y="1510.3125"/><ellipse cx="1630.6219" cy="1542.5757" fill="#ADD1B2" rx="22.5" ry="22.5" style="stroke:#181818;stroke-width:1.875;"/><path d="M1634.6356,1533.0542 Q1634.9872,1532.5854 1635.3973,1532.3511 Q1635.8075,1532.0874 1636.2762,1532.0874 Q1637.0966,1532.0874 1637.6239,1532.6733 Q1638.1512,1533.23 1638.1512,1534.5776 L1638.1512,1537.771 Q1638.1512,1539.1187 1637.6239,1539.7046 Q1637.0966,1540.2905 1636.2762,1540.2905 Q1635.5438,1540.2905 1635.0751,1539.8511 Q1634.6063,1539.4409 1634.4012,1538.2983 Q1634.2841,1537.5073 1633.8739,1537.0972 Q1633.1415,1536.2769 1631.7938,1535.7788 Q1630.4462,1535.2808 1629.0985,1535.2808 Q1627.3993,1535.2808 1625.993,1536.0132 Q1624.5868,1536.7456 1623.5028,1538.4155 Q1622.4188,1540.0562 1622.4188,1542.312 L1622.4188,1544.7437 Q1622.4188,1547.4683 1624.3817,1549.2847 Q1626.3739,1551.1011 1629.8602,1551.1011 Q1631.9403,1551.1011 1633.4052,1550.5151 Q1634.2255,1550.1929 1635.1923,1549.2261 Q1635.7782,1548.6401 1636.1005,1548.4644 Q1636.4227,1548.2886 1636.8622,1548.2886 Q1637.5946,1548.2886 1638.1512,1548.8745 Q1638.7372,1549.4312 1638.7372,1550.1929 Q1638.7372,1550.9546 1637.9755,1551.8335 Q1636.8622,1553.1226 1635.1044,1553.855 Q1632.7313,1554.8511 1629.8895,1554.8511 Q1626.5497,1554.8511 1623.8837,1553.4741 Q1621.7157,1552.3608 1620.1923,1549.9878 Q1618.6688,1547.6147 1618.6688,1544.8315 L1618.6688,1542.2827 Q1618.6688,1539.353 1620.0165,1536.8335 Q1621.3934,1534.2847 1623.7958,1532.9077 Q1626.2274,1531.5308 1628.952,1531.5308 Q1630.5634,1531.5308 1631.9696,1531.9116 Q1633.4052,1532.2925 1634.6356,1533.0542 Z " fill="#000000"/><text fill="#1F2937" font-family="Calibri" font-size="37.5" lengthAdjust="spacing" textLength="217.6392" x="1671.8719" y="1556.0889">LoyaltyService</text><line style="stroke:#8C98A4;stroke-width:0.9375;" x1="1523.4375" x2="1972.3206" y1="1574.8389" y2="1574.8389"/><line style="stroke:#8C98A4;stroke-width:0.9375;" x1="1523.4375" x2="1972.3206" y1="1589.8389" y2="1589.8389"/><text fill="#000000" font-family="Calibri" font-size="37.5" lengthAdjust="spacing" textLength="371.1182" x="1532.8125" y="1633.7402">+calculateAwardPoints()</text><text fill="#000000" font-family="Calibri" font-size="37.5" lengthAdjust="spacing" textLength="430.1331" x="1532.8125" y="1679.5166">+getRedemptionThreshold()</text></g><!--class AIOrchestrator--><g class="entity" data-qualified-name="Service.AIOrchestrator" data-source-line="63" id="ent0011"><rect fill="#FFFFFF" height="186.0791" rx="4.6875" ry="4.6875" style="stroke:#8C98A4;stroke-width:0.9375;" width="391.3477" x="636.5625" y="1510.3125"/><ellipse cx="711.858" cy="1542.5757" fill="#ADD1B2" rx="22.5" ry="22.5" style="stroke:#181818;stroke-width:1.875;"/><path d="M715.8717,1533.0542 Q716.2233,1532.5854 716.6334,1532.3511 Q717.0436,1532.0874 717.5123,1532.0874 Q718.3326,1532.0874 718.86,1532.6733 Q719.3873,1533.23 719.3873,1534.5776 L719.3873,1537.771 Q719.3873,1539.1187 718.86,1539.7046 Q718.3326,1540.2905 717.5123,1540.2905 Q716.7799,1540.2905 716.3112,1539.8511 Q715.8424,1539.4409 715.6373,1538.2983 Q715.5201,1537.5073 715.11,1537.0972 Q714.3776,1536.2769 713.0299,1535.7788 Q711.6823,1535.2808 710.3346,1535.2808 Q708.6354,1535.2808 707.2291,1536.0132 Q705.8229,1536.7456 704.7389,1538.4155 Q703.6549,1540.0562 703.6549,1542.312 L703.6549,1544.7437 Q703.6549,1547.4683 705.6178,1549.2847 Q707.61,1551.1011 711.0963,1551.1011 Q713.1764,1551.1011 714.6412,1550.5151 Q715.4615,1550.1929 716.4283,1549.2261 Q717.0143,1548.6401 717.3365,1548.4644 Q717.6588,1548.2886 718.0983,1548.2886 Q718.8307,1548.2886 719.3873,1548.8745 Q719.9733,1549.4312 719.9733,1550.1929 Q719.9733,1550.9546 719.2115,1551.8335 Q718.0983,1553.1226 716.3405,1553.855 Q713.9674,1554.8511 711.1256,1554.8511 Q707.7858,1554.8511 705.1198,1553.4741 Q702.9518,1552.3608 701.4283,1549.9878 Q699.9049,1547.6147 699.9049,1544.8315 L699.9049,1542.2827 Q699.9049,1539.353 701.2526,1536.8335 Q702.6295,1534.2847 705.0319,1532.9077 Q707.4635,1531.5308 710.1881,1531.5308 Q711.7994,1531.5308 713.2057,1531.9116 Q714.6412,1532.2925 715.8717,1533.0542 Z " fill="#000000"/><text fill="#1F2937" font-family="Calibri" font-size="37.5" lengthAdjust="spacing" textLength="226.9409" x="750.0487" y="1556.0889">AIOrchestrator</text><line style="stroke:#8C98A4;stroke-width:0.9375;" x1="638.4375" x2="1026.0352" y1="1574.8389" y2="1574.8389"/><line style="stroke:#8C98A4;stroke-width:0.9375;" x1="638.4375" x2="1026.0352" y1="1589.8389" y2="1589.8389"/><text fill="#000000" font-family="Calibri" font-size="37.5" lengthAdjust="spacing" textLength="368.8477" x="647.8125" y="1633.7402">+processOrchestration()</text><text fill="#000000" font-family="Calibri" font-size="37.5" lengthAdjust="spacing" textLength="281.3965" x="647.8125" y="1679.5166">+isLocalAvailable()</text></g><!--class BillDAO--><g class="entity" data-qualified-name="Persistence.BillDAO" data-source-line="70" id="ent0013"><rect fill="#FFFFFF" height="186.0791" rx="4.6875" ry="4.6875" style="stroke:#8C98A4;stroke-width:0.9375;" width="330.6299" x="2079.375" y="1510.3125"/><ellipse cx="2178.3453" cy="1542.5757" fill="#ADD1B2" rx="22.5" ry="22.5" style="stroke:#181818;stroke-width:1.875;"/><path d="M2182.359,1533.0542 Q2182.7106,1532.5854 2183.1207,1532.3511 Q2183.5309,1532.0874 2183.9996,1532.0874 Q2184.8199,1532.0874 2185.3473,1532.6733 Q2185.8746,1533.23 2185.8746,1534.5776 L2185.8746,1537.771 Q2185.8746,1539.1187 2185.3473,1539.7046 Q2184.8199,1540.2905 2183.9996,1540.2905 Q2183.2672,1540.2905 2182.7985,1539.8511 Q2182.3297,1539.4409 2182.1246,1538.2983 Q2182.0074,1537.5073 2181.5973,1537.0972 Q2180.8649,1536.2769 2179.5172,1535.7788 Q2178.1696,1535.2808 2176.8219,1535.2808 Q2175.1227,1535.2808 2173.7164,1536.0132 Q2172.3102,1536.7456 2171.2262,1538.4155 Q2170.1422,1540.0562 2170.1422,1542.312 L2170.1422,1544.7437 Q2170.1422,1547.4683 2172.1051,1549.2847 Q2174.0973,1551.1011 2177.5836,1551.1011 Q2179.6637,1551.1011 2181.1285,1550.5151 Q2181.9489,1550.1929 2182.9156,1549.2261 Q2183.5016,1548.6401 2183.8239,1548.4644 Q2184.1461,1548.2886 2184.5856,1548.2886 Q2185.318,1548.2886 2185.8746,1548.8745 Q2186.4606,1549.4312 2186.4606,1550.1929 Q2186.4606,1550.9546 2185.6989,1551.8335 Q2184.5856,1553.1226 2182.8278,1553.855 Q2180.4547,1554.8511 2177.6129,1554.8511 Q2174.2731,1554.8511 2171.6071,1553.4741 Q2169.4391,1552.3608 2167.9156,1549.9878 Q2166.3922,1547.6147 2166.3922,1544.8315 L2166.3922,1542.2827 Q2166.3922,1539.353 2167.7399,1536.8335 Q2169.1168,1534.2847 2171.5192,1532.9077 Q2173.9508,1531.5308 2176.6754,1531.5308 Q2178.2867,1531.5308 2179.693,1531.9116 Q2181.1285,1532.2925 2182.359,1533.0542 Z " fill="#000000"/><text fill="#1F2937" font-family="Calibri" font-size="37.5" lengthAdjust="spacing" textLength="115.8142" x="2219.5953" y="1556.0889">BillDAO</text><line style="stroke:#8C98A4;stroke-width:0.9375;" x1="2081.25" x2="2408.1299" y1="1574.8389" y2="1574.8389"/><line style="stroke:#8C98A4;stroke-width:0.9375;" x1="2081.25" x2="2408.1299" y1="1589.8389" y2="1589.8389"/><text fill="#000000" font-family="Calibri" font-size="37.5" lengthAdjust="spacing" textLength="287.3291" x="2090.625" y="1633.7402">+generateInvoice()</text><text fill="#000000" font-family="Calibri" font-size="37.5" lengthAdjust="spacing" textLength="308.1299" x="2090.625" y="1679.5166">+saveCareProtocol()</text></g><!--class CustomerDAO--><g class="entity" data-qualified-name="Persistence.CustomerDAO" data-source-line="75" id="ent0014"><rect fill="#FFFFFF" height="186.0791" rx="4.6875" ry="4.6875" style="stroke:#8C98A4;stroke-width:0.9375;" width="312.2278" x="2849.0625" y="1510.3125"/><ellipse cx="2892.7833" cy="1542.5757" fill="#ADD1B2" rx="22.5" ry="22.5" style="stroke:#181818;stroke-width:1.875;"/><path d="M2896.797,1533.0542 Q2897.1486,1532.5854 2897.5587,1532.3511 Q2897.9689,1532.0874 2898.4376,1532.0874 Q2899.2579,1532.0874 2899.7853,1532.6733 Q2900.3126,1533.23 2900.3126,1534.5776 L2900.3126,1537.771 Q2900.3126,1539.1187 2899.7853,1539.7046 Q2899.2579,1540.2905 2898.4376,1540.2905 Q2897.7052,1540.2905 2897.2365,1539.8511 Q2896.7677,1539.4409 2896.5626,1538.2983 Q2896.4454,1537.5073 2896.0353,1537.0972 Q2895.3029,1536.2769 2893.9552,1535.7788 Q2892.6075,1535.2808 2891.2599,1535.2808 Q2889.5607,1535.2808 2888.1544,1536.0132 Q2886.7482,1536.7456 2885.6642,1538.4155 Q2884.5802,1540.0562 2884.5802,1542.312 L2884.5802,1544.7437 Q2884.5802,1547.4683 2886.5431,1549.2847 Q2888.5353,1551.1011 2892.0216,1551.1011 Q2894.1017,1551.1011 2895.5665,1550.5151 Q2896.3868,1550.1929 2897.3536,1549.2261 Q2897.9396,1548.6401 2898.2618,1548.4644 Q2898.5841,1548.2886 2899.0236,1548.2886 Q2899.756,1548.2886 2900.3126,1548.8745 Q2900.8986,1549.4312 2900.8986,1550.1929 Q2900.8986,1550.9546 2900.1368,1551.8335 Q2899.0236,1553.1226 2897.2657,1553.855 Q2894.8927,1554.8511 2892.0509,1554.8511 Q2888.7111,1554.8511 2886.045,1553.4741 Q2883.8771,1552.3608 2882.3536,1549.9878 Q2880.8302,1547.6147 2880.8302,1544.8315 L2880.8302,1542.2827 Q2880.8302,1539.353 2882.1779,1536.8335 Q2883.5548,1534.2847 2885.9572,1532.9077 Q2888.3888,1531.5308 2891.1134,1531.5308 Q2892.7247,1531.5308 2894.131,1531.9116 Q2895.5665,1532.2925 2896.797,1533.0542 Z " fill="#000000"/><text fill="#1F2937" font-family="Calibri" font-size="37.5" lengthAdjust="spacing" textLength="217.9871" x="2923.9574" y="1556.0889">CustomerDAO</text><line style="stroke:#8C98A4;stroke-width:0.9375;" x1="2850.9375" x2="3159.4153" y1="1574.8389" y2="1574.8389"/><line style="stroke:#8C98A4;stroke-width:0.9375;" x1="2850.9375" x2="3159.4153" y1="1589.8389" y2="1589.8389"/><text fill="#000000" font-family="Calibri" font-size="37.5" lengthAdjust="spacing" textLength="289.7278" x="2860.3125" y="1633.7402">+searchCustomer()</text><text fill="#000000" font-family="Calibri" font-size="37.5" lengthAdjust="spacing" textLength="247.1741" x="2860.3125" y="1679.5166">+addCustomer()</text></g><!--class MedicineDAO--><g class="entity" data-qualified-name="Persistence.MedicineDAO" data-source-line="80" id="ent0015"><rect fill="#FFFFFF" height="186.0791" rx="4.6875" ry="4.6875" style="stroke:#8C98A4;stroke-width:0.9375;" width="308.2178" x="2475" y="1510.3125"/><ellipse cx="2519.8579" cy="1542.5757" fill="#ADD1B2" rx="22.5" ry="22.5" style="stroke:#181818;stroke-width:1.875;"/><path d="M2523.8716,1533.0542 Q2524.2231,1532.5854 2524.6333,1532.3511 Q2525.0435,1532.0874 2525.5122,1532.0874 Q2526.3325,1532.0874 2526.8599,1532.6733 Q2527.3872,1533.23 2527.3872,1534.5776 L2527.3872,1537.771 Q2527.3872,1539.1187 2526.8599,1539.7046 Q2526.3325,1540.2905 2525.5122,1540.2905 Q2524.7798,1540.2905 2524.311,1539.8511 Q2523.8423,1539.4409 2523.6372,1538.2983 Q2523.52,1537.5073 2523.1099,1537.0972 Q2522.3774,1536.2769 2521.0298,1535.7788 Q2519.6821,1535.2808 2518.3345,1535.2808 Q2516.6353,1535.2808 2515.229,1536.0132 Q2513.8228,1536.7456 2512.7388,1538.4155 Q2511.6548,1540.0562 2511.6548,1542.312 L2511.6548,1544.7437 Q2511.6548,1547.4683 2513.6177,1549.2847 Q2515.6099,1551.1011 2519.0962,1551.1011 Q2521.1763,1551.1011 2522.6411,1550.5151 Q2523.4614,1550.1929 2524.4282,1549.2261 Q2525.0142,1548.6401 2525.3364,1548.4644 Q2525.6587,1548.2886 2526.0981,1548.2886 Q2526.8306,1548.2886 2527.3872,1548.8745 Q2527.9731,1549.4312 2527.9731,1550.1929 Q2527.9731,1550.9546 2527.2114,1551.8335 Q2526.0981,1553.1226 2524.3403,1553.855 Q2521.9673,1554.8511 2519.1255,1554.8511 Q2515.7856,1554.8511 2513.1196,1553.4741 Q2510.9517,1552.3608 2509.4282,1549.9878 Q2507.9048,1547.6147 2507.9048,1544.8315 L2507.9048,1542.2827 Q2507.9048,1539.353 2509.2524,1536.8335 Q2510.6294,1534.2847 2513.0317,1532.9077 Q2515.4634,1531.5308 2518.188,1531.5308 Q2519.7993,1531.5308 2521.2056,1531.9116 Q2522.6411,1532.2925 2523.8716,1533.0542 Z " fill="#000000"/><text fill="#1F2937" font-family="Calibri" font-size="37.5" lengthAdjust="spacing" textLength="211.4502" x="2551.2847" y="1556.0889">MedicineDAO</text><line style="stroke:#8C98A4;stroke-width:0.9375;" x1="2476.875" x2="2781.3428" y1="1574.8389" y2="1574.8389"/><line style="stroke:#8C98A4;stroke-width:0.9375;" x1="2476.875" x2="2781.3428" y1="1589.8389" y2="1589.8389"/><text fill="#000000" font-family="Calibri" font-size="37.5" lengthAdjust="spacing" textLength="285.7178" x="2486.25" y="1633.7402">+getAllMedicines()</text><text fill="#000000" font-family="Calibri" font-size="37.5" lengthAdjust="spacing" textLength="263.6719" x="2486.25" y="1679.5166">+findByBarcode()</text></g><!--class AIService--><g class="entity" data-qualified-name="Integration.AIService" data-source-line="87" id="ent0017"><rect fill="#FFFFFF" height="231.8555" rx="4.6875" ry="4.6875" style="stroke:#8C98A4;stroke-width:0.9375;" width="332.7722" x="647.8125" y="1874.0625"/><ellipse cx="736.9135" cy="1906.3257" fill="#B4A7E5" rx="22.5" ry="22.5" style="stroke:#181818;stroke-width:1.875;"/><path d="M738.7885,1899.1479 L738.7885,1913.8257 L742.597,1913.8257 Q743.9447,1913.8257 744.5013,1914.353 Q745.0873,1914.8511 745.0873,1915.7007 Q745.0873,1916.521 744.5013,1917.0483 Q743.9447,1917.5757 742.597,1917.5757 L731.2592,1917.5757 Q729.8822,1917.5757 729.2963,1917.0483 Q728.7396,1916.521 728.7396,1915.7007 Q728.7396,1914.8511 729.2963,1914.353 Q729.8822,1913.8257 731.2592,1913.8257 L735.0385,1913.8257 L735.0385,1899.1479 L731.2592,1899.1479 Q729.8822,1899.1479 729.2963,1898.6206 Q728.7396,1898.0933 728.7396,1897.2437 Q728.7396,1896.394 729.2963,1895.896 Q729.8822,1895.3687 731.2592,1895.3687 L742.597,1895.3687 Q743.9447,1895.3687 744.5013,1895.896 Q745.0873,1896.394 745.0873,1897.2437 Q745.0873,1898.0933 744.5013,1898.6206 Q743.9447,1899.1479 742.597,1899.1479 L738.7885,1899.1479 Z " fill="#000000"/><text fill="#1F2937" font-family="Calibri" font-size="37.5" font-style="italic" lengthAdjust="spacing" textLength="137.6953" x="778.1635" y="1919.8389">AIService</text><line style="stroke:#8C98A4;stroke-width:0.9375;" x1="649.6875" x2="978.7097" y1="1938.5889" y2="1938.5889"/><line style="stroke:#8C98A4;stroke-width:0.9375;" x1="649.6875" x2="978.7097" y1="1953.5889" y2="1953.5889"/><text fill="#000000" font-family="Calibri" font-size="37.5" lengthAdjust="spacing" textLength="107.5012" x="659.0625" y="1997.4902">+chat()</text><text fill="#000000" font-family="Calibri" font-size="37.5" lengthAdjust="spacing" textLength="203.4302" x="659.0625" y="2043.2666">+isAvailable()</text><text fill="#000000" font-family="Calibri" font-size="37.5" lengthAdjust="spacing" textLength="310.2722" x="659.0625" y="2089.043">+getProviderName()</text></g><!--class LocalAIService--><g class="entity" data-qualified-name="Integration.LocalAIService" data-source-line="93" id="ent0018"><rect fill="#FFFFFF" height="231.8555" rx="4.6875" ry="4.6875" style="stroke:#8C98A4;stroke-width:0.9375;" width="281.8835" x="673.125" y="2241.5625"/><ellipse cx="703.125" cy="2273.8257" fill="#ADD1B2" rx="22.5" ry="22.5" style="stroke:#181818;stroke-width:1.875;"/><path d="M707.1387,2264.3042 Q707.4902,2263.8354 707.9004,2263.6011 Q708.3105,2263.3374 708.7793,2263.3374 Q709.5996,2263.3374 710.127,2263.9233 Q710.6543,2264.48 710.6543,2265.8276 L710.6543,2269.021 Q710.6543,2270.3687 710.127,2270.9546 Q709.5996,2271.5405 708.7793,2271.5405 Q708.0469,2271.5405 707.5781,2271.1011 Q707.1094,2270.6909 706.9043,2269.5483 Q706.7871,2268.7573 706.377,2268.3472 Q705.6445,2267.5269 704.2969,2267.0288 Q702.9492,2266.5308 701.6016,2266.5308 Q699.9023,2266.5308 698.4961,2267.2632 Q697.0898,2267.9956 696.0059,2269.6655 Q694.9219,2271.3062 694.9219,2273.562 L694.9219,2275.9937 Q694.9219,2278.7183 696.8848,2280.5347 Q698.877,2282.3511 702.3633,2282.3511 Q704.4434,2282.3511 705.9082,2281.7651 Q706.7285,2281.4429 707.6953,2280.4761 Q708.2813,2279.8901 708.6035,2279.7144 Q708.9258,2279.5386 709.3652,2279.5386 Q710.0977,2279.5386 710.6543,2280.1245 Q711.2402,2280.6812 711.2402,2281.4429 Q711.2402,2282.2046 710.4785,2283.0835 Q709.3652,2284.3726 707.6074,2285.105 Q705.2344,2286.1011 702.3926,2286.1011 Q699.0527,2286.1011 696.3867,2284.7241 Q694.2188,2283.6108 692.6953,2281.2378 Q691.1719,2278.8647 691.1719,2276.0815 L691.1719,2273.5327 Q691.1719,2270.603 692.5195,2268.0835 Q693.8965,2265.5347 696.2988,2264.1577 Q698.7305,2262.7808 701.4551,2262.7808 Q703.0664,2262.7808 704.4727,2263.1616 Q705.9082,2263.5425 707.1387,2264.3042 Z " fill="#000000"/><text fill="#1F2937" font-family="Calibri" font-size="37.5" lengthAdjust="spacing" textLength="218.1335" x="731.25" y="2287.3389">LocalAIService</text><line style="stroke:#8C98A4;stroke-width:0.9375;" x1="675" x2="953.1335" y1="2306.0889" y2="2306.0889"/><line style="stroke:#8C98A4;stroke-width:0.9375;" x1="675" x2="953.1335" y1="2321.0889" y2="2321.0889"/><text fill="#000000" font-family="Calibri" font-size="37.5" lengthAdjust="spacing" textLength="217.9688" x="684.375" y="2364.9902">+orchestrate()</text><text fill="#000000" font-family="Calibri" font-size="37.5" lengthAdjust="spacing" textLength="206.2683" x="684.375" y="2410.7666">+loadModel()</text><text fill="#000000" font-family="Calibri" font-size="37.5" lengthAdjust="spacing" textLength="191.1438" x="684.375" y="2456.543">+getHealth()</text></g><!--class WhatsAppService--><g class="entity" data-qualified-name="Integration.WhatsAppService" data-source-line="99" id="ent0019"><rect fill="#FFFFFF" height="140.3027" rx="4.6875" ry="4.6875" style="stroke:#8C98A4;stroke-width:0.9375;" width="404.989" x="176.25" y="1920"/><ellipse cx="239.0376" cy="1952.2632" fill="#ADD1B2" rx="22.5" ry="22.5" style="stroke:#181818;stroke-width:1.875;"/><path d="M243.0513,1942.7417 Q243.4028,1942.2729 243.813,1942.0386 Q244.2231,1941.7749 244.6919,1941.7749 Q245.5122,1941.7749 246.0396,1942.3608 Q246.5669,1942.9175 246.5669,1944.2651 L246.5669,1947.4585 Q246.5669,1948.8062 246.0396,1949.3921 Q245.5122,1949.978 244.6919,1949.978 Q243.9595,1949.978 243.4907,1949.5386 Q243.022,1949.1284 242.8169,1947.9858 Q242.6997,1947.1948 242.2896,1946.7847 Q241.5571,1945.9644 240.2095,1945.4663 Q238.8618,1944.9683 237.5142,1944.9683 Q235.8149,1944.9683 234.4087,1945.7007 Q233.0024,1946.4331 231.9185,1948.103 Q230.8345,1949.7437 230.8345,1951.9995 L230.8345,1954.4312 Q230.8345,1957.1558 232.7974,1958.9722 Q234.7896,1960.7886 238.2759,1960.7886 Q240.356,1960.7886 241.8208,1960.2026 Q242.6411,1959.8804 243.6079,1958.9136 Q244.1938,1958.3276 244.5161,1958.1519 Q244.8384,1957.9761 245.2778,1957.9761 Q246.0103,1957.9761 246.5669,1958.562 Q247.1528,1959.1187 247.1528,1959.8804 Q247.1528,1960.6421 246.3911,1961.521 Q245.2778,1962.8101 243.52,1963.5425 Q241.147,1964.5386 238.3052,1964.5386 Q234.9653,1964.5386 232.2993,1963.1616 Q230.1313,1962.0483 228.6079,1959.6753 Q227.0845,1957.3022 227.0845,1954.519 L227.0845,1951.9702 Q227.0845,1949.0405 228.4321,1946.521 Q229.8091,1943.9722 232.2114,1942.5952 Q234.6431,1941.2183 237.3677,1941.2183 Q238.979,1941.2183 240.3853,1941.5991 Q241.8208,1941.98 243.0513,1942.7417 Z " fill="#000000"/><text fill="#1F2937" font-family="Calibri" font-size="37.5" lengthAdjust="spacing" textLength="268.3777" x="274.4487" y="1965.7764">WhatsAppService</text><line style="stroke:#8C98A4;stroke-width:0.9375;" x1="178.125" x2="579.364" y1="1984.5264" y2="1984.5264"/><line style="stroke:#8C98A4;stroke-width:0.9375;" x1="178.125" x2="579.364" y1="1999.5264" y2="1999.5264"/><text fill="#000000" font-family="Calibri" font-size="37.5" lengthAdjust="spacing" textLength="382.489" x="187.5" y="2043.4277">+sendInvoiceWhatsApp()</text></g><!--class BillItem--><g class="entity" data-qualified-name="Model.BillItem" data-source-line="105" id="ent0021"><rect fill="#FFFFFF" height="277.6318" rx="4.6875" ry="4.6875" style="stroke:#8C98A4;stroke-width:0.9375;" width="270.7361" x="2503.125" y="1851.5625"/><ellipse cx="2573.6909" cy="1883.8257" fill="#ADD1B2" rx="22.5" ry="22.5" style="stroke:#181818;stroke-width:1.875;"/><path d="M2577.7046,1874.3042 Q2578.0562,1873.8354 2578.4663,1873.6011 Q2578.8765,1873.3374 2579.3452,1873.3374 Q2580.1655,1873.3374 2580.6929,1873.9233 Q2581.2202,1874.48 2581.2202,1875.8276 L2581.2202,1879.021 Q2581.2202,1880.3687 2580.6929,1880.9546 Q2580.1655,1881.5405 2579.3452,1881.5405 Q2578.6128,1881.5405 2578.144,1881.1011 Q2577.6753,1880.6909 2577.4702,1879.5483 Q2577.353,1878.7573 2576.9429,1878.3472 Q2576.2104,1877.5269 2574.8628,1877.0288 Q2573.5151,1876.5308 2572.1675,1876.5308 Q2570.4683,1876.5308 2569.062,1877.2632 Q2567.6558,1877.9956 2566.5718,1879.6655 Q2565.4878,1881.3062 2565.4878,1883.562 L2565.4878,1885.9937 Q2565.4878,1888.7183 2567.4507,1890.5347 Q2569.4429,1892.3511 2572.9292,1892.3511 Q2575.0093,1892.3511 2576.4741,1891.7651 Q2577.2944,1891.4429 2578.2612,1890.4761 Q2578.8472,1889.8901 2579.1694,1889.7144 Q2579.4917,1889.5386 2579.9312,1889.5386 Q2580.6636,1889.5386 2581.2202,1890.1245 Q2581.8062,1890.6812 2581.8062,1891.4429 Q2581.8062,1892.2046 2581.0444,1893.0835 Q2579.9312,1894.3726 2578.1733,1895.105 Q2575.8003,1896.1011 2572.9585,1896.1011 Q2569.6187,1896.1011 2566.9526,1894.7241 Q2564.7847,1893.6108 2563.2612,1891.2378 Q2561.7378,1888.8647 2561.7378,1886.0815 L2561.7378,1883.5327 Q2561.7378,1880.603 2563.0854,1878.0835 Q2564.4624,1875.5347 2566.8647,1874.1577 Q2569.2964,1872.7808 2572.021,1872.7808 Q2573.6323,1872.7808 2575.0386,1873.1616 Q2576.4741,1873.5425 2577.7046,1874.3042 Z " fill="#000000"/><text fill="#1F2937" font-family="Calibri" font-size="37.5" lengthAdjust="spacing" textLength="116.8396" x="2610.8306" y="1897.3389">BillItem</text><line style="stroke:#8C98A4;stroke-width:0.9375;" x1="2505" x2="2771.9861" y1="1916.0889" y2="1916.0889"/><text fill="#000000" font-family="Calibri" font-size="37.5" lengthAdjust="spacing" textLength="248.2361" x="2514.375" y="1959.9902">-medicineId : int</text><text fill="#000000" font-family="Calibri" font-size="37.5" lengthAdjust="spacing" textLength="213.5742" x="2514.375" y="2005.7666">-name : String</text><text fill="#000000" font-family="Calibri" font-size="37.5" lengthAdjust="spacing" textLength="128.5767" x="2514.375" y="2051.543">-qty : int</text><text fill="#000000" font-family="Calibri" font-size="37.5" lengthAdjust="spacing" textLength="216.0828" x="2514.375" y="2097.3193">-total : double</text><line style="stroke:#8C98A4;stroke-width:0.9375;" x1="2505" x2="2771.9861" y1="2114.1943" y2="2114.1943"/></g><!--class Customer--><g class="entity" data-qualified-name="Model.Customer" data-source-line="112" id="ent0022"><rect fill="#FFFFFF" height="277.6318" rx="4.6875" ry="4.6875" style="stroke:#8C98A4;stroke-width:0.9375;" width="398.8916" x="3329.0625" y="1851.5625"/><ellipse cx="3445.8765" cy="1883.8257" fill="#ADD1B2" rx="22.5" ry="22.5" style="stroke:#181818;stroke-width:1.875;"/><path d="M3449.8901,1874.3042 Q3450.2417,1873.8354 3450.6519,1873.6011 Q3451.062,1873.3374 3451.5308,1873.3374 Q3452.3511,1873.3374 3452.8784,1873.9233 Q3453.4058,1874.48 3453.4058,1875.8276 L3453.4058,1879.021 Q3453.4058,1880.3687 3452.8784,1880.9546 Q3452.3511,1881.5405 3451.5308,1881.5405 Q3450.7983,1881.5405 3450.3296,1881.1011 Q3449.8608,1880.6909 3449.6558,1879.5483 Q3449.5386,1878.7573 3449.1284,1878.3472 Q3448.396,1877.5269 3447.0483,1877.0288 Q3445.7007,1876.5308 3444.353,1876.5308 Q3442.6538,1876.5308 3441.2476,1877.2632 Q3439.8413,1877.9956 3438.7573,1879.6655 Q3437.6733,1881.3062 3437.6733,1883.562 L3437.6733,1885.9937 Q3437.6733,1888.7183 3439.6362,1890.5347 Q3441.6284,1892.3511 3445.1147,1892.3511 Q3447.1948,1892.3511 3448.6597,1891.7651 Q3449.48,1891.4429 3450.4468,1890.4761 Q3451.0327,1889.8901 3451.355,1889.7144 Q3451.6772,1889.5386 3452.1167,1889.5386 Q3452.8491,1889.5386 3453.4058,1890.1245 Q3453.9917,1890.6812 3453.9917,1891.4429 Q3453.9917,1892.2046 3453.23,1893.0835 Q3452.1167,1894.3726 3450.3589,1895.105 Q3447.9858,1896.1011 3445.144,1896.1011 Q3441.8042,1896.1011 3439.1382,1894.7241 Q3436.9702,1893.6108 3435.4468,1891.2378 Q3433.9233,1888.8647 3433.9233,1886.0815 L3433.9233,1883.5327 Q3433.9233,1880.603 3435.271,1878.0835 Q3436.6479,1875.5347 3439.0503,1874.1577 Q3441.4819,1872.7808 3444.2065,1872.7808 Q3445.8179,1872.7808 3447.2241,1873.1616 Q3448.6597,1873.5425 3449.8901,1874.3042 Z " fill="#000000"/><text fill="#1F2937" font-family="Calibri" font-size="37.5" lengthAdjust="spacing" textLength="148.3887" x="3487.1265" y="1897.3389">Customer</text><line style="stroke:#8C98A4;stroke-width:0.9375;" x1="3330.9375" x2="3726.0791" y1="1916.0889" y2="1916.0889"/><text fill="#000000" font-family="Calibri" font-size="37.5" lengthAdjust="spacing" textLength="252.7405" x="3340.3125" y="1959.9902">-customerId : int</text><text fill="#000000" font-family="Calibri" font-size="37.5" lengthAdjust="spacing" textLength="213.5742" x="3340.3125" y="2005.7666">-name : String</text><text fill="#000000" font-family="Calibri" font-size="37.5" lengthAdjust="spacing" textLength="350.1343" x="3340.3125" y="2051.543">-phoneNumber : String</text><text fill="#000000" font-family="Calibri" font-size="37.5" lengthAdjust="spacing" textLength="376.3916" x="3340.3125" y="2097.3193">-currentBalance : double</text><line style="stroke:#8C98A4;stroke-width:0.9375;" x1="3330.9375" x2="3726.0791" y1="2114.1943" y2="2114.1943"/></g><!--class Medicine--><g class="entity" data-qualified-name="Model.Medicine" data-source-line="119" id="ent0023"><rect fill="#FFFFFF" height="277.6318" rx="4.6875" ry="4.6875" style="stroke:#8C98A4;stroke-width:0.9375;" width="243.0139" x="3795" y="1851.5625"/><ellipse cx="3841.8354" cy="1883.8257" fill="#ADD1B2" rx="22.5" ry="22.5" style="stroke:#181818;stroke-width:1.875;"/><path d="M3845.8491,1874.3042 Q3846.2007,1873.8354 3846.6108,1873.6011 Q3847.021,1873.3374 3847.4897,1873.3374 Q3848.3101,1873.3374 3848.8374,1873.9233 Q3849.3647,1874.48 3849.3647,1875.8276 L3849.3647,1879.021 Q3849.3647,1880.3687 3848.8374,1880.9546 Q3848.3101,1881.5405 3847.4897,1881.5405 Q3846.7573,1881.5405 3846.2886,1881.1011 Q3845.8198,1880.6909 3845.6147,1879.5483 Q3845.4976,1878.7573 3845.0874,1878.3472 Q3844.355,1877.5269 3843.0073,1877.0288 Q3841.6597,1876.5308 3840.312,1876.5308 Q3838.6128,1876.5308 3837.2065,1877.2632 Q3835.8003,1877.9956 3834.7163,1879.6655 Q3833.6323,1881.3062 3833.6323,1883.562 L3833.6323,1885.9937 Q3833.6323,1888.7183 3835.5952,1890.5347 Q3837.5874,1892.3511 3841.0737,1892.3511 Q3843.1538,1892.3511 3844.6187,1891.7651 Q3845.439,1891.4429 3846.4058,1890.4761 Q3846.9917,1889.8901 3847.314,1889.7144 Q3847.6362,1889.5386 3848.0757,1889.5386 Q3848.8081,1889.5386 3849.3647,1890.1245 Q3849.9507,1890.6812 3849.9507,1891.4429 Q3849.9507,1892.2046 3849.189,1893.0835 Q3848.0757,1894.3726 3846.3179,1895.105 Q3843.9448,1896.1011 3841.103,1896.1011 Q3837.7632,1896.1011 3835.0972,1894.7241 Q3832.9292,1893.6108 3831.4058,1891.2378 Q3829.8823,1888.8647 3829.8823,1886.0815 L3829.8823,1883.5327 Q3829.8823,1880.603 3831.23,1878.0835 Q3832.6069,1875.5347 3835.0093,1874.1577 Q3837.4409,1872.7808 3840.1655,1872.7808 Q3841.7769,1872.7808 3843.1831,1873.1616 Q3844.6187,1873.5425 3845.8491,1874.3042 Z " fill="#000000"/><text fill="#1F2937" font-family="Calibri" font-size="37.5" lengthAdjust="spacing" textLength="141.8518" x="3873.7017" y="1897.3389">Medicine</text><line style="stroke:#8C98A4;stroke-width:0.9375;" x1="3796.875" x2="4036.1389" y1="1916.0889" y2="1916.0889"/><text fill="#000000" font-family="Calibri" font-size="37.5" lengthAdjust="spacing" textLength="107.6477" x="3806.25" y="1959.9902">-id : int</text><text fill="#000000" font-family="Calibri" font-size="37.5" lengthAdjust="spacing" textLength="213.5742" x="3806.25" y="2005.7666">-name : String</text><text fill="#000000" font-family="Calibri" font-size="37.5" lengthAdjust="spacing" textLength="159.2468" x="3806.25" y="2051.543">-stock : int</text><text fill="#000000" font-family="Calibri" font-size="37.5" lengthAdjust="spacing" textLength="220.5139" x="3806.25" y="2097.3193">-price : double</text><line style="stroke:#8C98A4;stroke-width:0.9375;" x1="3796.875" x2="4036.1389" y1="2114.1943" y2="2114.1943"/></g><!--class PaymentSplit--><g class="entity" data-qualified-name="Model.PaymentSplit" data-source-line="126" id="ent0024"><rect fill="#FFFFFF" height="231.8555" rx="4.6875" ry="4.6875" style="stroke:#8C98A4;stroke-width:0.9375;" width="422.8784" x="2838.75" y="1874.0625"/><ellipse cx="2940.8057" cy="1906.3257" fill="#ADD1B2" rx="22.5" ry="22.5" style="stroke:#181818;stroke-width:1.875;"/><path d="M2944.8193,1896.8042 Q2945.1709,1896.3354 2945.5811,1896.1011 Q2945.9912,1895.8374 2946.46,1895.8374 Q2947.2803,1895.8374 2947.8076,1896.4233 Q2948.335,1896.98 2948.335,1898.3276 L2948.335,1901.521 Q2948.335,1902.8687 2947.8076,1903.4546 Q2947.2803,1904.0405 2946.46,1904.0405 Q2945.7275,1904.0405 2945.2588,1903.6011 Q2944.79,1903.1909 2944.585,1902.0483 Q2944.4678,1901.2573 2944.0576,1900.8472 Q2943.3252,1900.0269 2941.9775,1899.5288 Q2940.6299,1899.0308 2939.2822,1899.0308 Q2937.583,1899.0308 2936.1768,1899.7632 Q2934.7705,1900.4956 2933.6865,1902.1655 Q2932.6025,1903.8062 2932.6025,1906.062 L2932.6025,1908.4937 Q2932.6025,1911.2183 2934.5654,1913.0347 Q2936.5576,1914.8511 2940.0439,1914.8511 Q2942.124,1914.8511 2943.5889,1914.2651 Q2944.4092,1913.9429 2945.376,1912.9761 Q2945.9619,1912.3901 2946.2842,1912.2144 Q2946.6064,1912.0386 2947.0459,1912.0386 Q2947.7783,1912.0386 2948.335,1912.6245 Q2948.9209,1913.1812 2948.9209,1913.9429 Q2948.9209,1914.7046 2948.1592,1915.5835 Q2947.0459,1916.8726 2945.2881,1917.605 Q2942.915,1918.6011 2940.0732,1918.6011 Q2936.7334,1918.6011 2934.0674,1917.2241 Q2931.8994,1916.1108 2930.376,1913.7378 Q2928.8525,1911.3647 2928.8525,1908.5815 L2928.8525,1906.0327 Q2928.8525,1903.103 2930.2002,1900.5835 Q2931.5771,1898.0347 2933.9795,1896.6577 Q2936.4111,1895.2808 2939.1357,1895.2808 Q2940.7471,1895.2808 2942.1533,1895.6616 Q2943.5889,1896.0425 2944.8193,1896.8042 Z " fill="#000000"/><text fill="#1F2937" font-family="Calibri" font-size="37.5" lengthAdjust="spacing" textLength="201.8921" x="2982.0557" y="1919.8389">PaymentSplit</text><line style="stroke:#8C98A4;stroke-width:0.9375;" x1="2840.625" x2="3259.7534" y1="1938.5889" y2="1938.5889"/><text fill="#000000" font-family="Calibri" font-size="37.5" lengthAdjust="spacing" textLength="385.2722" x="2850" y="1982.4902">-paymentMethod : String</text><text fill="#000000" font-family="Calibri" font-size="37.5" lengthAdjust="spacing" textLength="264.2761" x="2850" y="2028.2666">-amount : double</text><text fill="#000000" font-family="Calibri" font-size="37.5" lengthAdjust="spacing" textLength="400.3784" x="2850" y="2074.043">-referenceNumber : String</text><line style="stroke:#8C98A4;stroke-width:0.9375;" x1="2840.625" x2="3259.7534" y1="2090.918" y2="2090.918"/></g><!--link MediManageApplication to BillingController--><g class="link" data-entity-1="ent0003" data-entity-2="ent0005" data-link-type="dependency" data-source-line="133" id="lnk25"><path codeLine="133" d="M286.875,417.3937 C286.875,466.9313 286.875,510.5812 286.875,561.5438" fill="none" id="MediManageApplication-to-BillingController" style="stroke:#5B6B7A;stroke-width:1.875;"/><polygon fill="#5B6B7A" points="286.875,572.7938,294.375,555.9188,286.875,563.4188,279.375,555.9188,286.875,572.7938" style="stroke:#5B6B7A;stroke-width:1.875;"/></g><!--reverse link BillingController to BillingCheckoutSupport--><g class="link" data-entity-1="ent0005" data-entity-2="ent0006" data-link-type="composition" data-source-line="134" id="lnk26"><path codeLine="134" d="M221.25,965.1375 C221.25,1009.875 221.25,1034.4375 221.25,1076.6438" fill="none" id="BillingController-backto-BillingCheckoutSupport" style="stroke:#5B6B7A;stroke-width:1.875;"/><polygon fill="#5B6B7A" points="221.25,942.6375,213.75,953.8875,221.25,965.1375,228.75,953.8875,221.25,942.6375" style="stroke:#5B6B7A;stroke-width:1.875;"/></g><!--link BillingController to BillingService--><g class="link" data-entity-1="ent0005" data-entity-2="ent0008" data-link-type="dependency" data-source-line="135" id="lnk27"><path codeLine="135" d="M371.25,942.2625 C371.25,1007.9438 371.25,1065.9375 371.25,1065.9375 C371.25,1065.9375 1154.4375,1065.9375 1536.1313,1065.9375" fill="none" id="BillingController-to-BillingService" style="stroke:#5B6B7A;stroke-width:1.875;"/><polygon fill="#5B6B7A" points="1547.3813,1065.9375,1530.5063,1058.4375,1538.0063,1065.9375,1530.5063,1073.4375,1547.3813,1065.9375" style="stroke:#5B6B7A;stroke-width:1.875;"/></g><!--link BillingController to Customer--><g class="link" data-entity-1="ent0005" data-entity-2="ent0022" data-link-type="dependency" data-source-line="136" id="lnk28"><path codeLine="136" d="M529.875,758.4375 C1283.1563,758.4375 3528.75,758.4375 3528.75,758.4375 C3528.75,758.4375 3528.75,1517.9813 3528.75,1840.1438" fill="none" id="BillingController-to-Customer" style="stroke:#5B6B7A;stroke-width:1.875;"/><polygon fill="#5B6B7A" points="3528.75,1851.3938,3536.25,1834.5188,3528.75,1842.0188,3521.25,1834.5188,3528.75,1851.3938" style="stroke:#5B6B7A;stroke-width:1.875;"/></g><!--link BillingController to Medicine--><g class="link" data-entity-1="ent0005" data-entity-2="ent0023" data-link-type="dependency" data-source-line="137" id="lnk29"><path codeLine="137" d="M529.9875,666.5625 C1343.0813,666.5625 3916.875,666.5625 3916.875,666.5625 C3916.875,666.5625 3916.875,1500.0375 3916.875,1839.9" fill="none" id="BillingController-to-Medicine" style="stroke:#5B6B7A;stroke-width:1.875;"/><polygon fill="#5B6B7A" points="3916.875,1851.15,3924.375,1834.275,3916.875,1841.775,3909.375,1834.275,3916.875,1851.15" style="stroke:#5B6B7A;stroke-width:1.875;"/></g><!--link BillingController to BillItem--><g class="link" data-entity-1="ent0005" data-entity-2="ent0021" data-link-type="dependency" data-source-line="138" id="lnk30"><path codeLine="138" d="M57.6563,942.5062 C57.6563,1258.05 57.6563,1866.5625 57.6563,1866.5625 C57.6563,1866.5625 1960.8188,1866.5625 2491.7625,1866.5625" fill="none" id="BillingController-to-BillItem" style="stroke:#5B6B7A;stroke-width:1.875;"/><polygon fill="#5B6B7A" points="2503.0125,1866.5625,2486.1375,1859.0625,2493.6375,1866.5625,2486.1375,1874.0625,2503.0125,1866.5625" style="stroke:#5B6B7A;stroke-width:1.875;"/></g><!--link BillingController to PaymentSplit--><g class="link" data-entity-1="ent0005" data-entity-2="ent0024" data-link-type="dependency" data-source-line="139" id="lnk31"><path codeLine="139" d="M530.025,850.3125 C1232.025,850.3125 3212.3438,850.3125 3212.3438,850.3125 C3212.3438,850.3125 3212.3438,1571.8687 3212.3438,1862.4187" fill="none" id="BillingController-to-PaymentSplit" style="stroke:#5B6B7A;stroke-width:1.875;"/><polygon fill="#5B6B7A" points="3212.3438,1873.6687,3219.8438,1856.7937,3212.3438,1864.2937,3204.8438,1856.7937,3212.3438,1873.6687" style="stroke:#5B6B7A;stroke-width:1.875;"/></g><!--link BillingService to BillDAO--><g class="link" data-entity-1="ent0008" data-entity-2="ent0013" data-link-type="dependency" data-source-line="141" id="lnk32"><path codeLine="141" d="M1947.45,1296.5625 C2085.525,1296.5625 2244.375,1296.5625 2244.375,1296.5625 C2244.375,1296.5625 2244.375,1408.0688 2244.375,1498.2375" fill="none" id="BillingService-to-BillDAO" style="stroke:#5B6B7A;stroke-width:1.875;"/><polygon fill="#5B6B7A" points="2244.375,1509.4875,2251.875,1492.6125,2244.375,1500.1125,2236.875,1492.6125,2244.375,1509.4875" style="stroke:#5B6B7A;stroke-width:1.875;"/></g><!--link BillingService to CustomerDAO--><g class="link" data-entity-1="ent0008" data-entity-2="ent0014" data-link-type="dependency" data-source-line="142" id="lnk33"><path codeLine="142" d="M1947.5438,1135.3125 C2302.5375,1135.3125 3005.625,1135.3125 3005.625,1135.3125 C3005.625,1135.3125 3005.625,1362.4688 3005.625,1498.8938" fill="none" id="BillingService-to-CustomerDAO" style="stroke:#5B6B7A;stroke-width:1.875;"/><polygon fill="#5B6B7A" points="3005.625,1510.1438,3013.125,1493.2688,3005.625,1500.7688,2998.125,1493.2688,3005.625,1510.1438" style="stroke:#5B6B7A;stroke-width:1.875;"/></g><!--link BillingService to MedicineDAO--><g class="link" data-entity-1="ent0008" data-entity-2="ent0015" data-link-type="dependency" data-source-line="143" id="lnk34"><path codeLine="143" d="M1947.4688,1215.9375 C2207.475,1215.9375 2628.75,1215.9375 2628.75,1215.9375 C2628.75,1215.9375 2628.75,1384.0688 2628.75,1498.65" fill="none" id="BillingService-to-MedicineDAO" style="stroke:#5B6B7A;stroke-width:1.875;"/><polygon fill="#5B6B7A" points="2628.75,1509.9,2636.25,1493.025,2628.75,1500.525,2621.25,1493.025,2628.75,1509.9" style="stroke:#5B6B7A;stroke-width:1.875;"/></g><!--link BillingService to ReportService--><g class="link" data-entity-1="ent0008" data-entity-2="ent0009" data-link-type="dependency" data-source-line="144" id="lnk35"><path codeLine="144" d="M1547.7938,1369.6875 C1418.85,1369.6875 1275,1369.6875 1275,1369.6875 C1275,1369.6875 1275,1452.4875 1275,1521.2063" fill="none" id="BillingService-to-ReportService" style="stroke:#5B6B7A;stroke-width:1.875;"/><polygon fill="#5B6B7A" points="1275,1532.4563,1282.5,1515.5813,1275,1523.0813,1267.5,1515.5813,1275,1532.4563" style="stroke:#5B6B7A;stroke-width:1.875;"/></g><!--link BillingService to LoyaltyService--><g class="link" data-entity-1="ent0008" data-entity-2="ent0010" data-link-type="dependency" data-source-line="145" id="lnk36"><path codeLine="145" d="M1747.5,1377.3375 C1747.5,1422.5625 1747.5,1458.975 1747.5,1498.7813" fill="none" id="BillingService-to-LoyaltyService" style="stroke:#5B6B7A;stroke-width:1.875;"/><polygon fill="#5B6B7A" points="1747.5,1510.0313,1755,1493.1563,1747.5,1500.6563,1740,1493.1563,1747.5,1510.0313" style="stroke:#5B6B7A;stroke-width:1.875;"/></g><!--link BillingService to AIOrchestrator--><g class="link" data-entity-1="ent0008" data-entity-2="ent0011" data-link-type="dependency" data-source-line="146" id="lnk37"><path codeLine="146" d="M1547.2688,1362.1875 C1277.9813,1362.1875 832.5,1362.1875 832.5,1362.1875 C832.5,1362.1875 832.5,1430.925 832.5,1498.725" fill="none" id="BillingService-to-AIOrchestrator" style="stroke:#5B6B7A;stroke-width:1.875;"/><polygon fill="#5B6B7A" points="832.5,1509.975,840,1493.1,832.5,1500.6,825,1493.1,832.5,1509.975" style="stroke:#5B6B7A;stroke-width:1.875;"/></g><!--link AIOrchestrator to AIService--><g class="link" data-entity-1="ent0011" data-entity-2="ent0017" data-link-type="dependency" data-source-line="148" id="lnk38"><path codeLine="148" d="M813.75,1696.35 C813.75,1749.6188 813.75,1805.625 813.75,1862.3625" fill="none" id="AIOrchestrator-to-AIService" style="stroke:#5B6B7A;stroke-width:1.875;"/><polygon fill="#5B6B7A" points="813.75,1873.6125,821.25,1856.7375,813.75,1864.2375,806.25,1856.7375,813.75,1873.6125" style="stroke:#5B6B7A;stroke-width:1.875;"/></g><!--reverse link AIService to LocalAIService--><g class="link" data-entity-1="ent0017" data-entity-2="ent0018" data-link-type="extension" data-source-line="149" id="lnk39"><path codeLine="149" d="M813.75,2140.35 C813.75,2183.2313 813.75,2198.0812 813.75,2241.0375" fill="none" id="AIService-backto-LocalAIService" style="stroke:#5B6B7A;stroke-width:1.875;stroke-dasharray:13.125,13.125;"/><polygon fill="none" points="813.75,2106.6,802.5,2140.35,825,2140.35,813.75,2106.6" style="stroke:#5B6B7A;stroke-width:1.875;"/></g><!--link BillingCheckoutSupport to WhatsAppService--><g class="link" data-entity-1="ent0006" data-entity-2="ent0019" data-link-type="dependency" data-source-line="150" id="lnk40"><path codeLine="150" d="M348.75,1355.2688 C348.75,1521.3938 348.75,1781.2875 348.75,1908.7125" fill="none" id="BillingCheckoutSupport-to-WhatsAppService" style="stroke:#5B6B7A;stroke-width:1.875;stroke-dasharray:13.125,13.125;"/><polygon fill="#5B6B7A" points="348.75,1919.9625,356.25,1903.0875,348.75,1910.5875,341.25,1903.0875,348.75,1919.9625" style="stroke:#5B6B7A;stroke-width:1.875;"/></g><!--link BillDAO to BillItem--><g class="link" data-entity-1="ent0013" data-entity-2="ent0021" data-link-type="dependency" data-source-line="151" id="lnk41"><path codeLine="151" d="M2244.375,1696.2563 C2244.375,1769.4188 2244.375,1859.0625 2244.375,1859.0625 C2244.375,1859.0625 2377.4625,1859.0625 2491.3688,1859.0625" fill="none" id="BillDAO-to-BillItem" style="stroke:#5B6B7A;stroke-width:1.875;"/><polygon fill="#5B6B7A" points="2502.6188,1859.0625,2485.7438,1851.5625,2493.2438,1859.0625,2485.7438,1866.5625,2502.6188,1859.0625" style="stroke:#5B6B7A;stroke-width:1.875;"/></g><?plantuml-src XLNVRzis47xNNq5qBzq21qkQDcvG590T6pEGD4PTOC-qU9Q9qAH6dfovNVktxoYHiYJBhHyC-txVTyVltBFK1RTyfqps38A9GhAhyP-9wyjXmqk5SwFn4zy1ct8brrR-p6ublmAxFWsLMcjU6eEhyOd1Qik5UP4wPnkk72He2eQ6hGsYsJ4XBMGeZJxwCTVpE6eonPrB4QrSbmYBpEWgQwigfgG6F1J0ZCMjQIaAdZtp75PuKC1yKgvprGvUTJ8robZsszl9kybjsi_ClYMCJIXERasfHR2TLn-lCLQ03TBnzFqulI6fnoR8hkRNxz_S9jzFgweZj_tJsMGylJxZdqItLnDZqA7bnIigvCtyPlwk2bMN-mX2Fd9DXcbHA9bn3tIbP-p28RVuchvp-BsIZAIMA6aJli8zHxxc3bu7JMMxF12WUWLs3xQZUCoA82qgazc_q5R_lUNeg829bIAlGtxlz32b3grH2YmrCKkfYNchYObKDDFyQ1GQ6Ar9yI0TiZlsj7PK05yhy8AG6nGD6SIqTBHev7R7ui-kWKSfewqXW_YpHkY8HsntoxLGa0hH5Kota3sR4aDl9wK7zQei2jhAKFyFjpKlAneBtbCIauUGbNXf74QlhdPTIYMM_B03ZOz6nCf-xAbEmH6gW5yCSZK0j9-IpC2ZF9lVpj9Jb8D5t14k6dH2eekCgwnKbEcOXAGvQB0ad78BIslGPARHPMPNAC0kIdu1DI-eMLmWx5mVki_WeUgL4xCizDwGU2asVRS7S-0A3ps_fkRqXLknD5AZErQEdq70hl1luylM0fMaH3zkkdYosHRyIqCJD_2Yi2O3vuug2X7ZIlTWA6-wvrBvnHmOnnAietK5NOs4EEHczhOtallqwKpp3OfyVufwg_Auywr83ZXL71Kn4Csw8sh5Y3lGgGPJfQAYGNCZjPWS9XG_xcQtvOL6o6kWAiAQZSDRfv60tN2QMRheJu_uuuXg5z2w4kfzBuaw_IqxtGW_XNvCquoiYQCC5_v5jNOQ_mBQfcq_P2IqNam7MeJXH8i11AeKzRY9pdlZzayXqjikOBiGH4m4JotL_bpViHMTG9tNed_mqBP0_ov984n9A0qlGyoHXV-_p54GhSEdShUkUBIjoKfhYOicN77QupDv6ueDUUMlyb5PsNFRfh3oRFH0XnNrnGn5e4YWWoHwmVcEhZUsWv7GmWQiVugdNLO37Bwbez77qmELd9wiFqQZCzTWmBWLDApO6QFcdWshcsjsFeLVk3FgDgf9qhiFqPyOOKZL8fqXTOjFXjGTxXyowBBya4MNhvEanz-rIVG_iiE7_oulUuoHd3dYbvSV-qIGHCPke_i_?></g></svg>