<?plantuml 1.2026.2?><svg xmlns="http://www.w3.org/2000/svg" xmlns:xlink="http://www.w3.org/1999/xlink" contentStyleType="text/css" data-diagram-type="CLASS" height="693.75px" preserveAspectRatio="none" style="width:1835px;height:693px;background:#FFFFFF;" version="1.1" viewBox="0 0 1835 693" width="1835.625px" zoomAndPan="magnify"><defs/><g><!--cluster Actors--><g class="cluster" data-qualified-name="Actors" data-source-line="19" id="ent0002"><rect fill="#FFF8E8" height="193.125" rx="4.6875" ry="4.6875" style="stroke:#AEB8C2;stroke-width:2.8125;" width="198.75" x="1482.5063" y="14.0625"/><text fill="#1F2937" font-family="Calibri" font-size="37.5" font-weight="bold" lengthAdjust="spacing" textLength="99.8657" x="1531.9484" y="54.2139">Actors</text></g><!--cluster Desktop App--><g class="cluster" data-qualified-name="Desktop App" data-source-line="23" id="ent0004"><rect fill="#EAF4FF" height="431.25" rx="4.6875" ry="4.6875" style="stroke:#AEB8C2;stroke-width:2.8125;" width="723.75" x="713.7563" y="14.0625"/><text fill="#1F2937" font-family="Calibri" font-size="37.5" font-weight="bold" lengthAdjust="spacing" textLength="200.2075" x="975.5275" y="54.2139">Desktop App</text></g><!--cluster AI Layer--><g class="cluster" data-qualified-name="AI Layer" data-source-line="29" id="ent0008"><rect fill="#EEF7EA" height="431.25" rx="4.6875" ry="4.6875" style="stroke:#AEB8C2;stroke-width:2.8125;" width="315" x="16.2563" y="252.1875"/><text fill="#1F2937" font-family="Calibri" font-size="37.5" font-weight="bold" lengthAdjust="spacing" textLength="125.5371" x="110.9877" y="292.3389">AI Layer</text></g><!--cluster Persistence--><g class="cluster" data-qualified-name="Persistence" data-source-line="34" id="ent0011"><rect fill="#FFF4E5" height="431.25" rx="4.6875" ry="4.6875" style="stroke:#AEB8C2;stroke-width:2.8125;" width="206.25" x="419.3812" y="252.1875"/><text fill="#1F2937" font-family="Calibri" font-size="37.5" font-weight="bold" lengthAdjust="spacing" textLength="177.8687" x="433.5719" y="292.3389">Persistence</text></g><!--cluster Outcome--><g class="cluster" data-qualified-name="Outcome" data-source-line="39" id="ent0014"><rect fill="#F3E8FF" height="193.125" rx="4.6875" ry="4.6875" style="stroke:#AEB8C2;stroke-width:2.8125;" width="236.25" x="745.6313" y="490.3125"/><text fill="#1F2937" font-family="Calibri" font-size="37.5" font-weight="bold" lengthAdjust="spacing" textLength="143.7195" x="791.8965" y="530.4639">Outcome</text></g><g class="entity" data-qualified-name="Actors.Cashier" data-source-line="20" id="ent0003"><rect fill="#FFFFFF" height="83.2764" rx="4.6875" ry="4.6875" style="stroke:#8C98A4;stroke-width:0.9375;" width="138.9148" x="1512.5063" y="94.6875"/><text fill="#1F2937" font-family="Calibri" font-size="37.5" lengthAdjust="spacing" textLength="112.6648" x="1525.6313" y="134.8389">Cashier</text><line style="stroke:#8C98A4;stroke-width:0.9375;" x1="1514.3813" x2="1649.546" y1="147.9639" y2="147.9639"/></g><g class="entity" data-qualified-name="Desktop App.BC" data-source-line="24" id="ent0005"><rect fill="#FFFFFF" height="83.2764" rx="4.6875" ry="4.6875" style="stroke:#8C98A4;stroke-width:0.9375;" width="272.2522" x="1134.6938" y="332.8125"/><text fill="#1F2937" font-family="Calibri" font-size="37.5" lengthAdjust="spacing" textLength="246.0022" x="1147.8188" y="372.9639">BillingController</text><line style="stroke:#8C98A4;stroke-width:0.9375;" x1="1136.5688" x2="1405.0709" y1="386.0889" y2="386.0889"/></g><g class="entity" data-qualified-name="Desktop App.BS" data-source-line="25" id="ent0006"><rect fill="#FFFFFF" height="83.2764" rx="4.6875" ry="4.6875" style="stroke:#8C98A4;stroke-width:0.9375;" width="227.4463" x="750.3188" y="94.6875"/><text fill="#1F2937" font-family="Calibri" font-size="37.5" lengthAdjust="spacing" textLength="201.1963" x="763.4438" y="134.8389">BillingService</text><line style="stroke:#8C98A4;stroke-width:0.9375;" x1="752.1938" x2="975.89" y1="147.9639" y2="147.9639"/></g><g class="entity" data-qualified-name="Desktop App.RS" data-source-line="26" id="ent0007"><rect fill="#FFFFFF" height="83.2764" rx="4.6875" ry="4.6875" style="stroke:#8C98A4;stroke-width:0.9375;" width="239.4031" x="743.7563" y="332.8125"/><text fill="#1F2937" font-family="Calibri" font-size="37.5" lengthAdjust="spacing" textLength="213.1531" x="756.8813" y="372.9639">ReportService</text><line style="stroke:#8C98A4;stroke-width:0.9375;" x1="745.6313" x2="981.2843" y1="386.0889" y2="386.0889"/></g><g class="entity" data-qualified-name="AI Layer.AI" data-source-line="30" id="ent0009"><rect fill="#FFFFFF" height="83.2764" rx="4.6875" ry="4.6875" style="stroke:#8C98A4;stroke-width:0.9375;" width="253.1909" x="47.1938" y="332.8125"/><text fill="#1F2937" font-family="Calibri" font-size="37.5" lengthAdjust="spacing" textLength="226.9409" x="60.3188" y="372.9639">AIOrchestrator</text><line style="stroke:#8C98A4;stroke-width:0.9375;" x1="49.0688" x2="298.5097" y1="386.0889" y2="386.0889"/></g><g class="entity" data-qualified-name="AI Layer.LAS" data-source-line="31" id="ent0010"><rect fill="#FFFFFF" height="83.2764" rx="4.6875" ry="4.6875" style="stroke:#8C98A4;stroke-width:0.9375;" width="244.3835" x="51.8813" y="570.9375"/><text fill="#1F2937" font-family="Calibri" font-size="37.5" lengthAdjust="spacing" textLength="218.1335" x="65.0063" y="611.0889">LocalAIService</text><line style="stroke:#8C98A4;stroke-width:0.9375;" x1="53.7563" x2="294.3898" y1="624.2139" y2="624.2139"/></g><g class="entity" data-qualified-name="Persistence.DAO" data-source-line="35" id="ent0012"><rect fill="#FFFFFF" height="83.2764" rx="4.6875" ry="4.6875" style="stroke:#8C98A4;stroke-width:0.9375;" width="142.0642" x="451.2562" y="332.8125"/><text fill="#1F2937" font-family="Calibri" font-size="37.5" lengthAdjust="spacing" textLength="115.8142" x="464.3812" y="372.9639">BillDAO</text><line style="stroke:#8C98A4;stroke-width:0.9375;" x1="453.1312" x2="591.4455" y1="386.0889" y2="386.0889"/></g><g class="entity" data-qualified-name="Persistence.DB" data-source-line="36" id="ent0013"><rect fill="#FFFFFF" height="83.2764" rx="4.6875" ry="4.6875" style="stroke:#8C98A4;stroke-width:0.9375;" width="124.303" x="460.6312" y="570.9375"/><text fill="#1F2937" font-family="Calibri" font-size="37.5" lengthAdjust="spacing" textLength="98.053" x="473.7562" y="611.0889">SQLite</text><line style="stroke:#8C98A4;stroke-width:0.9375;" x1="462.5062" x2="583.0592" y1="624.2139" y2="624.2139"/></g><g class="entity" data-qualified-name="Outcome.Customer" data-source-line="40" id="ent0015"><rect fill="#FFFFFF" height="83.2764" rx="4.6875" ry="4.6875" style="stroke:#8C98A4;stroke-width:0.9375;" width="174.6387" x="776.5688" y="570.9375"/><text fill="#1F2937" font-family="Calibri" font-size="37.5" lengthAdjust="spacing" textLength="148.3887" x="789.6938" y="611.0889">Customer</text><line style="stroke:#8C98A4;stroke-width:0.9375;" x1="778.4438" x2="949.3324" y1="624.2139" y2="624.2139"/></g><!--link AI to RS--><!--link RS to DAO--><!--link Cashier to BC--><g class="link" data-entity-1="ent0003" data-entity-2="ent0005" data-link-type="dependency" data-source-line="49" id="lnk18"><path codeLine="49" d="M1581.8813,177.4125 C1581.8813,245.6437 1581.8813,374.0625 1581.8813,374.0625 C1581.8813,374.0625 1502.025,374.0625 1418.4,374.0625" fill="none" id="Cashier-to-BC" style="stroke:#5B6B7A;stroke-width:1.875;"/><polygon fill="#5B6B7A" points="1407.15,374.0625,1424.025,381.5625,1416.525,374.0625,1424.025,366.5625,1407.15,374.0625" style="stroke:#5B6B7A;stroke-width:1.875;"/><text fill="#000000" font-family="Calibri" font-size="33.75" lengthAdjust="spacing" textLength="238.1946" x="1583.7563" y="354.6237">checkout request</text></g><!--link BC to BS--><g class="link" data-entity-1="ent0005" data-entity-2="ent0006" data-link-type="dependency" data-source-line="50" id="lnk19"><path codeLine="50" d="M1315.95,332.5688 C1315.95,261.2063 1315.95,122.8125 1315.95,122.8125 C1315.95,122.8125 1122.4688,122.8125 988.5375,122.8125" fill="none" id="BC-to-BS" style="stroke:#5B6B7A;stroke-width:1.875;"/><polygon fill="#5B6B7A" points="977.2875,122.8125,994.1625,130.3125,986.6625,122.8125,994.1625,115.3125,977.2875,122.8125" style="stroke:#5B6B7A;stroke-width:1.875;"/><text fill="#000000" font-family="Calibri" font-size="33.75" lengthAdjust="spacing" textLength="262.2711" x="988.9875" y="114.3237">complete checkout</text></g><!--link BS to BC--><g class="link" data-entity-1="ent0006" data-entity-2="ent0005" data-link-type="dependency" data-source-line="53" id="lnk20"><path codeLine="53" d="M977.6625,150.9375 C1083.6375,150.9375 1225.3125,150.9375 1225.3125,150.9375 C1225.3125,150.9375 1225.3125,256.8375 1225.3125,321.375" fill="none" id="BS-to-BC" style="stroke:#5B6B7A;stroke-width:1.875;stroke-dasharray:13.125,13.125;"/><polygon fill="#5B6B7A" points="1225.3125,332.625,1232.8125,315.75,1225.3125,323.25,1217.8125,315.75,1225.3125,332.625" style="stroke:#5B6B7A;stroke-width:1.875;"/><text fill="#000000" font-family="Calibri" font-size="33.75" lengthAdjust="spacing" textLength="173.2654" x="1017.9563" y="185.5737">return result</text></g><!--link BS to RS--><g class="link" data-entity-1="ent0006" data-entity-2="ent0007" data-link-type="dependency" data-source-line="55" id="lnk21"><path codeLine="55" d="M863.7563,177.4125 C863.7563,220.8563 863.7563,277.4438 863.7563,321.0188" fill="none" id="BS-to-RS" style="stroke:#5B6B7A;stroke-width:1.875;"/><polygon fill="#5B6B7A" points="863.7563,332.2688,871.2563,315.3938,863.7563,322.8938,856.2563,315.3938,863.7563,332.2688" style="stroke:#5B6B7A;stroke-width:1.875;"/><text fill="#000000" font-family="Calibri" font-size="33.75" lengthAdjust="spacing" textLength="153.9185" x="708.1313" y="246.3425">render PDF</text></g><!--link RS to Customer--><g class="link" data-entity-1="ent0007" data-entity-2="ent0015" data-link-type="dependency" data-source-line="56" id="lnk22"><path codeLine="56" d="M863.7563,415.5375 C863.7563,458.9812 863.7563,515.5688 863.7563,559.1438" fill="none" id="RS-to-Customer" style="stroke:#5B6B7A;stroke-width:1.875;"/><polygon fill="#5B6B7A" points="863.7563,570.3938,871.2563,553.5188,863.7563,561.0188,856.2563,553.5188,863.7563,570.3938" style="stroke:#5B6B7A;stroke-width:1.875;"/><text fill="#000000" font-family="Calibri" font-size="33.75" lengthAdjust="spacing" textLength="198.7756" x="663.1313" y="484.4675">deliver invoice</text></g><!--link BS to AI--><g class="link" data-entity-1="ent0006" data-entity-2="ent0009" data-link-type="dependency" data-source-line="60" id="lnk23"><path codeLine="60" d="M749.8125,122.8125 C553.8375,122.8125 173.7563,122.8125 173.7563,122.8125 C173.7563,122.8125 173.7563,249.9563 173.7563,321.3188" fill="none" id="BS-to-AI" style="stroke:#5B6B7A;stroke-width:1.875;"/><polygon fill="#5B6B7A" points="173.7563,332.5688,181.2563,315.6938,173.7563,323.1938,166.2563,315.6938,173.7563,332.5688" style="stroke:#5B6B7A;stroke-width:1.875;"/><text fill="#000000" font-family="Calibri" font-size="33.75" lengthAdjust="spacing" textLength="194.5569" x="161.9063" y="114.3237">orchestrate AI</text></g><!--link AI to LAS--><g class="link" data-entity-1="ent0009" data-entity-2="ent0010" data-link-type="dependency" data-source-line="61" id="lnk24"><path codeLine="61" d="M133.125,415.5375 C133.125,458.9812 133.125,515.5688 133.125,559.1438" fill="none" id="AI-to-LAS" style="stroke:#5B6B7A;stroke-width:1.875;"/><polygon fill="#5B6B7A" points="133.125,570.3938,140.625,553.5188,133.125,561.0188,125.625,553.5188,133.125,570.3938" style="stroke:#5B6B7A;stroke-width:1.875;"/><text fill="#000000" font-family="Calibri" font-size="33.75" lengthAdjust="spacing" textLength="119.2126" x="13.125" y="484.4675">delegate</text></g><!--link BS to DAO--><g class="link" data-entity-1="ent0006" data-entity-2="ent0012" data-link-type="dependency" data-source-line="63" id="lnk25"><path codeLine="63" d="M750.1313,150.9375 C650.85,150.9375 522.5063,150.9375 522.5063,150.9375 C522.5063,150.9375 522.5063,256.8375 522.5063,321.375" fill="none" id="BS-to-DAO" style="stroke:#5B6B7A;stroke-width:1.875;"/><polygon fill="#5B6B7A" points="522.5063,332.625,530.0063,315.75,522.5063,323.25,515.0063,315.75,522.5063,332.625" style="stroke:#5B6B7A;stroke-width:1.875;"/><text fill="#000000" font-family="Calibri" font-size="33.75" lengthAdjust="spacing" textLength="166.3605" x="378.6" y="142.4487">save invoice</text></g><!--link DAO to DB--><g class="link" data-entity-1="ent0012" data-entity-2="ent0013" data-link-type="dependency" data-source-line="64" id="lnk26"><path codeLine="64" d="M522.5063,415.5375 C522.5063,458.9812 522.5063,515.5688 522.5063,559.1438" fill="none" id="DAO-to-DB" style="stroke:#5B6B7A;stroke-width:1.875;"/><polygon fill="#5B6B7A" points="522.5063,570.3938,530.0063,553.5188,522.5063,561.0188,515.0063,553.5188,522.5063,570.3938" style="stroke:#5B6B7A;stroke-width:1.875;"/><text fill="#000000" font-family="Calibri" font-size="33.75" lengthAdjust="spacing" textLength="153.2758" x="368.7562" y="484.4675">persist sale</text></g><?plantuml-src VLHDRzim3BtxLn3fOPUcMBzMjuS2jcC30RAbYuTTXXqKcx6rA98doIdIOVzzbEoaJeCkbyXyr1FvdaIpvh9Xccs4AjPOGjbmk0m_1kPj75Ui5JPJqdvX6uI42RxK_7zvENz1k3gbYhHMpuU4o_0a8QzPgPwvh635XC5N7CoxICEADQimjpk1eB6mJ5PYc22uHBjh49IsjHe0KfLei85Xqw2PN9y4VU694ah3sMtyARwBWW6gbh_eMFWJ0CHKJALLAyi-E_C_XoXTekwZON8VHZSKTMBqiSliwlxwBlWRdFRMKGy9eZGEawlt2FRRHb5XbJOZNqQOXfwdhtQKC5Dpr2DW1lhrqTu9chLL3KHDGmHfbDrasH51p0L9MoLKWLP2z5HnSfgIezxo0Ziy7-0BRCYK8Rp8ZnkOmepj7FLPccPtQNHKGJITww96OpMZFlt-Q3h0PwfW8feE-MVHyG5Fg0qt5gN3dKmtwUr9bvDexZVJ_m39lywuxLWdyH7flBM5sdZ2wpHy8rlI6ajWBtp_uRP_WF5u33bVEibWxjo6LAwKBd23qZgKShxLt43Don8bw9Qkl4zmZODLO6i4WIjx3aVI0fSUAeW7zJamMSAWy_rEpQlQ1iGq_j6TyDD7ne_EbaL-6dQ2z7L_PdJ6TzIMa-QGD_JeVCNzrQBr8zqDU00oh5Yhrj9R_TsITm55FPWxK6qQWHOFMOv-WRRL4fXxXAxT3REMXWN9nw1KVktUE3IAI-kqMv8Hq3O1KLvSzCVgZaIZeI4LE6Zi-_AGT5e_JJBV98NtjX1Oek1RMd6vLQJaljq9PvMIr6bC0yFTmTwUU0U6Km-xrsfeRibpho_AojKf6PN21EKODz6CmpRUDc-C5nVs5P8R3pIvzjSStGrt3X54Txah42i23ZsHAHGsR8k7ebt8Gp4XJMSyPT2O_0S0?></g></svg>