<?plantuml 1.2026.2?><svg xmlns="http://www.w3.org/2000/svg" xmlns:xlink="http://www.w3.org/1999/xlink" contentStyleType="text/css" data-diagram-type="DESCRIPTION" height="2105.625px" preserveAspectRatio="none" style="width:1665px;height:2105px;background:#FFFFFF;" version="1.1" viewBox="0 0 1665 2105" width="1665px" zoomAndPan="magnify"><defs/><g><!--cluster WS--><g class="cluster" data-qualified-name="WS" data-source-line="21" id="ent0002"><polygon fill="#EAF4FF" points="34.6875,30,53.4375,11.25,1633.125,11.25,1633.125,1177.5,1614.375,1196.25,34.6875,1196.25,34.6875,30" style="stroke:#AEB8C2;stroke-width:1.875;"/><line style="stroke:#AEB8C2;stroke-width:1.875;" x1="1614.375" x2="1633.125" y1="30" y2="11.25"/><line style="stroke:#AEB8C2;stroke-width:1.875;" x1="34.6875" x2="1614.375" y1="30" y2="30"/><line style="stroke:#AEB8C2;stroke-width:1.875;" x1="1614.375" x2="1614.375" y1="30" y2="1196.25"/><text fill="#1F2937" font-family="Calibri" font-size="37.5" font-weight="bold" lengthAdjust="spacing" textLength="349.4202" x="651.6962" y="72.0264">Windows Workstation</text></g><!--cluster Desktop--><g class="cluster" data-qualified-name="WS.Desktop" data-source-line="22" id="ent0003"><polygon fill="#EAF4FF" points="79.6875,960,98.4375,941.25,1128.75,941.25,1128.75,1132.5,1110,1151.25,79.6875,1151.25,79.6875,960" style="stroke:#AEB8C2;stroke-width:1.875;"/><line style="stroke:#AEB8C2;stroke-width:1.875;" x1="1110" x2="1128.75" y1="960" y2="941.25"/><line style="stroke:#AEB8C2;stroke-width:1.875;" x1="79.6875" x2="1110" y1="960" y2="960"/><line style="stroke:#AEB8C2;stroke-width:1.875;" x1="1110" x2="1110" y1="960" y2="1151.25"/><text fill="#1F2937" font-family="Calibri" font-size="37.5" font-weight="bold" lengthAdjust="spacing" textLength="275.8667" x="458.7854" y="1002.0264">Java Desktop App</text></g><!--cluster PythonSidecar--><g class="cluster" data-qualified-name="WS.PythonSidecar" data-source-line="29" id="ent0007"><polygon fill="#EEF7EA" points="623.4375,135,642.1875,116.25,1588.125,116.25,1588.125,553.125,1569.375,571.875,623.4375,571.875,623.4375,135" style="stroke:#AEB8C2;stroke-width:1.875;"/><line style="stroke:#AEB8C2;stroke-width:1.875;" x1="1569.375" x2="1588.125" y1="135" y2="116.25"/><line style="stroke:#AEB8C2;stroke-width:1.875;" x1="623.4375" x2="1569.375" y1="135" y2="135"/><line style="stroke:#AEB8C2;stroke-width:1.875;" x1="1569.375" x2="1569.375" y1="135" y2="571.875"/><text fill="#1F2937" font-family="Calibri" font-size="37.5" font-weight="bold" lengthAdjust="spacing" textLength="233.075" x="981.7438" y="177.0264">Python Sidecar</text></g><!--cluster NodeSidecar--><g class="cluster" data-qualified-name="WS.NodeSidecar" data-source-line="35" id="ent0011"><polygon fill="#F3E8FF" points="663.75,660,682.5,641.25,1091.25,641.25,1091.25,877.5,1072.5,896.25,663.75,896.25,663.75,660" style="stroke:#AEB8C2;stroke-width:1.875;"/><line style="stroke:#AEB8C2;stroke-width:1.875;" x1="1072.5" x2="1091.25" y1="660" y2="641.25"/><line style="stroke:#AEB8C2;stroke-width:1.875;" x1="663.75" x2="1072.5" y1="660" y2="660"/><line style="stroke:#AEB8C2;stroke-width:1.875;" x1="1072.5" x2="1072.5" y1="660" y2="896.25"/><text fill="#1F2937" font-family="Calibri" font-size="37.5" font-weight="bold" lengthAdjust="spacing" textLength="240.3625" x="749.8187" y="702.0264">Node.js Sidecar</text></g><!--cluster External Services--><g class="cluster" data-qualified-name="External Services" data-source-line="40" id="ent0013"><path d="M1219.296,1256.8533 C1234.5582,1233.3025 1257.0459,1233.3862 1273.2306,1255.7701 C1292.9089,1219.078 1319.6765,1224.9419 1342.3328,1252.5707 C1353.0135,1220.9967 1371.4855,1221.5223 1393.6319,1241.0637 C1413.055,1208.5242 1446.0873,1213.6798 1460.5022,1246.2106 C1481.0042,1224.0445 1504.3026,1226.4085 1514.5997,1256.7287 C1543.2281,1222.6208 1569.3639,1232.5825 1585.3125,1269.375 C1589.8318,1267.6331 1593.5005,1269.4902 1592.9265,1274.8419 C1614.9906,1291.6735 1618.341,1312.3244 1590.399,1326.7197 C1614.7844,1344.1139 1621.5341,1363.2323 1592.0592,1382.2372 C1621.2592,1395.1902 1623.0801,1417.3895 1596.8808,1435.3698 C1618.1916,1456.0903 1621.3638,1474.5629 1591.5512,1490.3255 C1617.7417,1503.9213 1625.0342,1525.8067 1597.6191,1545.3175 C1625.2618,1563.1763 1624.0465,1583.5781 1598.0456,1601.8418 C1621.204,1617.5836 1624.4383,1637.0189 1600.1485,1654.6502 C1621.7963,1673.2731 1621.9665,1692.9264 1598.0084,1709.7789 C1619.7746,1725.9505 1624.1375,1746.0902 1596.3668,1760.6637 C1626.5525,1776.6833 1624.8183,1803.2683 1594.7638,1817.5916 C1617.1059,1834.3308 1618.8187,1858.2167 1592.5457,1873.0102 C1614.87,1884.6101 1620.2436,1909.4293 1596.6007,1924.6397 C1623.6675,1947.5516 1618.9326,1964.5651 1590.5606,1981.598 C1617.2882,2011.4497 1606.8833,2030.7458 1572.1875,2041.875 C1578.5105,2041.5314 1580.6427,2044.1388 1578.2598,2050.169 C1559.0304,2080.4678 1532.579,2077.8832 1512.615,2051.0125 C1503.7804,2081.0863 1477.1197,2082.1835 1459.1688,2060.4099 C1439.2419,2089.5666 1413.162,2092.695 1394.103,2059.5042 C1375.9046,2089.6415 1345.9753,2085.0872 1332.9487,2054.3119 C1317.9894,2082.0807 1296.1487,2084.2865 1278.2394,2057.2572 C1238.3208,2082.3559 1213.4922,2074.4452 1199.0625,2028.75 C1202.8817,2028.6517 1205.2835,2031.2516 1203.5941,2035.0904 C1180.5829,2015.6517 1178.2979,1997.5163 1207.3388,1981.7304 C1177.0273,1963.5374 1177.0348,1943.3485 1201.9301,1920.2952 C1176.8496,1907.5817 1180.2958,1893.0137 1197.326,1875.9302 C1168.9353,1857.8604 1169.4015,1837.428 1198.005,1820.0507 C1175.9802,1803.3074 1174.6857,1779.4428 1199.6293,1764.0621 C1173.6445,1748.7923 1175.0051,1723.5912 1201.0461,1709.6767 C1170.0815,1692.1193 1173.2238,1673.5443 1197.0016,1652.1389 C1175.05,1638.999 1173.941,1620.5492 1193.175,1604.1268 C1167.6102,1584.6541 1168.058,1565.6801 1196.0897,1549.0434 C1172.4287,1530.8234 1168.1692,1510.1372 1197.7514,1493.5104 C1172.7643,1477.5784 1175.1589,1457.0032 1198.9071,1442.1683 C1168.4283,1425.8154 1171.0088,1397.0294 1199.2891,1381.0436 C1177.7575,1366.0845 1176.4207,1348.6593 1198.4961,1332.9808 C1171.4161,1305.78 1177.2212,1272.3796 1212.1875,1256.25 C1214.808,1252.9139 1217.2798,1253.0699 1219.296,1256.8533" fill="#FFF4E5" style="stroke:#181818;stroke-width:1.875;"/><text fill="#000000" font-family="Calibri" font-size="37.5" font-weight="bold" lengthAdjust="spacing" textLength="263.4705" x="1260.4523" y="1302.0264">External Services</text></g><!--entity DB--><g class="entity" data-qualified-name="WS.DB" data-source-line="27" id="ent0006"><path d="M1249.6875,620.625 C1249.6875,601.875 1392.2809,601.875 1392.2809,601.875 C1392.2809,601.875 1534.8743,601.875 1534.8743,620.625 L1534.8743,729.0527 C1534.8743,747.8027 1392.2809,747.8027 1392.2809,747.8027 C1392.2809,747.8027 1249.6875,747.8027 1249.6875,729.0527 L1249.6875,620.625" fill="#FFFBEA" style="stroke:#B89B3C;stroke-width:0.9375;"/><path d="M1249.6875,620.625 C1249.6875,639.375 1392.2809,639.375 1392.2809,639.375 C1392.2809,639.375 1534.8743,639.375 1534.8743,620.625" fill="none" style="stroke:#B89B3C;stroke-width:0.9375;"/><text fill="#000000" font-family="Calibri" font-size="37.5" lengthAdjust="spacing" textLength="98.053" x="1268.4375" y="683.2764">SQLite</text><text fill="#000000" font-family="Calibri" font-size="37.5" lengthAdjust="spacing" textLength="247.6868" x="1268.4375" y="729.0527">medimanage.db</text></g><!--entity APP--><g class="entity" data-qualified-name="WS.Desktop.APP" data-source-line="23" id="ent0004"><rect fill="#FFFFFF" height="88.9014" rx="4.6875" ry="4.6875" style="stroke:#8C98A4;stroke-width:0.9375;" width="432.0557" x="109.6875" y="1032.1875"/><polygon fill="#FFFFFF" points="509.8682,1041.5625,509.8682,1067.8125,532.3682,1067.8125,532.3682,1052.8125,521.1182,1041.5625,509.8682,1041.5625" style="stroke:#8C98A4;stroke-width:0.9375;"/><line style="stroke:#8C98A4;stroke-width:0.9375;" x1="521.1182" x2="521.1182" y1="1041.5625" y2="1052.8125"/><line style="stroke:#8C98A4;stroke-width:0.9375;" x1="532.3682" x2="521.1182" y1="1052.8125" y2="1052.8125"/><text fill="#000000" font-family="Calibri" font-size="37.5" lengthAdjust="spacing" textLength="375.8057" x="128.4375" y="1092.9639">MediManageApplication</text></g><!--entity UI--><g class="entity" data-qualified-name="WS.Desktop.UI" data-source-line="24" id="ent0005"><rect fill="#FFFFFF" height="88.9014" rx="4.6875" ry="4.6875" style="stroke:#8C98A4;stroke-width:0.9375;" width="443.3899" x="656.25" y="1032.1875"/><polygon fill="#FFFFFF" points="1067.7649,1041.5625,1067.7649,1067.8125,1090.2649,1067.8125,1090.2649,1052.8125,1079.0149,1041.5625,1067.7649,1041.5625" style="stroke:#8C98A4;stroke-width:0.9375;"/><line style="stroke:#8C98A4;stroke-width:0.9375;" x1="1079.0149" x2="1079.0149" y1="1041.5625" y2="1052.8125"/><line style="stroke:#8C98A4;stroke-width:0.9375;" x1="1090.2649" x2="1079.0149" y1="1052.8125" y2="1052.8125"/><text fill="#000000" font-family="Calibri" font-size="37.5" lengthAdjust="spacing" textLength="387.1399" x="675" y="1092.9639">FXML Views + Controllers</text></g><!--entity AI--><g class="entity" data-qualified-name="WS.PythonSidecar.AI" data-source-line="30" id="ent0008"><rect fill="#FFFFFF" height="134.6777" rx="4.6875" ry="4.6875" style="stroke:#8C98A4;stroke-width:0.9375;" width="367.5842" x="693.75" y="206.25"/><polygon fill="#FFFFFF" points="1029.4592,215.625,1029.4592,241.875,1051.9592,241.875,1051.9592,226.875,1040.7092,215.625,1029.4592,215.625" style="stroke:#8C98A4;stroke-width:0.9375;"/><line style="stroke:#8C98A4;stroke-width:0.9375;" x1="1040.7092" x2="1040.7092" y1="215.625" y2="226.875"/><line style="stroke:#8C98A4;stroke-width:0.9375;" x1="1051.9592" x2="1040.7092" y1="226.875" y2="226.875"/><text fill="#000000" font-family="Calibri" font-size="37.5" lengthAdjust="spacing" textLength="228.6987" x="712.5" y="267.0264">Local AI Engine</text><text fill="#000000" font-family="Calibri" font-size="37.5" lengthAdjust="spacing" textLength="311.3342" x="712.5" y="312.8027">HTTP localhost:5000</text></g><!--entity MCP--><g class="entity" data-qualified-name="WS.PythonSidecar.MCP" data-source-line="31" id="ent0009"><rect fill="#FFFFFF" height="134.6777" rx="4.6875" ry="4.6875" style="stroke:#8C98A4;stroke-width:0.9375;" width="447.821" x="653.4375" y="406.875"/><polygon fill="#FFFFFF" points="1069.3835,416.25,1069.3835,442.5,1091.8835,442.5,1091.8835,427.5,1080.6335,416.25,1069.3835,416.25" style="stroke:#8C98A4;stroke-width:0.9375;"/><line style="stroke:#8C98A4;stroke-width:0.9375;" x1="1080.6335" x2="1080.6335" y1="416.25" y2="427.5"/><line style="stroke:#8C98A4;stroke-width:0.9375;" x1="1091.8835" x2="1080.6335" y1="427.5" y2="427.5"/><text fill="#000000" font-family="Calibri" font-size="37.5" lengthAdjust="spacing" textLength="177.5391" x="672.1875" y="467.6514">MCP Server</text><text fill="#000000" font-family="Calibri" font-size="37.5" lengthAdjust="spacing" textLength="391.571" x="672.1875" y="513.4277">SSE / stdio localhost:5001</text></g><!--entity MODELS--><g class="entity" data-qualified-name="WS.PythonSidecar.MODELS" data-source-line="32" id="ent0010"><path d="M1230.9375,215.625 L1307.8125,215.625 A7.0313,7.0313 0 0 1 1312.5,220.3125 L1325.625,255 L1552.8369,255 A4.6875,4.6875 0 0 1 1557.5244,259.6875 L1557.5244,327.9639 A4.6875,4.6875 0 0 1 1552.8369,332.6514 L1230.9375,332.6514 A4.6875,4.6875 0 0 1 1226.25,327.9639 L1226.25,220.3125 A4.6875,4.6875 0 0 1 1230.9375,215.625" fill="#FFFFFF" style="stroke:#8C98A4;stroke-width:0.9375;"/><line style="stroke:#8C98A4;stroke-width:0.9375;" x1="1226.25" x2="1325.625" y1="255" y2="255"/><text fill="#000000" font-family="Calibri" font-size="37.5" lengthAdjust="spacing" textLength="275.0244" x="1245" y="304.5264">Local Model Store</text></g><!--entity WA--><g class="entity" data-qualified-name="WS.NodeSidecar.WA" data-source-line="36" id="ent0012"><rect fill="#FFFFFF" height="134.6777" rx="4.6875" ry="4.6875" style="stroke:#8C98A4;stroke-width:0.9375;" width="367.5842" x="693.75" y="731.25"/><polygon fill="#FFFFFF" points="1029.4592,740.625,1029.4592,766.875,1051.9592,766.875,1051.9592,751.875,1040.7092,740.625,1029.4592,740.625" style="stroke:#8C98A4;stroke-width:0.9375;"/><line style="stroke:#8C98A4;stroke-width:0.9375;" x1="1040.7092" x2="1040.7092" y1="740.625" y2="751.875"/><line style="stroke:#8C98A4;stroke-width:0.9375;" x1="1051.9592" x2="1040.7092" y1="751.875" y2="751.875"/><text fill="#000000" font-family="Calibri" font-size="37.5" lengthAdjust="spacing" textLength="265.9241" x="712.5" y="792.0264">WhatsApp Bridge</text><text fill="#000000" font-family="Calibri" font-size="37.5" lengthAdjust="spacing" textLength="311.3342" x="712.5" y="837.8027">HTTP localhost:3000</text></g><!--entity HOSTS--><g class="entity" data-qualified-name="External Services.HOSTS" data-source-line="41" id="ent0014"><rect fill="#FFFFFF" height="88.9014" rx="4.6875" ry="4.6875" style="stroke:#8C98A4;stroke-width:0.9375;" width="314.502" x="1234.6875" y="1630.3125"/><polygon fill="#FFFFFF" points="1517.3145,1639.6875,1517.3145,1665.9375,1539.8145,1665.9375,1539.8145,1650.9375,1528.5645,1639.6875,1517.3145,1639.6875" style="stroke:#8C98A4;stroke-width:0.9375;"/><line style="stroke:#8C98A4;stroke-width:0.9375;" x1="1528.5645" x2="1528.5645" y1="1639.6875" y2="1650.9375"/><line style="stroke:#8C98A4;stroke-width:0.9375;" x1="1539.8145" x2="1528.5645" y1="1650.9375" y2="1650.9375"/><text fill="#000000" font-family="Calibri" font-size="37.5" lengthAdjust="spacing" textLength="258.252" x="1253.4375" y="1691.0889">External AI Hosts</text></g><!--entity CloudAI--><g class="entity" data-qualified-name="External Services.CloudAI" data-source-line="42" id="ent0015"><rect fill="#FFFFFF" height="88.9014" rx="4.6875" ry="4.6875" style="stroke:#8C98A4;stroke-width:0.9375;" width="257.3181" x="1263.75" y="1476.5625"/><polygon fill="#FFFFFF" points="1489.1931,1485.9375,1489.1931,1512.1875,1511.6931,1512.1875,1511.6931,1497.1875,1500.4431,1485.9375,1489.1931,1485.9375" style="stroke:#8C98A4;stroke-width:0.9375;"/><line style="stroke:#8C98A4;stroke-width:0.9375;" x1="1500.4431" x2="1500.4431" y1="1485.9375" y2="1497.1875"/><line style="stroke:#8C98A4;stroke-width:0.9375;" x1="1511.6931" x2="1500.4431" y1="1497.1875" y2="1497.1875"/><text fill="#000000" font-family="Calibri" font-size="37.5" lengthAdjust="spacing" textLength="201.0681" x="1282.5" y="1537.3389">Cloud AI APIs</text></g><!--entity HF--><g class="entity" data-qualified-name="External Services.HF" data-source-line="43" id="ent0016"><rect fill="#FFFFFF" height="88.9014" rx="4.6875" ry="4.6875" style="stroke:#8C98A4;stroke-width:0.9375;" width="258.7646" x="1262.8125" y="1322.8125"/><polygon fill="#FFFFFF" points="1489.7021,1332.1875,1489.7021,1358.4375,1512.2021,1358.4375,1512.2021,1343.4375,1500.9521,1332.1875,1489.7021,1332.1875" style="stroke:#8C98A4;stroke-width:0.9375;"/><line style="stroke:#8C98A4;stroke-width:0.9375;" x1="1500.9521" x2="1500.9521" y1="1332.1875" y2="1343.4375"/><line style="stroke:#8C98A4;stroke-width:0.9375;" x1="1512.2021" x2="1500.9521" y1="1343.4375" y2="1343.4375"/><text fill="#000000" font-family="Calibri" font-size="37.5" lengthAdjust="spacing" textLength="202.5146" x="1281.5625" y="1383.5889">Hugging Face</text></g><!--entity SMTP--><g class="entity" data-qualified-name="External Services.SMTP" data-source-line="44" id="ent0017"><rect fill="#FFFFFF" height="88.9014" rx="4.6875" ry="4.6875" style="stroke:#8C98A4;stroke-width:0.9375;" width="249.2981" x="1267.5" y="1937.8125"/><polygon fill="#FFFFFF" points="1484.9231,1947.1875,1484.9231,1973.4375,1507.4231,1973.4375,1507.4231,1958.4375,1496.1731,1947.1875,1484.9231,1947.1875" style="stroke:#8C98A4;stroke-width:0.9375;"/><line style="stroke:#8C98A4;stroke-width:0.9375;" x1="1496.1731" x2="1496.1731" y1="1947.1875" y2="1958.4375"/><line style="stroke:#8C98A4;stroke-width:0.9375;" x1="1507.4231" x2="1496.1731" y1="1958.4375" y2="1958.4375"/><text fill="#000000" font-family="Calibri" font-size="37.5" lengthAdjust="spacing" textLength="193.0481" x="1286.25" y="1998.5889">SMTP Server</text></g><!--entity WAN--><g class="entity" data-qualified-name="External Services.WAN" data-source-line="45" id="ent0018"><rect fill="#FFFFFF" height="88.9014" rx="4.6875" ry="4.6875" style="stroke:#8C98A4;stroke-width:0.9375;" width="356.2134" x="1214.0625" y="1784.0625"/><polygon fill="#FFFFFF" points="1538.4009,1793.4375,1538.4009,1819.6875,1560.9009,1819.6875,1560.9009,1804.6875,1549.6509,1793.4375,1538.4009,1793.4375" style="stroke:#8C98A4;stroke-width:0.9375;"/><line style="stroke:#8C98A4;stroke-width:0.9375;" x1="1549.6509" x2="1549.6509" y1="1793.4375" y2="1804.6875"/><line style="stroke:#8C98A4;stroke-width:0.9375;" x1="1560.9009" x2="1549.6509" y1="1804.6875" y2="1804.6875"/><text fill="#000000" font-family="Calibri" font-size="37.5" lengthAdjust="spacing" textLength="299.9634" x="1232.8125" y="1844.8389">WhatsApp Network</text></g><!--link APP to UI--><g class="link" data-entity-1="ent0004" data-entity-2="ent0005" data-link-type="dependency" data-source-line="48" id="lnk19"><path d="M541.1813,1076.25 C578.6813,1076.25 606.5063,1076.25 644.175,1076.25" fill="none" id="APP-to-UI" style="stroke:#181818;stroke-width:1.875;"/><polygon fill="#181818" points="655.425,1076.25,638.55,1068.75,646.05,1076.25,638.55,1083.75,655.425,1076.25" style="stroke:#181818;stroke-width:1.875;"/></g><!--link APP to DB--><g class="link" data-entity-1="ent0004" data-entity-2="ent0006" data-link-type="dependency" data-source-line="49" id="lnk20"><path d="M369.375,1031.475 C369.375,931.5188 369.375,698.9063 369.375,698.9063 C369.375,698.9063 956.9063,698.9063 1238.175,698.9063" fill="none" id="APP-to-DB" style="stroke:#181818;stroke-width:1.875;"/><polygon fill="#181818" points="1249.425,698.9063,1232.55,691.4063,1240.05,698.9063,1232.55,706.4063,1249.425,698.9063" style="stroke:#181818;stroke-width:1.875;"/><text fill="#000000" font-family="Calibri" font-size="33.75" lengthAdjust="spacing" textLength="184.422" x="457.4813" y="733.5425">SQLite / JDBC</text></g><!--link APP to AI--><g class="link" data-entity-1="ent0004" data-entity-2="ent0008" data-link-type="dependency" data-source-line="50" id="lnk21"><path d="M196.875,1031.9625 C196.875,863.7188 196.875,273.75 196.875,273.75 C196.875,273.75 480.4875,273.75 682.0687,273.75" fill="none" id="APP-to-AI" style="stroke:#181818;stroke-width:1.875;"/><polygon fill="#181818" points="693.3187,273.75,676.4437,266.25,683.9437,273.75,676.4437,281.25,693.3187,273.75" style="stroke:#181818;stroke-width:1.875;"/><text fill="#000000" font-family="Calibri" font-size="33.75" lengthAdjust="spacing" textLength="71.3562" x="123.75" y="439.28">HTTP</text></g><!--link APP to WA--><g class="link" data-entity-1="ent0004" data-entity-2="ent0012" data-link-type="dependency" data-source-line="51" id="lnk22"><path d="M455.625,1031.6625 C455.625,953.2312 455.625,798.75 455.625,798.75 C455.625,798.75 568.7438,798.75 682.4438,798.75" fill="none" id="APP-to-WA" style="stroke:#181818;stroke-width:1.875;"/><polygon fill="#181818" points="693.6938,798.75,676.8188,791.25,684.3188,798.75,676.8188,806.25,693.6938,798.75" style="stroke:#181818;stroke-width:1.875;"/><text fill="#000000" font-family="Calibri" font-size="33.75" lengthAdjust="spacing" textLength="71.3562" x="385.0688" y="833.3862">HTTP</text></g><!--link APP to SMTP--><g class="link" data-entity-1="ent0004" data-entity-2="ent0017" data-link-type="dependency" data-source-line="52" id="lnk23"><path d="M326.25,1120.5375 C326.25,1302.3562 326.25,1981.875 326.25,1981.875 C326.25,1981.875 974.5687,1981.875 1256.0438,1981.875" fill="none" id="APP-to-SMTP" style="stroke:#181818;stroke-width:1.875;"/><polygon fill="#181818" points="1267.2938,1981.875,1250.4188,1974.375,1257.9188,1981.875,1250.4188,1989.375,1267.2938,1981.875" style="stroke:#181818;stroke-width:1.875;"/><text fill="#000000" font-family="Calibri" font-size="33.75" lengthAdjust="spacing" textLength="78.2446" x="287.3625" y="2016.5112">SMTP</text></g><!--link APP to MCP--><g class="link" data-entity-1="ent0004" data-entity-2="ent0009" data-link-type="dependency" data-source-line="53" id="lnk24"><path d="M283.125,1032 C283.125,893.0062 283.125,474.375 283.125,474.375 C283.125,474.375 473.2313,474.375 641.55,474.375" fill="none" id="APP-to-MCP" style="stroke:#181818;stroke-width:1.875;stroke-dasharray:13.125,13.125;"/><polygon fill="#181818" points="652.8,474.375,635.925,466.875,643.425,474.375,635.925,481.875,652.8,474.375" style="stroke:#181818;stroke-width:1.875;"/><text fill="#000000" font-family="Calibri" font-size="33.75" lengthAdjust="spacing" textLength="268.1378" x="13.125" y="602.9862">starts and monitors</text></g><!--link AI to DB--><g class="link" data-entity-1="ent0008" data-entity-2="ent0006" data-link-type="dependency" data-source-line="55" id="lnk25"><path d="M1061.6438,262.125 C1130.5875,262.125 1192.5,262.125 1192.5,262.125 C1192.5,262.125 1192.5,634.2188 1192.5,634.2188 C1192.5,634.2188 1205.925,634.2188 1237.9313,634.2188" fill="none" id="AI-to-DB" style="stroke:#181818;stroke-width:1.875;"/><polygon fill="#181818" points="1249.1813,634.2188,1232.3063,626.7188,1239.8063,634.2188,1232.3063,641.7188,1249.1813,634.2188" style="stroke:#181818;stroke-width:1.875;"/><text fill="#000000" font-family="Calibri" font-size="33.75" lengthAdjust="spacing" textLength="183.7793" x="1194.375" y="445.73">SQLite access</text></g><!--link AI to MODELS--><g class="link" data-entity-1="ent0008" data-entity-2="ent0010" data-link-type="dependency" data-source-line="56" id="lnk26"><path d="M1061.8688,238.875 C1115.5125,238.875 1162.5188,238.875 1214.9625,238.875" fill="none" id="AI-to-MODELS" style="stroke:#181818;stroke-width:1.875;"/><polygon fill="#181818" points="1226.2125,238.875,1209.3375,231.375,1216.8375,238.875,1209.3375,246.375,1226.2125,238.875" style="stroke:#181818;stroke-width:1.875;"/></g><!--link AI to CloudAI--><g class="link" data-entity-1="ent0008" data-entity-2="ent0015" data-link-type="dependency" data-source-line="57" id="lnk27"><path d="M1061.325,308.625 C1109.1375,308.625 1147.5,308.625 1147.5,308.625 C1147.5,308.625 1147.5,1520.625 1147.5,1520.625 C1147.5,1520.625 1193.1938,1520.625 1252.1438,1520.625" fill="none" id="AI-to-CloudAI" style="stroke:#181818;stroke-width:1.875;"/><polygon fill="#181818" points="1263.3938,1520.625,1246.5188,1513.125,1254.0188,1520.625,1246.5188,1528.125,1263.3938,1520.625" style="stroke:#181818;stroke-width:1.875;"/></g><!--link AI to HF--><g class="link" data-entity-1="ent0008" data-entity-2="ent0016" data-link-type="dependency" data-source-line="58" id="lnk28"><path d="M1061.9063,285.375 C1120.3313,285.375 1170,285.375 1170,285.375 C1170,285.375 1170,1366.875 1170,1366.875 C1170,1366.875 1202.4187,1366.875 1251.0563,1366.875" fill="none" id="AI-to-HF" style="stroke:#181818;stroke-width:1.875;"/><polygon fill="#181818" points="1262.3063,1366.875,1245.4313,1359.375,1252.9313,1366.875,1245.4313,1374.375,1262.3063,1366.875" style="stroke:#181818;stroke-width:1.875;"/></g><!--link HOSTS to MCP--><g class="link" data-entity-1="ent0014" data-entity-2="ent0009" data-link-type="dependency" data-source-line="60" id="lnk29"><path d="M1243.125,1630.2375 C1243.125,1413.75 1243.125,474.375 1243.125,474.375 C1243.125,474.375 1188.6938,474.375 1113.0188,474.375" fill="none" id="HOSTS-to-MCP" style="stroke:#181818;stroke-width:1.875;"/><polygon fill="#181818" points="1101.7688,474.375,1118.6438,481.875,1111.1438,474.375,1118.6438,466.875,1101.7688,474.375" style="stroke:#181818;stroke-width:1.875;"/><text fill="#000000" font-family="Calibri" font-size="33.75" lengthAdjust="spacing" textLength="64.2865" x="1177.5" y="1016.2737">MCP</text></g><!--link MCP to DB--><g class="link" data-entity-1="ent0009" data-entity-2="ent0006" data-link-type="dependency" data-source-line="61" id="lnk30"><path d="M1080,542.1375 C1080,597.4688 1080,666.5625 1080,666.5625 C1080,666.5625 1155.5625,666.5625 1237.6313,666.5625" fill="none" id="MCP-to-DB" style="stroke:#181818;stroke-width:1.875;"/><polygon fill="#181818" points="1248.8813,666.5625,1232.0063,659.0625,1239.5063,666.5625,1232.0063,674.0625,1248.8813,666.5625" style="stroke:#181818;stroke-width:1.875;"/><text fill="#000000" font-family="Calibri" font-size="33.75" lengthAdjust="spacing" textLength="183.7793" x="1104.0938" y="701.1987">SQLite access</text></g><!--link WA to WAN--><g class="link" data-entity-1="ent0012" data-entity-2="ent0018" data-link-type="dependency" data-source-line="62" id="lnk31"><path d="M1061.2688,807.1875 C1097.7188,807.1875 1125,807.1875 1125,807.1875 C1125,807.1875 1125,1828.125 1125,1828.125 C1125,1828.125 1153.7063,1828.125 1202.7188,1828.125" fill="none" id="WA-to-WAN" style="stroke:#181818;stroke-width:1.875;"/><polygon fill="#181818" points="1213.9688,1828.125,1197.0938,1820.625,1204.5938,1828.125,1197.0938,1835.625,1213.9688,1828.125" style="stroke:#181818;stroke-width:1.875;"/></g><?plantuml-src dLF1Sjem4BtxAtR8iHCA8Pa0XypOnXx80A5ZMdh8HR64KH4I8ucaQQV_tfLi89YaXt9WqDktks_VBcRDvPPeiX4gNpCATCkXtMq5fewp9Ta9cofffsJ382Q2Fsd-Brx6Vp6uEYyLQgrU3eHszuoGhGXLBrmMi2J2i42mfGMhGFDYPO5opNBBbJpcWQbb72E2IsPVjmoKjYlr9Y0LPV0x08YKfap7IYWD5s4ITUChH9s-2ckdLxtERV3dJJBHbYz9Rii295yNMkqahH9I_wcNxiQzRdXzKeOIIvw8OH-MYPAmNYRgzg9EV59cgGJ6_qjBu6reBBX4_mmib5uRIvox3I3upk0Y2TFhDFNLI_8zUIOmO6PjrHR2xTOpz--tT3Zwr9WmoYT4ae9XXk3viKSuczMuwVV96BvnXe8-GOoBq4e8fesdVnqX6uN3qRr6zcNCBNkK6sooyKsQzAcK5GK7tRDNl0096QSi9zg7IwX2K7kItYRXcVQnoec0S0I9BF2S7kLmFf-1SEXA6Tk_QRLQvIYZ-jJn33Acdvb-b5cMm6Smbd9rcjlskKZroTKogwOJL2uWiqgpalKmICRPte5ohYb-Dt-Oay4STXWhxIJTTrQoM15hS1iGQKwByx4w-x4MeM-8BNEXTXGQoK_Bj4HvRZQUCzoCExJhvCOtEROu4D6y8TOiLpXyoERP2I_sTP4KpaObnoFUpoDhk2iAznzFILwwCKnFujbalhVRXzqxU7VYARClUEhLT5Ct6fuXN5xUkVlQ_nn4q8Vojd1pzuCeFeHGQX-SNmTa4TOHBwTVgd1OitddjemG_iMqDK0aXOsI7BThKC3eh2d9qLkpZrIxhrvxWwedMX5uNqkgR-DEoltwe2mgBeLF_m80?></g></svg>