<?plantuml 1.2026.2?><svg xmlns="http://www.w3.org/2000/svg" xmlns:xlink="http://www.w3.org/1999/xlink" contentStyleType="text/css" data-diagram-type="DESCRIPTION" height="2111.25px" preserveAspectRatio="none" style="width:2120px;height:2111px;background:#FFFFFF;" version="1.1" viewBox="0 0 2120 2111" width="2120.625px" zoomAndPan="magnify"><defs/><g><!--cluster Desktop Runtime--><g class="cluster" data-qualified-name="Desktop Runtime" data-source-line="12" id="ent0002"><rect fill="#EAF4FF" height="1222.5" rx="4.6875" ry="4.6875" style="stroke:#AEB8C2;stroke-width:1.875;" width="2044.6875" x="13.125" y="14.0625"/><text fill="#000000" font-family="Calibri" font-size="37.5" font-weight="bold" lengthAdjust="spacing" textLength="270.1904" x="900.3735" y="54.2139">Desktop Runtime</text></g><!--cluster Functional Modules--><g class="cluster" data-qualified-name="Desktop Runtime.Functional Modules" data-source-line="18" id="ent0007"><rect fill="none" height="1081.875" rx="4.6875" ry="4.6875" style="stroke:#AEB8C2;stroke-width:1.875;" width="337.5" x="834.375" y="109.6875"/><text fill="#000000" font-family="Calibri" font-size="37.5" font-weight="bold" lengthAdjust="spacing" textLength="308.075" x="849.0875" y="149.8389">Functional Modules</text></g><!--cluster Local Sidecars--><g class="cluster" data-qualified-name="Local Sidecars" data-source-line="29" id="ent0015"><rect fill="#EEF7EA" height="631.875" rx="4.6875" ry="4.6875" style="stroke:#AEB8C2;stroke-width:1.875;" width="363.75" x="1269.375" y="1281.5625"/><text fill="#000000" font-family="Calibri" font-size="37.5" font-weight="bold" lengthAdjust="spacing" textLength="216.3391" x="1343.0804" y="1321.7139">Local Sidecars</text></g><!--cluster External Services--><g class="cluster" data-qualified-name="External Services" data-source-line="35" id="ent0019"><path d="M1717.8455,1303.9059 C1728.8926,1276.0085 1748.0664,1267.7206 1771.7537,1290.4451 C1787.9424,1260.1966 1817.3813,1263.5595 1835.2805,1288.4754 C1850.8456,1260.8247 1868.069,1252.322 1893.1877,1278.126 C1913.3713,1258.7254 1940.0451,1262.4878 1949.5798,1290.7304 C1965.259,1265.1866 1991.2365,1266.982 2003.3707,1294.3353 C2027.4245,1269.9648 2058.7255,1272.2474 2068.125,1309.6875 C2071.4813,1308.8249 2073.5725,1310.4603 2072.7265,1314.0402 C2097.2595,1325.6834 2100.5035,1348.0754 2078.0243,1364.6407 C2100.9749,1382.3067 2097.588,1402.8833 2074.3246,1417.3027 C2099.8144,1432.6929 2104.4369,1448.5233 2079.647,1469.0818 C2100.9778,1487.4438 2102.4232,1504.8541 2077.8009,1521.6008 C2107.8686,1538.1514 2106.6027,1557.4477 2081.9345,1578.0093 C2107.0506,1593.7742 2104.504,1617.9341 2078.7627,1630.6338 C2105.7467,1641.4953 2104.3887,1662.6894 2085.2442,1679.6505 C2105.9996,1699.9998 2104.6464,1718.8326 2078.7556,1733.5684 C2103.5125,1748.7359 2101.9773,1771.4087 2080.0132,1787.6624 C2102.2441,1806.4851 2099.8881,1825.1226 2074.0848,1838.3244 C2099.2797,1851.7341 2099.6087,1876.6233 2074.6593,1890.5842 C2096.7,1904.7204 2096.3155,1920.9311 2075.7708,1936.107 C2098.2999,1952.1051 2100.0891,1978.0653 2073.4845,1992.0556 C2094.5282,2015.5812 2086.2608,2044.7403 2055,2052.1875 C2057.6862,2050.9085 2059.3029,2051.8054 2059.1285,2054.8924 C2047.2147,2082.6164 2020.9686,2086.6999 2005.3631,2058.4377 C1988.6371,2084.872 1969.895,2089.1641 1948.8298,2063.1115 C1933.4938,2097.0106 1910.3735,2098.4709 1888.1156,2069.8314 C1870.7838,2094.419 1850.0207,2095.098 1836.195,2066.4143 C1816.695,2092.4541 1788.9246,2097.3925 1772.9372,2062.7524 C1744.8946,2086.9866 1708.0438,2077.7813 1700.625,2039.0625 C1705.3855,2036.5774 1708.7313,2037.0049 1709.7715,2043.0511 C1687.9808,2033.7476 1683.7574,2012.9426 1700.3564,1995.9631 C1668.3097,1979.239 1669.0193,1959.9798 1696.7586,1939.4496 C1675.1491,1924.7466 1674.0794,1904.32 1695.3644,1888.4445 C1671.2987,1875.6581 1665.7542,1858.0644 1690.058,1839.9818 C1667.1054,1822.6922 1669.2591,1800.0503 1694.4833,1786.767 C1666.5133,1769.4993 1665.5182,1750.4271 1687.6782,1727.412 C1662.3211,1717.5662 1662.6585,1699.6652 1681.81,1683.8269 C1657.247,1661.3526 1662.9785,1638.0862 1693.6397,1627.1355 C1669.6909,1613.182 1664.8037,1593.4584 1688.8144,1575.0609 C1664.152,1559.7853 1666.9277,1533.7075 1691.2358,1520.6096 C1670.1085,1503.9326 1671.888,1483.736 1697.4077,1473.1217 C1674.5617,1457.1527 1674.9387,1433.8489 1702.5848,1423.1063 C1673.5989,1405.3838 1674.6749,1385.2422 1700.4129,1365.4579 C1670.9113,1340.6149 1676.023,1308.3911 1713.75,1296.5625 C1718.1753,1297.2941 1719.5438,1299.7591 1717.8455,1303.9059" fill="#FFF4E5" style="stroke:#AEB8C2;stroke-width:1.875;"/><text fill="#000000" font-family="Calibri" font-size="37.5" font-weight="bold" lengthAdjust="spacing" textLength="263.4705" x="1752.6398" y="1342.3389">External Services</text></g><!--entity Shell--><g class="entity" data-qualified-name="Desktop Runtime.Shell" data-source-line="13" id="ent0003"><rect fill="#F1F1F1" height="83.2764" rx="4.6875" ry="4.6875" style="stroke:#181818;stroke-width:0.9375;" width="220.2942" x="43.125" y="634.6875"/><text fill="#000000" font-family="Calibri" font-size="37.5" lengthAdjust="spacing" textLength="182.7942" x="61.875" y="689.8389">JavaFX Shell</text></g><!--entity Controllers--><g class="entity" data-qualified-name="Desktop Runtime.Controllers" data-source-line="14" id="ent0004"><rect fill="#F1F1F1" height="83.2764" rx="4.6875" ry="4.6875" style="stroke:#181818;stroke-width:0.9375;" width="332.3181" x="375" y="634.6875"/><text fill="#000000" font-family="Calibri" font-size="37.5" lengthAdjust="spacing" textLength="294.8181" x="393.75" y="689.8389">Feature Controllers</text></g><!--entity Services--><g class="entity" data-qualified-name="Desktop Runtime.Services" data-source-line="15" id="ent0005"><rect fill="#F1F1F1" height="83.2764" rx="4.6875" ry="4.6875" style="stroke:#181818;stroke-width:0.9375;" width="275.9949" x="1313.4375" y="709.6875"/><text fill="#000000" font-family="Calibri" font-size="37.5" lengthAdjust="spacing" textLength="238.4949" x="1332.1875" y="764.8389">Shared Services</text></g><!--entity DB--><g class="entity" data-qualified-name="Desktop Runtime.DB" data-source-line="16" id="ent0006"><path d="M1740.9375,1125 C1740.9375,1106.25 1884.2267,1106.25 1884.2267,1106.25 C1884.2267,1106.25 2027.5159,1106.25 2027.5159,1125 L2027.5159,1187.6514 C2027.5159,1206.4014 1884.2267,1206.4014 1884.2267,1206.4014 C1884.2267,1206.4014 1740.9375,1206.4014 1740.9375,1187.6514 L1740.9375,1125" fill="#F1F1F1" style="stroke:#181818;stroke-width:0.9375;"/><path d="M1740.9375,1125 C1740.9375,1143.75 1884.2267,1143.75 1884.2267,1143.75 C1884.2267,1143.75 2027.5159,1143.75 2027.5159,1125" fill="none" style="stroke:#181818;stroke-width:0.9375;"/><text fill="#000000" font-family="Calibri" font-size="37.5" lengthAdjust="spacing" textLength="249.0784" x="1759.6875" y="1187.6514">SQLite Database</text></g><!--entity Billing--><g class="entity" data-qualified-name="Desktop Runtime.Functional Modules.Billing" data-source-line="19" id="ent0008"><rect fill="#F1F1F1" height="83.2764" rx="4.6875" ry="4.6875" style="stroke:#181818;stroke-width:0.9375;" width="129.6753" x="938.4375" y="1079.0625"/><text fill="#000000" font-family="Calibri" font-size="37.5" lengthAdjust="spacing" textLength="92.1753" x="957.1875" y="1134.2139">Billing</text></g><!--entity Inventory--><g class="entity" data-qualified-name="Desktop Runtime.Functional Modules.Inventory" data-source-line="20" id="ent0009"><rect fill="#F1F1F1" height="83.2764" rx="4.6875" ry="4.6875" style="stroke:#181818;stroke-width:0.9375;" width="184.3323" x="911.25" y="190.3125"/><text fill="#000000" font-family="Calibri" font-size="37.5" lengthAdjust="spacing" textLength="146.8323" x="930" y="245.4639">Inventory</text></g><!--entity Customers--><g class="entity" data-qualified-name="Desktop Runtime.Functional Modules.Customers" data-source-line="21" id="ent0010"><rect fill="#F1F1F1" height="83.2764" rx="4.6875" ry="4.6875" style="stroke:#181818;stroke-width:0.9375;" width="200.5554" x="902.8125" y="338.4375"/><text fill="#000000" font-family="Calibri" font-size="37.5" lengthAdjust="spacing" textLength="163.0554" x="921.5625" y="393.5889">Customers</text></g><!--entity Prescriptions--><g class="entity" data-qualified-name="Desktop Runtime.Functional Modules.Prescriptions" data-source-line="22" id="ent0011"><rect fill="#F1F1F1" height="83.2764" rx="4.6875" ry="4.6875" style="stroke:#181818;stroke-width:0.9375;" width="235.8215" x="885" y="486.5625"/><text fill="#000000" font-family="Calibri" font-size="37.5" lengthAdjust="spacing" textLength="198.3215" x="903.75" y="541.7139">Prescriptions</text></g><!--entity Reports--><g class="entity" data-qualified-name="Desktop Runtime.Functional Modules.Reports" data-source-line="23" id="ent0012"><rect fill="#F1F1F1" height="83.2764" rx="4.6875" ry="4.6875" style="stroke:#181818;stroke-width:0.9375;" width="156.2988" x="925.3125" y="634.6875"/><text fill="#000000" font-family="Calibri" font-size="37.5" lengthAdjust="spacing" textLength="118.7988" x="944.0625" y="689.8389">Reports</text></g><!--entity Settings--><g class="entity" data-qualified-name="Desktop Runtime.Functional Modules.Settings" data-source-line="24" id="ent0013"><rect fill="#F1F1F1" height="83.2764" rx="4.6875" ry="4.6875" style="stroke:#181818;stroke-width:0.9375;" width="159.137" x="923.4375" y="782.8125"/><text fill="#000000" font-family="Calibri" font-size="37.5" lengthAdjust="spacing" textLength="121.637" x="942.1875" y="837.9639">Settings</text></g><!--entity AIAssistant--><g class="entity" data-qualified-name="Desktop Runtime.Functional Modules.AIAssistant" data-source-line="25" id="ent0014"><rect fill="#F1F1F1" height="83.2764" rx="4.6875" ry="4.6875" style="stroke:#181818;stroke-width:0.9375;" width="214.2151" x="896.25" y="930.9375"/><text fill="#000000" font-family="Calibri" font-size="37.5" lengthAdjust="spacing" textLength="176.7151" x="915" y="986.0889">AI Assistant</text></g><!--entity LocalAI--><g class="entity" data-qualified-name="Local Sidecars.LocalAI" data-source-line="30" id="ent0016"><rect fill="#F1F1F1" height="129.0527" rx="4.6875" ry="4.6875" style="stroke:#181818;stroke-width:0.9375;" width="266.1987" x="1318.125" y="1363.125"/><text fill="#000000" font-family="Calibri" font-size="37.5" lengthAdjust="spacing" textLength="228.6987" x="1336.875" y="1418.2764">Local AI Engine</text><text fill="#000000" font-family="Calibri" font-size="37.5" lengthAdjust="spacing" textLength="173.822" x="1364.3134" y="1464.0527">HTTP :5000</text></g><!--entity MCP--><g class="entity" data-qualified-name="Local Sidecars.MCP" data-source-line="31" id="ent0017"><rect fill="#F1F1F1" height="129.0527" rx="4.6875" ry="4.6875" style="stroke:#181818;stroke-width:0.9375;" width="291.5588" x="1305.9375" y="1558.125"/><text fill="#000000" font-family="Calibri" font-size="37.5" lengthAdjust="spacing" textLength="177.5391" x="1362.9474" y="1613.2764">MCP Server</text><text fill="#000000" font-family="Calibri" font-size="37.5" lengthAdjust="spacing" textLength="254.0588" x="1324.6875" y="1659.0527">SSE / stdio :5001</text></g><!--entity WA--><g class="entity" data-qualified-name="Local Sidecars.WA" data-source-line="32" id="ent0018"><rect fill="#F1F1F1" height="129.0527" rx="4.6875" ry="4.6875" style="stroke:#181818;stroke-width:0.9375;" width="303.4241" x="1299.375" y="1753.125"/><text fill="#000000" font-family="Calibri" font-size="37.5" lengthAdjust="spacing" textLength="265.9241" x="1318.125" y="1808.2764">WhatsApp Bridge</text><text fill="#000000" font-family="Calibri" font-size="37.5" lengthAdjust="spacing" textLength="173.822" x="1364.176" y="1854.0527">HTTP :3000</text></g><!--entity CloudAI--><g class="entity" data-qualified-name="External Services.CloudAI" data-source-line="36" id="ent0020"><rect fill="#F1F1F1" height="83.2764" rx="4.6875" ry="4.6875" style="stroke:#181818;stroke-width:0.9375;" width="238.5681" x="1765.3125" y="1510.3125"/><text fill="#000000" font-family="Calibri" font-size="37.5" lengthAdjust="spacing" textLength="201.0681" x="1784.0625" y="1565.4639">Cloud AI APIs</text></g><!--entity HF--><g class="entity" data-qualified-name="External Services.HF" data-source-line="37" id="ent0021"><rect fill="#F1F1F1" height="83.2764" rx="4.6875" ry="4.6875" style="stroke:#181818;stroke-width:0.9375;" width="240.0146" x="1764.375" y="1362.1875"/><text fill="#000000" font-family="Calibri" font-size="37.5" lengthAdjust="spacing" textLength="202.5146" x="1783.125" y="1417.3389">Hugging Face</text></g><!--entity SMTP--><g class="entity" data-qualified-name="External Services.SMTP" data-source-line="38" id="ent0022"><rect fill="#F1F1F1" height="83.2764" rx="4.6875" ry="4.6875" style="stroke:#181818;stroke-width:0.9375;" width="230.5481" x="1769.0625" y="1954.6875"/><text fill="#000000" font-family="Calibri" font-size="37.5" lengthAdjust="spacing" textLength="193.0481" x="1787.8125" y="2009.8389">SMTP Server</text></g><!--entity WAN--><g class="entity" data-qualified-name="External Services.WAN" data-source-line="39" id="ent0023"><rect fill="#F1F1F1" height="83.2764" rx="4.6875" ry="4.6875" style="stroke:#181818;stroke-width:0.9375;" width="337.4634" x="1715.625" y="1806.5625"/><text fill="#000000" font-family="Calibri" font-size="37.5" lengthAdjust="spacing" textLength="299.9634" x="1734.375" y="1861.7139">WhatsApp Network</text></g><!--entity AIHosts--><g class="entity" data-qualified-name="External Services.AIHosts" data-source-line="40" id="ent0024"><rect fill="#F1F1F1" height="83.2764" rx="4.6875" ry="4.6875" style="stroke:#181818;stroke-width:0.9375;" width="295.752" x="1736.25" y="1658.4375"/><text fill="#000000" font-family="Calibri" font-size="37.5" lengthAdjust="spacing" textLength="258.252" x="1755" y="1713.5889">External AI Hosts</text></g><!--link Shell to Controllers--><g class="link" data-entity-1="ent0003" data-entity-2="ent0004" data-link-type="dependency" data-source-line="43" id="lnk25"><path d="M262.9875,675.9375 C297.7313,675.9375 325.6688,675.9375 363.4125,675.9375" fill="none" id="Shell-to-Controllers" style="stroke:#181818;stroke-width:1.875;"/><polygon fill="#181818" points="374.6625,675.9375,357.7875,668.4375,365.2875,675.9375,357.7875,683.4375,374.6625,675.9375" style="stroke:#181818;stroke-width:1.875;"/></g><!--link Controllers to Billing--><g class="link" data-entity-1="ent0004" data-entity-2="ent0008" data-link-type="dependency" data-source-line="44" id="lnk26"><path d="M485.625,717.75 C485.625,828.3562 485.625,1120.3125 485.625,1120.3125 C485.625,1120.3125 787.875,1120.3125 926.85,1120.3125" fill="none" id="Controllers-to-Billing" style="stroke:#181818;stroke-width:1.875;"/><polygon fill="#181818" points="938.1,1120.3125,921.225,1112.8125,928.725,1120.3125,921.225,1127.8125,938.1,1120.3125" style="stroke:#181818;stroke-width:1.875;"/></g><!--link Controllers to Inventory--><g class="link" data-entity-1="ent0004" data-entity-2="ent0009" data-link-type="dependency" data-source-line="45" id="lnk27"><path d="M485.625,634.125 C485.625,523.5188 485.625,231.5625 485.625,231.5625 C485.625,231.5625 751.2375,231.5625 899.9438,231.5625" fill="none" id="Controllers-to-Inventory" style="stroke:#181818;stroke-width:1.875;"/><polygon fill="#181818" points="911.1938,231.5625,894.3188,224.0625,901.8188,231.5625,894.3188,239.0625,911.1938,231.5625" style="stroke:#181818;stroke-width:1.875;"/></g><!--link Controllers to Customers--><g class="link" data-entity-1="ent0004" data-entity-2="ent0010" data-link-type="dependency" data-source-line="46" id="lnk28"><path d="M596.25,634.125 C596.25,552.45 596.25,379.6875 596.25,379.6875 C596.25,379.6875 770.8125,379.6875 891.3,379.6875" fill="none" id="Controllers-to-Customers" style="stroke:#181818;stroke-width:1.875;"/><polygon fill="#181818" points="902.55,379.6875,885.675,372.1875,893.175,379.6875,885.675,387.1875,902.55,379.6875" style="stroke:#181818;stroke-width:1.875;"/></g><!--link Controllers to Prescriptions--><g class="link" data-entity-1="ent0004" data-entity-2="ent0011" data-link-type="dependency" data-source-line="47" id="lnk29"><path d="M707.1938,655.3125 C807.0938,655.3125 915,655.3125 915,655.3125 C915,655.3125 915,618 915,580.8187" fill="none" id="Controllers-to-Prescriptions" style="stroke:#181818;stroke-width:1.875;"/><polygon fill="#181818" points="915,569.5687,907.5,586.4437,915,578.9437,922.5,586.4437,915,569.5687" style="stroke:#181818;stroke-width:1.875;"/></g><!--link Controllers to Reports--><g class="link" data-entity-1="ent0004" data-entity-2="ent0012" data-link-type="dependency" data-source-line="48" id="lnk30"><path d="M707.1375,675.9375 C781.425,675.9375 854.175,675.9375 913.6688,675.9375" fill="none" id="Controllers-to-Reports" style="stroke:#181818;stroke-width:1.875;"/><polygon fill="#181818" points="924.9188,675.9375,908.0438,668.4375,915.5438,675.9375,908.0438,683.4375,924.9188,675.9375" style="stroke:#181818;stroke-width:1.875;"/></g><!--link Controllers to Settings--><g class="link" data-entity-1="ent0004" data-entity-2="ent0013" data-link-type="dependency" data-source-line="49" id="lnk31"><path d="M596.25,717.2063 C596.25,761.025 596.25,824.0625 596.25,824.0625 C596.25,824.0625 793.4813,824.0625 911.9812,824.0625" fill="none" id="Controllers-to-Settings" style="stroke:#181818;stroke-width:1.875;"/><polygon fill="#181818" points="923.2312,824.0625,906.3562,816.5625,913.8562,824.0625,906.3562,831.5625,923.2312,824.0625" style="stroke:#181818;stroke-width:1.875;"/></g><!--link Controllers to AIAssistant--><g class="link" data-entity-1="ent0004" data-entity-2="ent0014" data-link-type="dependency" data-source-line="50" id="lnk32"><path d="M707.2688,696.5625 C803.4563,696.5625 905.625,696.5625 905.625,696.5625 C905.625,696.5625 905.625,842.775 905.625,919.6688" fill="none" id="Controllers-to-AIAssistant" style="stroke:#181818;stroke-width:1.875;"/><polygon fill="#181818" points="905.625,930.9188,913.125,914.0438,905.625,921.5438,898.125,914.0438,905.625,930.9188" style="stroke:#181818;stroke-width:1.875;"/></g><!--link Billing to Services--><g class="link" data-entity-1="ent0008" data-entity-2="ent0005" data-link-type="dependency" data-source-line="52" id="lnk33"><path d="M1068.1875,1092.6563 C1182.675,1092.6563 1408.125,1092.6563 1408.125,1092.6563 C1408.125,1092.6563 1408.125,895.3313 1408.125,804.0938" fill="none" id="Billing-to-Services" style="stroke:#181818;stroke-width:1.875;"/><polygon fill="#181818" points="1408.125,792.8438,1400.625,809.7188,1408.125,802.2188,1415.625,809.7188,1408.125,792.8438" style="stroke:#181818;stroke-width:1.875;"/></g><!--link Inventory to Services--><g class="link" data-entity-1="ent0009" data-entity-2="ent0005" data-link-type="dependency" data-source-line="53" id="lnk34"><path d="M1095.075,231.5625 C1238.2125,231.5625 1498.125,231.5625 1498.125,231.5625 C1498.125,231.5625 1498.125,574.8188 1498.125,698.0625" fill="none" id="Inventory-to-Services" style="stroke:#181818;stroke-width:1.875;"/><polygon fill="#181818" points="1498.125,709.3125,1505.625,692.4375,1498.125,699.9375,1490.625,692.4375,1498.125,709.3125" style="stroke:#181818;stroke-width:1.875;"/></g><!--link Customers to Services--><g class="link" data-entity-1="ent0010" data-entity-2="ent0005" data-link-type="dependency" data-source-line="54" id="lnk35"><path d="M1103.8125,379.6875 C1223.2125,379.6875 1406.25,379.6875 1406.25,379.6875 C1406.25,379.6875 1406.25,600.7312 1406.25,697.8187" fill="none" id="Customers-to-Services" style="stroke:#181818;stroke-width:1.875;"/><polygon fill="#181818" points="1406.25,709.0687,1413.75,692.1937,1406.25,699.6937,1398.75,692.1937,1406.25,709.0687" style="stroke:#181818;stroke-width:1.875;"/></g><!--link Prescriptions to Services--><g class="link" data-entity-1="ent0011" data-entity-2="ent0005" data-link-type="dependency" data-source-line="55" id="lnk36"><path d="M1093.125,569.2875 C1093.125,628.5188 1093.125,730.3125 1093.125,730.3125 C1093.125,730.3125 1201.1625,730.3125 1302.0562,730.3125" fill="none" id="Prescriptions-to-Services" style="stroke:#181818;stroke-width:1.875;"/><polygon fill="#181818" points="1313.3062,730.3125,1296.4312,722.8125,1303.9312,730.3125,1296.4312,737.8125,1313.3062,730.3125" style="stroke:#181818;stroke-width:1.875;"/></g><!--link Reports to Services--><g class="link" data-entity-1="ent0012" data-entity-2="ent0005" data-link-type="dependency" data-source-line="56" id="lnk37"><path d="M978.75,717.525 C978.75,731.4188 978.75,743.4375 978.75,743.4375 C978.75,743.4375 1162.5938,743.4375 1302.0562,743.4375" fill="none" id="Reports-to-Services" style="stroke:#181818;stroke-width:1.875;"/><polygon fill="#181818" points="1313.3062,743.4375,1296.4312,735.9375,1303.9312,743.4375,1296.4312,750.9375,1313.3062,743.4375" style="stroke:#181818;stroke-width:1.875;"/></g><!--link Settings to Services--><g class="link" data-entity-1="ent0013" data-entity-2="ent0005" data-link-type="dependency" data-source-line="57" id="lnk38"><path d="M1029.375,782.475 C1029.375,768.5813 1029.375,756.5625 1029.375,756.5625 C1029.375,756.5625 1178.8313,756.5625 1301.8688,756.5625" fill="none" id="Settings-to-Services" style="stroke:#181818;stroke-width:1.875;"/><polygon fill="#181818" points="1313.1188,756.5625,1296.2438,749.0625,1303.7438,756.5625,1296.2438,764.0625,1313.1188,756.5625" style="stroke:#181818;stroke-width:1.875;"/></g><!--link AIAssistant to Services--><g class="link" data-entity-1="ent0014" data-entity-2="ent0005" data-link-type="dependency" data-source-line="58" id="lnk39"><path d="M1102.5,930.7125 C1102.5,871.4812 1102.5,769.6875 1102.5,769.6875 C1102.5,769.6875 1204.6875,769.6875 1302.1688,769.6875" fill="none" id="AIAssistant-to-Services" style="stroke:#181818;stroke-width:1.875;"/><polygon fill="#181818" points="1313.4188,769.6875,1296.5438,762.1875,1304.0438,769.6875,1296.5438,777.1875,1313.4188,769.6875" style="stroke:#181818;stroke-width:1.875;"/></g><!--link Services to DB--><g class="link" data-entity-1="ent0005" data-entity-2="ent0006" data-link-type="dependency" data-source-line="60" id="lnk40"><path d="M1496.25,792.6563 C1496.25,891.9 1496.25,1133.9063 1496.25,1133.9063 C1496.25,1133.9063 1618.6875,1133.9063 1729.1625,1133.9063" fill="none" id="Services-to-DB" style="stroke:#181818;stroke-width:1.875;"/><polygon fill="#181818" points="1740.4125,1133.9063,1723.5375,1126.4063,1731.0375,1133.9063,1723.5375,1141.4063,1740.4125,1133.9063" style="stroke:#181818;stroke-width:1.875;"/></g><!--link AIAssistant to LocalAI--><g class="link" data-entity-1="ent0014" data-entity-2="ent0016" data-link-type="dependency" data-source-line="61" id="lnk41"><path d="M1089.375,1014.2437 C1089.375,1127.025 1089.375,1427.8125 1089.375,1427.8125 C1089.375,1427.8125 1203.6187,1427.8125 1306.8,1427.8125" fill="none" id="AIAssistant-to-LocalAI" style="stroke:#181818;stroke-width:1.875;"/><polygon fill="#181818" points="1318.05,1427.8125,1301.175,1420.3125,1308.675,1427.8125,1301.175,1435.3125,1318.05,1427.8125" style="stroke:#181818;stroke-width:1.875;"/></g><!--link LocalAI to DB--><g class="link" data-entity-1="ent0016" data-entity-2="ent0006" data-link-type="dependency" data-source-line="62" id="lnk42"><path d="M1584.6188,1390.3125 C1663.9875,1390.3125 1749.375,1390.3125 1749.375,1390.3125 C1749.375,1390.3125 1749.375,1285.6875 1749.375,1216.8938" fill="none" id="LocalAI-to-DB" style="stroke:#181818;stroke-width:1.875;"/><polygon fill="#181818" points="1749.375,1205.6438,1741.875,1222.5188,1749.375,1215.0188,1756.875,1222.5188,1749.375,1205.6438" style="stroke:#181818;stroke-width:1.875;"/></g><!--link LocalAI to CloudAI--><g class="link" data-entity-1="ent0016" data-entity-2="ent0020" data-link-type="dependency" data-source-line="63" id="lnk43"><path d="M1584.7313,1468.5938 C1712.0063,1468.5938 1884.375,1468.5938 1884.375,1468.5938 C1884.375,1468.5938 1884.375,1478.0813 1884.375,1498.8375" fill="none" id="LocalAI-to-CloudAI" style="stroke:#181818;stroke-width:1.875;"/><polygon fill="#181818" points="1884.375,1510.0875,1891.875,1493.2125,1884.375,1500.7125,1876.875,1493.2125,1884.375,1510.0875" style="stroke:#181818;stroke-width:1.875;"/></g><!--link LocalAI to HF--><g class="link" data-entity-1="ent0016" data-entity-2="ent0021" data-link-type="dependency" data-source-line="64" id="lnk44"><path d="M1584.7313,1417.5 C1641.9,1417.5 1696.9312,1417.5 1752.5813,1417.5" fill="none" id="LocalAI-to-HF" style="stroke:#181818;stroke-width:1.875;"/><polygon fill="#181818" points="1763.8313,1417.5,1746.9563,1410,1754.4563,1417.5,1746.9563,1425,1763.8313,1417.5" style="stroke:#181818;stroke-width:1.875;"/></g><!--link Billing to WA--><g class="link" data-entity-1="ent0008" data-entity-2="ent0018" data-link-type="dependency" data-source-line="65" id="lnk45"><path d="M1025.625,1161.8625 C1025.625,1312.0125 1025.625,1817.8125 1025.625,1817.8125 C1025.625,1817.8125 1165.4063,1817.8125 1287.5438,1817.8125" fill="none" id="Billing-to-WA" style="stroke:#181818;stroke-width:1.875;"/><polygon fill="#181818" points="1298.7938,1817.8125,1281.9188,1810.3125,1289.4188,1817.8125,1281.9188,1825.3125,1298.7938,1817.8125" style="stroke:#181818;stroke-width:1.875;"/></g><!--link Billing to SMTP--><g class="link" data-entity-1="ent0008" data-entity-2="ent0022" data-link-type="dependency" data-source-line="66" id="lnk46"><path d="M982.5,1161.9563 C982.5,1335.975 982.5,1995.9375 982.5,1995.9375 C982.5,1995.9375 1513.4813,1995.9375 1757.0625,1995.9375" fill="none" id="Billing-to-SMTP" style="stroke:#181818;stroke-width:1.875;"/><polygon fill="#181818" points="1768.3125,1995.9375,1751.4375,1988.4375,1758.9375,1995.9375,1751.4375,2003.4375,1768.3125,1995.9375" style="stroke:#181818;stroke-width:1.875;"/></g><!--link WA to WAN--><g class="link" data-entity-1="ent0018" data-entity-2="ent0023" data-link-type="dependency" data-source-line="67" id="lnk47"><path d="M1603.35,1844.5313 C1639.425,1844.5313 1666.875,1844.5313 1703.6625,1844.5313" fill="none" id="WA-to-WAN" style="stroke:#181818;stroke-width:1.875;"/><polygon fill="#181818" points="1714.9125,1844.5313,1698.0375,1837.0313,1705.5375,1844.5313,1698.0375,1852.0313,1714.9125,1844.5313" style="stroke:#181818;stroke-width:1.875;"/></g><!--link AIHosts to MCP--><g class="link" data-entity-1="ent0024" data-entity-2="ent0017" data-link-type="dependency" data-source-line="68" id="lnk48"><path d="M1735.9313,1672.9688 C1690.8562,1672.9688 1652.6812,1672.9688 1607.8313,1672.9688" fill="none" id="AIHosts-to-MCP" style="stroke:#181818;stroke-width:1.875;"/><polygon fill="#181818" points="1596.5813,1672.9688,1613.4563,1680.4688,1605.9563,1672.9688,1613.4563,1665.4688,1596.5813,1672.9688" style="stroke:#181818;stroke-width:1.875;"/></g><!--link MCP to DB--><g class="link" data-entity-1="ent0017" data-entity-2="ent0006" data-link-type="dependency" data-source-line="69" id="lnk49"><path d="M1596.9,1575.4688 C1675.6125,1575.4688 1756.875,1575.4688 1756.875,1575.4688 C1756.875,1575.4688 1756.875,1328.0813 1756.875,1216.9688" fill="none" id="MCP-to-DB" style="stroke:#181818;stroke-width:1.875;"/><polygon fill="#181818" points="1756.875,1205.7188,1749.375,1222.5938,1756.875,1215.0938,1764.375,1222.5938,1756.875,1205.7188" style="stroke:#181818;stroke-width:1.875;"/></g><?plantuml-src VLFBRjim4BphAmZd7DJE0qbxA20x4kmYCTp8G0eqFJ3IHYPCam999KsB_7kNBrbIW5vixivmERixqdic6gheWSjo3nMf6aPcrzD4Z_FmJ5jkSYdCcXw0B2XdJuhzZrUmFq3EFfPAbPAl7M5s_O5Gx6WbNvceoJFb6X8EpuOOIHIhTuPKJ45fc1J7UqIFRXoHXfPxMaDXtZWGUv6AclS9d0amRmqGgSnEze3GoHP-cvIpMXn065BY3wYFzSdVX92vL1MeXUHIaPCqcrylpZ1hEmsvMNxs-VmgUU_TB-MXaGAhZXKciVBa1lJUo8RSjyAm0qp8IPRc5tdktlpvZRxG_0VE33Z_HQZs9ulaG4shS5KeG4dEGMb7wCMMXjDMTkYWNbW9dX83n2jgw1FLgAFuViiCa9kGc5ZYpJn1JYSrRuLR3UNaJbOj1prnAl6PEUCuwjgL3sSFhCGBjY_LcuEwo8EBLXjvw9J7o8CR1RfKhB4lUi8WuqdtqE1cFHpE7YZ061GH6_Q1Xz8LIRLc6bTX79okkXWPxxZ1utfkPOdj5go2aYfjjvFbLrdgj-D1h9U96etsA9RRxOPykPnEfwwmmzELfTujDcxke1v5KMJa4z6cOjAHPuwC34jys56ZqwOXSyMgkgjv7ci-f5PVoMLRaKds6_rgzn5NYWBpFB_8Bht0XQFPXZUhC6IRyPAMRLtRZogd9JXicJl7t6sZL3yyZ0V2rc1UfTe7DMkBTJhmgQNKOI7fofsjNcTRSdhwTU3FtjbXqJdZ_D4sO-JecJ4oDCiOZLuPvpkdZ86-HvAWCzm87rCdSfZk50xJ0tb3A6WR9gEmORQdQWWayUJI-1sFcT6QuJ_I-c6qIZ-75katZsOSpC9QvI4Dq3e91d2njRVz2Fn3_m00?></g></svg>