<?plantuml 1.2026.2?><svg xmlns="http://www.w3.org/2000/svg" xmlns:xlink="http://www.w3.org/1999/xlink" contentStyleType="text/css" data-diagram-type="SEQUENCE" height="2060.625px" preserveAspectRatio="none" style="width:2803px;height:2060px;background:#FFFFFF;" version="1.1" viewBox="0 0 2803 2060" width="2803.125px" zoomAndPan="magnify"><defs/><g><rect fill="#EAF4FF" height="2038.7842" style="stroke:#181818;stroke-width:0.9375;" width="939.7668" x="466.6479" y="11.25"/><text fill="#000000" font-family="Calibri" font-size="37.5" font-weight="bold" lengthAdjust="spacing" textLength="200.2075" x="836.4276" y="47.6514">Desktop App</text><rect fill="#EEF7EA" height="2038.7842" style="stroke:#181818;stroke-width:0.9375;" width="830.9308" x="1447.6648" y="11.25"/><text fill="#000000" font-family="Calibri" font-size="37.5" font-weight="bold" lengthAdjust="spacing" textLength="125.5371" x="1800.3616" y="47.6514">AI Layer</text><rect fill="#FFF4E5" height="2038.7842" style="stroke:#181818;stroke-width:0.9375;" width="462.6526" x="2319.8456" y="11.25"/><text fill="#000000" font-family="Calibri" font-size="37.5" font-weight="bold" lengthAdjust="spacing" textLength="177.8687" x="2462.2375" y="47.6514">Persistence</text><g><title>BillDAO</title><rect fill="#FFFFFF" height="269.7949" style="stroke:#181818;stroke-width:1.875;" width="18.75" x="2422.7527" y="1156.4429"/></g><rect fill="none" height="184.4238" style="stroke:#9AA5B1;stroke-width:2.8125;" width="1066.6608" x="18.75" y="228.4277"/><rect fill="none" height="521.6675" style="stroke:#9AA5B1;stroke-width:2.8125;" width="1834.4476" x="455.3979" y="439.1016"/><rect fill="none" height="454.2188" style="stroke:#9AA5B1;stroke-width:2.8125;" width="2338.3502" x="455.3979" y="987.019"/><rect fill="none" height="251.8726" style="stroke:#9AA5B1;stroke-width:2.8125;" width="962.2668" x="455.3979" y="1467.4878"/><g class="participant-lifeline" data-entity-uid="part1" data-qualified-name="Cashier" id="part1-lifeline"><g><title>Cashier</title><rect fill="#000000" fill-opacity="0.00000" height="1689.5801" width="15" x="91.9574" y="196.5527"/><line style="stroke:#181818;stroke-width:0.9375;stroke-dasharray:9.375,9.375;" x1="99.375" x2="99.375" y1="196.5527" y2="1886.1328"/></g></g><g class="participant-lifeline" data-entity-uid="part2" data-qualified-name="Customer" id="part2-lifeline"><g><title>Customer</title><rect fill="#000000" fill-opacity="0.00000" height="1689.5801" width="15" x="349.3286" y="196.5527"/><line style="stroke:#181818;stroke-width:0.9375;stroke-dasharray:9.375,9.375;" x1="355.7593" x2="355.7593" y1="196.5527" y2="1886.1328"/></g></g><g class="participant-lifeline" data-entity-uid="part3" data-qualified-name="BC" id="part3-lifeline"><g><title>Billing</title><rect fill="#000000" fill-opacity="0.00000" height="1689.5801" width="15" x="590.4364" y="196.5527"/><line style="stroke:#181818;stroke-width:0.9375;stroke-dasharray:9.375,9.375;" x1="597.8979" x2="597.8979" y1="196.5527" y2="1886.1328"/></g></g><g class="participant-lifeline" data-entity-uid="part4" data-qualified-name="BS" id="part4-lifeline"><g><title>Billing</title><rect fill="#000000" fill-opacity="0.00000" height="1689.5801" width="15" x="957.7753" y="196.5527"/><line style="stroke:#181818;stroke-width:0.9375;stroke-dasharray:9.375,9.375;" x1="965.1398" x2="965.1398" y1="196.5527" y2="1886.1328"/></g></g><g class="participant-lifeline" data-entity-uid="part5" data-qualified-name="RS" id="part5-lifeline"><g><title>Report</title><rect fill="#000000" fill-opacity="0.00000" height="1689.5801" width="15" x="1290.0293" y="196.5527"/><line style="stroke:#181818;stroke-width:0.9375;stroke-dasharray:9.375,9.375;" x1="1297.3938" x2="1297.3938" y1="196.5527" y2="1886.1328"/></g></g><g class="participant-lifeline" data-entity-uid="part6" data-qualified-name="AI" id="part6-lifeline"><g><title>AI</title><rect fill="#000000" fill-opacity="0.00000" height="1689.5801" width="15" x="1592.4371" y="196.5527"/><line style="stroke:#181818;stroke-width:0.9375;stroke-dasharray:9.375,9.375;" x1="1599.5398" x2="1599.5398" y1="196.5527" y2="1886.1328"/></g></g><g class="participant-lifeline" data-entity-uid="part7" data-qualified-name="LAS" id="part7-lifeline"><g><title>Local AI</title><rect fill="#000000" fill-opacity="0.00000" height="1689.5801" width="15" x="1861.6296" y="196.5527"/><line style="stroke:#181818;stroke-width:0.9375;stroke-dasharray:9.375,9.375;" x1="1868.4595" x2="1868.4595" y1="196.5527" y2="1886.1328"/></g></g><g class="participant-lifeline" data-entity-uid="part8" data-qualified-name="PY" id="part8-lifeline"><g><title>Local AI</title><rect fill="#000000" fill-opacity="0.00000" height="1689.5801" width="15" x="2157.9254" y="196.5527"/><line style="stroke:#181818;stroke-width:0.9375;stroke-dasharray:9.375,9.375;" x1="2164.7552" x2="2164.7552" y1="196.5527" y2="1886.1328"/></g></g><g class="participant-lifeline" data-entity-uid="part9" data-qualified-name="DAO" id="part9-lifeline"><g><title>BillDAO</title><rect fill="#000000" fill-opacity="0.00000" height="1689.5801" width="15" x="2424.6277" y="196.5527"/><line style="stroke:#181818;stroke-width:0.9375;stroke-dasharray:9.375,9.375;" x1="2430.4706" x2="2430.4706" y1="196.5527" y2="1886.1328"/></g></g><g class="participant-lifeline" data-entity-uid="part10" data-qualified-name="DB" id="part10-lifeline"><g><title>SQLite</title><rect fill="#000000" fill-opacity="0.00000" height="1689.5801" width="15" x="2712.8467" y="196.5527"/><line style="stroke:#181818;stroke-width:0.9375;stroke-dasharray:9.375,9.375;" x1="2720.0702" x2="2720.0702" y1="196.5527" y2="1886.1328"/></g></g><g class="participant participant-head" data-entity-uid="part1" data-qualified-name="Cashier" id="part1-head"><text fill="#000000" font-family="Calibri" font-size="37.5" lengthAdjust="spacing" textLength="112.6648" x="37.5" y="187.1777">Cashier</text><ellipse cx="99.4574" cy="54.2139" fill="#FFFFFF" rx="15" ry="15" style="stroke:#8C98A4;stroke-width:0.9375;"/><path d="M99.4574,69.2139 L99.4574,119.8389 M75.0824,84.2139 L123.8324,84.2139 M99.4574,119.8389 L75.0824,147.9639 M99.4574,119.8389 L123.8324,147.9639" fill="none" style="stroke:#8C98A4;stroke-width:0.9375;"/></g><g class="participant participant-tail" data-entity-uid="part1" data-qualified-name="Cashier" id="part1-tail"><text fill="#000000" font-family="Calibri" font-size="37.5" lengthAdjust="spacing" textLength="112.6648" x="37.5" y="1920.6592">Cashier</text><ellipse cx="99.4574" cy="1945.9717" fill="#FFFFFF" rx="15" ry="15" style="stroke:#8C98A4;stroke-width:0.9375;"/><path d="M99.4574,1960.9717 L99.4574,2011.5967 M75.0824,1975.9717 L123.8324,1975.9717 M99.4574,2011.5967 L75.0824,2039.7217 M99.4574,2011.5967 L123.8324,2039.7217" fill="none" style="stroke:#8C98A4;stroke-width:0.9375;"/></g><g class="participant participant-head" data-entity-uid="part2" data-qualified-name="Customer" id="part2-head"><text fill="#000000" font-family="Calibri" font-size="37.5" lengthAdjust="spacing" textLength="148.3887" x="277.0093" y="187.1777">Customer</text><ellipse cx="356.8286" cy="54.2139" fill="#FFFFFF" rx="15" ry="15" style="stroke:#8C98A4;stroke-width:0.9375;"/><path d="M356.8286,69.2139 L356.8286,119.8389 M332.4536,84.2139 L381.2036,84.2139 M356.8286,119.8389 L332.4536,147.9639 M356.8286,119.8389 L381.2036,147.9639" fill="none" style="stroke:#8C98A4;stroke-width:0.9375;"/></g><g class="participant participant-tail" data-entity-uid="part2" data-qualified-name="Customer" id="part2-tail"><text fill="#000000" font-family="Calibri" font-size="37.5" lengthAdjust="spacing" textLength="148.3887" x="277.0093" y="1920.6592">Customer</text><ellipse cx="356.8286" cy="1945.9717" fill="#FFFFFF" rx="15" ry="15" style="stroke:#8C98A4;stroke-width:0.9375;"/><path d="M356.8286,1960.9717 L356.8286,2011.5967 M332.4536,1975.9717 L381.2036,1975.9717 M356.8286,2011.5967 L332.4536,2039.7217 M356.8286,2011.5967 L381.2036,2039.7217" fill="none" style="stroke:#8C98A4;stroke-width:0.9375;"/></g><g class="participant participant-head" data-entity-uid="part3" data-qualified-name="BC" id="part3-head"><rect fill="#FFFFFF" height="117.8027" rx="4.6875" ry="4.6875" style="stroke:#8C98A4;stroke-width:0.9375;" width="180.0769" x="507.8979" y="76.875"/><text fill="#000000" font-family="Calibri" font-size="37.5" lengthAdjust="spacing" textLength="92.1753" x="551.8488" y="126.4014">Billing</text><text fill="#000000" font-family="Calibri" font-size="37.5" lengthAdjust="spacing" textLength="153.8269" x="521.0229" y="172.1777">Controller</text></g><g class="participant participant-tail" data-entity-uid="part3" data-qualified-name="BC" id="part3-tail"><rect fill="#FFFFFF" height="117.8027" rx="4.6875" ry="4.6875" style="stroke:#8C98A4;stroke-width:0.9375;" width="180.0769" x="507.8979" y="1884.2578"/><text fill="#000000" font-family="Calibri" font-size="37.5" lengthAdjust="spacing" textLength="92.1753" x="551.8488" y="1933.7842">Billing</text><text fill="#000000" font-family="Calibri" font-size="37.5" lengthAdjust="spacing" textLength="153.8269" x="521.0229" y="1979.5605">Controller</text></g><g class="participant participant-head" data-entity-uid="part4" data-qualified-name="BS" id="part4-head"><rect fill="#FFFFFF" height="117.8027" rx="4.6875" ry="4.6875" style="stroke:#8C98A4;stroke-width:0.9375;" width="135.271" x="897.6398" y="76.875"/><text fill="#000000" font-family="Calibri" font-size="37.5" lengthAdjust="spacing" textLength="92.1753" x="919.1876" y="126.4014">Billing</text><text fill="#000000" font-family="Calibri" font-size="37.5" lengthAdjust="spacing" textLength="109.021" x="910.7648" y="172.1777">Service</text></g><g class="participant participant-tail" data-entity-uid="part4" data-qualified-name="BS" id="part4-tail"><rect fill="#FFFFFF" height="117.8027" rx="4.6875" ry="4.6875" style="stroke:#8C98A4;stroke-width:0.9375;" width="135.271" x="897.6398" y="1884.2578"/><text fill="#000000" font-family="Calibri" font-size="37.5" lengthAdjust="spacing" textLength="92.1753" x="919.1876" y="1933.7842">Billing</text><text fill="#000000" font-family="Calibri" font-size="37.5" lengthAdjust="spacing" textLength="109.021" x="910.7648" y="1979.5605">Service</text></g><g class="participant participant-head" data-entity-uid="part5" data-qualified-name="RS" id="part5-head"><rect fill="#FFFFFF" height="117.8027" rx="4.6875" ry="4.6875" style="stroke:#8C98A4;stroke-width:0.9375;" width="135.271" x="1229.8938" y="76.875"/><text fill="#000000" font-family="Calibri" font-size="37.5" lengthAdjust="spacing" textLength="104.1321" x="1245.4633" y="126.4014">Report</text><text fill="#000000" font-family="Calibri" font-size="37.5" lengthAdjust="spacing" textLength="109.021" x="1243.0188" y="172.1777">Service</text></g><g class="participant participant-tail" data-entity-uid="part5" data-qualified-name="RS" id="part5-tail"><rect fill="#FFFFFF" height="117.8027" rx="4.6875" ry="4.6875" style="stroke:#8C98A4;stroke-width:0.9375;" width="135.271" x="1229.8938" y="1884.2578"/><text fill="#000000" font-family="Calibri" font-size="37.5" lengthAdjust="spacing" textLength="104.1321" x="1245.4633" y="1933.7842">Report</text><text fill="#000000" font-family="Calibri" font-size="37.5" lengthAdjust="spacing" textLength="109.021" x="1243.0188" y="1979.5605">Service</text></g><g class="participant participant-head" data-entity-uid="part6" data-qualified-name="AI" id="part6-head"><rect fill="#FFFFFF" height="117.8027" rx="4.6875" ry="4.6875" style="stroke:#8C98A4;stroke-width:0.9375;" width="222.0447" x="1488.9148" y="76.875"/><text fill="#000000" font-family="Calibri" font-size="37.5" lengthAdjust="spacing" textLength="31.1462" x="1584.364" y="126.4014">AI</text><text fill="#000000" font-family="Calibri" font-size="37.5" lengthAdjust="spacing" textLength="195.7947" x="1502.0398" y="172.1777">Orchestrator</text></g><g class="participant participant-tail" data-entity-uid="part6" data-qualified-name="AI" id="part6-tail"><rect fill="#FFFFFF" height="117.8027" rx="4.6875" ry="4.6875" style="stroke:#8C98A4;stroke-width:0.9375;" width="222.0447" x="1488.9148" y="1884.2578"/><text fill="#000000" font-family="Calibri" font-size="37.5" lengthAdjust="spacing" textLength="31.1462" x="1584.364" y="1933.7842">AI</text><text fill="#000000" font-family="Calibri" font-size="37.5" lengthAdjust="spacing" textLength="195.7947" x="1502.0398" y="1979.5605">Orchestrator</text></g><g class="participant participant-head" data-entity-uid="part7" data-qualified-name="LAS" id="part7-head"><rect fill="#FFFFFF" height="117.8027" rx="4.6875" ry="4.6875" style="stroke:#8C98A4;stroke-width:0.9375;" width="143.8403" x="1797.2095" y="76.875"/><text fill="#000000" font-family="Calibri" font-size="37.5" lengthAdjust="spacing" textLength="117.5903" x="1810.3345" y="126.4014">Local AI</text><text fill="#000000" font-family="Calibri" font-size="37.5" lengthAdjust="spacing" textLength="109.021" x="1814.6191" y="172.1777">Service</text></g><g class="participant participant-tail" data-entity-uid="part7" data-qualified-name="LAS" id="part7-tail"><rect fill="#FFFFFF" height="117.8027" rx="4.6875" ry="4.6875" style="stroke:#8C98A4;stroke-width:0.9375;" width="143.8403" x="1797.2095" y="1884.2578"/><text fill="#000000" font-family="Calibri" font-size="37.5" lengthAdjust="spacing" textLength="117.5903" x="1810.3345" y="1933.7842">Local AI</text><text fill="#000000" font-family="Calibri" font-size="37.5" lengthAdjust="spacing" textLength="109.021" x="1814.6191" y="1979.5605">Service</text></g><g class="participant participant-head" data-entity-uid="part8" data-qualified-name="PY" id="part8-head"><rect fill="#FFFFFF" height="117.8027" rx="4.6875" ry="4.6875" style="stroke:#8C98A4;stroke-width:0.9375;" width="143.8403" x="2093.5052" y="76.875"/><text fill="#000000" font-family="Calibri" font-size="37.5" lengthAdjust="spacing" textLength="117.5903" x="2106.6302" y="126.4014">Local AI</text><text fill="#000000" font-family="Calibri" font-size="37.5" lengthAdjust="spacing" textLength="102.6306" x="2114.1101" y="172.1777">Engine</text></g><g class="participant participant-tail" data-entity-uid="part8" data-qualified-name="PY" id="part8-tail"><rect fill="#FFFFFF" height="117.8027" rx="4.6875" ry="4.6875" style="stroke:#8C98A4;stroke-width:0.9375;" width="143.8403" x="2093.5052" y="1884.2578"/><text fill="#000000" font-family="Calibri" font-size="37.5" lengthAdjust="spacing" textLength="117.5903" x="2106.6302" y="1933.7842">Local AI</text><text fill="#000000" font-family="Calibri" font-size="37.5" lengthAdjust="spacing" textLength="102.6306" x="2114.1101" y="1979.5605">Engine</text></g><g class="participant participant-head" data-entity-uid="part9" data-qualified-name="DAO" id="part9-head"><rect fill="#FFFFFF" height="72.0264" rx="4.6875" ry="4.6875" style="stroke:#8C98A4;stroke-width:0.9375;" width="142.0642" x="2361.0956" y="122.6514"/><text fill="#000000" font-family="Calibri" font-size="37.5" lengthAdjust="spacing" textLength="115.8142" x="2374.2206" y="172.1777">BillDAO</text></g><g class="participant participant-tail" data-entity-uid="part9" data-qualified-name="DAO" id="part9-tail"><rect fill="#FFFFFF" height="72.0264" rx="4.6875" ry="4.6875" style="stroke:#8C98A4;stroke-width:0.9375;" width="142.0642" x="2361.0956" y="1884.2578"/><text fill="#000000" font-family="Calibri" font-size="37.5" lengthAdjust="spacing" textLength="115.8142" x="2374.2206" y="1933.7842">BillDAO</text></g><g class="participant participant-head" data-entity-uid="part10" data-qualified-name="DB" id="part10-head"><text fill="#000000" font-family="Calibri" font-size="37.5" lengthAdjust="spacing" textLength="98.053" x="2665.6952" y="187.1777">SQLite</text><path d="M2686.5967,83.2764 C2686.5967,64.5264 2720.3467,64.5264 2720.3467,64.5264 C2720.3467,64.5264 2754.0967,64.5264 2754.0967,83.2764 L2754.0967,132.0264 C2754.0967,150.7764 2720.3467,150.7764 2720.3467,150.7764 C2720.3467,150.7764 2686.5967,150.7764 2686.5967,132.0264 L2686.5967,83.2764" fill="#E2E2F0" style="stroke:#181818;stroke-width:0.9375;"/><path d="M2686.5967,83.2764 C2686.5967,102.0264 2720.3467,102.0264 2720.3467,102.0264 C2720.3467,102.0264 2754.0967,102.0264 2754.0967,83.2764" fill="none" style="stroke:#181818;stroke-width:0.9375;"/></g><g class="participant participant-tail" data-entity-uid="part10" data-qualified-name="DB" id="part10-tail"><text fill="#000000" font-family="Calibri" font-size="37.5" lengthAdjust="spacing" textLength="98.053" x="2665.6952" y="1920.6592">SQLite</text><path d="M2686.5967,1948.7842 C2686.5967,1930.0342 2720.3467,1930.0342 2720.3467,1930.0342 C2720.3467,1930.0342 2754.0967,1930.0342 2754.0967,1948.7842 L2754.0967,1997.5342 C2754.0967,2016.2842 2720.3467,2016.2842 2720.3467,2016.2842 C2720.3467,2016.2842 2686.5967,2016.2842 2686.5967,1997.5342 L2686.5967,1948.7842" fill="#E2E2F0" style="stroke:#181818;stroke-width:0.9375;"/><path d="M2686.5967,1948.7842 C2686.5967,1967.5342 2720.3467,1967.5342 2720.3467,1967.5342 C2720.3467,1967.5342 2754.0967,1967.5342 2754.0967,1948.7842" fill="none" style="stroke:#181818;stroke-width:0.9375;"/></g><g><title>BillDAO</title><rect fill="#FFFFFF" height="269.7949" style="stroke:#181818;stroke-width:1.875;" width="18.75" x="2422.7527" y="1156.4429"/></g><path d="M18.75,228.4277 L376.2817,228.4277 L376.2817,259.2041 L357.5317,277.9541 L18.75,277.9541 L18.75,228.4277" fill="#FFFFFF" style="stroke:#9AA5B1;stroke-width:2.8125;"/><rect fill="none" height="184.4238" style="stroke:#9AA5B1;stroke-width:2.8125;" width="1066.6608" x="18.75" y="228.4277"/><text fill="#000000" font-family="Calibri" font-size="37.5" font-weight="bold" lengthAdjust="spacing" textLength="273.1567" x="46.875" y="266.7041">Prepare checkout</text><g class="message" data-entity-1="part1" data-entity-2="part3" id="msg1"><polygon fill="#5B6B7A" points="575.4364,322.9028,594.1864,330.4028,575.4364,337.9028,582.9364,330.4028" style="stroke:#5B6B7A;stroke-width:1.875;"/><line style="stroke:#5B6B7A;stroke-width:1.875;" x1="99.4574" x2="586.6864" y1="330.4028" y2="330.4028"/><text fill="#000000" font-family="Calibri" font-size="33.75" lengthAdjust="spacing" textLength="145.7117" x="275.8411" y="318.2153">checkout()</text></g><g class="message" data-entity-1="part3" data-entity-2="part4" id="msg2"><polygon fill="#5B6B7A" points="942.7753,390.3516,961.5253,397.8516,942.7753,405.3516,950.2753,397.8516" style="stroke:#5B6B7A;stroke-width:1.875;"/><line style="stroke:#5B6B7A;stroke-width:1.875;" x1="597.9364" x2="954.0253" y1="397.8516" y2="397.8516"/><text fill="#000000" font-family="Calibri" font-size="33.75" lengthAdjust="spacing" textLength="222.0941" x="670.5588" y="385.6641">snapshotItems()</text></g><path d="M455.3979,439.1016 L900.4724,439.1016 L900.4724,469.8779 L881.7224,488.6279 L455.3979,488.6279 L455.3979,439.1016" fill="#FFFFFF" style="stroke:#9AA5B1;stroke-width:2.8125;"/><rect fill="none" height="521.6675" style="stroke:#9AA5B1;stroke-width:2.8125;" width="1834.4476" x="455.3979" y="439.1016"/><text fill="#000000" font-family="Calibri" font-size="37.5" font-weight="bold" lengthAdjust="spacing" textLength="360.6995" x="483.5229" y="477.3779">Generate care protocol</text><g class="message" data-entity-1="part3" data-entity-2="part4" id="msg3"><polygon fill="#5B6B7A" points="942.7753,533.5767,961.5253,541.0767,942.7753,548.5767,950.2753,541.0767" style="stroke:#5B6B7A;stroke-width:1.875;"/><line style="stroke:#5B6B7A;stroke-width:1.875;" x1="597.9364" x2="954.0253" y1="541.0767" y2="541.0767"/><text fill="#000000" font-family="Calibri" font-size="33.75" lengthAdjust="spacing" textLength="322.3389" x="620.4364" y="528.8892">generateCareProtocol()</text></g><g class="message" data-entity-1="part4" data-entity-2="part6" id="msg4"><polygon fill="#5B6B7A" points="1577.4371,601.0254,1596.1871,608.5254,1577.4371,616.0254,1584.9371,608.5254" style="stroke:#5B6B7A;stroke-width:1.875;"/><line style="stroke:#5B6B7A;stroke-width:1.875;" x1="965.2753" x2="1588.6871" y1="608.5254" y2="608.5254"/><text fill="#000000" font-family="Calibri" font-size="33.75" lengthAdjust="spacing" textLength="179.3628" x="1192.9248" y="596.3379">orchestrate()</text></g><g class="message" data-entity-1="part6" data-entity-2="part7" id="msg5"><polygon fill="#5B6B7A" points="1846.6296,668.4741,1865.3796,675.9741,1846.6296,683.4741,1854.1296,675.9741" style="stroke:#5B6B7A;stroke-width:1.875;"/><line style="stroke:#5B6B7A;stroke-width:1.875;" x1="1599.9371" x2="1857.8796" y1="675.9741" y2="675.9741"/><text fill="#000000" font-family="Calibri" font-size="33.75" lengthAdjust="spacing" textLength="139.6802" x="1664.6933" y="663.7866">delegate()</text></g><g class="message" data-entity-1="part7" data-entity-2="part8" id="msg6"><polygon fill="#5B6B7A" points="2142.9254,735.9229,2161.6754,743.4229,2142.9254,750.9229,2150.4254,743.4229" style="stroke:#5B6B7A;stroke-width:1.875;"/><line style="stroke:#5B6B7A;stroke-width:1.875;" x1="1869.1296" x2="2154.1754" y1="743.4229" y2="743.4229"/><text fill="#000000" font-family="Calibri" font-size="33.75" lengthAdjust="spacing" textLength="251.2958" x="1891.6296" y="731.2354">POST /orchestrate</text></g><g class="message" data-entity-1="part8" data-entity-2="part7" id="msg7"><polygon fill="#5B6B7A" points="1889.7546,803.3716,1871.0046,810.8716,1889.7546,818.3716,1882.2546,810.8716" style="stroke:#5B6B7A;stroke-width:1.875;"/><line style="stroke:#5B6B7A;stroke-width:1.875;stroke-dasharray:3.75,3.75;" x1="1878.5046" x2="2163.5504" y1="810.8716" y2="810.8716"/><text fill="#000000" font-family="Calibri" font-size="33.75" lengthAdjust="spacing" textLength="174.9133" x="1929.8209" y="798.6841">careProtocol</text></g><g class="message" data-entity-1="part7" data-entity-2="part6" id="msg8"><polygon fill="#5B6B7A" points="1620.5621,870.8203,1601.8121,878.3203,1620.5621,885.8203,1613.0621,878.3203" style="stroke:#5B6B7A;stroke-width:1.875;"/><line style="stroke:#5B6B7A;stroke-width:1.875;stroke-dasharray:3.75,3.75;" x1="1609.3121" x2="1867.2546" y1="878.3203" y2="878.3203"/><text fill="#000000" font-family="Calibri" font-size="33.75" lengthAdjust="spacing" textLength="174.9133" x="1647.0767" y="866.1328">careProtocol</text></g><g class="message" data-entity-1="part6" data-entity-2="part4" id="msg9"><polygon fill="#5B6B7A" points="985.9003,938.269,967.1503,945.769,985.9003,953.269,978.4003,945.769" style="stroke:#5B6B7A;stroke-width:1.875;"/><line style="stroke:#5B6B7A;stroke-width:1.875;stroke-dasharray:3.75,3.75;" x1="974.6503" x2="1598.0621" y1="945.769" y2="945.769"/><text fill="#000000" font-family="Calibri" font-size="33.75" lengthAdjust="spacing" textLength="174.9133" x="1195.1495" y="933.5815">careProtocol</text></g><path d="M455.3979,987.019 L733.0408,987.019 L733.0408,1017.7954 L714.2908,1036.5454 L455.3979,1036.5454 L455.3979,987.019" fill="#FFFFFF" style="stroke:#9AA5B1;stroke-width:2.8125;"/><rect fill="none" height="454.2188" style="stroke:#9AA5B1;stroke-width:2.8125;" width="2338.3502" x="455.3979" y="987.019"/><text fill="#000000" font-family="Calibri" font-size="37.5" font-weight="bold" lengthAdjust="spacing" textLength="193.2678" x="483.5229" y="1025.2954">Commit sale</text><g class="message" data-entity-1="part3" data-entity-2="part4" id="msg10"><polygon fill="#5B6B7A" points="942.7753,1081.4941,961.5253,1088.9941,942.7753,1096.4941,950.2753,1088.9941" style="stroke:#5B6B7A;stroke-width:1.875;"/><line style="stroke:#5B6B7A;stroke-width:1.875;" x1="597.9364" x2="954.0253" y1="1088.9941" y2="1088.9941"/><text fill="#000000" font-family="Calibri" font-size="33.75" lengthAdjust="spacing" textLength="278.833" x="642.1893" y="1076.8066">completeCheckout()</text></g><g class="message" data-entity-1="part4" data-entity-2="part9" id="msg11"><polygon fill="#5B6B7A" points="2400.2527,1148.9429,2419.0027,1156.4429,2400.2527,1163.9429,2407.7527,1156.4429" style="stroke:#5B6B7A;stroke-width:1.875;"/><line style="stroke:#5B6B7A;stroke-width:1.875;" x1="965.2753" x2="2411.5027" y1="1156.4429" y2="1156.4429"/><text fill="#000000" font-family="Calibri" font-size="33.75" lengthAdjust="spacing" textLength="241.7871" x="1573.1204" y="1144.2554">generateInvoice()</text></g><g class="message" data-entity-1="part9" data-entity-2="part10" id="msg12"><polygon fill="#5B6B7A" points="2697.8467,1216.3916,2716.5967,1223.8916,2697.8467,1231.3916,2705.3467,1223.8916" style="stroke:#5B6B7A;stroke-width:1.875;"/><line style="stroke:#5B6B7A;stroke-width:1.875;" x1="2441.5027" x2="2709.0967" y1="1223.8916" y2="1223.8916"/><text fill="#000000" font-family="Calibri" font-size="33.75" lengthAdjust="spacing" textLength="168.4204" x="2496.7145" y="1211.7041">persistSale()</text></g><g class="message" data-entity-1="part10" data-entity-2="part9" id="msg13"><polygon fill="#5B6B7A" points="2462.1277,1283.8403,2443.3777,1291.3403,2462.1277,1298.8403,2454.6277,1291.3403" style="stroke:#5B6B7A;stroke-width:1.875;"/><line style="stroke:#5B6B7A;stroke-width:1.875;stroke-dasharray:3.75,3.75;" x1="2450.8777" x2="2718.4717" y1="1291.3403" y2="1291.3403"/><text fill="#000000" font-family="Calibri" font-size="33.75" lengthAdjust="spacing" textLength="67.2034" x="2547.323" y="1279.1528">billId</text></g><g class="message" data-entity-1="part4" data-entity-2="part9" id="msg14"><polygon fill="#5B6B7A" points="2400.2527,1351.2891,2419.0027,1358.7891,2400.2527,1366.2891,2407.7527,1358.7891" style="stroke:#5B6B7A;stroke-width:1.875;"/><line style="stroke:#5B6B7A;stroke-width:1.875;" x1="965.2753" x2="2411.5027" y1="1358.7891" y2="1358.7891"/><text fill="#000000" font-family="Calibri" font-size="33.75" lengthAdjust="spacing" textLength="260.5078" x="1563.7601" y="1346.6016">saveCareProtocol()</text></g><g class="message" data-entity-1="part9" data-entity-2="part10" id="msg15"><polygon fill="#5B6B7A" points="2697.8467,1418.7378,2716.5967,1426.2378,2697.8467,1433.7378,2705.3467,1426.2378" style="stroke:#5B6B7A;stroke-width:1.875;"/><line style="stroke:#5B6B7A;stroke-width:1.875;" x1="2432.1277" x2="2709.0967" y1="1426.2378" y2="1426.2378"/><text fill="#000000" font-family="Calibri" font-size="33.75" lengthAdjust="spacing" textLength="233.844" x="2459.3152" y="1414.0503">updateProtocol()</text></g><path d="M455.3979,1467.4878 L804.7632,1467.4878 L804.7632,1498.2642 L786.0132,1517.0142 L455.3979,1517.0142 L455.3979,1467.4878" fill="#FFFFFF" style="stroke:#9AA5B1;stroke-width:2.8125;"/><rect fill="none" height="251.8726" style="stroke:#9AA5B1;stroke-width:2.8125;" width="962.2668" x="455.3979" y="1467.4878"/><text fill="#000000" font-family="Calibri" font-size="37.5" font-weight="bold" lengthAdjust="spacing" textLength="264.9902" x="483.5229" y="1505.7642">Generate invoice</text><g class="message" data-entity-1="part4" data-entity-2="part5" id="msg16"><polygon fill="#5B6B7A" points="1275.0293,1561.9629,1293.7793,1569.4629,1275.0293,1576.9629,1282.5293,1569.4629" style="stroke:#5B6B7A;stroke-width:1.875;"/><line style="stroke:#5B6B7A;stroke-width:1.875;" x1="965.2753" x2="1286.2793" y1="1569.4629" y2="1569.4629"/><text fill="#000000" font-family="Calibri" font-size="33.75" lengthAdjust="spacing" textLength="287.254" x="987.7753" y="1557.2754">generateInvoicePdf()</text></g><g class="message" data-entity-1="part5" data-entity-2="part4" id="msg17"><polygon fill="#5B6B7A" points="985.9003,1629.4116,967.1503,1636.9116,985.9003,1644.4116,978.4003,1636.9116" style="stroke:#5B6B7A;stroke-width:1.875;"/><line style="stroke:#5B6B7A;stroke-width:1.875;stroke-dasharray:3.75,3.75;" x1="974.6503" x2="1295.6543" y1="1636.9116" y2="1636.9116"/><text fill="#000000" font-family="Calibri" font-size="33.75" lengthAdjust="spacing" textLength="108.4021" x="1077.2012" y="1624.7241">pdfPath</text></g><g class="message" data-entity-1="part4" data-entity-2="part3" id="msg18"><polygon fill="#5B6B7A" points="618.5614,1696.8604,599.8114,1704.3604,618.5614,1711.8604,611.0614,1704.3604" style="stroke:#5B6B7A;stroke-width:1.875;"/><line style="stroke:#5B6B7A;stroke-width:1.875;stroke-dasharray:3.75,3.75;" x1="607.3114" x2="963.4003" y1="1704.3604" y2="1704.3604"/><text fill="#000000" font-family="Calibri" font-size="33.75" lengthAdjust="spacing" textLength="214.0686" x="674.5715" y="1692.1729">CheckoutResult</text></g><g class="message" data-entity-1="part3" data-entity-2="part1" id="msg19"><polygon fill="#5B6B7A" points="120.0824,1777.4341,101.3324,1784.9341,120.0824,1792.4341,112.5824,1784.9341" style="stroke:#5B6B7A;stroke-width:1.875;"/><line style="stroke:#5B6B7A;stroke-width:1.875;stroke-dasharray:3.75,3.75;" x1="108.8324" x2="596.0614" y1="1784.9341" y2="1784.9341"/><text fill="#000000" font-family="Calibri" font-size="33.75" lengthAdjust="spacing" textLength="198.2977" x="249.548" y="1772.7466">showSuccess()</text></g><g class="message" data-entity-1="part1" data-entity-2="part2" id="msg20"><polygon fill="#5B6B7A" points="334.3286,1844.8828,353.0786,1852.3828,334.3286,1859.8828,341.8286,1852.3828" style="stroke:#5B6B7A;stroke-width:1.875;"/><line style="stroke:#5B6B7A;stroke-width:1.875;stroke-dasharray:3.75,3.75;" x1="99.4574" x2="345.5786" y1="1852.3828" y2="1852.3828"/><text fill="#000000" font-family="Calibri" font-size="33.75" lengthAdjust="spacing" textLength="212.3712" x="121.9574" y="1840.1953">deliverInvoice()</text></g><?plantuml-src bPNFRzem5CVl_1KMNBP3jJ6rA-rXafD2XSJM3EzIgHVZFC32s9xjGBU_ViyX2GcKIkC2UT_F-_q0lv7QSiUtoeWDv2ItaWn7dtl-r0vBNgWmCJhyu5iWALTouUHx79D_WNmv3qMTC_i668xE0BRckTbBlI9BhZmSTU8lA_2x02tWEtZFLq2LN6aYG0TmBSg1jqRxcaf0cNrP3WckQ8ShZQbHnf71JV8rkQKjCUCkI24jro7ZUHxBQNT14lFQs5lj4rRL-EXCOHFZSd1LYZjARvBXHPIBpGe_wBp29-NhxOh-3suNCKhlHlIw1Sxa4cPIGuTAHkamJT-YpXBJIJ9farG4uzvFUK0kjD3ZKSNJysk9QwsU2X_C5Xzx2_DA-W_WDy5OGgtjay6OJgxHqHux9lr4AeMhUT4fdg0pIe7h4-v9abxW6BYT5720M1UQWpKkT9avwu7E2PPJrKIdPCR_n3I3yNXoEwRT67Jwef-SM8CFZcDBPH0wxK8p8xWY4Msdcb5s2Hlh5IwbfBBdau8oS5xw40-iNqxtUdnptlm3VIhTyRsNyy0Nt0DXFsSoG6bEZb7ZjYp9760G8DYAs9WYz4YzAtBr3UTBxXlfmqSKqHBj3ErUS-lN9am3R3sA6BcE-WWQS2uODiQspWGZZEgwhoecHIIhY4CA5XbSm3qnpOYXbD284auGjHmKh6eXcb39db78djWlygdbYZeALusdQ6MiVUkC9rfCM1VSaLhDfcQxbO5uhg3ReJ1Rgm0xx0omB1Jtqnh1LEyCdaUfupT4xkBeuWf92KO-GTmUJe1XeX95urKJQu7Rd-Od2JpVdS-t7RAmU2LTEOTE2MzjLHxgRPBDsNapMRuimytPSO8sNsOyh2k_-hxgySp1ux_G8M6S8khrAM8dQxDdXH3u9u1XcnEDJFLZSZW9kGFNZFCV?></g></svg>