<?plantuml 1.2026.2?><svg xmlns="http://www.w3.org/2000/svg" xmlns:xlink="http://www.w3.org/1999/xlink" contentStyleType="text/css" data-diagram-type="DESCRIPTION" height="1243.125px" preserveAspectRatio="none" style="width:2491px;height:1243px;background:#FFFFFF;" version="1.1" viewBox="0 0 2491 1243" width="2491.875px" zoomAndPan="magnify"><defs/><g><!--cluster View--><g class="cluster" data-qualified-name="View" data-source-line="13" id="ent0002"><rect fill="#EAF4FF" height="712.5" rx="4.6875" ry="4.6875" style="stroke:#8C98A4;stroke-width:1.875;" width="455.625" x="13.125" y="14.0625"/><text fill="#000000" font-family="Calibri" font-size="37.5" font-weight="bold" lengthAdjust="spacing" textLength="78.2043" x="201.8353" y="54.2139">View</text></g><!--cluster Controller--><g class="cluster" data-qualified-name="Controller" data-source-line="20" id="ent0007"><rect fill="#EEF7EA" height="712.5" rx="4.6875" ry="4.6875" style="stroke:#8C98A4;stroke-width:1.875;" width="453.75" x="521.25" y="14.0625"/><text fill="#000000" font-family="Calibri" font-size="37.5" font-weight="bold" lengthAdjust="spacing" textLength="157.251" x="669.4995" y="54.2139">Controller</text></g><!--cluster Model--><g class="cluster" data-qualified-name="Model" data-source-line="27" id="ent0012"><rect fill="#FFF4E5" height="378.75" rx="4.6875" ry="4.6875" style="stroke:#8C98A4;stroke-width:1.875;" width="1293.75" x="1027.5" y="96.5625"/><text fill="#000000" font-family="Calibri" font-size="37.5" font-weight="bold" lengthAdjust="spacing" textLength="101.1475" x="1623.8013" y="136.7139">Model</text></g><!--cluster Integrations--><g class="cluster" data-qualified-name="Integrations" data-source-line="34" id="ent0017"><rect fill="#F3E8FF" height="712.5" rx="4.6875" ry="4.6875" style="stroke:#8C98A4;stroke-width:1.875;" width="795" x="1520.625" y="520.3125"/><text fill="#000000" font-family="Calibri" font-size="37.5" font-weight="bold" lengthAdjust="spacing" textLength="189.0747" x="1823.5876" y="560.4639">Integrations</text></g><!--entity LoginView--><g class="entity" data-qualified-name="View.LoginView" data-source-line="14" id="ent0003"><rect fill="#F1F1F1" height="102.0264" rx="4.6875" ry="4.6875" style="stroke:#181818;stroke-width:0.9375;" width="307.5439" x="87.1875" y="94.6875"/><rect fill="#F1F1F1" height="18.75" style="stroke:#181818;stroke-width:0.9375;" width="28.125" x="357.2314" y="104.0625"/><rect fill="#F1F1F1" height="3.75" style="stroke:#181818;stroke-width:0.9375;" width="7.5" x="353.4814" y="107.8125"/><rect fill="#F1F1F1" height="3.75" style="stroke:#181818;stroke-width:0.9375;" width="7.5" x="353.4814" y="115.3125"/><text fill="#000000" font-family="Calibri" font-size="37.5" lengthAdjust="spacing" textLength="232.5439" x="115.3125" y="168.5889">login-view.fxml</text></g><!--entity BillingView--><g class="entity" data-qualified-name="View.BillingView" data-source-line="15" id="ent0004"><rect fill="#F1F1F1" height="102.0264" rx="4.6875" ry="4.6875" style="stroke:#181818;stroke-width:0.9375;" width="324.6826" x="78.75" y="261.5625"/><rect fill="#F1F1F1" height="18.75" style="stroke:#181818;stroke-width:0.9375;" width="28.125" x="365.9326" y="270.9375"/><rect fill="#F1F1F1" height="3.75" style="stroke:#181818;stroke-width:0.9375;" width="7.5" x="362.1826" y="274.6875"/><rect fill="#F1F1F1" height="3.75" style="stroke:#181818;stroke-width:0.9375;" width="7.5" x="362.1826" y="282.1875"/><text fill="#000000" font-family="Calibri" font-size="37.5" lengthAdjust="spacing" textLength="249.6826" x="106.875" y="335.4639">billing-view.fxml</text></g><!--entity DashboardView--><g class="entity" data-qualified-name="View.DashboardView" data-source-line="16" id="ent0005"><rect fill="#F1F1F1" height="102.0264" rx="4.6875" ry="4.6875" style="stroke:#181818;stroke-width:0.9375;" width="395.4529" x="43.125" y="428.4375"/><rect fill="#F1F1F1" height="18.75" style="stroke:#181818;stroke-width:0.9375;" width="28.125" x="401.0779" y="437.8125"/><rect fill="#F1F1F1" height="3.75" style="stroke:#181818;stroke-width:0.9375;" width="7.5" x="397.3279" y="441.5625"/><rect fill="#F1F1F1" height="3.75" style="stroke:#181818;stroke-width:0.9375;" width="7.5" x="397.3279" y="449.0625"/><text fill="#000000" font-family="Calibri" font-size="37.5" lengthAdjust="spacing" textLength="320.4529" x="71.25" y="502.3389">dashboard-view.fxml</text></g><!--entity SettingsView--><g class="entity" data-qualified-name="View.SettingsView" data-source-line="17" id="ent0006"><rect fill="#F1F1F1" height="102.0264" rx="4.6875" ry="4.6875" style="stroke:#181818;stroke-width:0.9375;" width="352.2766" x="64.6875" y="595.3125"/><rect fill="#F1F1F1" height="18.75" style="stroke:#181818;stroke-width:0.9375;" width="28.125" x="379.4641" y="604.6875"/><rect fill="#F1F1F1" height="3.75" style="stroke:#181818;stroke-width:0.9375;" width="7.5" x="375.7141" y="608.4375"/><rect fill="#F1F1F1" height="3.75" style="stroke:#181818;stroke-width:0.9375;" width="7.5" x="375.7141" y="615.9375"/><text fill="#000000" font-family="Calibri" font-size="37.5" lengthAdjust="spacing" textLength="277.2766" x="92.8125" y="669.2139">settings-view.fxml</text></g><!--entity LoginController--><g class="entity" data-qualified-name="Controller.LoginController" data-source-line="21" id="ent0008"><rect fill="#F1F1F1" height="102.0264" rx="4.6875" ry="4.6875" style="stroke:#181818;stroke-width:0.9375;" width="310.3271" x="592.5" y="94.6875"/><rect fill="#F1F1F1" height="18.75" style="stroke:#181818;stroke-width:0.9375;" width="28.125" x="865.3271" y="104.0625"/><rect fill="#F1F1F1" height="3.75" style="stroke:#181818;stroke-width:0.9375;" width="7.5" x="861.5771" y="107.8125"/><rect fill="#F1F1F1" height="3.75" style="stroke:#181818;stroke-width:0.9375;" width="7.5" x="861.5771" y="115.3125"/><text fill="#000000" font-family="Calibri" font-size="37.5" lengthAdjust="spacing" textLength="235.3271" x="620.625" y="168.5889">LoginController</text></g><!--entity BillingController--><g class="entity" data-qualified-name="Controller.BillingController" data-source-line="22" id="ent0009"><rect fill="#F1F1F1" height="102.0264" rx="4.6875" ry="4.6875" style="stroke:#181818;stroke-width:0.9375;" width="321.0022" x="587.8125" y="261.5625"/><rect fill="#F1F1F1" height="18.75" style="stroke:#181818;stroke-width:0.9375;" width="28.125" x="871.3147" y="270.9375"/><rect fill="#F1F1F1" height="3.75" style="stroke:#181818;stroke-width:0.9375;" width="7.5" x="867.5647" y="274.6875"/><rect fill="#F1F1F1" height="3.75" style="stroke:#181818;stroke-width:0.9375;" width="7.5" x="867.5647" y="282.1875"/><text fill="#000000" font-family="Calibri" font-size="37.5" lengthAdjust="spacing" textLength="246.0022" x="615.9375" y="335.4639">BillingController</text></g><!--entity DashboardController--><g class="entity" data-qualified-name="Controller.DashboardController" data-source-line="23" id="ent0010"><rect fill="#F1F1F1" height="102.0264" rx="4.6875" ry="4.6875" style="stroke:#181818;stroke-width:0.9375;" width="394.4458" x="551.25" y="428.4375"/><rect fill="#F1F1F1" height="18.75" style="stroke:#181818;stroke-width:0.9375;" width="28.125" x="908.1958" y="437.8125"/><rect fill="#F1F1F1" height="3.75" style="stroke:#181818;stroke-width:0.9375;" width="7.5" x="904.4458" y="441.5625"/><rect fill="#F1F1F1" height="3.75" style="stroke:#181818;stroke-width:0.9375;" width="7.5" x="904.4458" y="449.0625"/><text fill="#000000" font-family="Calibri" font-size="37.5" lengthAdjust="spacing" textLength="319.4458" x="579.375" y="502.3389">DashboardController</text></g><!--entity SettingsController--><g class="entity" data-qualified-name="Controller.SettingsController" data-source-line="24" id="ent0011"><rect fill="#F1F1F1" height="102.0264" rx="4.6875" ry="4.6875" style="stroke:#181818;stroke-width:0.9375;" width="350.4639" x="572.8125" y="595.3125"/><rect fill="#F1F1F1" height="18.75" style="stroke:#181818;stroke-width:0.9375;" width="28.125" x="885.7764" y="604.6875"/><rect fill="#F1F1F1" height="3.75" style="stroke:#181818;stroke-width:0.9375;" width="7.5" x="882.0264" y="608.4375"/><rect fill="#F1F1F1" height="3.75" style="stroke:#181818;stroke-width:0.9375;" width="7.5" x="882.0264" y="615.9375"/><text fill="#000000" font-family="Calibri" font-size="37.5" lengthAdjust="spacing" textLength="275.4639" x="600.9375" y="669.2139">SettingsController</text></g><!--entity Services--><g class="entity" data-qualified-name="Model.Services" data-source-line="28" id="ent0013"><rect fill="#F1F1F1" height="102.0264" rx="4.6875" ry="4.6875" style="stroke:#181818;stroke-width:0.9375;" width="379.9438" x="1057.5" y="344.0625"/><rect fill="#F1F1F1" height="18.75" style="stroke:#181818;stroke-width:0.9375;" width="28.125" x="1399.9438" y="353.4375"/><rect fill="#F1F1F1" height="3.75" style="stroke:#181818;stroke-width:0.9375;" width="7.5" x="1396.1938" y="357.1875"/><rect fill="#F1F1F1" height="3.75" style="stroke:#181818;stroke-width:0.9375;" width="7.5" x="1396.1938" y="364.6875"/><text fill="#000000" font-family="Calibri" font-size="37.5" lengthAdjust="spacing" textLength="304.9438" x="1085.625" y="417.9639">Application Services</text></g><!--entity Domain--><g class="entity" data-qualified-name="Model.Domain" data-source-line="29" id="ent0014"><rect fill="#F1F1F1" height="102.0264" rx="4.6875" ry="4.6875" style="stroke:#181818;stroke-width:0.9375;" width="316.0217" x="1562.8125" y="344.0625"/><rect fill="#F1F1F1" height="18.75" style="stroke:#181818;stroke-width:0.9375;" width="28.125" x="1841.3342" y="353.4375"/><rect fill="#F1F1F1" height="3.75" style="stroke:#181818;stroke-width:0.9375;" width="7.5" x="1837.5842" y="357.1875"/><rect fill="#F1F1F1" height="3.75" style="stroke:#181818;stroke-width:0.9375;" width="7.5" x="1837.5842" y="364.6875"/><text fill="#000000" font-family="Calibri" font-size="37.5" lengthAdjust="spacing" textLength="241.0217" x="1590.9375" y="417.9639">Domain Models</text></g><!--entity DAOs--><g class="entity" data-qualified-name="Model.DAOs" data-source-line="30" id="ent0015"><rect fill="#F1F1F1" height="102.0264" rx="4.6875" ry="4.6875" style="stroke:#181818;stroke-width:0.9375;" width="235.5103" x="1603.125" y="177.1875"/><rect fill="#F1F1F1" height="18.75" style="stroke:#181818;stroke-width:0.9375;" width="28.125" x="1801.1353" y="186.5625"/><rect fill="#F1F1F1" height="3.75" style="stroke:#181818;stroke-width:0.9375;" width="7.5" x="1797.3853" y="190.3125"/><rect fill="#F1F1F1" height="3.75" style="stroke:#181818;stroke-width:0.9375;" width="7.5" x="1797.3853" y="197.8125"/><text fill="#000000" font-family="Calibri" font-size="37.5" lengthAdjust="spacing" textLength="160.5103" x="1631.25" y="251.0889">DAO Layer</text></g><!--entity SQLite--><g class="entity" data-qualified-name="Model.SQLite" data-source-line="31" id="ent0016"><path d="M2004.375,281.25 C2004.375,262.5 2147.6642,262.5 2147.6642,262.5 C2147.6642,262.5 2290.9534,262.5 2290.9534,281.25 L2290.9534,343.9014 C2290.9534,362.6514 2147.6642,362.6514 2147.6642,362.6514 C2147.6642,362.6514 2004.375,362.6514 2004.375,343.9014 L2004.375,281.25" fill="#F1F1F1" style="stroke:#181818;stroke-width:0.9375;"/><path d="M2004.375,281.25 C2004.375,300 2147.6642,300 2147.6642,300 C2147.6642,300 2290.9534,300 2290.9534,281.25" fill="none" style="stroke:#181818;stroke-width:0.9375;"/><text fill="#000000" font-family="Calibri" font-size="37.5" lengthAdjust="spacing" textLength="249.0784" x="2023.125" y="343.9014">SQLite Database</text></g><!--entity LocalAI--><g class="entity" data-qualified-name="Integrations.LocalAI" data-source-line="35" id="ent0018"><rect fill="#F1F1F1" height="102.0264" rx="4.6875" ry="4.6875" style="stroke:#181818;stroke-width:0.9375;" width="303.6987" x="1569.375" y="600.9375"/><rect fill="#F1F1F1" height="18.75" style="stroke:#181818;stroke-width:0.9375;" width="28.125" x="1835.5737" y="610.3125"/><rect fill="#F1F1F1" height="3.75" style="stroke:#181818;stroke-width:0.9375;" width="7.5" x="1831.8237" y="614.0625"/><rect fill="#F1F1F1" height="3.75" style="stroke:#181818;stroke-width:0.9375;" width="7.5" x="1831.8237" y="621.5625"/><text fill="#000000" font-family="Calibri" font-size="37.5" lengthAdjust="spacing" textLength="228.6987" x="1597.5" y="674.8389">Local AI Engine</text></g><!--entity WhatsApp--><g class="entity" data-qualified-name="Integrations.WhatsApp" data-source-line="36" id="ent0019"><rect fill="#F1F1F1" height="102.0264" rx="4.6875" ry="4.6875" style="stroke:#181818;stroke-width:0.9375;" width="340.9241" x="1550.625" y="767.8125"/><rect fill="#F1F1F1" height="18.75" style="stroke:#181818;stroke-width:0.9375;" width="28.125" x="1854.0491" y="777.1875"/><rect fill="#F1F1F1" height="3.75" style="stroke:#181818;stroke-width:0.9375;" width="7.5" x="1850.2991" y="780.9375"/><rect fill="#F1F1F1" height="3.75" style="stroke:#181818;stroke-width:0.9375;" width="7.5" x="1850.2991" y="788.4375"/><text fill="#000000" font-family="Calibri" font-size="37.5" lengthAdjust="spacing" textLength="265.9241" x="1578.75" y="841.7139">WhatsApp Bridge</text></g><!--entity Mail--><g class="entity" data-qualified-name="Integrations.Mail" data-source-line="37" id="ent0020"><rect fill="#F1F1F1" height="102.0264" rx="4.6875" ry="4.6875" style="stroke:#181818;stroke-width:0.9375;" width="279.4373" x="1581.5625" y="934.6875"/><rect fill="#F1F1F1" height="18.75" style="stroke:#181818;stroke-width:0.9375;" width="28.125" x="1823.4998" y="944.0625"/><rect fill="#F1F1F1" height="3.75" style="stroke:#181818;stroke-width:0.9375;" width="7.5" x="1819.7498" y="947.8125"/><rect fill="#F1F1F1" height="3.75" style="stroke:#181818;stroke-width:0.9375;" width="7.5" x="1819.7498" y="955.3125"/><text fill="#000000" font-family="Calibri" font-size="37.5" lengthAdjust="spacing" textLength="204.4373" x="1609.6875" y="1008.5889">SMTP Service</text></g><!--entity CloudAI--><g class="entity" data-qualified-name="Integrations.CloudAI" data-source-line="38" id="ent0021"><rect fill="#F1F1F1" height="102.0264" rx="4.6875" ry="4.6875" style="stroke:#181818;stroke-width:0.9375;" width="276.0681" x="2010" y="600.9375"/><rect fill="#F1F1F1" height="18.75" style="stroke:#181818;stroke-width:0.9375;" width="28.125" x="2248.5681" y="610.3125"/><rect fill="#F1F1F1" height="3.75" style="stroke:#181818;stroke-width:0.9375;" width="7.5" x="2244.8181" y="614.0625"/><rect fill="#F1F1F1" height="3.75" style="stroke:#181818;stroke-width:0.9375;" width="7.5" x="2244.8181" y="621.5625"/><text fill="#000000" font-family="Calibri" font-size="37.5" lengthAdjust="spacing" textLength="201.0681" x="2038.125" y="674.8389">Cloud AI APIs</text></g><!--entity MCP--><g class="entity" data-qualified-name="Integrations.MCP" data-source-line="39" id="ent0022"><rect fill="#F1F1F1" height="102.0264" rx="4.6875" ry="4.6875" style="stroke:#181818;stroke-width:0.9375;" width="252.5391" x="2021.25" y="934.6875"/><rect fill="#F1F1F1" height="18.75" style="stroke:#181818;stroke-width:0.9375;" width="28.125" x="2236.2891" y="944.0625"/><rect fill="#F1F1F1" height="3.75" style="stroke:#181818;stroke-width:0.9375;" width="7.5" x="2232.5391" y="947.8125"/><rect fill="#F1F1F1" height="3.75" style="stroke:#181818;stroke-width:0.9375;" width="7.5" x="2232.5391" y="955.3125"/><text fill="#000000" font-family="Calibri" font-size="37.5" lengthAdjust="spacing" textLength="177.5391" x="2049.375" y="1008.5889">MCP Server</text></g><!--entity AIHosts--><g class="entity" data-qualified-name="Integrations.AIHosts" data-source-line="40" id="ent0023"><rect fill="#F1F1F1" height="102.0264" rx="4.6875" ry="4.6875" style="stroke:#181818;stroke-width:0.9375;" width="333.252" x="1554.375" y="1101.5625"/><rect fill="#F1F1F1" height="18.75" style="stroke:#181818;stroke-width:0.9375;" width="28.125" x="1850.127" y="1110.9375"/><rect fill="#F1F1F1" height="3.75" style="stroke:#181818;stroke-width:0.9375;" width="7.5" x="1846.377" y="1114.6875"/><rect fill="#F1F1F1" height="3.75" style="stroke:#181818;stroke-width:0.9375;" width="7.5" x="1846.377" y="1122.1875"/><text fill="#000000" font-family="Calibri" font-size="37.5" lengthAdjust="spacing" textLength="258.252" x="1582.5" y="1175.4639">External AI Hosts</text></g><!--link LoginView to LoginController--><g class="link" data-entity-1="ent0003" data-entity-2="ent0008" data-link-type="dependency" data-source-line="43" id="lnk24"><path d="M395.175,145.3125 C457.5375,145.3125 518.1938,145.3125 580.7438,145.3125" fill="none" id="LoginView-to-LoginController" style="stroke:#181818;stroke-width:1.875;"/><polygon fill="#181818" points="591.9938,145.3125,575.1188,137.8125,582.6188,145.3125,575.1188,152.8125,591.9938,145.3125" style="stroke:#181818;stroke-width:1.875;"/><text fill="#000000" font-family="Calibri" font-size="33.75" lengthAdjust="spacing" textLength="91.0657" x="401.7188" y="179.9487">events</text></g><!--link BillingView to BillingController--><g class="link" data-entity-1="ent0004" data-entity-2="ent0009" data-link-type="dependency" data-source-line="44" id="lnk25"><path d="M403.5,312.1875 C462.3187,312.1875 517.425,312.1875 576.0938,312.1875" fill="none" id="BillingView-to-BillingController" style="stroke:#181818;stroke-width:1.875;"/><polygon fill="#181818" points="587.3438,312.1875,570.4688,304.6875,577.9688,312.1875,570.4688,319.6875,587.3438,312.1875" style="stroke:#181818;stroke-width:1.875;"/><text fill="#000000" font-family="Calibri" font-size="33.75" lengthAdjust="spacing" textLength="91.0657" x="403.5563" y="346.8237">events</text></g><!--link DashboardView to DashboardController--><g class="link" data-entity-1="ent0005" data-entity-2="ent0010" data-link-type="dependency" data-source-line="45" id="lnk26"><path d="M439.2,479.0625 C475.875,479.0625 502.9313,479.0625 539.5687,479.0625" fill="none" id="DashboardView-to-DashboardController" style="stroke:#181818;stroke-width:1.875;"/><polygon fill="#181818" points="550.8187,479.0625,533.9437,471.5625,541.4437,479.0625,533.9437,486.5625,550.8187,479.0625" style="stroke:#181818;stroke-width:1.875;"/><text fill="#000000" font-family="Calibri" font-size="33.75" lengthAdjust="spacing" textLength="91.0657" x="403.1437" y="513.6987">events</text></g><!--link SettingsView to SettingsController--><g class="link" data-entity-1="ent0006" data-entity-2="ent0011" data-link-type="dependency" data-source-line="46" id="lnk27"><path d="M417.6188,645.9375 C467.6438,645.9375 510.8438,645.9375 560.8313,645.9375" fill="none" id="SettingsView-to-SettingsController" style="stroke:#181818;stroke-width:1.875;"/><polygon fill="#181818" points="572.0813,645.9375,555.2063,638.4375,562.7063,645.9375,555.2063,653.4375,572.0813,645.9375" style="stroke:#181818;stroke-width:1.875;"/><text fill="#000000" font-family="Calibri" font-size="33.75" lengthAdjust="spacing" textLength="91.0657" x="496.725" y="680.5737">events</text></g><!--link LoginController to Services--><g class="link" data-entity-1="ent0008" data-entity-2="ent0013" data-link-type="dependency" data-source-line="48" id="lnk28"><path d="M903.9938,186.5625 C1029.4688,186.5625 1185,186.5625 1185,186.5625 C1185,186.5625 1185,270.9 1185,332.5313" fill="none" id="LoginController-to-Services" style="stroke:#181818;stroke-width:1.875;"/><polygon fill="#181818" points="1185,343.7813,1192.5,326.9063,1185,334.4063,1177.5,326.9063,1185,343.7813" style="stroke:#181818;stroke-width:1.875;"/><text fill="#000000" font-family="Calibri" font-size="33.75" lengthAdjust="spacing" textLength="150.8203" x="971.2313" y="221.1987">commands</text></g><!--link BillingController to Services--><g class="link" data-entity-1="ent0009" data-entity-2="ent0013" data-link-type="dependency" data-source-line="49" id="lnk29"><path d="M908.9813,353.4375 C956.0625,353.4375 996.7313,353.4375 1045.4813,353.4375" fill="none" id="BillingController-to-Services" style="stroke:#181818;stroke-width:1.875;"/><polygon fill="#181818" points="1056.7313,353.4375,1039.8563,345.9375,1047.3563,353.4375,1039.8563,360.9375,1056.7313,353.4375" style="stroke:#181818;stroke-width:1.875;"/><text fill="#000000" font-family="Calibri" font-size="33.75" lengthAdjust="spacing" textLength="150.8203" x="830.9813" y="388.0737">commands</text></g><!--link DashboardController to Services--><g class="link" data-entity-1="ent0010" data-entity-2="ent0013" data-link-type="dependency" data-source-line="50" id="lnk30"><path d="M945.6188,436.875 C982.4438,436.875 1009.6125,436.875 1046.2125,436.875" fill="none" id="DashboardController-to-Services" style="stroke:#181818;stroke-width:1.875;"/><polygon fill="#181818" points="1057.4625,436.875,1040.5875,429.375,1048.0875,436.875,1040.5875,444.375,1057.4625,436.875" style="stroke:#181818;stroke-width:1.875;"/><text fill="#000000" font-family="Calibri" font-size="33.75" lengthAdjust="spacing" textLength="101.7609" x="1003.4063" y="471.5112">queries</text></g><!--link SettingsController to Services--><g class="link" data-entity-1="ent0011" data-entity-2="ent0013" data-link-type="dependency" data-source-line="51" id="lnk31"><path d="M923.7375,664.6875 C1025.7563,664.6875 1134.375,664.6875 1134.375,664.6875 C1134.375,664.6875 1134.375,534.9375 1134.375,456.7312" fill="none" id="SettingsController-to-Services" style="stroke:#181818;stroke-width:1.875;"/><polygon fill="#181818" points="1134.375,445.4812,1126.875,462.3562,1134.375,454.8562,1141.875,462.3562,1134.375,445.4812" style="stroke:#181818;stroke-width:1.875;"/><text fill="#000000" font-family="Calibri" font-size="33.75" lengthAdjust="spacing" textLength="150.8203" x="982.5" y="695.03">commands</text></g><!--link Services to Domain--><g class="link" data-entity-1="ent0013" data-entity-2="ent0014" data-link-type="dependency" data-source-line="53" id="lnk32"><path d="M1438.3313,394.6875 C1479.45,394.6875 1511.2313,394.6875 1551,394.6875" fill="none" id="Services-to-Domain" style="stroke:#181818;stroke-width:1.875;"/><polygon fill="#181818" points="1562.25,394.6875,1545.375,387.1875,1552.875,394.6875,1545.375,402.1875,1562.25,394.6875" style="stroke:#181818;stroke-width:1.875;"/><text fill="#000000" font-family="Calibri" font-size="33.75" lengthAdjust="spacing" textLength="192.2003" x="1307.1563" y="429.3237">business rules</text></g><!--link Services to DAOs--><g class="link" data-entity-1="ent0013" data-entity-2="ent0015" data-link-type="dependency" data-source-line="54" id="lnk33"><path d="M1312.5,343.9688 C1312.5,309.45 1312.5,270 1312.5,270 C1312.5,270 1471.05,270 1591.7813,270" fill="none" id="Services-to-DAOs" style="stroke:#181818;stroke-width:1.875;"/><polygon fill="#181818" points="1603.0313,270,1586.1563,262.5,1593.6563,270,1586.1563,277.5,1603.0313,270" style="stroke:#181818;stroke-width:1.875;"/><text fill="#000000" font-family="Calibri" font-size="33.75" lengthAdjust="spacing" textLength="252.8613" x="1167.6563" y="304.6362">persistence access</text></g><!--link DAOs to SQLite--><g class="link" data-entity-1="ent0015" data-entity-2="ent0016" data-link-type="dependency" data-source-line="55" id="lnk34"><path d="M1839.5063,270.4688 C1890.5437,270.4688 1939.4625,270.4688 1993.0313,270.4688" fill="none" id="DAOs-to-SQLite" style="stroke:#181818;stroke-width:1.875;"/><polygon fill="#181818" points="2004.2813,270.4688,1987.4063,262.9688,1994.9063,270.4688,1987.4063,277.9688,2004.2813,270.4688" style="stroke:#181818;stroke-width:1.875;"/><text fill="#000000" font-family="Calibri" font-size="33.75" lengthAdjust="spacing" textLength="78.739" x="1843.1438" y="305.105">CRUD</text></g><!--link Services to LocalAI--><g class="link" data-entity-1="ent0013" data-entity-2="ent0018" data-link-type="dependency" data-source-line="57" id="lnk35"><path d="M1363.125,445.7625 C1363.125,515.7375 1363.125,632.8125 1363.125,632.8125 C1363.125,632.8125 1460.5125,632.8125 1558.125,632.8125" fill="none" id="Services-to-LocalAI" style="stroke:#181818;stroke-width:1.875;"/><polygon fill="#181818" points="1569.375,632.8125,1552.5,625.3125,1560,632.8125,1552.5,640.3125,1569.375,632.8125" style="stroke:#181818;stroke-width:1.875;"/><text fill="#000000" font-family="Calibri" font-size="33.75" lengthAdjust="spacing" textLength="71.3562" x="1299.6" y="667.4487">HTTP</text></g><!--link LocalAI to CloudAI--><g class="link" data-entity-1="ent0018" data-entity-2="ent0021" data-link-type="dependency" data-source-line="58" id="lnk36"><path d="M1873.4438,651.5625 C1917.9375,651.5625 1955.0813,651.5625 1998.6375,651.5625" fill="none" id="LocalAI-to-CloudAI" style="stroke:#181818;stroke-width:1.875;"/><polygon fill="#181818" points="2009.8875,651.5625,1993.0125,644.0625,2000.5125,651.5625,1993.0125,659.0625,2009.8875,651.5625" style="stroke:#181818;stroke-width:1.875;"/><text fill="#000000" font-family="Calibri" font-size="33.75" lengthAdjust="spacing" textLength="159.884" x="1780.4063" y="686.1987">routed calls</text></g><!--link Services to WhatsApp--><g class="link" data-entity-1="ent0013" data-entity-2="ent0019" data-link-type="dependency" data-source-line="59" id="lnk37"><path d="M1286.25,445.8 C1286.25,558.5063 1286.25,818.4375 1286.25,818.4375 C1286.25,818.4375 1417.4625,818.4375 1539.3188,818.4375" fill="none" id="Services-to-WhatsApp" style="stroke:#181818;stroke-width:1.875;"/><polygon fill="#181818" points="1550.5688,818.4375,1533.6938,810.9375,1541.1938,818.4375,1533.6938,825.9375,1550.5688,818.4375" style="stroke:#181818;stroke-width:1.875;"/><text fill="#000000" font-family="Calibri" font-size="33.75" lengthAdjust="spacing" textLength="71.3562" x="1213.125" y="798.9237">HTTP</text></g><!--link Services to Mail--><g class="link" data-entity-1="ent0013" data-entity-2="ent0020" data-link-type="dependency" data-source-line="60" id="lnk38"><path d="M1211.25,445.5563 C1211.25,588.825 1211.25,985.3125 1211.25,985.3125 C1211.25,985.3125 1418.9812,985.3125 1569.975,985.3125" fill="none" id="Services-to-Mail" style="stroke:#181818;stroke-width:1.875;"/><polygon fill="#181818" points="1581.225,985.3125,1564.35,977.8125,1571.85,985.3125,1564.35,992.8125,1581.225,985.3125" style="stroke:#181818;stroke-width:1.875;"/><text fill="#000000" font-family="Calibri" font-size="33.75" lengthAdjust="spacing" textLength="78.2446" x="1132.5" y="935.0487">SMTP</text></g><!--link AIHosts to MCP--><g class="link" data-entity-1="ent0023" data-entity-2="ent0022" data-link-type="dependency" data-source-line="62" id="lnk39"><path d="M1875,1101.2063 C1875,1052.1375 1875,985.3125 1875,985.3125 C1875,985.3125 1938.5063,985.3125 2009.7375,985.3125" fill="none" id="AIHosts-to-MCP" style="stroke:#181818;stroke-width:1.875;"/><polygon fill="#181818" points="2020.9875,985.3125,2004.1125,977.8125,2011.6125,985.3125,2004.1125,992.8125,2020.9875,985.3125" style="stroke:#181818;stroke-width:1.875;"/><text fill="#000000" font-family="Calibri" font-size="33.75" lengthAdjust="spacing" textLength="64.2865" x="1891.9125" y="1019.9487">MCP</text></g><!--link MCP to SQLite--><g class="link" data-entity-1="ent0022" data-entity-2="ent0016" data-link-type="dependency" data-source-line="63" id="lnk40"><path d="M2274.6938,985.3125 C2303.1,985.3125 2325,985.3125 2325,985.3125 C2325,985.3125 2325,312.1875 2325,312.1875 C2325,312.1875 2322.6188,312.1875 2302.9313,312.1875" fill="none" id="MCP-to-SQLite" style="stroke:#181818;stroke-width:1.875;"/><polygon fill="#181818" points="2291.6813,312.1875,2308.5563,319.6875,2301.0563,312.1875,2308.5563,304.6875,2291.6813,312.1875" style="stroke:#181818;stroke-width:1.875;"/><text fill="#000000" font-family="Calibri" font-size="33.75" lengthAdjust="spacing" textLength="150.1776" x="2326.875" y="691.88">tool access</text></g><?plantuml-src ZPHBRzim48Jl-XMBvEoYILp4yQ60h4Y80Rj9wxGz53tGqbecGfCgIUVHel-zIr8FMmgAtAIPRybPUM3pm6N5DDi9bJzW0KN5uMpoFZ9z7JTiBsocfFt4TWW94toj-V-u5V-DS3uyAjPQFRN0sMG0hBQiK4zSbh1Xmc0aS6F1Aj2yt5eekCRSSYMxEJ2zYSwfMFx0IbpP5u7W1fainI4Wk4JxKY4eRRTgE0b_8e2PqWNgH0cbuJHEPvFad5ItGwsTPUTN5vVHtuFvzhBX2PFaQXAFYOwQIqw-SNmwWTCqpiPPvYT-25LoENeauztcUIT-0ZEmS9fZ7R3cWjANFMGMr0OgcDck5TD53xjkz0OqQ2tDcHwtgcMF7IPEQ7kjX43jSgVPPHg7t3vZvtQvEyrXTSuUE50TscRjmQ_e3cyYz-YXVBJFKXKeQ9KioyRfXx1AN5M2vyorZSRr8y_Hr6U55vzExHYNuEU36nJlnRUmO2zDtlZMJHJCiZKpTEVgyu9Rf3s2SEAFzjfHjBcqM6eVmxY45-caASb2vKn0F8TKqXV6-cEJ5i-T_NtBhA4jOAPvKGQxqVodMjxVDSjuSycuS4OYrBvmvyPtyx2KLyAfooGCrMlHgrFJPujQXZGtojWm5i_zizkdBI-CHX_xbO0fu2DA8WyAxC519JhqgCGUVgKI7NxOPKyFAz71KJzW60Y_Es6vsksOBDgyRo1V2zTZV-rHS-oYlk7Kg1Nz1mXjdC9wRwWGne3U2t_W8KH59AH2RRYnA7C4bfD94PtZRmhLd4BovUjrxuwwO6JUtD_VHSshi-gMaANLtjAVELcYTtjRodh-o7G59CCLCuhgyWI3IZVrNNDFHn6jKg9Uu1y0?></g></svg>