<?plantuml 1.2026.2?><svg xmlns="http://www.w3.org/2000/svg" xmlns:xlink="http://www.w3.org/1999/xlink" contentStyleType="text/css" data-diagram-type="DESCRIPTION" height="1462.5px" preserveAspectRatio="none" style="width:1355px;height:1462px;background:#FFFFFF;" version="1.1" viewBox="0 0 1355 1462" width="1355.625px" zoomAndPan="magnify"><defs/><g><!--cluster MediManage--><g class="cluster" data-qualified-name="MediManage" data-source-line="27" id="ent0007"><rect fill="#F8FAFC" height="1252.5" rx="4.6875" ry="4.6875" style="stroke:#AEB8C2;stroke-width:1.875;" width="1083.75" x="260.625" y="14.0625"/><text fill="#000000" font-family="Calibri" font-size="37.5" font-weight="bold" lengthAdjust="spacing" textLength="207.5684" x="698.7158" y="54.2139">MediManage</text></g><!--cluster Access--><g class="cluster" data-qualified-name="MediManage.Access" data-source-line="28" id="ent0008"><rect fill="#F3E8FF" height="193.125" rx="4.6875" ry="4.6875" style="stroke:#AEB8C2;stroke-width:1.875;" width="431.25" x="312.1875" y="495.9375"/><text fill="#000000" font-family="Calibri" font-size="37.5" font-weight="bold" lengthAdjust="spacing" textLength="102.9053" x="476.3599" y="536.0889">Access</text></g><!--cluster Sales--><g class="cluster" data-qualified-name="MediManage.Sales" data-source-line="32" id="ent0010"><rect fill="#EAF4FF" height="341.25" rx="4.6875" ry="4.6875" style="stroke:#AEB8C2;stroke-width:1.875;" width="940.3125" x="305.625" y="109.6875"/><text fill="#000000" font-family="Calibri" font-size="37.5" font-weight="bold" lengthAdjust="spacing" textLength="79.2847" x="736.1389" y="149.8389">Sales</text></g><!--cluster Clinical--><g class="cluster" data-qualified-name="MediManage.Clinical" data-source-line="38" id="ent0014"><rect fill="#EEF7EA" height="365.625" rx="4.6875" ry="4.6875" style="stroke:#AEB8C2;stroke-width:1.875;" width="496.875" x="802.5" y="855.9375"/><text fill="#000000" font-family="Calibri" font-size="37.5" font-weight="bold" lengthAdjust="spacing" textLength="111.0168" x="995.4291" y="896.0889">Clinical</text></g><!--cluster Administration--><g class="cluster" data-qualified-name="MediManage.Administration" data-source-line="43" id="ent0017"><rect fill="#FFF4E5" height="487.5" rx="4.6875" ry="4.6875" style="stroke:#AEB8C2;stroke-width:1.875;" width="433.125" x="311.25" y="734.0625"/><text fill="#000000" font-family="Calibri" font-size="37.5" font-weight="bold" lengthAdjust="spacing" textLength="234.1919" x="410.7166" y="774.2139">Administration</text></g><!--entity UC1--><g class="entity" data-qualified-name="MediManage.Access.UC1" data-source-line="29" id="ent0009"><ellipse cx="527.5403" cy="618.1331" fill="#FFFFFF" rx="185.3528" ry="41.5706" style="stroke:#7C8A97;stroke-width:0.9375;"/><text fill="#1F2937" font-family="Calibri" font-size="37.5" lengthAdjust="spacing" textLength="277.1667" x="388.9569" y="634.4587">Authenticate User</text></g><!--entity UC2--><g class="entity" data-qualified-name="MediManage.Sales.UC2" data-source-line="33" id="ent0011"><ellipse cx="528.1498" cy="233.3175" fill="#FFFFFF" rx="192.5248" ry="43.005" style="stroke:#7C8A97;stroke-width:0.9375;"/><text fill="#1F2937" font-family="Calibri" font-size="37.5" lengthAdjust="spacing" textLength="295.5322" x="380.3837" y="249.6432">Manage Customers</text></g><!--entity UC3--><g class="entity" data-qualified-name="MediManage.Sales.UC3" data-source-line="34" id="ent0012"><ellipse cx="527.8579" cy="381.1188" fill="#FFFFFF" rx="137.8579" ry="37.9938" style="stroke:#7C8A97;stroke-width:0.9375;"/><text fill="#1F2937" font-family="Calibri" font-size="37.5" lengthAdjust="spacing" textLength="187.0056" x="434.3551" y="397.4445">Process Sale</text></g><!--entity UC4--><g class="entity" data-qualified-name="MediManage.Sales.UC4" data-source-line="35" id="ent0013"><ellipse cx="1050.7133" cy="381.1188" fill="#FFFFFF" rx="164.7758" ry="37.9938" style="stroke:#7C8A97;stroke-width:0.9375;"/><text fill="#1F2937" font-family="Calibri" font-size="37.5" lengthAdjust="spacing" textLength="225.0732" x="938.1767" y="397.4445">Deliver Invoice</text></g><!--entity UC5--><g class="entity" data-qualified-name="MediManage.Clinical.UC5" data-source-line="39" id="ent0015"><ellipse cx="1050.5058" cy="1144.6012" fill="#FFFFFF" rx="206.7558" ry="45.8512" style="stroke:#7C8A97;stroke-width:0.9375;"/><text fill="#1F2937" font-family="Calibri" font-size="37.5" lengthAdjust="spacing" textLength="330.7983" x="885.1067" y="1160.9268">Manage Prescriptions</text></g><!--entity UC6--><g class="entity" data-qualified-name="MediManage.Clinical.UC6" data-source-line="40" id="ent0016"><ellipse cx="1050.739" cy="985.6478" fill="#FFFFFF" rx="218.239" ry="48.1478" style="stroke:#7C8A97;stroke-width:0.9375;"/><text fill="#1F2937" font-family="Calibri" font-size="37.5" lengthAdjust="spacing" textLength="358.374" x="871.552" y="1001.9735">Generate Care Protocol</text></g><!--entity UC7--><g class="entity" data-qualified-name="MediManage.Administration.UC7" data-source-line="44" id="ent0018"><ellipse cx="527.43" cy="857.361" fill="#FFFFFF" rx="186.18" ry="41.736" style="stroke:#7C8A97;stroke-width:0.9375;"/><text fill="#1F2937" font-family="Calibri" font-size="37.5" lengthAdjust="spacing" textLength="279.3091" x="387.7755" y="873.6867">Manage Inventory</text></g><!--entity UC8--><g class="entity" data-qualified-name="MediManage.Administration.UC8" data-source-line="45" id="ent0019"><ellipse cx="527.6612" cy="1004.2197" fill="#FFFFFF" rx="170.4737" ry="38.5947" style="stroke:#7C8A97;stroke-width:0.9375;"/><text fill="#1F2937" font-family="Calibri" font-size="37.5" lengthAdjust="spacing" textLength="237.3047" x="409.0089" y="1020.5454">Review Reports</text></g><!--entity UC9--><g class="entity" data-qualified-name="MediManage.Administration.UC9" data-source-line="46" id="ent0020"><ellipse cx="527.4507" cy="1149.8651" fill="#FFFFFF" rx="181.5132" ry="40.8026" style="stroke:#7C8A97;stroke-width:0.9375;"/><text fill="#1F2937" font-family="Calibri" font-size="37.5" lengthAdjust="spacing" textLength="267.1326" x="393.8845" y="1166.1908">Configure System</text></g><!--entity Cashier--><g class="entity" data-qualified-name="Cashier" data-source-line="21" id="ent0002"><ellipse cx="117.2699" cy="259.6875" fill="#F1F1F1" rx="30" ry="30" style="stroke:#181818;stroke-width:0.9375;"/><path d="M117.2699,297.1875 C124.7699,297.1875 130.3949,297.1875 137.8949,289.6875 C152.8949,289.6875 167.8949,304.6875 167.8949,319.6875 L167.8949,327.1875 C167.8949,334.6875 160.3949,342.1875 152.8949,342.1875 L81.6449,342.1875 C74.1449,342.1875 66.6449,334.6875 66.6449,327.1875 L66.6449,319.6875 C66.6449,304.6875 81.6449,289.6875 96.6449,289.6875 C104.1449,297.1875 109.7699,297.1875 117.2699,297.1875" fill="#F1F1F1" style="stroke:#181818;stroke-width:0.9375;"/><text fill="#1F2937" font-family="Calibri" font-size="37.5" lengthAdjust="spacing" textLength="112.6648" x="60.9375" y="379.5264">Cashier</text></g><!--entity Pharmacist--><g class="entity" data-qualified-name="Pharmacist" data-source-line="22" id="ent0003"><ellipse cx="116.7352" cy="1304.0625" fill="#F1F1F1" rx="30" ry="30" style="stroke:#181818;stroke-width:0.9375;"/><path d="M116.7352,1341.5625 C124.2352,1341.5625 129.8602,1341.5625 137.3602,1334.0625 C152.3602,1334.0625 167.3602,1349.0625 167.3602,1364.0625 L167.3602,1371.5625 C167.3602,1379.0625 159.8602,1386.5625 152.3602,1386.5625 L81.1102,1386.5625 C73.6102,1386.5625 66.1102,1379.0625 66.1102,1371.5625 L66.1102,1364.0625 C66.1102,1349.0625 81.1102,1334.0625 96.1102,1334.0625 C103.6102,1341.5625 109.2352,1341.5625 116.7352,1341.5625" fill="#F1F1F1" style="stroke:#181818;stroke-width:0.9375;"/><text fill="#1F2937" font-family="Calibri" font-size="37.5" lengthAdjust="spacing" textLength="169.7205" x="31.875" y="1423.9014">Pharmacist</text></g><!--entity Manager--><g class="entity" data-qualified-name="Manager" data-source-line="23" id="ent0004"><ellipse cx="117.2864" cy="649.6875" fill="#F1F1F1" rx="30" ry="30" style="stroke:#181818;stroke-width:0.9375;"/><path d="M117.2864,687.1875 C124.7864,687.1875 130.4114,687.1875 137.9114,679.6875 C152.9114,679.6875 167.9114,694.6875 167.9114,709.6875 L167.9114,717.1875 C167.9114,724.6875 160.4114,732.1875 152.9114,732.1875 L81.6614,732.1875 C74.1614,732.1875 66.6614,724.6875 66.6614,717.1875 L66.6614,709.6875 C66.6614,694.6875 81.6614,679.6875 96.6614,679.6875 C104.1614,687.1875 109.7864,687.1875 117.2864,687.1875" fill="#F1F1F1" style="stroke:#181818;stroke-width:0.9375;"/><text fill="#1F2937" font-family="Calibri" font-size="37.5" lengthAdjust="spacing" textLength="137.0728" x="48.75" y="769.5264">Manager</text></g><!--entity Administrator--><g class="entity" data-qualified-name="Administrator" data-source-line="24" id="ent0005"><ellipse cx="117.2223" cy="915.9375" fill="#F1F1F1" rx="30" ry="30" style="stroke:#181818;stroke-width:0.9375;"/><path d="M117.2223,953.4375 C124.7223,953.4375 130.3473,953.4375 137.8473,945.9375 C152.8473,945.9375 167.8473,960.9375 167.8473,975.9375 L167.8473,983.4375 C167.8473,990.9375 160.3473,998.4375 152.8473,998.4375 L81.5973,998.4375 C74.0973,998.4375 66.5973,990.9375 66.5973,983.4375 L66.5973,975.9375 C66.5973,960.9375 81.5973,945.9375 96.5973,945.9375 C104.0973,953.4375 109.7223,953.4375 117.2223,953.4375" fill="#F1F1F1" style="stroke:#181818;stroke-width:0.9375;"/><text fill="#1F2937" font-family="Calibri" font-size="37.5" lengthAdjust="spacing" textLength="211.9446" x="11.25" y="1035.7764">Administrator</text></g><!--entity Customer--><g class="entity" data-qualified-name="Customer" data-source-line="25" id="ent0006"><ellipse cx="527.9443" cy="1328.4375" fill="#F1F1F1" rx="30" ry="30" style="stroke:#181818;stroke-width:0.9375;"/><path d="M527.9443,1365.9375 C535.4443,1365.9375 541.0693,1365.9375 548.5693,1358.4375 C563.5693,1358.4375 578.5693,1373.4375 578.5693,1388.4375 L578.5693,1395.9375 C578.5693,1403.4375 571.0693,1410.9375 563.5693,1410.9375 L492.3193,1410.9375 C484.8193,1410.9375 477.3193,1403.4375 477.3193,1395.9375 L477.3193,1388.4375 C477.3193,1373.4375 492.3193,1358.4375 507.3193,1358.4375 C514.8193,1365.9375 520.4443,1365.9375 527.9443,1365.9375" fill="#F1F1F1" style="stroke:#181818;stroke-width:0.9375;"/><text fill="#1F2937" font-family="Calibri" font-size="37.5" lengthAdjust="spacing" textLength="148.3887" x="453.75" y="1448.2764">Customer</text></g><!--link Cashier to UC1--><g class="link" data-entity-1="ent0002" data-entity-2="ent0009" data-link-type="dependency" data-source-line="50" id="lnk21"><path d="M173.9813,373.125 C247.8375,373.125 367.5,373.125 367.5,373.125 C367.5,373.125 367.5,526.5375 367.5,585.6938" fill="none" id="Cashier-to-UC1" style="stroke:#5B6B7A;stroke-width:1.875;"/><polygon fill="#5B6B7A" points="367.5,596.9438,375,580.0688,367.5,587.5688,360,580.0688,367.5,596.9438" style="stroke:#5B6B7A;stroke-width:1.875;"/></g><!--link Pharmacist to UC1--><g class="link" data-entity-1="ent0003" data-entity-2="ent0009" data-link-type="dependency" data-source-line="51" id="lnk22"><path d="M202.5563,1282.875 C241.6313,1282.875 279.375,1282.875 279.375,1282.875 C279.375,1282.875 279.375,651 279.375,651 C279.375,651 339.7875,651 406.1438,651" fill="none" id="Pharmacist-to-UC1" style="stroke:#5B6B7A;stroke-width:1.875;"/><polygon fill="#5B6B7A" points="417.3938,651,400.5188,643.5,408.0188,651,400.5188,658.5,417.3938,651" style="stroke:#5B6B7A;stroke-width:1.875;"/></g><!--link Manager to UC1--><g class="link" data-entity-1="ent0004" data-entity-2="ent0009" data-link-type="dependency" data-source-line="52" id="lnk23"><path d="M185.925,626.8125 C229.9875,626.8125 278.1563,626.8125 335.1,626.8125" fill="none" id="Manager-to-UC1" style="stroke:#5B6B7A;stroke-width:1.875;"/><polygon fill="#5B6B7A" points="346.35,626.8125,329.475,619.3125,336.975,626.8125,329.475,634.3125,346.35,626.8125" style="stroke:#5B6B7A;stroke-width:1.875;"/></g><!--link Administrator to UC1--><g class="link" data-entity-1="ent0005" data-entity-2="ent0009" data-link-type="dependency" data-source-line="53" id="lnk24"><path d="M211.875,884.325 C211.875,789.0188 211.875,642.9375 211.875,642.9375 C211.875,642.9375 286.5375,642.9375 368.775,642.9375" fill="none" id="Administrator-to-UC1" style="stroke:#5B6B7A;stroke-width:1.875;"/><polygon fill="#5B6B7A" points="380.025,642.9375,363.15,635.4375,370.65,642.9375,363.15,650.4375,380.025,642.9375" style="stroke:#5B6B7A;stroke-width:1.875;"/></g><!--link Cashier to UC2--><g class="link" data-entity-1="ent0002" data-entity-2="ent0011" data-link-type="dependency" data-source-line="55" id="lnk25"><path d="M174.2813,244.6875 C218.1375,244.6875 270.0563,244.6875 330.9,244.6875" fill="none" id="Cashier-to-UC2" style="stroke:#5B6B7A;stroke-width:1.875;"/><polygon fill="#5B6B7A" points="342.15,244.6875,325.275,237.1875,332.775,244.6875,325.275,252.1875,342.15,244.6875" style="stroke:#5B6B7A;stroke-width:1.875;"/></g><!--link Cashier to UC3--><g class="link" data-entity-1="ent0002" data-entity-2="ent0012" data-link-type="dependency" data-source-line="56" id="lnk26"><path d="M174.2813,358.125 C237.0938,358.125 328.2562,358.125 406.7438,358.125" fill="none" id="Cashier-to-UC3" style="stroke:#5B6B7A;stroke-width:1.875;"/><polygon fill="#5B6B7A" points="417.9938,358.125,401.1188,350.625,408.6188,358.125,401.1188,365.625,417.9938,358.125" style="stroke:#5B6B7A;stroke-width:1.875;"/></g><!--link Cashier to UC4--><g class="link" data-entity-1="ent0002" data-entity-2="ent0013" data-link-type="dependency" data-source-line="57" id="lnk27"><path d="M173.55,309.8438 C375.6375,309.8438 1051.875,309.8438 1051.875,309.8438 C1051.875,309.8438 1051.875,314.3437 1051.875,331.0875" fill="none" id="Cashier-to-UC4" style="stroke:#5B6B7A;stroke-width:1.875;"/><polygon fill="#5B6B7A" points="1051.875,342.3375,1059.375,325.4625,1051.875,332.9625,1044.375,325.4625,1051.875,342.3375" style="stroke:#5B6B7A;stroke-width:1.875;"/></g><!--link Pharmacist to UC3--><g class="link" data-entity-1="ent0003" data-entity-2="ent0012" data-link-type="dependency" data-source-line="59" id="lnk28"><path d="M202.8563,1278 C229.125,1278 251.25,1278 251.25,1278 C251.25,1278 251.25,404.0625 251.25,404.0625 C251.25,404.0625 327.5062,404.0625 404.0812,404.0625" fill="none" id="Pharmacist-to-UC3" style="stroke:#5B6B7A;stroke-width:1.875;"/><polygon fill="#5B6B7A" points="415.3312,404.0625,398.4562,396.5625,405.9562,404.0625,398.4562,411.5625,415.3312,404.0625" style="stroke:#5B6B7A;stroke-width:1.875;"/></g><!--link Pharmacist to UC5--><g class="link" data-entity-1="ent0003" data-entity-2="ent0015" data-link-type="dependency" data-source-line="60" id="lnk29"><path d="M202.6125,1292.625 C433.35,1292.625 1051.875,1292.625 1051.875,1292.625 C1051.875,1292.625 1051.875,1245.3563 1051.875,1201.9312" fill="none" id="Pharmacist-to-UC5" style="stroke:#5B6B7A;stroke-width:1.875;"/><polygon fill="#5B6B7A" points="1051.875,1190.6812,1044.375,1207.5562,1051.875,1200.0562,1059.375,1207.5562,1051.875,1190.6812" style="stroke:#5B6B7A;stroke-width:1.875;"/></g><!--link Pharmacist to UC6--><g class="link" data-entity-1="ent0003" data-entity-2="ent0016" data-link-type="dependency" data-source-line="61" id="lnk30"><path d="M203.025,1287.75 C385.425,1287.75 795,1287.75 795,1287.75 C795,1287.75 795,999.375 795,999.375 C795,999.375 802.8938,999.375 830.7,999.375" fill="none" id="Pharmacist-to-UC6" style="stroke:#5B6B7A;stroke-width:1.875;"/><polygon fill="#5B6B7A" points="841.95,999.375,825.075,991.875,832.575,999.375,825.075,1006.875,841.95,999.375" style="stroke:#5B6B7A;stroke-width:1.875;"/></g><!--link Manager to UC2--><g class="link" data-entity-1="ent0004" data-entity-2="ent0011" data-link-type="dependency" data-source-line="63" id="lnk31"><path d="M186,634.875 C193.65,634.875 198.75,634.875 198.75,634.875 C198.75,634.875 198.75,260.625 198.75,260.625 C198.75,260.625 280.0313,260.625 366.9563,260.625" fill="none" id="Manager-to-UC2" style="stroke:#5B6B7A;stroke-width:1.875;"/><polygon fill="#5B6B7A" points="378.2063,260.625,361.3313,253.125,368.8313,260.625,361.3313,268.125,378.2063,260.625" style="stroke:#5B6B7A;stroke-width:1.875;"/></g><!--link Manager to UC7--><g class="link" data-entity-1="ent0004" data-entity-2="ent0018" data-link-type="dependency" data-source-line="64" id="lnk32"><path d="M118.125,778.8188 C118.125,815.25 118.125,850.3125 118.125,850.3125 C118.125,850.3125 223.7813,850.3125 332.6813,850.3125" fill="none" id="Manager-to-UC7" style="stroke:#5B6B7A;stroke-width:1.875;"/><polygon fill="#5B6B7A" points="343.9313,850.3125,327.0563,842.8125,334.5563,850.3125,327.0563,857.8125,343.9313,850.3125" style="stroke:#5B6B7A;stroke-width:1.875;"/></g><!--link Manager to UC8--><g class="link" data-entity-1="ent0004" data-entity-2="ent0019" data-link-type="dependency" data-source-line="65" id="lnk33"><path d="M185.8875,718.5938 C240.4125,718.5938 307.5,718.5938 307.5,718.5938 C307.5,718.5938 307.5,991.2562 307.5,991.2562 C307.5,991.2562 321.6937,991.2562 355.2938,991.2562" fill="none" id="Manager-to-UC8" style="stroke:#5B6B7A;stroke-width:1.875;"/><polygon fill="#5B6B7A" points="366.5438,991.2562,349.6688,983.7562,357.1688,991.2562,349.6688,998.7562,366.5438,991.2562" style="stroke:#5B6B7A;stroke-width:1.875;"/></g><!--link Administrator to UC7--><g class="link" data-entity-1="ent0005" data-entity-2="ent0018" data-link-type="dependency" data-source-line="67" id="lnk34"><path d="M223.4625,892.5 C284.3063,892.5 349.1438,892.5 410.0062,892.5" fill="none" id="Administrator-to-UC7" style="stroke:#5B6B7A;stroke-width:1.875;"/><polygon fill="#5B6B7A" points="421.2562,892.5,404.3812,885,411.8812,892.5,404.3812,900,421.2562,892.5" style="stroke:#5B6B7A;stroke-width:1.875;"/></g><!--link Administrator to UC8--><g class="link" data-entity-1="ent0005" data-entity-2="ent0019" data-link-type="dependency" data-source-line="68" id="lnk35"><path d="M223.4625,1016.8688 C266.9625,1016.8688 306.9938,1016.8688 354.9375,1016.8688" fill="none" id="Administrator-to-UC8" style="stroke:#5B6B7A;stroke-width:1.875;"/><polygon fill="#5B6B7A" points="366.1875,1016.8688,349.3125,1009.3688,356.8125,1016.8688,349.3125,1024.3688,366.1875,1016.8688" style="stroke:#5B6B7A;stroke-width:1.875;"/></g><!--link Administrator to UC9--><g class="link" data-entity-1="ent0005" data-entity-2="ent0020" data-link-type="dependency" data-source-line="69" id="lnk36"><path d="M213.75,1044.4875 C213.75,1094.7938 213.75,1150.3125 213.75,1150.3125 C213.75,1150.3125 264.7875,1150.3125 333.8625,1150.3125" fill="none" id="Administrator-to-UC9" style="stroke:#5B6B7A;stroke-width:1.875;"/><polygon fill="#5B6B7A" points="345.1125,1150.3125,328.2375,1142.8125,335.7375,1150.3125,328.2375,1157.8125,345.1125,1150.3125" style="stroke:#5B6B7A;stroke-width:1.875;"/></g><!--link Customer to UC4--><g class="link" data-entity-1="ent0006" data-entity-2="ent0013" data-link-type="dependency" data-source-line="71" id="lnk37"><path d="M602.3812,1377.1875 C669.45,1377.1875 757.5,1377.1875 757.5,1377.1875 C757.5,1377.1875 757.5,400.7813 757.5,400.7813 C757.5,400.7813 821.925,400.7813 896.4,400.7813" fill="none" id="Customer-to-UC4" style="stroke:#5B6B7A;stroke-width:1.875;"/><polygon fill="#5B6B7A" points="907.65,400.7813,890.775,393.2813,898.275,400.7813,890.775,408.2813,907.65,400.7813" style="stroke:#5B6B7A;stroke-width:1.875;"/></g><!--link UC3 to UC4--><g class="link" data-entity-1="ent0012" data-entity-2="ent0013" data-link-type="dependency" data-source-line="73" id="lnk38"><path d="M647.175,362.3438 C724.6688,362.3438 814.8562,362.3438 896.6625,362.3438" fill="none" id="UC3-to-UC4" style="stroke:#5B6B7A;stroke-width:1.875;stroke-dasharray:13.125,13.125;"/><polygon fill="#5B6B7A" points="907.9125,362.3438,891.0375,354.8438,898.5375,362.3438,891.0375,369.8438,907.9125,362.3438" style="stroke:#5B6B7A;stroke-width:1.875;"/><text fill="#000000" font-family="Calibri" font-size="33.75" lengthAdjust="spacing" textLength="134.3243" x="642.5438" y="353.855">&#171;include&#187;</text></g><!--link UC3 to UC6--><g class="link" data-entity-1="ent0012" data-entity-2="ent0016" data-link-type="dependency" data-source-line="74" id="lnk39"><path d="M666.0563,381.5625 C757.5,381.5625 860.625,381.5625 860.625,381.5625 C860.625,381.5625 860.625,838.7625 860.625,950.4" fill="none" id="UC3-to-UC6" style="stroke:#5B6B7A;stroke-width:1.875;stroke-dasharray:13.125,13.125;"/><polygon fill="#5B6B7A" points="860.625,961.65,868.125,944.775,860.625,952.275,853.125,944.775,860.625,961.65" style="stroke:#5B6B7A;stroke-width:1.875;"/><text fill="#000000" font-family="Calibri" font-size="33.75" lengthAdjust="spacing" textLength="134.3243" x="725.625" y="608.9675">&#171;include&#187;</text></g><?plantuml-src VLFRZfim47tdAqRfywwQAwHQHI8KgZvi5Msw7-2Q2LWnDh9DehJglzSGXt39bhSvvypXp33e8nCbKQJWaXunXRHaC0q-Utg8uu5Kt2HIc1-aG8W8PxyK-vzkptuZpCPMeLBot0gcmKYmpqagpqnaS21SeyVnOC18K2pB3QHC8JLCYdiVw477dIa9FP8Cz-R24Uf68ZBU5N0cq5nA1AbCBZi4eKQgQnyvevP5jwkP8P9SAlYqtAwsVZWaV-QC7WLg3TCErIQ0Fnx0LgeKbRC9usqGpMhKHiwKh4Jgc2H8mYJo_dPyAesKQESoqZVFqD-FWd3jMxHUlSEcoMmzztlEpTYDxoETTwKZedE6obMxdAY2KAQD0rw9i3k_qM5QC659HMnrCwYqiHjLddVVoEGLKtPjdTo6Re9q926bTgKrFO-396beQBSn2IkJep2C4eFmhb5DW6XuZwPMPiFthFQ4O-qKXybYx7JDqURKpcZML-sKhFD0xUKKyxxYAt9sGWNVnKaoUXCj7kI9x2NQuBoE52T-77uGQQTGKyNA-XUunLhsbTzGeAfN415LDqWZgUHEkthmxiudigwJveGMyVA317OMksIfBixHxwlUyCJm36zOsb_gbZ3eQo8f3YohRBhzHHiid6hTPBFft871qzEc-Npt4siXTsHjtJkp5XqupGRrV50llF6hvcDeEOPMtY3HR53xWphm7aRs7wB1GtHjntC7Uizl0yFpSrF05tXvOOBoAiNDfiEi-im_?></g></svg>