<?plantuml 1.2026.2?><svg xmlns="http://www.w3.org/2000/svg" xmlns:xlink="http://www.w3.org/1999/xlink" contentStyleType="text/css" data-diagram-type="CLASS" height="1473px" preserveAspectRatio="none" style="width:2995px;height:1473px;background:#FFFFFF;" version="1.1" viewBox="0 0 2995 1473" width="2995px" zoomAndPan="magnify"><defs/><g><!--cluster Bootstrap--><g class="cluster" data-qualified-name="Bootstrap" data-source-line="6" id="ent0002"><path d="M8.5,15 L75.6104,15 A3.75,3.75 0 0 1 78.1104,17.5 L85.1104,38.6094 L222.5,38.6094 A2.5,2.5 0 0 1 225,41.1094 L225,200.5 A2.5,2.5 0 0 1 222.5,203 L8.5,203 A2.5,2.5 0 0 1 6,200.5 L6,17.5 A2.5,2.5 0 0 1 8.5,15" fill="none" style="stroke:#000000;stroke-width:1.5;"/><line style="stroke:#000000;stroke-width:1.5;" x1="6" x2="85.1104" y1="38.6094" y2="38.6094"/><text fill="#000000" font-family="sans-serif" font-size="14" font-weight="bold" lengthAdjust="spacing" textLength="66.1104" x="10" y="31.5332">Bootstrap</text></g><!--cluster Controller--><g class="cluster" data-qualified-name="Controller" data-source-line="16" id="ent0004"><path d="M255.5,6 L323.3896,6 A3.75,3.75 0 0 1 325.8896,8.5 L332.8896,29.6094 L1079.5,29.6094 A2.5,2.5 0 0 1 1082,32.1094 L1082,209.5 A2.5,2.5 0 0 1 1079.5,212 L255.5,212 A2.5,2.5 0 0 1 253,209.5 L253,8.5 A2.5,2.5 0 0 1 255.5,6" fill="none" style="stroke:#000000;stroke-width:1.5;"/><line style="stroke:#000000;stroke-width:1.5;" x1="253" x2="332.8896" y1="29.6094" y2="29.6094"/><text fill="#000000" font-family="sans-serif" font-size="14" font-weight="bold" lengthAdjust="spacing" textLength="66.8896" x="257" y="22.5332">Controller</text></g><!--cluster Service--><g class="cluster" data-qualified-name="Service" data-source-line="34" id="ent0007"><path d="M517.5,236 L568.3203,236 A3.75,3.75 0 0 1 570.8203,238.5 L577.8203,259.6094 L1818,259.6094 A2.5,2.5 0 0 1 1820.5,262.1094 L1820.5,589.5 A2.5,2.5 0 0 1 1818,592 L517.5,592 A2.5,2.5 0 0 1 515,589.5 L515,238.5 A2.5,2.5 0 0 1 517.5,236" fill="none" style="stroke:#000000;stroke-width:1.5;"/><line style="stroke:#000000;stroke-width:1.5;" x1="515" x2="577.8203" y1="259.6094" y2="259.6094"/><text fill="#000000" font-family="sans-serif" font-size="14" font-weight="bold" lengthAdjust="spacing" textLength="49.8203" x="519" y="252.5332">Service</text></g><!--cluster Persistence--><g class="cluster" data-qualified-name="Persistence" data-source-line="58" id="ent0012"><path d="M1190.5,616 L1270.1064,616 A3.75,3.75 0 0 1 1272.6064,618.5 L1279.6064,639.6094 L1901.5,639.6094 A2.5,2.5 0 0 1 1904,642.1094 L1904,1003.5 A2.5,2.5 0 0 1 1901.5,1006 L1190.5,1006 A2.5,2.5 0 0 1 1188,1003.5 L1188,618.5 A2.5,2.5 0 0 1 1190.5,616" fill="none" style="stroke:#000000;stroke-width:1.5;"/><line style="stroke:#000000;stroke-width:1.5;" x1="1188" x2="1279.6064" y1="639.6094" y2="639.6094"/><text fill="#000000" font-family="sans-serif" font-size="14" font-weight="bold" lengthAdjust="spacing" textLength="78.6064" x="1192" y="632.5332">Persistence</text></g><!--cluster Integration--><g class="cluster" data-qualified-name="Integration" data-source-line="76" id="ent0016"><path d="M1934.5,224 L2007.8311,224 A3.75,3.75 0 0 1 2010.3311,226.5 L2017.3311,247.6094 L2985.5,247.6094 A2.5,2.5 0 0 1 2988,250.1094 L2988,476.5 A2.5,2.5 0 0 1 2985.5,479 L1934.5,479 A2.5,2.5 0 0 1 1932,476.5 L1932,226.5 A2.5,2.5 0 0 1 1934.5,224" fill="none" style="stroke:#000000;stroke-width:1.5;"/><line style="stroke:#000000;stroke-width:1.5;" x1="1932" x2="2017.3311" y1="247.6094" y2="247.6094"/><text fill="#000000" font-family="sans-serif" font-size="14" font-weight="bold" lengthAdjust="spacing" textLength="72.3311" x="1936" y="240.5332">Integration</text></g><!--cluster Model--><g class="cluster" data-qualified-name="Model" data-source-line="94" id="ent0020"><path d="M2140,853 L2181.4414,853 A3.75,3.75 0 0 1 2183.9414,855.5 L2190.9414,876.6094 L2341,876.6094 A2.5,2.5 0 0 1 2343.5,879.1094 L2343.5,1463.5 A2.5,2.5 0 0 1 2341,1466 L2140,1466 A2.5,2.5 0 0 1 2137.5,1463.5 L2137.5,855.5 A2.5,2.5 0 0 1 2140,853" fill="none" style="stroke:#000000;stroke-width:1.5;"/><line style="stroke:#000000;stroke-width:1.5;" x1="2137.5" x2="2190.9414" y1="876.6094" y2="876.6094"/><text fill="#000000" font-family="sans-serif" font-size="14" font-weight="bold" lengthAdjust="spacing" textLength="40.4414" x="2141.5" y="869.5332">Model</text></g><!--class MediManageApplication--><g class="entity" data-qualified-name="Bootstrap.MediManageApplication" data-source-line="7" id="ent0003"><rect fill="#F1F1F1" height="136.0469" rx="2.5" ry="2.5" style="stroke:#181818;stroke-width:0.5;" width="187.0547" x="22" y="51"/><ellipse cx="39.5326" cy="67" fill="#ADD1B2" rx="11" ry="11" style="stroke:#181818;stroke-width:1;"/><path d="M42.2982,62.875 Q42.4544,62.6563 42.6419,62.5469 Q42.8294,62.4375 43.0482,62.4375 Q43.4232,62.4375 43.6576,62.7031 Q43.8919,62.9531 43.8919,63.5625 L43.8919,65.0156 Q43.8919,65.625 43.6576,65.8906 Q43.4232,66.1563 43.0482,66.1563 Q42.7044,66.1563 42.5013,65.9531 Q42.2982,65.7656 42.1888,65.25 Q42.1419,64.8906 41.9544,64.7031 Q41.6263,64.3281 41.0169,64.1094 Q40.4076,63.8906 39.7826,63.8906 Q39.0169,63.8906 38.3763,64.2188 Q37.7513,64.5469 37.2513,65.2969 Q36.7669,66.0469 36.7669,67.0781 L36.7669,68.1719 Q36.7669,69.4063 37.6576,70.2344 Q38.5482,71.0469 40.1419,71.0469 Q41.0794,71.0469 41.7357,70.7969 Q42.1263,70.6406 42.5482,70.2031 Q42.8138,69.9375 42.9544,69.8594 Q43.1107,69.7813 43.3138,69.7813 Q43.6419,69.7813 43.8919,70.0469 Q44.1576,70.2969 44.1576,70.6406 Q44.1576,70.9844 43.8138,71.3906 Q43.3138,71.9688 42.5169,72.2969 Q41.4388,72.75 40.1419,72.75 Q38.6263,72.75 37.4232,72.125 Q36.4388,71.625 35.7513,70.5625 Q35.0638,69.4844 35.0638,68.2031 L35.0638,67.0469 Q35.0638,65.7188 35.6732,64.5781 Q36.2982,63.4219 37.3919,62.8125 Q38.4857,62.1875 39.7201,62.1875 Q40.4544,62.1875 41.0951,62.3594 Q41.7513,62.5156 42.2982,62.875 Z " fill="#000000"/><text fill="#000000" font-family="sans-serif" font-size="14" lengthAdjust="spacing" textLength="149.4268" x="54.0954" y="72.7285">MediManageApplication</text><line style="stroke:#181818;stroke-width:0.5;" x1="23" x2="208.0547" y1="83" y2="83"/><line style="stroke:#181818;stroke-width:0.5;" x1="23" x2="208.0547" y1="91" y2="91"/><text fill="#000000" font-family="sans-serif" font-size="14" lengthAdjust="spacing" textLength="78.9756" x="28" y="109.5332">+start(stage)</text><text fill="#000000" font-family="sans-serif" font-size="14" lengthAdjust="spacing" textLength="123.7168" x="28" y="127.1426">-initializeDatabase()</text><text fill="#000000" font-family="sans-serif" font-size="14" lengthAdjust="spacing" textLength="126.0342" x="28" y="144.752">-startPythonServer()</text><text fill="#000000" font-family="sans-serif" font-size="14" lengthAdjust="spacing" textLength="175.0547" x="28" y="162.3613">-startMcpServer(pythonExe)</text><text fill="#000000" font-family="sans-serif" font-size="14" lengthAdjust="spacing" textLength="146.2686" x="28" y="179.9707">-startWhatsAppBridge()</text></g><!--class BillingController--><g class="entity" data-qualified-name="Controller.BillingController" data-source-line="17" id="ent0005"><rect fill="#F1F1F1" height="153.6563" rx="2.5" ry="2.5" style="stroke:#181818;stroke-width:0.5;" width="201.8408" x="269" y="42"/><ellipse cx="316.6499" cy="58" fill="#ADD1B2" rx="11" ry="11" style="stroke:#181818;stroke-width:1;"/><path d="M319.4155,53.875 Q319.5718,53.6563 319.7593,53.5469 Q319.9468,53.4375 320.1655,53.4375 Q320.5405,53.4375 320.7749,53.7031 Q321.0093,53.9531 321.0093,54.5625 L321.0093,56.0156 Q321.0093,56.625 320.7749,56.8906 Q320.5405,57.1563 320.1655,57.1563 Q319.8218,57.1563 319.6187,56.9531 Q319.4155,56.7656 319.3062,56.25 Q319.2593,55.8906 319.0718,55.7031 Q318.7437,55.3281 318.1343,55.1094 Q317.5249,54.8906 316.8999,54.8906 Q316.1343,54.8906 315.4937,55.2188 Q314.8687,55.5469 314.3687,56.2969 Q313.8843,57.0469 313.8843,58.0781 L313.8843,59.1719 Q313.8843,60.4063 314.7749,61.2344 Q315.6655,62.0469 317.2593,62.0469 Q318.1968,62.0469 318.853,61.7969 Q319.2437,61.6406 319.6655,61.2031 Q319.9312,60.9375 320.0718,60.8594 Q320.228,60.7813 320.4312,60.7813 Q320.7593,60.7813 321.0093,61.0469 Q321.2749,61.2969 321.2749,61.6406 Q321.2749,61.9844 320.9312,62.3906 Q320.4312,62.9688 319.6343,63.2969 Q318.5562,63.75 317.2593,63.75 Q315.7437,63.75 314.5405,63.125 Q313.5562,62.625 312.8687,61.5625 Q312.1812,60.4844 312.1812,59.2031 L312.1812,58.0469 Q312.1812,56.7188 312.7905,55.5781 Q313.4155,54.4219 314.5093,53.8125 Q315.603,53.1875 316.8374,53.1875 Q317.5718,53.1875 318.2124,53.3594 Q318.8687,53.5156 319.4155,53.875 Z " fill="#000000"/><text fill="#000000" font-family="sans-serif" font-size="14" lengthAdjust="spacing" textLength="98.041" x="337.1499" y="63.7285">BillingController</text><line style="stroke:#181818;stroke-width:0.5;" x1="270" x2="469.8408" y1="74" y2="74"/><text fill="#000000" font-family="sans-serif" font-size="14" lengthAdjust="spacing" textLength="148.6133" x="275" y="92.5332">-billList : ObservableList</text><text fill="#000000" font-family="sans-serif" font-size="14" lengthAdjust="spacing" textLength="189.8408" x="275" y="110.1426">-selectedCustomer : Customer</text><text fill="#000000" font-family="sans-serif" font-size="14" lengthAdjust="spacing" textLength="180.5303" x="275" y="127.752">-selectedMedicine : Medicine</text><line style="stroke:#181818;stroke-width:0.5;" x1="270" x2="469.8408" y1="134.8281" y2="134.8281"/><text fill="#000000" font-family="sans-serif" font-size="14" lengthAdjust="spacing" textLength="67.2998" x="275" y="153.3613">+initialize()</text><text fill="#000000" font-family="sans-serif" font-size="14" lengthAdjust="spacing" textLength="80.9375" x="275" y="170.9707">-handleAdd()</text><text fill="#000000" font-family="sans-serif" font-size="14" lengthAdjust="spacing" textLength="115.1719" x="275" y="188.5801">-handleCheckout()</text></g><!--class BillingCheckoutSupport--><g class="entity" data-qualified-name="Controller.BillingCheckoutSupport" data-source-line="26" id="ent0006"><rect fill="#F1F1F1" height="118.4375" rx="2.5" ry="2.5" style="stroke:#181818;stroke-width:0.5;" width="457.4775" x="609" y="69"/><ellipse cx="760.7236" cy="85" fill="#ADD1B2" rx="11" ry="11" style="stroke:#181818;stroke-width:1;"/><path d="M763.4893,80.875 Q763.6455,80.6563 763.833,80.5469 Q764.0205,80.4375 764.2393,80.4375 Q764.6143,80.4375 764.8486,80.7031 Q765.083,80.9531 765.083,81.5625 L765.083,83.0156 Q765.083,83.625 764.8486,83.8906 Q764.6143,84.1563 764.2393,84.1563 Q763.8955,84.1563 763.6924,83.9531 Q763.4893,83.7656 763.3799,83.25 Q763.333,82.8906 763.1455,82.7031 Q762.8174,82.3281 762.208,82.1094 Q761.5986,81.8906 760.9736,81.8906 Q760.208,81.8906 759.5674,82.2188 Q758.9424,82.5469 758.4424,83.2969 Q757.958,84.0469 757.958,85.0781 L757.958,86.1719 Q757.958,87.4063 758.8486,88.2344 Q759.7393,89.0469 761.333,89.0469 Q762.2705,89.0469 762.9268,88.7969 Q763.3174,88.6406 763.7393,88.2031 Q764.0049,87.9375 764.1455,87.8594 Q764.3018,87.7813 764.5049,87.7813 Q764.833,87.7813 765.083,88.0469 Q765.3486,88.2969 765.3486,88.6406 Q765.3486,88.9844 765.0049,89.3906 Q764.5049,89.9688 763.708,90.2969 Q762.6299,90.75 761.333,90.75 Q759.8174,90.75 758.6143,90.125 Q757.6299,89.625 756.9424,88.5625 Q756.2549,87.4844 756.2549,86.2031 L756.2549,85.0469 Q756.2549,83.7188 756.8643,82.5781 Q757.4893,81.4219 758.583,80.8125 Q759.6768,80.1875 760.9111,80.1875 Q761.6455,80.1875 762.2861,80.3594 Q762.9424,80.5156 763.4893,80.875 Z " fill="#000000"/><text fill="#000000" font-family="sans-serif" font-size="14" lengthAdjust="spacing" textLength="145.5303" x="781.2236" y="90.7285">BillingCheckoutSupport</text><line style="stroke:#181818;stroke-width:0.5;" x1="610" x2="1065.4775" y1="101" y2="101"/><line style="stroke:#181818;stroke-width:0.5;" x1="610" x2="1065.4775" y1="109" y2="109"/><text fill="#000000" font-family="sans-serif" font-size="14" lengthAdjust="spacing" textLength="247.0645" x="615" y="127.5332">~showSplitPaymentDialog(totalAmount)</text><text fill="#000000" font-family="sans-serif" font-size="14" lengthAdjust="spacing" textLength="445.4775" x="615" y="145.1426">~showPostCheckoutDialog(result, customer, totalAmount, careProtocol)</text><text fill="#000000" font-family="sans-serif" font-size="14" lengthAdjust="spacing" textLength="203.4717" x="615" y="162.752">~compositePaymentMode(splits)</text><text fill="#000000" font-family="sans-serif" font-size="14" lengthAdjust="spacing" textLength="242.3887" x="615" y="180.3613">~hasMatchingTotal(splits, totalAmount)</text></g><!--class BillingService--><g class="entity" data-qualified-name="Service.BillingService" data-source-line="35" id="ent0008"><rect fill="#F1F1F1" height="136.0469" rx="2.5" ry="2.5" style="stroke:#181818;stroke-width:0.5;" width="613.0908" x="531" y="440"/><ellipse cx="791.2783" cy="456" fill="#ADD1B2" rx="11" ry="11" style="stroke:#181818;stroke-width:1;"/><path d="M794.0439,451.875 Q794.2002,451.6563 794.3877,451.5469 Q794.5752,451.4375 794.7939,451.4375 Q795.1689,451.4375 795.4033,451.7031 Q795.6377,451.9531 795.6377,452.5625 L795.6377,454.0156 Q795.6377,454.625 795.4033,454.8906 Q795.1689,455.1563 794.7939,455.1563 Q794.4502,455.1563 794.2471,454.9531 Q794.0439,454.7656 793.9346,454.25 Q793.8877,453.8906 793.7002,453.7031 Q793.3721,453.3281 792.7627,453.1094 Q792.1533,452.8906 791.5283,452.8906 Q790.7627,452.8906 790.1221,453.2188 Q789.4971,453.5469 788.9971,454.2969 Q788.5127,455.0469 788.5127,456.0781 L788.5127,457.1719 Q788.5127,458.4063 789.4033,459.2344 Q790.2939,460.0469 791.8877,460.0469 Q792.8252,460.0469 793.4814,459.7969 Q793.8721,459.6406 794.2939,459.2031 Q794.5596,458.9375 794.7002,458.8594 Q794.8564,458.7813 795.0596,458.7813 Q795.3877,458.7813 795.6377,459.0469 Q795.9033,459.2969 795.9033,459.6406 Q795.9033,459.9844 795.5596,460.3906 Q795.0596,460.9688 794.2627,461.2969 Q793.1846,461.75 791.8877,461.75 Q790.3721,461.75 789.1689,461.125 Q788.1846,460.625 787.4971,459.5625 Q786.8096,458.4844 786.8096,457.2031 L786.8096,456.0469 Q786.8096,454.7188 787.4189,453.5781 Q788.0439,452.4219 789.1377,451.8125 Q790.2314,451.1875 791.4658,451.1875 Q792.2002,451.1875 792.8408,451.3594 Q793.4971,451.5156 794.0439,451.875 Z " fill="#000000"/><text fill="#000000" font-family="sans-serif" font-size="14" lengthAdjust="spacing" textLength="84.0342" x="811.7783" y="461.7285">BillingService</text><line style="stroke:#181818;stroke-width:0.5;" x1="532" x2="1143.0908" y1="472" y2="472"/><line style="stroke:#181818;stroke-width:0.5;" x1="532" x2="1143.0908" y1="480" y2="480"/><text fill="#000000" font-family="sans-serif" font-size="14" lengthAdjust="spacing" textLength="255.6025" x="537" y="498.5332">+addMedicineToBill(items, medicine, qty)</text><text fill="#000000" font-family="sans-serif" font-size="14" lengthAdjust="spacing" textLength="245.499" x="537" y="516.1426">+calculateTotal(items, discountPercent)</text><text fill="#000000" font-family="sans-serif" font-size="14" lengthAdjust="spacing" textLength="247.0645" x="537" y="533.752">+generateCheckoutCareProtocol(items)</text><text fill="#000000" font-family="sans-serif" font-size="14" lengthAdjust="spacing" textLength="601.0908" x="537" y="551.3613">+completeCheckout(items, customer, userId, splits, paymentMode, careProtocol, redeemLoyalty)</text><text fill="#000000" font-family="sans-serif" font-size="14" lengthAdjust="spacing" textLength="250.168" x="537" y="568.9707">+snapshotItems(items, discountPercent)</text></g><!--class ReportService--><g class="entity" data-qualified-name="Service.ReportService" data-source-line="43" id="ent0009"><rect fill="#F1F1F1" height="65.6094" rx="2.5" ry="2.5" style="stroke:#181818;stroke-width:0.5;" width="516.6084" x="1287.5" y="391"/><ellipse cx="1497.2026" cy="407" fill="#ADD1B2" rx="11" ry="11" style="stroke:#181818;stroke-width:1;"/><path d="M1499.9683,402.875 Q1500.1245,402.6563 1500.312,402.5469 Q1500.4995,402.4375 1500.7183,402.4375 Q1501.0933,402.4375 1501.3276,402.7031 Q1501.562,402.9531 1501.562,403.5625 L1501.562,405.0156 Q1501.562,405.625 1501.3276,405.8906 Q1501.0933,406.1563 1500.7183,406.1563 Q1500.3745,406.1563 1500.1714,405.9531 Q1499.9683,405.7656 1499.8589,405.25 Q1499.812,404.8906 1499.6245,404.7031 Q1499.2964,404.3281 1498.687,404.1094 Q1498.0776,403.8906 1497.4526,403.8906 Q1496.687,403.8906 1496.0464,404.2188 Q1495.4214,404.5469 1494.9214,405.2969 Q1494.437,406.0469 1494.437,407.0781 L1494.437,408.1719 Q1494.437,409.4063 1495.3276,410.2344 Q1496.2183,411.0469 1497.812,411.0469 Q1498.7495,411.0469 1499.4058,410.7969 Q1499.7964,410.6406 1500.2183,410.2031 Q1500.4839,409.9375 1500.6245,409.8594 Q1500.7808,409.7813 1500.9839,409.7813 Q1501.312,409.7813 1501.562,410.0469 Q1501.8276,410.2969 1501.8276,410.6406 Q1501.8276,410.9844 1501.4839,411.3906 Q1500.9839,411.9688 1500.187,412.2969 Q1499.1089,412.75 1497.812,412.75 Q1496.2964,412.75 1495.0933,412.125 Q1494.1089,411.625 1493.4214,410.5625 Q1492.7339,409.4844 1492.7339,408.2031 L1492.7339,407.0469 Q1492.7339,405.7188 1493.3433,404.5781 Q1493.9683,403.4219 1495.062,402.8125 Q1496.1558,402.1875 1497.3901,402.1875 Q1498.1245,402.1875 1498.7651,402.3594 Q1499.4214,402.5156 1499.9683,402.875 Z " fill="#000000"/><text fill="#000000" font-family="sans-serif" font-size="14" lengthAdjust="spacing" textLength="88.7031" x="1517.7026" y="412.7285">ReportService</text><line style="stroke:#181818;stroke-width:0.5;" x1="1288.5" x2="1803.1084" y1="423" y2="423"/><line style="stroke:#181818;stroke-width:0.5;" x1="1288.5" x2="1803.1084" y1="431" y2="431"/><text fill="#000000" font-family="sans-serif" font-size="14" lengthAdjust="spacing" textLength="504.6084" x="1293.5" y="449.5332">+generateInvoicePDF(items, totalAmount, customerName, filePath, careProtocol)</text></g><!--class LoyaltyService--><g class="entity" data-qualified-name="Service.LoyaltyService" data-source-line="47" id="ent0010"><rect fill="#F1F1F1" height="83.2188" rx="2.5" ry="2.5" style="stroke:#181818;stroke-width:0.5;" width="211.5889" x="1440" y="272.5"/><ellipse cx="1496.0239" cy="288.5" fill="#ADD1B2" rx="11" ry="11" style="stroke:#181818;stroke-width:1;"/><path d="M1498.7896,284.375 Q1498.9458,284.1563 1499.1333,284.0469 Q1499.3208,283.9375 1499.5396,283.9375 Q1499.9146,283.9375 1500.1489,284.2031 Q1500.3833,284.4531 1500.3833,285.0625 L1500.3833,286.5156 Q1500.3833,287.125 1500.1489,287.3906 Q1499.9146,287.6563 1499.5396,287.6563 Q1499.1958,287.6563 1498.9927,287.4531 Q1498.7896,287.2656 1498.6802,286.75 Q1498.6333,286.3906 1498.4458,286.2031 Q1498.1177,285.8281 1497.5083,285.6094 Q1496.8989,285.3906 1496.2739,285.3906 Q1495.5083,285.3906 1494.8677,285.7188 Q1494.2427,286.0469 1493.7427,286.7969 Q1493.2583,287.5469 1493.2583,288.5781 L1493.2583,289.6719 Q1493.2583,290.9063 1494.1489,291.7344 Q1495.0396,292.5469 1496.6333,292.5469 Q1497.5708,292.5469 1498.2271,292.2969 Q1498.6177,292.1406 1499.0396,291.7031 Q1499.3052,291.4375 1499.4458,291.3594 Q1499.6021,291.2813 1499.8052,291.2813 Q1500.1333,291.2813 1500.3833,291.5469 Q1500.6489,291.7969 1500.6489,292.1406 Q1500.6489,292.4844 1500.3052,292.8906 Q1499.8052,293.4688 1499.0083,293.7969 Q1497.9302,294.25 1496.6333,294.25 Q1495.1177,294.25 1493.9146,293.625 Q1492.9302,293.125 1492.2427,292.0625 Q1491.5552,290.9844 1491.5552,289.7031 L1491.5552,288.5469 Q1491.5552,287.2188 1492.1646,286.0781 Q1492.7896,284.9219 1493.8833,284.3125 Q1494.9771,283.6875 1496.2114,283.6875 Q1496.9458,283.6875 1497.5864,283.8594 Q1498.2427,284.0156 1498.7896,284.375 Z " fill="#000000"/><text fill="#000000" font-family="sans-serif" font-size="14" lengthAdjust="spacing" textLength="91.041" x="1516.5239" y="294.2285">LoyaltyService</text><line style="stroke:#181818;stroke-width:0.5;" x1="1441" x2="1650.5889" y1="304.5" y2="304.5"/><line style="stroke:#181818;stroke-width:0.5;" x1="1441" x2="1650.5889" y1="312.5" y2="312.5"/><text fill="#000000" font-family="sans-serif" font-size="14" lengthAdjust="spacing" textLength="199.5889" x="1446" y="331.0332">+calculateAwardPoints(billTotal)</text><text fill="#000000" font-family="sans-serif" font-size="14" lengthAdjust="spacing" textLength="174.7061" x="1446" y="348.6426">+getRedemptionThreshold()</text></g><!--class AIOrchestrator--><g class="entity" data-qualified-name="Service.AIOrchestrator" data-source-line="52" id="ent0011"><rect fill="#F1F1F1" height="83.2188" rx="2.5" ry="2.5" style="stroke:#181818;stroke-width:0.5;" width="413.9189" x="1339" y="492.5"/><ellipse cx="1496.1958" cy="508.5" fill="#ADD1B2" rx="11" ry="11" style="stroke:#181818;stroke-width:1;"/><path d="M1498.9614,504.375 Q1499.1177,504.1563 1499.3052,504.0469 Q1499.4927,503.9375 1499.7114,503.9375 Q1500.0864,503.9375 1500.3208,504.2031 Q1500.5552,504.4531 1500.5552,505.0625 L1500.5552,506.5156 Q1500.5552,507.125 1500.3208,507.3906 Q1500.0864,507.6563 1499.7114,507.6563 Q1499.3677,507.6563 1499.1646,507.4531 Q1498.9614,507.2656 1498.8521,506.75 Q1498.8052,506.3906 1498.6177,506.2031 Q1498.2896,505.8281 1497.6802,505.6094 Q1497.0708,505.3906 1496.4458,505.3906 Q1495.6802,505.3906 1495.0396,505.7188 Q1494.4146,506.0469 1493.9146,506.7969 Q1493.4302,507.5469 1493.4302,508.5781 L1493.4302,509.6719 Q1493.4302,510.9063 1494.3208,511.7344 Q1495.2114,512.5469 1496.8052,512.5469 Q1497.7427,512.5469 1498.3989,512.2969 Q1498.7896,512.1406 1499.2114,511.7031 Q1499.4771,511.4375 1499.6177,511.3594 Q1499.7739,511.2813 1499.9771,511.2813 Q1500.3052,511.2813 1500.5552,511.5469 Q1500.8208,511.7969 1500.8208,512.1406 Q1500.8208,512.4844 1500.4771,512.8906 Q1499.9771,513.4688 1499.1802,513.7969 Q1498.1021,514.25 1496.8052,514.25 Q1495.2896,514.25 1494.0864,513.625 Q1493.1021,513.125 1492.4146,512.0625 Q1491.7271,510.9844 1491.7271,509.7031 L1491.7271,508.5469 Q1491.7271,507.2188 1492.3364,506.0781 Q1492.9614,504.9219 1494.0552,504.3125 Q1495.1489,503.6875 1496.3833,503.6875 Q1497.1177,503.6875 1497.7583,503.8594 Q1498.4146,504.0156 1498.9614,504.375 Z " fill="#000000"/><text fill="#000000" font-family="sans-serif" font-size="14" lengthAdjust="spacing" textLength="91.0273" x="1516.6958" y="514.2285">AIOrchestrator</text><line style="stroke:#181818;stroke-width:0.5;" x1="1340" x2="1751.9189" y1="524.5" y2="524.5"/><line style="stroke:#181818;stroke-width:0.5;" x1="1340" x2="1751.9189" y1="532.5" y2="532.5"/><text fill="#000000" font-family="sans-serif" font-size="14" lengthAdjust="spacing" textLength="401.9189" x="1345" y="551.0332">+processOrchestration(action, data, routingOverride, useSearch)</text><text fill="#000000" font-family="sans-serif" font-size="14" lengthAdjust="spacing" textLength="117.8926" x="1345" y="568.6426">+isLocalAvailable()</text></g><!--class BillDAO--><g class="entity" data-qualified-name="Persistence.BillDAO" data-source-line="59" id="ent0013"><rect fill="#F1F1F1" height="83.2188" rx="2.5" ry="2.5" style="stroke:#181818;stroke-width:0.5;" width="683.9316" x="1204" y="906.5"/><ellipse cx="1517.2124" cy="922.5" fill="#ADD1B2" rx="11" ry="11" style="stroke:#181818;stroke-width:1;"/><path d="M1519.978,918.375 Q1520.1343,918.1563 1520.3218,918.0469 Q1520.5093,917.9375 1520.728,917.9375 Q1521.103,917.9375 1521.3374,918.2031 Q1521.5718,918.4531 1521.5718,919.0625 L1521.5718,920.5156 Q1521.5718,921.125 1521.3374,921.3906 Q1521.103,921.6563 1520.728,921.6563 Q1520.3843,921.6563 1520.1812,921.4531 Q1519.978,921.2656 1519.8687,920.75 Q1519.8218,920.3906 1519.6343,920.2031 Q1519.3062,919.8281 1518.6968,919.6094 Q1518.0874,919.3906 1517.4624,919.3906 Q1516.6968,919.3906 1516.0562,919.7188 Q1515.4312,920.0469 1514.9312,920.7969 Q1514.4468,921.5469 1514.4468,922.5781 L1514.4468,923.6719 Q1514.4468,924.9063 1515.3374,925.7344 Q1516.228,926.5469 1517.8218,926.5469 Q1518.7593,926.5469 1519.4155,926.2969 Q1519.8062,926.1406 1520.228,925.7031 Q1520.4937,925.4375 1520.6343,925.3594 Q1520.7905,925.2813 1520.9937,925.2813 Q1521.3218,925.2813 1521.5718,925.5469 Q1521.8374,925.7969 1521.8374,926.1406 Q1521.8374,926.4844 1521.4937,926.8906 Q1520.9937,927.4688 1520.1968,927.7969 Q1519.1187,928.25 1517.8218,928.25 Q1516.3062,928.25 1515.103,927.625 Q1514.1187,927.125 1513.4312,926.0625 Q1512.7437,924.9844 1512.7437,923.7031 L1512.7437,922.5469 Q1512.7437,921.2188 1513.353,920.0781 Q1513.978,918.9219 1515.0718,918.3125 Q1516.1655,917.6875 1517.3999,917.6875 Q1518.1343,917.6875 1518.7749,917.8594 Q1519.4312,918.0156 1519.978,918.375 Z " fill="#000000"/><text fill="#000000" font-family="sans-serif" font-size="14" lengthAdjust="spacing" textLength="49.0068" x="1537.7124" y="928.2285">BillDAO</text><line style="stroke:#181818;stroke-width:0.5;" x1="1205" x2="1886.9316" y1="938.5" y2="938.5"/><line style="stroke:#181818;stroke-width:0.5;" x1="1205" x2="1886.9316" y1="946.5" y2="946.5"/><text fill="#000000" font-family="sans-serif" font-size="14" lengthAdjust="spacing" textLength="671.9316" x="1210" y="965.0332">+generateInvoice(totalAmount, items, customerId, userId, splits, paymentMode, redeemPoints, awardPoints)</text><text fill="#000000" font-family="sans-serif" font-size="14" lengthAdjust="spacing" textLength="228.3818" x="1210" y="982.6426">+saveAICareProtocol(billId, protocol)</text></g><!--class CustomerDAO--><g class="entity" data-qualified-name="Persistence.CustomerDAO" data-source-line="64" id="ent0014"><rect fill="#F1F1F1" height="83.2188" rx="2.5" ry="2.5" style="stroke:#181818;stroke-width:0.5;" width="171.1133" x="1460.5" y="652.5"/><ellipse cx="1497.1417" cy="668.5" fill="#ADD1B2" rx="11" ry="11" style="stroke:#181818;stroke-width:1;"/><path d="M1499.9074,664.375 Q1500.0636,664.1563 1500.2511,664.0469 Q1500.4386,663.9375 1500.6574,663.9375 Q1501.0324,663.9375 1501.2667,664.2031 Q1501.5011,664.4531 1501.5011,665.0625 L1501.5011,666.5156 Q1501.5011,667.125 1501.2667,667.3906 Q1501.0324,667.6563 1500.6574,667.6563 Q1500.3136,667.6563 1500.1105,667.4531 Q1499.9074,667.2656 1499.798,666.75 Q1499.7511,666.3906 1499.5636,666.2031 Q1499.2355,665.8281 1498.6261,665.6094 Q1498.0167,665.3906 1497.3917,665.3906 Q1496.6261,665.3906 1495.9855,665.7188 Q1495.3605,666.0469 1494.8605,666.7969 Q1494.3761,667.5469 1494.3761,668.5781 L1494.3761,669.6719 Q1494.3761,670.9063 1495.2667,671.7344 Q1496.1574,672.5469 1497.7511,672.5469 Q1498.6886,672.5469 1499.3449,672.2969 Q1499.7355,672.1406 1500.1574,671.7031 Q1500.423,671.4375 1500.5636,671.3594 Q1500.7199,671.2813 1500.923,671.2813 Q1501.2511,671.2813 1501.5011,671.5469 Q1501.7667,671.7969 1501.7667,672.1406 Q1501.7667,672.4844 1501.423,672.8906 Q1500.923,673.4688 1500.1261,673.7969 Q1499.048,674.25 1497.7511,674.25 Q1496.2355,674.25 1495.0324,673.625 Q1494.048,673.125 1493.3605,672.0625 Q1492.673,670.9844 1492.673,669.7031 L1492.673,668.5469 Q1492.673,667.2188 1493.2824,666.0781 Q1493.9074,664.9219 1495.0011,664.3125 Q1496.0949,663.6875 1497.3292,663.6875 Q1498.0636,663.6875 1498.7042,663.8594 Q1499.3605,664.0156 1499.9074,664.375 Z " fill="#000000"/><text fill="#000000" font-family="sans-serif" font-size="14" lengthAdjust="spacing" textLength="91.0205" x="1515.951" y="674.2285">CustomerDAO</text><line style="stroke:#181818;stroke-width:0.5;" x1="1461.5" x2="1630.6133" y1="684.5" y2="684.5"/><line style="stroke:#181818;stroke-width:0.5;" x1="1461.5" x2="1630.6133" y1="692.5" y2="692.5"/><text fill="#000000" font-family="sans-serif" font-size="14" lengthAdjust="spacing" textLength="155.2236" x="1466.5" y="711.0332">+searchCustomer(query)</text><text fill="#000000" font-family="sans-serif" font-size="14" lengthAdjust="spacing" textLength="159.1133" x="1466.5" y="728.6426">+addCustomer(customer)</text></g><!--class MedicineDAO--><g class="entity" data-qualified-name="Persistence.MedicineDAO" data-source-line="69" id="ent0015"><rect fill="#F1F1F1" height="100.8281" rx="2.5" ry="2.5" style="stroke:#181818;stroke-width:0.5;" width="172.6855" x="1459.5" y="770.5"/><ellipse cx="1498.9441" cy="786.5" fill="#ADD1B2" rx="11" ry="11" style="stroke:#181818;stroke-width:1;"/><path d="M1501.7098,782.375 Q1501.866,782.1563 1502.0535,782.0469 Q1502.241,781.9375 1502.4598,781.9375 Q1502.8348,781.9375 1503.0691,782.2031 Q1503.3035,782.4531 1503.3035,783.0625 L1503.3035,784.5156 Q1503.3035,785.125 1503.0691,785.3906 Q1502.8348,785.6563 1502.4598,785.6563 Q1502.116,785.6563 1501.9129,785.4531 Q1501.7098,785.2656 1501.6004,784.75 Q1501.5535,784.3906 1501.366,784.2031 Q1501.0379,783.8281 1500.4285,783.6094 Q1499.8191,783.3906 1499.1941,783.3906 Q1498.4285,783.3906 1497.7879,783.7188 Q1497.1629,784.0469 1496.6629,784.7969 Q1496.1785,785.5469 1496.1785,786.5781 L1496.1785,787.6719 Q1496.1785,788.9063 1497.0691,789.7344 Q1497.9598,790.5469 1499.5535,790.5469 Q1500.491,790.5469 1501.1473,790.2969 Q1501.5379,790.1406 1501.9598,789.7031 Q1502.2254,789.4375 1502.366,789.3594 Q1502.5223,789.2813 1502.7254,789.2813 Q1503.0535,789.2813 1503.3035,789.5469 Q1503.5691,789.7969 1503.5691,790.1406 Q1503.5691,790.4844 1503.2254,790.8906 Q1502.7254,791.4688 1501.9285,791.7969 Q1500.8504,792.25 1499.5535,792.25 Q1498.0379,792.25 1496.8348,791.625 Q1495.8504,791.125 1495.1629,790.0625 Q1494.4754,788.9844 1494.4754,787.7031 L1494.4754,786.5469 Q1494.4754,785.2188 1495.0848,784.0781 Q1495.7098,782.9219 1496.8035,782.3125 Q1497.8973,781.6875 1499.1316,781.6875 Q1499.866,781.6875 1500.5066,781.8594 Q1501.1629,782.0156 1501.7098,782.375 Z " fill="#000000"/><text fill="#000000" font-family="sans-serif" font-size="14" lengthAdjust="spacing" textLength="86.3652" x="1518.3762" y="792.2285">MedicineDAO</text><line style="stroke:#181818;stroke-width:0.5;" x1="1460.5" x2="1631.1855" y1="802.5" y2="802.5"/><line style="stroke:#181818;stroke-width:0.5;" x1="1460.5" x2="1631.1855" y1="810.5" y2="810.5"/><text fill="#000000" font-family="sans-serif" font-size="14" lengthAdjust="spacing" textLength="115.5479" x="1465.5" y="829.0332">+getAllMedicines()</text><text fill="#000000" font-family="sans-serif" font-size="14" lengthAdjust="spacing" textLength="138.9131" x="1465.5" y="846.6426">+findByBarcode(code)</text><text fill="#000000" font-family="sans-serif" font-size="14" lengthAdjust="spacing" textLength="160.6855" x="1465.5" y="864.252">+getLowStockMedicines()</text></g><!--class AIService--><g class="entity" data-qualified-name="Integration.AIService" data-source-line="77" id="ent0017"><rect fill="#F1F1F1" height="100.8281" rx="2.5" ry="2.5" style="stroke:#181818;stroke-width:0.5;" width="138.4375" x="2171.5" y="361.5"/><ellipse cx="2207.4373" cy="377.5" fill="#B4A7E5" rx="11" ry="11" style="stroke:#181818;stroke-width:1;"/><path d="M2208.3904,374.1406 L2208.3904,380.7969 L2210.1092,380.7969 Q2210.7186,380.7969 2210.9842,381.0313 Q2211.2498,381.2656 2211.2498,381.6563 Q2211.2498,382.0313 2210.9842,382.2656 Q2210.7186,382.5 2210.1092,382.5 L2204.9686,382.5 Q2204.3592,382.5 2204.0936,382.2656 Q2203.8279,382.0313 2203.8279,381.6406 Q2203.8279,381.2656 2204.0936,381.0313 Q2204.3592,380.7969 2204.9686,380.7969 L2206.6873,380.7969 L2206.6873,374.1406 L2204.9686,374.1406 Q2204.3592,374.1406 2204.0936,373.9063 Q2203.8279,373.6719 2203.8279,373.2813 Q2203.8279,372.9063 2204.0936,372.6719 Q2204.3592,372.4375 2204.9686,372.4375 L2210.1092,372.4375 Q2210.7186,372.4375 2210.9842,372.6719 Q2211.2498,372.9063 2211.2498,373.2813 Q2211.2498,373.6719 2210.9842,373.9063 Q2210.7186,374.1406 2210.1092,374.1406 L2208.3904,374.1406 Z " fill="#000000"/><text fill="#000000" font-family="sans-serif" font-size="14" font-style="italic" lengthAdjust="spacing" textLength="59.9102" x="2226.09" y="383.2285">AIService</text><line style="stroke:#181818;stroke-width:0.5;" x1="2172.5" x2="2308.9375" y1="393.5" y2="393.5"/><line style="stroke:#181818;stroke-width:0.5;" x1="2172.5" x2="2308.9375" y1="401.5" y2="401.5"/><text fill="#000000" font-family="sans-serif" font-size="14" lengthAdjust="spacing" textLength="87.5342" x="2177.5" y="420.0332">+chat(prompt)</text><text fill="#000000" font-family="sans-serif" font-size="14" lengthAdjust="spacing" textLength="84.4238" x="2177.5" y="437.6426">+isAvailable()</text><text fill="#000000" font-family="sans-serif" font-size="14" lengthAdjust="spacing" textLength="126.4375" x="2177.5" y="455.252">+getProviderName()</text></g><!--class LocalAIService--><g class="entity" data-qualified-name="Integration.LocalAIService" data-source-line="83" id="ent0018"><rect fill="#F1F1F1" height="100.8281" rx="2.5" ry="2.5" style="stroke:#181818;stroke-width:0.5;" width="378.9326" x="2593" y="361.5"/><ellipse cx="2731.5269" cy="377.5" fill="#ADD1B2" rx="11" ry="11" style="stroke:#181818;stroke-width:1;"/><path d="M2734.2925,373.375 Q2734.4487,373.1563 2734.6362,373.0469 Q2734.8237,372.9375 2735.0425,372.9375 Q2735.4175,372.9375 2735.6519,373.2031 Q2735.8862,373.4531 2735.8862,374.0625 L2735.8862,375.5156 Q2735.8862,376.125 2735.6519,376.3906 Q2735.4175,376.6563 2735.0425,376.6563 Q2734.6987,376.6563 2734.4956,376.4531 Q2734.2925,376.2656 2734.1831,375.75 Q2734.1362,375.3906 2733.9487,375.2031 Q2733.6206,374.8281 2733.0112,374.6094 Q2732.4019,374.3906 2731.7769,374.3906 Q2731.0112,374.3906 2730.3706,374.7188 Q2729.7456,375.0469 2729.2456,375.7969 Q2728.7612,376.5469 2728.7612,377.5781 L2728.7612,378.6719 Q2728.7612,379.9063 2729.6519,380.7344 Q2730.5425,381.5469 2732.1362,381.5469 Q2733.0737,381.5469 2733.73,381.2969 Q2734.1206,381.1406 2734.5425,380.7031 Q2734.8081,380.4375 2734.9487,380.3594 Q2735.105,380.2813 2735.3081,380.2813 Q2735.6362,380.2813 2735.8862,380.5469 Q2736.1519,380.7969 2736.1519,381.1406 Q2736.1519,381.4844 2735.8081,381.8906 Q2735.3081,382.4688 2734.5112,382.7969 Q2733.4331,383.25 2732.1362,383.25 Q2730.6206,383.25 2729.4175,382.625 Q2728.4331,382.125 2727.7456,381.0625 Q2727.0581,379.9844 2727.0581,378.7031 L2727.0581,377.5469 Q2727.0581,376.2188 2727.6675,375.0781 Q2728.2925,373.9219 2729.3862,373.3125 Q2730.48,372.6875 2731.7144,372.6875 Q2732.4487,372.6875 2733.0894,372.8594 Q2733.7456,373.0156 2734.2925,373.375 Z " fill="#000000"/><text fill="#000000" font-family="sans-serif" font-size="14" lengthAdjust="spacing" textLength="93.3789" x="2752.0269" y="383.2285">LocalAIService</text><line style="stroke:#181818;stroke-width:0.5;" x1="2594" x2="2970.9326" y1="393.5" y2="393.5"/><line style="stroke:#181818;stroke-width:0.5;" x1="2594" x2="2970.9326" y1="401.5" y2="401.5"/><text fill="#000000" font-family="sans-serif" font-size="14" lengthAdjust="spacing" textLength="366.9326" x="2599" y="420.0332">+orchestrate(action, data, cloudConfig, routing, useSearch)</text><text fill="#000000" font-family="sans-serif" font-size="14" lengthAdjust="spacing" textLength="82.0996" x="2599" y="437.6426">+loadModel()</text><text fill="#000000" font-family="sans-serif" font-size="14" lengthAdjust="spacing" textLength="77.4307" x="2599" y="455.252">+getHealth()</text></g><!--class WhatsAppService--><g class="entity" data-qualified-name="Integration.WhatsAppService" data-source-line="89" id="ent0019"><rect fill="#F1F1F1" height="65.6094" rx="2.5" ry="2.5" style="stroke:#181818;stroke-width:0.5;" width="585.1318" x="1948" y="260"/><ellipse cx="2180.6816" cy="276" fill="#ADD1B2" rx="11" ry="11" style="stroke:#181818;stroke-width:1;"/><path d="M2183.4473,271.875 Q2183.6035,271.6563 2183.791,271.5469 Q2183.9785,271.4375 2184.1973,271.4375 Q2184.5723,271.4375 2184.8066,271.7031 Q2185.041,271.9531 2185.041,272.5625 L2185.041,274.0156 Q2185.041,274.625 2184.8066,274.8906 Q2184.5723,275.1563 2184.1973,275.1563 Q2183.8535,275.1563 2183.6504,274.9531 Q2183.4473,274.7656 2183.3379,274.25 Q2183.291,273.8906 2183.1035,273.7031 Q2182.7754,273.3281 2182.166,273.1094 Q2181.5566,272.8906 2180.9316,272.8906 Q2180.166,272.8906 2179.5254,273.2188 Q2178.9004,273.5469 2178.4004,274.2969 Q2177.916,275.0469 2177.916,276.0781 L2177.916,277.1719 Q2177.916,278.4063 2178.8066,279.2344 Q2179.6973,280.0469 2181.291,280.0469 Q2182.2285,280.0469 2182.8848,279.7969 Q2183.2754,279.6406 2183.6973,279.2031 Q2183.9629,278.9375 2184.1035,278.8594 Q2184.2598,278.7813 2184.4629,278.7813 Q2184.791,278.7813 2185.041,279.0469 Q2185.3066,279.2969 2185.3066,279.6406 Q2185.3066,279.9844 2184.9629,280.3906 Q2184.4629,280.9688 2183.666,281.2969 Q2182.5879,281.75 2181.291,281.75 Q2179.7754,281.75 2178.5723,281.125 Q2177.5879,280.625 2176.9004,279.5625 Q2176.2129,278.4844 2176.2129,277.2031 L2176.2129,276.0469 Q2176.2129,274.7188 2176.8223,273.5781 Q2177.4473,272.4219 2178.541,271.8125 Q2179.6348,271.1875 2180.8691,271.1875 Q2181.6035,271.1875 2182.2441,271.3594 Q2182.9004,271.5156 2183.4473,271.875 Z " fill="#000000"/><text fill="#000000" font-family="sans-serif" font-size="14" lengthAdjust="spacing" textLength="111.2686" x="2201.1816" y="281.7285">WhatsAppService</text><line style="stroke:#181818;stroke-width:0.5;" x1="1949" x2="2532.1318" y1="292" y2="292"/><line style="stroke:#181818;stroke-width:0.5;" x1="1949" x2="2532.1318" y1="300" y2="300"/><text fill="#000000" font-family="sans-serif" font-size="14" lengthAdjust="spacing" textLength="573.1318" x="1954" y="318.5332">+sendInvoiceWhatsApp(toPhone, customerName, totalAmount, careProtocol, billId, pdfPath)</text></g><!--class BillItem--><g class="entity" data-qualified-name="Model.BillItem" data-source-line="95" id="ent0021"><rect fill="#F1F1F1" height="118.4375" rx="2.5" ry="2.5" style="stroke:#181818;stroke-width:0.5;" width="110.8203" x="2185" y="889"/><ellipse cx="2214.8157" cy="905" fill="#ADD1B2" rx="11" ry="11" style="stroke:#181818;stroke-width:1;"/><path d="M2217.5813,900.875 Q2217.7376,900.6563 2217.9251,900.5469 Q2218.1126,900.4375 2218.3313,900.4375 Q2218.7063,900.4375 2218.9407,900.7031 Q2219.1751,900.9531 2219.1751,901.5625 L2219.1751,903.0156 Q2219.1751,903.625 2218.9407,903.8906 Q2218.7063,904.1563 2218.3313,904.1563 Q2217.9876,904.1563 2217.7845,903.9531 Q2217.5813,903.7656 2217.472,903.25 Q2217.4251,902.8906 2217.2376,902.7031 Q2216.9095,902.3281 2216.3001,902.1094 Q2215.6907,901.8906 2215.0657,901.8906 Q2214.3001,901.8906 2213.6595,902.2188 Q2213.0345,902.5469 2212.5345,903.2969 Q2212.0501,904.0469 2212.0501,905.0781 L2212.0501,906.1719 Q2212.0501,907.4063 2212.9407,908.2344 Q2213.8313,909.0469 2215.4251,909.0469 Q2216.3626,909.0469 2217.0188,908.7969 Q2217.4095,908.6406 2217.8313,908.2031 Q2218.097,907.9375 2218.2376,907.8594 Q2218.3938,907.7813 2218.597,907.7813 Q2218.9251,907.7813 2219.1751,908.0469 Q2219.4407,908.2969 2219.4407,908.6406 Q2219.4407,908.9844 2219.097,909.3906 Q2218.597,909.9688 2217.8001,910.2969 Q2216.722,910.75 2215.4251,910.75 Q2213.9095,910.75 2212.7063,910.125 Q2211.722,909.625 2211.0345,908.5625 Q2210.347,907.4844 2210.347,906.2031 L2210.347,905.0469 Q2210.347,903.7188 2210.9563,902.5781 Q2211.5813,901.4219 2212.6751,900.8125 Q2213.7688,900.1875 2215.0032,900.1875 Q2215.7376,900.1875 2216.3782,900.3594 Q2217.0345,900.5156 2217.5813,900.875 Z " fill="#000000"/><text fill="#000000" font-family="sans-serif" font-size="14" lengthAdjust="spacing" textLength="45.8965" x="2232.1081" y="910.7285">BillItem</text><line style="stroke:#181818;stroke-width:0.5;" x1="2186" x2="2294.8203" y1="921" y2="921"/><text fill="#000000" font-family="sans-serif" font-size="14" lengthAdjust="spacing" textLength="98.8203" x="2191" y="939.5332">-medicineId : int</text><text fill="#000000" font-family="sans-serif" font-size="14" lengthAdjust="spacing" textLength="87.9238" x="2191" y="957.1426">-name : String</text><text fill="#000000" font-family="sans-serif" font-size="14" lengthAdjust="spacing" textLength="49.793" x="2191" y="974.752">-qty : int</text><text fill="#000000" font-family="sans-serif" font-size="14" lengthAdjust="spacing" textLength="84.834" x="2191" y="992.3613">-total : double</text><line style="stroke:#181818;stroke-width:0.5;" x1="2186" x2="2294.8203" y1="999.4375" y2="999.4375"/></g><!--class Customer--><g class="entity" data-qualified-name="Model.Customer" data-source-line="102" id="ent0022"><rect fill="#F1F1F1" height="118.4375" rx="2.5" ry="2.5" style="stroke:#181818;stroke-width:0.5;" width="164.5371" x="2158" y="1179"/><ellipse cx="2205.6772" cy="1195" fill="#ADD1B2" rx="11" ry="11" style="stroke:#181818;stroke-width:1;"/><path d="M2208.4429,1190.875 Q2208.5991,1190.6563 2208.7866,1190.5469 Q2208.9741,1190.4375 2209.1929,1190.4375 Q2209.5679,1190.4375 2209.8022,1190.7031 Q2210.0366,1190.9531 2210.0366,1191.5625 L2210.0366,1193.0156 Q2210.0366,1193.625 2209.8022,1193.8906 Q2209.5679,1194.1563 2209.1929,1194.1563 Q2208.8491,1194.1563 2208.646,1193.9531 Q2208.4429,1193.7656 2208.3335,1193.25 Q2208.2866,1192.8906 2208.0991,1192.7031 Q2207.771,1192.3281 2207.1616,1192.1094 Q2206.5522,1191.8906 2205.9272,1191.8906 Q2205.1616,1191.8906 2204.521,1192.2188 Q2203.896,1192.5469 2203.396,1193.2969 Q2202.9116,1194.0469 2202.9116,1195.0781 L2202.9116,1196.1719 Q2202.9116,1197.4063 2203.8022,1198.2344 Q2204.6929,1199.0469 2206.2866,1199.0469 Q2207.2241,1199.0469 2207.8804,1198.7969 Q2208.271,1198.6406 2208.6929,1198.2031 Q2208.9585,1197.9375 2209.0991,1197.8594 Q2209.2554,1197.7813 2209.4585,1197.7813 Q2209.7866,1197.7813 2210.0366,1198.0469 Q2210.3022,1198.2969 2210.3022,1198.6406 Q2210.3022,1198.9844 2209.9585,1199.3906 Q2209.4585,1199.9688 2208.6616,1200.2969 Q2207.5835,1200.75 2206.2866,1200.75 Q2204.771,1200.75 2203.5679,1200.125 Q2202.5835,1199.625 2201.896,1198.5625 Q2201.2085,1197.4844 2201.2085,1196.2031 L2201.2085,1195.0469 Q2201.2085,1193.7188 2201.8179,1192.5781 Q2202.4429,1191.4219 2203.5366,1190.8125 Q2204.6304,1190.1875 2205.8647,1190.1875 Q2206.5991,1190.1875 2207.2397,1190.3594 Q2207.896,1190.5156 2208.4429,1190.875 Z " fill="#000000"/><text fill="#000000" font-family="sans-serif" font-size="14" lengthAdjust="spacing" textLength="60.6826" x="2226.1772" y="1200.7285">Customer</text><line style="stroke:#181818;stroke-width:0.5;" x1="2159" x2="2321.5371" y1="1211" y2="1211"/><text fill="#000000" font-family="sans-serif" font-size="14" lengthAdjust="spacing" textLength="100.3652" x="2164" y="1229.5332">-customerId : int</text><text fill="#000000" font-family="sans-serif" font-size="14" lengthAdjust="spacing" textLength="87.9238" x="2164" y="1247.1426">-name : String</text><text fill="#000000" font-family="sans-serif" font-size="14" lengthAdjust="spacing" textLength="141.627" x="2164" y="1264.752">-phoneNumber : String</text><text fill="#000000" font-family="sans-serif" font-size="14" lengthAdjust="spacing" textLength="152.5371" x="2164" y="1282.3613">-currentBalance : double</text><line style="stroke:#181818;stroke-width:0.5;" x1="2159" x2="2321.5371" y1="1289.4375" y2="1289.4375"/></g><!--class Medicine--><g class="entity" data-qualified-name="Model.Medicine" data-source-line="109" id="ent0023"><rect fill="#F1F1F1" height="118.4375" rx="2.5" ry="2.5" style="stroke:#181818;stroke-width:0.5;" width="100.7168" x="2190" y="1332"/><ellipse cx="2210.7103" cy="1348" fill="#ADD1B2" rx="11" ry="11" style="stroke:#181818;stroke-width:1;"/><path d="M2213.4759,1343.875 Q2213.6321,1343.6563 2213.8196,1343.5469 Q2214.0071,1343.4375 2214.2259,1343.4375 Q2214.6009,1343.4375 2214.8353,1343.7031 Q2215.0696,1343.9531 2215.0696,1344.5625 L2215.0696,1346.0156 Q2215.0696,1346.625 2214.8353,1346.8906 Q2214.6009,1347.1563 2214.2259,1347.1563 Q2213.8821,1347.1563 2213.679,1346.9531 Q2213.4759,1346.7656 2213.3665,1346.25 Q2213.3196,1345.8906 2213.1321,1345.7031 Q2212.804,1345.3281 2212.1946,1345.1094 Q2211.5853,1344.8906 2210.9603,1344.8906 Q2210.1946,1344.8906 2209.554,1345.2188 Q2208.929,1345.5469 2208.429,1346.2969 Q2207.9446,1347.0469 2207.9446,1348.0781 L2207.9446,1349.1719 Q2207.9446,1350.4063 2208.8353,1351.2344 Q2209.7259,1352.0469 2211.3196,1352.0469 Q2212.2571,1352.0469 2212.9134,1351.7969 Q2213.304,1351.6406 2213.7259,1351.2031 Q2213.9915,1350.9375 2214.1321,1350.8594 Q2214.2884,1350.7813 2214.4915,1350.7813 Q2214.8196,1350.7813 2215.0696,1351.0469 Q2215.3353,1351.2969 2215.3353,1351.6406 Q2215.3353,1351.9844 2214.9915,1352.3906 Q2214.4915,1352.9688 2213.6946,1353.2969 Q2212.6165,1353.75 2211.3196,1353.75 Q2209.804,1353.75 2208.6009,1353.125 Q2207.6165,1352.625 2206.929,1351.5625 Q2206.2415,1350.4844 2206.2415,1349.2031 L2206.2415,1348.0469 Q2206.2415,1346.7188 2206.8509,1345.5781 Q2207.4759,1344.4219 2208.5696,1343.8125 Q2209.6634,1343.1875 2210.8978,1343.1875 Q2211.6321,1343.1875 2212.2728,1343.3594 Q2212.929,1343.5156 2213.4759,1343.875 Z " fill="#000000"/><text fill="#000000" font-family="sans-serif" font-size="14" lengthAdjust="spacing" textLength="56.0273" x="2225.9792" y="1353.7285">Medicine</text><line style="stroke:#181818;stroke-width:0.5;" x1="2191" x2="2289.7168" y1="1364" y2="1364"/><text fill="#000000" font-family="sans-serif" font-size="14" lengthAdjust="spacing" textLength="42.0137" x="2196" y="1382.5332">-id : int</text><text fill="#000000" font-family="sans-serif" font-size="14" lengthAdjust="spacing" textLength="87.9238" x="2196" y="1400.1426">-name : String</text><text fill="#000000" font-family="sans-serif" font-size="14" lengthAdjust="spacing" textLength="63.793" x="2196" y="1417.752">-stock : int</text><text fill="#000000" font-family="sans-serif" font-size="14" lengthAdjust="spacing" textLength="88.7168" x="2196" y="1435.3613">-price : double</text><line style="stroke:#181818;stroke-width:0.5;" x1="2191" x2="2289.7168" y1="1442.4375" y2="1442.4375"/></g><!--class PaymentSplit--><g class="entity" data-qualified-name="Model.PaymentSplit" data-source-line="116" id="ent0024"><rect fill="#F1F1F1" height="100.8281" rx="2.5" ry="2.5" style="stroke:#181818;stroke-width:0.5;" width="173.8408" x="2153.5" y="1042.5"/><ellipse cx="2195.2113" cy="1058.5" fill="#ADD1B2" rx="11" ry="11" style="stroke:#181818;stroke-width:1;"/><path d="M2197.9769,1054.375 Q2198.1332,1054.1563 2198.3207,1054.0469 Q2198.5082,1053.9375 2198.7269,1053.9375 Q2199.1019,1053.9375 2199.3363,1054.2031 Q2199.5707,1054.4531 2199.5707,1055.0625 L2199.5707,1056.5156 Q2199.5707,1057.125 2199.3363,1057.3906 Q2199.1019,1057.6563 2198.7269,1057.6563 Q2198.3832,1057.6563 2198.18,1057.4531 Q2197.9769,1057.2656 2197.8675,1056.75 Q2197.8207,1056.3906 2197.6332,1056.2031 Q2197.305,1055.8281 2196.6957,1055.6094 Q2196.0863,1055.3906 2195.4613,1055.3906 Q2194.6957,1055.3906 2194.055,1055.7188 Q2193.43,1056.0469 2192.93,1056.7969 Q2192.4457,1057.5469 2192.4457,1058.5781 L2192.4457,1059.6719 Q2192.4457,1060.9063 2193.3363,1061.7344 Q2194.2269,1062.5469 2195.8207,1062.5469 Q2196.7582,1062.5469 2197.4144,1062.2969 Q2197.805,1062.1406 2198.2269,1061.7031 Q2198.4925,1061.4375 2198.6332,1061.3594 Q2198.7894,1061.2813 2198.9925,1061.2813 Q2199.3207,1061.2813 2199.5707,1061.5469 Q2199.8363,1061.7969 2199.8363,1062.1406 Q2199.8363,1062.4844 2199.4925,1062.8906 Q2198.9925,1063.4688 2198.1957,1063.7969 Q2197.1175,1064.25 2195.8207,1064.25 Q2194.305,1064.25 2193.1019,1063.625 Q2192.1175,1063.125 2191.43,1062.0625 Q2190.7425,1060.9844 2190.7425,1059.7031 L2190.7425,1058.5469 Q2190.7425,1057.2188 2191.3519,1056.0781 Q2191.9769,1054.9219 2193.0707,1054.3125 Q2194.1644,1053.6875 2195.3988,1053.6875 Q2196.1332,1053.6875 2196.7738,1053.8594 Q2197.43,1054.0156 2197.9769,1054.375 Z " fill="#000000"/><text fill="#000000" font-family="sans-serif" font-size="14" lengthAdjust="spacing" textLength="82.4824" x="2215.1471" y="1064.2285">PaymentSplit</text><line style="stroke:#181818;stroke-width:0.5;" x1="2154.5" x2="2326.3408" y1="1074.5" y2="1074.5"/><text fill="#000000" font-family="sans-serif" font-size="14" lengthAdjust="spacing" textLength="153.2959" x="2159.5" y="1093.0332">-paymentMethod : String</text><text fill="#000000" font-family="sans-serif" font-size="14" lengthAdjust="spacing" textLength="105.0684" x="2159.5" y="1110.6426">-amount : double</text><text fill="#000000" font-family="sans-serif" font-size="14" lengthAdjust="spacing" textLength="161.8408" x="2159.5" y="1128.252">-referenceNumber : String</text><line style="stroke:#181818;stroke-width:0.5;" x1="2154.5" x2="2326.3408" y1="1135.3281" y2="1135.3281"/></g><g class="entity" data-qualified-name="GMN42" data-source-line="144" id="ent0043"><path d="M746,611 L746,637.3516 A0,0 0 0 0 746,637.3516 L928.8716,637.3516 A0,0 0 0 0 928.8716,637.3516 L928.8716,621 L918.8716,611 L842,611 L838,576.03 L834,611 L746,611 A0,0 0 0 0 746,611" fill="#FEFFDD" style="stroke:#181818;stroke-width:0.5;"/><path d="M918.8716,611 L918.8716,621 L928.8716,621 L918.8716,611" fill="#FEFFDD" style="stroke:#181818;stroke-width:0.5;"/><text fill="#000000" font-family="sans-serif" font-size="13" lengthAdjust="spacing" textLength="161.8716" x="752" y="629.4951">Scope: billing checkout core</text></g><!--link MediManageApplication to BillingController--><g class="link" data-entity-1="ent0003" data-entity-2="ent0005" data-link-type="dependency" data-source-line="123" id="lnk25"><path codeLine="123" d="M209.18,119 C228.6,119 243.14,119 262.81,119" fill="none" id="MediManageApplication-to-BillingController" style="stroke:#181818;stroke-width:1;"/><polygon fill="#181818" points="268.81,119,259.81,115,263.81,119,259.81,123,268.81,119" style="stroke:#181818;stroke-width:1;"/><text fill="#000000" font-family="sans-serif" font-size="13" lengthAdjust="spacing" textLength="31.0781" x="207" y="133.4951">loads</text></g><!--reverse link BillingController to BillingCheckoutSupport--><g class="link" data-entity-1="ent0005" data-entity-2="ent0006" data-link-type="composition" data-source-line="124" id="lnk26"><path codeLine="124" d="M483.15,128 C523.83,128 560.51,128 608.89,128" fill="none" id="BillingController-backto-BillingCheckoutSupport" style="stroke:#181818;stroke-width:1;"/><polygon fill="#181818" points="471.15,128,477.15,132,483.15,128,477.15,124,471.15,128" style="stroke:#181818;stroke-width:1;"/><text fill="#000000" font-family="sans-serif" font-size="13" lengthAdjust="spacing" textLength="30.3481" x="509.02" y="142.4951">owns</text></g><!--link BillingController to BillingService--><g class="link" data-entity-1="ent0005" data-entity-2="ent0008" data-link-type="dependency" data-source-line="125" id="lnk27"><path codeLine="125" d="M471.17,191.5 C520.78,191.5 570,191.5 570,191.5 C570,191.5 570,340.67 570,433.71" fill="none" id="BillingController-to-BillingService" style="stroke:#181818;stroke-width:1;"/><polygon fill="#181818" points="570,439.71,574,430.71,570,434.71,566,430.71,570,439.71" style="stroke:#181818;stroke-width:1;"/><text fill="#000000" font-family="sans-serif" font-size="13" lengthAdjust="spacing" textLength="27.46" x="542" y="280.6851">uses</text></g><!--link BillingController to Customer--><g class="link" data-entity-1="ent0005" data-entity-2="ent0022" data-link-type="dependency" data-source-line="126" id="lnk28"><path codeLine="126" d="M350,196.35 C350,449.64 350,1238 350,1238 C350,1238 1787.38,1238 2151.75,1238" fill="none" id="BillingController-to-Customer" style="stroke:#181818;stroke-width:1;"/><polygon fill="#181818" points="2157.75,1238,2148.75,1234,2152.75,1238,2148.75,1242,2157.75,1238" style="stroke:#181818;stroke-width:1;"/><text fill="#000000" font-family="sans-serif" font-size="13" lengthAdjust="spacing" textLength="40.46" x="692.05" y="1252.4951">selects</text></g><!--link BillingController to Medicine--><g class="link" data-entity-1="ent0005" data-entity-2="ent0023" data-link-type="dependency" data-source-line="127" id="lnk29"><path codeLine="127" d="M310,196.18 C310,471.77 310,1391 310,1391 C310,1391 1879.26,1391 2183.86,1391" fill="none" id="BillingController-to-Medicine" style="stroke:#181818;stroke-width:1;"/><polygon fill="#181818" points="2189.86,1391,2180.86,1387,2184.86,1391,2180.86,1395,2189.86,1391" style="stroke:#181818;stroke-width:1;"/><text fill="#000000" font-family="sans-serif" font-size="13" lengthAdjust="spacing" textLength="40.46" x="611.52" y="1405.4951">selects</text></g><!--link BillingController to BillItem--><g class="link" data-entity-1="ent0005" data-entity-2="ent0021" data-link-type="dependency" data-source-line="128" id="lnk30"><path codeLine="128" d="M431,196.16 C431,392.88 431,897.75 431,897.75 C431,897.75 1874.52,897.75 2178.86,897.75" fill="none" id="BillingController-to-BillItem" style="stroke:#181818;stroke-width:1;"/><polygon fill="#181818" points="2184.86,897.75,2175.86,893.75,2179.86,897.75,2175.86,901.75,2184.86,897.75" style="stroke:#181818;stroke-width:1;"/><text fill="#000000" font-family="sans-serif" font-size="13" lengthAdjust="spacing" textLength="53.479" x="903.13" y="912.2451">manages</text></g><!--link BillingController to PaymentSplit--><g class="link" data-entity-1="ent0005" data-entity-2="ent0024" data-link-type="dependency" data-source-line="129" id="lnk31"><path codeLine="129" d="M391,196.24 C391,426.61 391,1093 391,1093 C391,1093 1781.34,1093 2147.47,1093" fill="none" id="BillingController-to-PaymentSplit" style="stroke:#181818;stroke-width:1;"/><polygon fill="#181818" points="2153.47,1093,2144.47,1089,2148.47,1093,2144.47,1097,2153.47,1093" style="stroke:#181818;stroke-width:1;"/><text fill="#000000" font-family="sans-serif" font-size="13" lengthAdjust="spacing" textLength="42.6309" x="780.85" y="1107.4951">creates</text></g><!--link BillingService to BillDAO--><g class="link" data-entity-1="ent0008" data-entity-2="ent0013" data-link-type="dependency" data-source-line="131" id="lnk32"><path codeLine="131" d="M1144.23,547.83 C1202.67,547.83 1246,547.83 1246,547.83 C1246,547.83 1246,797.81 1246,900.31" fill="none" id="BillingService-to-BillDAO" style="stroke:#181818;stroke-width:1;"/><polygon fill="#181818" points="1246,906.31,1250,897.31,1246,901.31,1242,897.31,1246,906.31" style="stroke:#181818;stroke-width:1;"/><text fill="#000000" font-family="sans-serif" font-size="13" lengthAdjust="spacing" textLength="44.7891" x="1247" y="690.6851">persists</text></g><!--link BillingService to CustomerDAO--><g class="link" data-entity-1="ent0008" data-entity-2="ent0014" data-link-type="dependency" data-source-line="132" id="lnk33"><path codeLine="132" d="M1073,576.2 C1073,629.29 1073,694 1073,694 C1073,694 1318.04,694 1454.34,694" fill="none" id="BillingService-to-CustomerDAO" style="stroke:#181818;stroke-width:1;"/><polygon fill="#181818" points="1460.34,694,1451.34,690,1455.34,694,1451.34,698,1460.34,694" style="stroke:#181818;stroke-width:1;"/><text fill="#000000" font-family="sans-serif" font-size="13" lengthAdjust="spacing" textLength="32.519" x="1174.77" y="708.4951">reads</text></g><!--link BillingService to MedicineDAO--><g class="link" data-entity-1="ent0008" data-entity-2="ent0015" data-link-type="dependency" data-source-line="133" id="lnk34"><path codeLine="133" d="M1001,576.3 C1001,668.4 1001,821 1001,821 C1001,821 1299.57,821 1453.34,821" fill="none" id="BillingService-to-MedicineDAO" style="stroke:#181818;stroke-width:1;"/><polygon fill="#181818" points="1459.34,821,1450.34,817,1454.34,821,1450.34,825,1459.34,821" style="stroke:#181818;stroke-width:1;"/><text fill="#000000" font-family="sans-serif" font-size="13" lengthAdjust="spacing" textLength="32.519" x="1074.82" y="835.4951">reads</text></g><!--link BillingService to ReportService--><g class="link" data-entity-1="ent0008" data-entity-2="ent0009" data-link-type="dependency" data-source-line="134" id="lnk35"><path codeLine="134" d="M1144.14,448.5 C1191.91,448.5 1234.87,448.5 1281.44,448.5" fill="none" id="BillingService-to-ReportService" style="stroke:#181818;stroke-width:1;"/><polygon fill="#181818" points="1287.44,448.5,1278.44,444.5,1282.44,448.5,1278.44,452.5,1287.44,448.5" style="stroke:#181818;stroke-width:1;"/><text fill="#000000" font-family="sans-serif" font-size="13" lengthAdjust="spacing" textLength="57.8208" x="1157.79" y="462.9951">generates</text></g><!--link BillingService to LoyaltyService--><g class="link" data-entity-1="ent0008" data-entity-2="ent0010" data-link-type="dependency" data-source-line="135" id="lnk36"><path codeLine="135" d="M1105,439.88 C1105,383.98 1105,314 1105,314 C1105,314 1303.32,314 1433.81,314" fill="none" id="BillingService-to-LoyaltyService" style="stroke:#181818;stroke-width:1;"/><polygon fill="#181818" points="1439.81,314,1430.81,310,1434.81,314,1430.81,318,1439.81,314" style="stroke:#181818;stroke-width:1;"/><text fill="#000000" font-family="sans-serif" font-size="13" lengthAdjust="spacing" textLength="57.8081" x="1151.47" y="328.4951">calculates</text></g><!--link BillingService to AIOrchestrator--><g class="link" data-entity-1="ent0008" data-entity-2="ent0011" data-link-type="dependency" data-source-line="136" id="lnk37"><path codeLine="136" d="M1144.14,520.17 C1209.96,520.17 1272.01,520.17 1332.99,520.17" fill="none" id="BillingService-to-AIOrchestrator" style="stroke:#181818;stroke-width:1;"/><polygon fill="#181818" points="1338.99,520.17,1329.99,516.17,1333.99,520.17,1329.99,524.17,1338.99,520.17" style="stroke:#181818;stroke-width:1;"/><text fill="#000000" font-family="sans-serif" font-size="13" lengthAdjust="spacing" textLength="49.8608" x="1191.56" y="534.6651">requests</text></g><!--link AIOrchestrator to AIService--><g class="link" data-entity-1="ent0011" data-entity-2="ent0017" data-link-type="dependency" data-source-line="138" id="lnk38"><path codeLine="138" d="M1753.27,534 C1937.88,534 2179,534 2179,534 C2179,534 2179,502.2 2179,468.68" fill="none" id="AIOrchestrator-to-AIService" style="stroke:#181818;stroke-width:1;"/><polygon fill="#181818" points="2179,462.68,2175,471.68,2179,467.68,2183,471.68,2179,462.68" style="stroke:#181818;stroke-width:1;"/><text fill="#000000" font-family="sans-serif" font-size="13" lengthAdjust="spacing" textLength="56.3799" x="1944.79" y="548.4951">delegates</text></g><!--reverse link AIService to LocalAIService--><g class="link" data-entity-1="ent0017" data-entity-2="ent0018" data-link-type="extension" data-source-line="139" id="lnk39"><path codeLine="139" d="M2327.7,412 C2398.83,412 2494.75,412 2592.95,412" fill="none" id="AIService-backto-LocalAIService" style="stroke:#181818;stroke-width:1;stroke-dasharray:7,7;"/><polygon fill="none" points="2309.7,412,2327.7,418,2327.7,406,2309.7,412" style="stroke:#181818;stroke-width:1;"/></g><!--link BillingCheckoutSupport to WhatsAppService--><g class="link" data-entity-1="ent0006" data-entity-2="ent0019" data-link-type="dependency" data-source-line="140" id="lnk40"><path codeLine="140" d="M838,187.03 C838,224.61 838,266.25 838,266.25 C838,266.25 1530.68,266.25 1941.77,266.25" fill="none" id="BillingCheckoutSupport-to-WhatsAppService" style="stroke:#181818;stroke-width:1;stroke-dasharray:7,7;"/><polygon fill="#181818" points="1947.77,266.25,1938.77,262.25,1942.77,266.25,1938.77,270.25,1947.77,266.25" style="stroke:#181818;stroke-width:1;"/><text fill="#000000" font-family="sans-serif" font-size="13" lengthAdjust="spacing" textLength="34.6899" x="1318.28" y="280.7451">sends</text></g><!--link BillDAO to BillItem--><g class="link" data-entity-1="ent0013" data-entity-2="ent0021" data-link-type="dependency" data-source-line="141" id="lnk41"><path codeLine="141" d="M1888.16,948 C2003.04,948 2112.65,948 2178.71,948" fill="none" id="BillDAO-to-BillItem" style="stroke:#181818;stroke-width:1;"/><polygon fill="#181818" points="2184.71,948,2175.71,944,2179.71,948,2175.71,952,2184.71,948" style="stroke:#181818;stroke-width:1;"/><text fill="#000000" font-family="sans-serif" font-size="13" lengthAdjust="spacing" textLength="35.4009" x="2000.44" y="962.4951">stores</text></g><?plantuml-src XLV1Rjiu4BthAuYUr8qTz2mi2iX95siWQOmwm9vfSYmHeKYLf99wTxlVlaE9b2ZPJY-6pHdE3Dyylg4b71rncXXHrOvmOO0veLLcNuHggQ4DiJNb-aseYXofj91OcAJMbiuPSUWSR9bMU_4ta4-9YnGAtAa5eeshTPQrbBtG2iY7ZTREEaFR3-IVZ0oXo2DmyKWLEfHjAmMZlfJUJiYDTTIu73yh-DYlh8KIJb29EU-femTg8G-MtdTtmfHg3-OLpCpmoDgmslOkNtv0QlwhfivY0HiZU3M4_9dzJ6g_qyePBIMOjFYDa7ZQQZA6mjS7D3m8wqX1dWuM4zE31ByGSe94p87VTTRf1hSL97wTEtXq6EA93l7hWCo4GpncJHMNK78-NxYhWRtepeKpdPKUpFkkRR5VeVx_RAtVzjWEjwEd1fIxnrowofrsL9QDxfJxE3dkj7KnJd0qO3lfLeI5Kwr8iXMNgO6TqKupBKCWffjMM-4WP7pK77BhIx31ewRsaJfMOzNFFbYmpaAVDyvtNJ2uqBLWYLoZV4JxMNkN78jfC7mJLbVakpiDjTmmAbadgOEXak39XMM-YXqO1X6YcmeK67ID4DqbXnzsng08WOJ9COQTGEoGIbk-8l7axOJL7DGLCS01cWTzedAisYhQOiFSriTzf-Y49j_0qs81LJpHLhrgNDxT_n63pRiSwlvA6oplA2JsrjNdtK_IXNeN-KQqopTg-4uBvMpkhrYF_WYp-uPdRbel8CyrCh3MaYzfNswV3Al1ov3JyRhUj4Opi7OoOOYSzgg80A7G89xO42JD4qe8QWJqlTW3nHqXlx0F6WijNwcG_hPV4164sA86W3hduttvT0NTV8RfWXAU3E-IOg310DcAq0c_I0dw2kLsHaaFh8_NNcvH5AgaOjlZ40tvzmvCf1pUgd4z5hq866_T309NIXaDDYZQpL4elZbjC9aN1_ynzVu11GlBVPblckE_LGwgeRi3_WW4c2D5ffNR9UTm8kG80V9fRF2yjqDUXEqL-T2JF3zZioV4Ch8UMGOBZZ6fEux3v2YgaN3dH9EQSjzScLJn9-2rgPVvurHR5611yK2kw84as-5KXEMblQhQApBIX1_zjJv7kwznoNClFN58Hc7TSXnls8fXLM5Y_Bt79uQgXYNKtTIZBmeNkEwm5vVP6NDC5-KNELf__AzTS-YdSMfXdJ5udpPKKhouL_AEWpha5R_APprPKv_MYAlHmqpi9tBC4Ayvu7E6BuBJlcDfC5mqS0JZjUVyb7tZBh_4rklF5vuv1V4ijDcvvRVr-jhReY3wJLtQa-I8L2qyxQ_v9i-cuQ5qpJ5vFhtlE5Ap84qFmJN7MISAmWpWDRPPjYW_nlIQLf1sq7rxoIkLqmBbEa4rTKj5yXst-RWkI9mb5vqNmnPF4-ViHVV5wFHLeDBxOsKBq-0znKKTWAeFEwt-_k_jxK8WiokykRtzV2Pblg4gOE0nMJGHCJM-BKexG15hYJuk68QitpFTGj4BcV-hmq9Qmd1lXj69t_q_?></g></svg>