<?plantuml 1.2026.2?><svg xmlns="http://www.w3.org/2000/svg" xmlns:xlink="http://www.w3.org/1999/xlink" contentStyleType="text/css" data-diagram-type="CLASS" height="339px" preserveAspectRatio="none" style="width:843px;height:339px;background:#FFFFFF;" version="1.1" viewBox="0 0 843 339" width="843px" zoomAndPan="magnify"><defs/><g><!--cluster Actors--><g class="cluster" data-qualified-name="Actors" data-source-line="19" id="ent0002"><rect fill="#FFF8E8" height="90" rx="2.5" ry="2.5" style="stroke:#AEB8C2;stroke-width:1.5;" width="94" x="688" y="7"/><text fill="#1F2937" font-family="sans-serif" font-size="14" font-weight="bold" lengthAdjust="spacing" textLength="44.3447" x="712.8276" y="23.5332">Actors</text></g><!--cluster Desktop App--><g class="cluster" data-qualified-name="Desktop App" data-source-line="23" id="ent0004"><rect fill="#EAF4FF" height="208" rx="2.5" ry="2.5" style="stroke:#AEB8C2;stroke-width:1.5;" width="328" x="336" y="7"/><text fill="#1F2937" font-family="sans-serif" font-size="14" font-weight="bold" lengthAdjust="spacing" textLength="86.3379" x="456.8311" y="23.5332">Desktop App</text></g><!--cluster AI Layer--><g class="cluster" data-qualified-name="AI Layer" data-source-line="29" id="ent0008"><rect fill="#EEF7EA" height="208" rx="2.5" ry="2.5" style="stroke:#AEB8C2;stroke-width:1.5;" width="140" x="7" y="125"/><text fill="#1F2937" font-family="sans-serif" font-size="14" font-weight="bold" lengthAdjust="spacing" textLength="55.248" x="49.376" y="141.5332">AI Layer</text></g><!--cluster Persistence--><g class="cluster" data-qualified-name="Persistence" data-source-line="34" id="ent0011"><rect fill="#FFF4E5" height="208" rx="2.5" ry="2.5" style="stroke:#AEB8C2;stroke-width:1.5;" width="96" x="193" y="125"/><text fill="#1F2937" font-family="sans-serif" font-size="14" font-weight="bold" lengthAdjust="spacing" textLength="78.6064" x="201.6968" y="141.5332">Persistence</text></g><!--cluster Outcome--><g class="cluster" data-qualified-name="Outcome" data-source-line="39" id="ent0014"><rect fill="#F3E8FF" height="90" rx="2.5" ry="2.5" style="stroke:#AEB8C2;stroke-width:1.5;" width="108" x="350" y="243"/><text fill="#1F2937" font-family="sans-serif" font-size="14" font-weight="bold" lengthAdjust="spacing" textLength="60.6758" x="373.6621" y="259.5332">Outcome</text></g><g class="entity" data-qualified-name="Actors.Cashier" data-source-line="20" id="ent0003"><rect fill="#FFFFFF" height="37.6094" rx="2.5" ry="2.5" style="stroke:#8C98A4;stroke-width:0.5;" width="62.2412" x="704" y="43"/><text fill="#1F2937" font-family="sans-serif" font-size="14" lengthAdjust="spacing" textLength="48.2412" x="711" y="59.5332">Cashier</text><line style="stroke:#8C98A4;stroke-width:0.5;" x1="705" x2="765.2412" y1="64.6094" y2="64.6094"/></g><g class="entity" data-qualified-name="Desktop App.BC" data-source-line="24" id="ent0005"><rect fill="#FFFFFF" height="37.6094" rx="2.5" ry="2.5" style="stroke:#8C98A4;stroke-width:0.5;" width="112.041" x="536" y="161"/><text fill="#1F2937" font-family="sans-serif" font-size="14" lengthAdjust="spacing" textLength="98.041" x="543" y="177.5332">BillingController</text><line style="stroke:#8C98A4;stroke-width:0.5;" x1="537" x2="647.041" y1="182.6094" y2="182.6094"/></g><g class="entity" data-qualified-name="Desktop App.BS" data-source-line="25" id="ent0006"><rect fill="#FFFFFF" height="37.6094" rx="2.5" ry="2.5" style="stroke:#8C98A4;stroke-width:0.5;" width="98.0342" x="355" y="43"/><text fill="#1F2937" font-family="sans-serif" font-size="14" lengthAdjust="spacing" textLength="84.0342" x="362" y="59.5332">BillingService</text><line style="stroke:#8C98A4;stroke-width:0.5;" x1="356" x2="452.0342" y1="64.6094" y2="64.6094"/></g><g class="entity" data-qualified-name="Desktop App.RS" data-source-line="26" id="ent0007"><rect fill="#FFFFFF" height="37.6094" rx="2.5" ry="2.5" style="stroke:#8C98A4;stroke-width:0.5;" width="102.7031" x="352.5" y="161"/><text fill="#1F2937" font-family="sans-serif" font-size="14" lengthAdjust="spacing" textLength="88.7031" x="359.5" y="177.5332">ReportService</text><line style="stroke:#8C98A4;stroke-width:0.5;" x1="353.5" x2="454.2031" y1="182.6094" y2="182.6094"/></g><g class="entity" data-qualified-name="AI Layer.AI" data-source-line="30" id="ent0009"><rect fill="#FFFFFF" height="37.6094" rx="2.5" ry="2.5" style="stroke:#8C98A4;stroke-width:0.5;" width="105.0273" x="24.5" y="161"/><text fill="#1F2937" font-family="sans-serif" font-size="14" lengthAdjust="spacing" textLength="91.0273" x="31.5" y="177.5332">AIOrchestrator</text><line style="stroke:#8C98A4;stroke-width:0.5;" x1="25.5" x2="128.5273" y1="182.6094" y2="182.6094"/></g><g class="entity" data-qualified-name="AI Layer.LAS" data-source-line="31" id="ent0010"><rect fill="#FFFFFF" height="37.6094" rx="2.5" ry="2.5" style="stroke:#8C98A4;stroke-width:0.5;" width="107.3789" x="23.5" y="279"/><text fill="#1F2937" font-family="sans-serif" font-size="14" lengthAdjust="spacing" textLength="93.3789" x="30.5" y="295.5332">LocalAIService</text><line style="stroke:#8C98A4;stroke-width:0.5;" x1="24.5" x2="129.8789" y1="300.6094" y2="300.6094"/></g><g class="entity" data-qualified-name="Persistence.DAO" data-source-line="35" id="ent0012"><rect fill="#FFFFFF" height="37.6094" rx="2.5" ry="2.5" style="stroke:#8C98A4;stroke-width:0.5;" width="63.0068" x="209.5" y="161"/><text fill="#1F2937" font-family="sans-serif" font-size="14" lengthAdjust="spacing" textLength="49.0068" x="216.5" y="177.5332">BillDAO</text><line style="stroke:#8C98A4;stroke-width:0.5;" x1="210.5" x2="271.5068" y1="182.6094" y2="182.6094"/></g><g class="entity" data-qualified-name="Persistence.DB" data-source-line="36" id="ent0013"><rect fill="#FFFFFF" height="37.6094" rx="2.5" ry="2.5" style="stroke:#8C98A4;stroke-width:0.5;" width="56.7998" x="212.5" y="279"/><text fill="#1F2937" font-family="sans-serif" font-size="14" lengthAdjust="spacing" textLength="42.7998" x="219.5" y="295.5332">SQLite</text><line style="stroke:#8C98A4;stroke-width:0.5;" x1="213.5" x2="268.2998" y1="300.6094" y2="300.6094"/></g><g class="entity" data-qualified-name="Outcome.Customer" data-source-line="40" id="ent0015"><rect fill="#FFFFFF" height="37.6094" rx="2.5" ry="2.5" style="stroke:#8C98A4;stroke-width:0.5;" width="74.6826" x="366.5" y="279"/><text fill="#1F2937" font-family="sans-serif" font-size="14" lengthAdjust="spacing" textLength="60.6826" x="373.5" y="295.5332">Customer</text><line style="stroke:#8C98A4;stroke-width:0.5;" x1="367.5" x2="440.1826" y1="300.6094" y2="300.6094"/></g><!--link AI to RS--><!--link RS to DAO--><!--link Cashier to BC--><g class="link" data-entity-1="ent0003" data-entity-2="ent0005" data-link-type="dependency" data-source-line="49" id="lnk18"><path codeLine="49" d="M735,81.22 C735,114.66 735,180 735,180 C735,180 694.17,180 654.11,180" fill="none" id="Cashier-to-BC" style="stroke:#5B6B7A;stroke-width:1;"/><polygon fill="#5B6B7A" points="648.11,180,657.11,184,653.11,180,657.11,176,648.11,180" style="stroke:#5B6B7A;stroke-width:1;"/><text fill="#000000" font-family="sans-serif" font-size="13" lengthAdjust="spacing" textLength="99.0044" x="736" y="170.5551">checkout request</text></g><!--link BC to BS--><g class="link" data-entity-1="ent0005" data-entity-2="ent0006" data-link-type="dependency" data-source-line="50" id="lnk19"><path codeLine="50" d="M610.67,160.9 C610.67,126.11 610.67,56 610.67,56 C610.67,56 520.37,56 459.24,56" fill="none" id="BC-to-BS" style="stroke:#5B6B7A;stroke-width:1;"/><polygon fill="#5B6B7A" points="453.24,56,462.24,60,458.24,56,462.24,52,453.24,56" style="stroke:#5B6B7A;stroke-width:1;"/><text fill="#000000" font-family="sans-serif" font-size="13" lengthAdjust="spacing" textLength="108.3926" x="475.4" y="52.4951">complete checkout</text></g><!--link BS to BC--><g class="link" data-entity-1="ent0006" data-entity-2="ent0005" data-link-type="dependency" data-source-line="53" id="lnk20"><path codeLine="53" d="M453.43,69 C503.41,69 573.33,69 573.33,69 C573.33,69 573.33,123.18 573.33,154.92" fill="none" id="BS-to-BC" style="stroke:#5B6B7A;stroke-width:1;stroke-dasharray:7,7;"/><polygon fill="#5B6B7A" points="573.33,160.92,577.33,151.92,573.33,155.92,569.33,151.92,573.33,160.92" style="stroke:#5B6B7A;stroke-width:1;"/><text fill="#000000" font-family="sans-serif" font-size="13" lengthAdjust="spacing" textLength="69.3608" x="489.34" y="83.4951">return result</text></g><!--link BS to RS--><g class="link" data-entity-1="ent0006" data-entity-2="ent0007" data-link-type="dependency" data-source-line="55" id="lnk21"><path codeLine="55" d="M404,81.22 C404,103.16 404,132.85 404,154.79" fill="none" id="BS-to-RS" style="stroke:#5B6B7A;stroke-width:1;"/><polygon fill="#5B6B7A" points="404,160.79,408,151.79,404,155.79,400,151.79,404,160.79" style="stroke:#5B6B7A;stroke-width:1;"/><text fill="#000000" font-family="sans-serif" font-size="13" lengthAdjust="spacing" textLength="67.1899" x="336" y="117.4951">render PDF</text></g><!--link RS to Customer--><g class="link" data-entity-1="ent0007" data-entity-2="ent0015" data-link-type="dependency" data-source-line="56" id="lnk22"><path codeLine="56" d="M404,199.22 C404,221.16 404,250.85 404,272.79" fill="none" id="RS-to-Customer" style="stroke:#5B6B7A;stroke-width:1;"/><polygon fill="#5B6B7A" points="404,278.79,408,269.79,404,273.79,400,269.79,404,278.79" style="stroke:#5B6B7A;stroke-width:1;"/><text fill="#000000" font-family="sans-serif" font-size="13" lengthAdjust="spacing" textLength="82.3735" x="321" y="235.4951">deliver invoice</text></g><!--link BS to AI--><g class="link" data-entity-1="ent0006" data-entity-2="ent0009" data-link-type="dependency" data-source-line="60" id="lnk23"><path codeLine="60" d="M354.69,56 C263.34,56 77,56 77,56 C77,56 77,120.11 77,154.9" fill="none" id="BS-to-AI" style="stroke:#5B6B7A;stroke-width:1;"/><polygon fill="#5B6B7A" points="77,160.9,81,151.9,77,155.9,73,151.9,77,160.9" style="stroke:#5B6B7A;stroke-width:1;"/><text fill="#000000" font-family="sans-serif" font-size="13" lengthAdjust="spacing" textLength="80.9263" x="82.4" y="52.4951">orchestrate AI</text></g><!--link AI to LAS--><g class="link" data-entity-1="ent0009" data-entity-2="ent0010" data-link-type="dependency" data-source-line="61" id="lnk24"><path codeLine="61" d="M59.5,199.22 C59.5,221.16 59.5,250.85 59.5,272.79" fill="none" id="AI-to-LAS" style="stroke:#5B6B7A;stroke-width:1;"/><polygon fill="#5B6B7A" points="59.5,278.79,63.5,269.79,59.5,273.79,55.5,269.79,59.5,278.79" style="stroke:#5B6B7A;stroke-width:1;"/><text fill="#000000" font-family="sans-serif" font-size="13" lengthAdjust="spacing" textLength="49.8799" x="9.5" y="235.4951">delegate</text></g><!--link BS to DAO--><g class="link" data-entity-1="ent0006" data-entity-2="ent0012" data-link-type="dependency" data-source-line="63" id="lnk25"><path codeLine="63" d="M354.65,69 C306.68,69 241,69 241,69 C241,69 241,123.18 241,154.92" fill="none" id="BS-to-DAO" style="stroke:#5B6B7A;stroke-width:1;"/><polygon fill="#5B6B7A" points="241,160.92,245,151.92,241,155.92,237,151.92,241,160.92" style="stroke:#5B6B7A;stroke-width:1;"/><text fill="#000000" font-family="sans-serif" font-size="13" lengthAdjust="spacing" textLength="71.5381" x="179.87" y="65.4951">save invoice</text></g><!--link DAO to DB--><g class="link" data-entity-1="ent0012" data-entity-2="ent0013" data-link-type="dependency" data-source-line="64" id="lnk26"><path codeLine="64" d="M241,199.22 C241,221.16 241,250.85 241,272.79" fill="none" id="DAO-to-DB" style="stroke:#5B6B7A;stroke-width:1;"/><polygon fill="#5B6B7A" points="241,278.79,245,269.79,241,273.79,237,269.79,241,278.79" style="stroke:#5B6B7A;stroke-width:1;"/><text fill="#000000" font-family="sans-serif" font-size="13" lengthAdjust="spacing" textLength="65.749" x="175" y="235.4951">persist sale</text></g><?plantuml-src TLHDRzim3BtxLn3fOPUcsFgnkZqKi1qR290XNJpiCkoWsgojHP4qIKuH3FllesGdinSibyXyr1Fv7YMxvL8pmtPWMrQhDouRU6N2OcHFY6RLbZLOkeD0C5Wv9XinJX1SeZje16LSgqQ0L3LQr12_7mKDazkpO6ACUikKK0OkxjAFwNqIZL3ryeEEXLyHG4h5D4PriXwoY_3pY38rcY4QPmznSalHGaatn3uKrmytzz7lwBotddfCaEHfd5t_Z-2uRPPKJXax2sN4UHnuXcfd6RCjHpC3Pc5OJ_Okq6wTqf1eJGHvKjmMnOGWvOAaRJAgm2WX1geqEqyfqUnvXJrUZl0DQZ9b36_AQGDBMB63fxx8y-8-JoOL9CkrgLgqpZ3gC-nFbYDyfIecakMOVvLC3tX6OxbrA3tkPRhDxywwN2Jhi9d-HqZvUSLTpxf89wJhpbLg5mXlylWVsRBEEW87uOSFl_qTpETpAFcBbmpMtct8vQio5UvGEezIpfUMMsXvNQC4qz78XmJVE3W5haKG-EekOI8jS1cWYdZGN0AJDOmwF-uql6bTH4ppR_q9tqDa_kHjsPJdOI_8KFSdHcTyHUCuQGwbfaiNAXv6YzPFD1lm26HOjLMTexlwioFl8ee6iFIWscc13azPddw3hZCIcB-4ljqTSmvhBn-3MeMrl-EW5PVEQ_T2Ha2d8wAykXgEDJs9GTi9OYLe7leAaFHQFo-Aq2I5ZxOGMAFWUrfnkLUavB7T1MUDajHfIW-6dy71dlG0bbCFXx_LqBibBuE-A1jVfsHK2XEKO_sBPZss2xO5OuAuSAoGt7Yab-iuvkWdt3j44CroNo0s19nw8bCeRDaUJqNxK81IGdHlF6NGC_a7?></g></svg>