<?plantuml 1.2026.2?><svg xmlns="http://www.w3.org/2000/svg" xmlns:xlink="http://www.w3.org/1999/xlink" contentStyleType="text/css" data-diagram-type="DESCRIPTION" height="1006px" preserveAspectRatio="none" style="width:751px;height:1006px;background:#FFFFFF;" version="1.1" viewBox="0 0 751 1006" width="751px" zoomAndPan="magnify"><defs/><g><!--cluster WS--><g class="cluster" data-qualified-name="WS" data-source-line="5" id="ent0002"><polygon fill="none" points="16,16,26,6,734.5,6,734.5,552,724.5,562,16,562,16,16" style="stroke:#181818;stroke-width:1;"/><line style="stroke:#181818;stroke-width:1;" x1="724.5" x2="734.5" y1="16" y2="6"/><line style="stroke:#181818;stroke-width:1;" x1="16" x2="724.5" y1="16" y2="16"/><line style="stroke:#181818;stroke-width:1;" x1="724.5" x2="724.5" y1="16" y2="562"/><text fill="#000000" font-family="sans-serif" font-size="14" font-weight="bold" lengthAdjust="spacing" textLength="146.2139" x="298.1431" y="33.5332">Windows Workstation</text></g><!--cluster Desktop--><g class="cluster" data-qualified-name="WS.Desktop" data-source-line="6" id="ent0003"><polygon fill="none" points="40,449,50,439,503.5,439,503.5,528,493.5,538,40,538,40,449" style="stroke:#181818;stroke-width:1;"/><line style="stroke:#181818;stroke-width:1;" x1="493.5" x2="503.5" y1="449" y2="439"/><line style="stroke:#181818;stroke-width:1;" x1="40" x2="493.5" y1="449" y2="449"/><line style="stroke:#181818;stroke-width:1;" x1="493.5" x2="493.5" y1="449" y2="538"/><text fill="#000000" font-family="sans-serif" font-size="14" font-weight="bold" lengthAdjust="spacing" textLength="121.3721" x="207.064" y="466.5332">Java Desktop App</text></g><!--cluster PythonSidecar--><g class="cluster" data-qualified-name="WS.PythonSidecar" data-source-line="13" id="ent0007"><polygon fill="none" points="279,65,289,55,710.5,55,710.5,253,700.5,263,279,263,279,65" style="stroke:#181818;stroke-width:1;"/><line style="stroke:#181818;stroke-width:1;" x1="700.5" x2="710.5" y1="65" y2="55"/><line style="stroke:#181818;stroke-width:1;" x1="279" x2="700.5" y1="65" y2="65"/><line style="stroke:#181818;stroke-width:1;" x1="700.5" x2="700.5" y1="65" y2="263"/><text fill="#000000" font-family="sans-serif" font-size="14" font-weight="bold" lengthAdjust="spacing" textLength="101.917" x="439.7915" y="82.5332">Python Sidecar</text></g><!--cluster NodeSidecar--><g class="cluster" data-qualified-name="WS.NodeSidecar" data-source-line="19" id="ent0011"><polygon fill="none" points="295,310,305,300,488,300,488,405,478,415,295,415,295,310" style="stroke:#181818;stroke-width:1;"/><line style="stroke:#181818;stroke-width:1;" x1="478" x2="488" y1="310" y2="300"/><line style="stroke:#181818;stroke-width:1;" x1="295" x2="478" y1="310" y2="310"/><line style="stroke:#181818;stroke-width:1;" x1="478" x2="478" y1="310" y2="415"/><text fill="#000000" font-family="sans-serif" font-size="14" font-weight="bold" lengthAdjust="spacing" textLength="105.041" x="334.9795" y="327.5332">Node.js Sidecar</text></g><!--cluster External Services--><g class="cluster" data-qualified-name="External Services" data-source-line="24" id="ent0013"><path d="M551.7354,598.878 C557.6807,587.0373 566.5649,586.7223 575.4164,595.5478 C581.0181,584.5429 588.6603,582.3691 597.7123,591.7797 C605.1277,578.6325 614.1465,578.404 623.8708,589.2638 C633.3664,574.8164 646.5882,578.7902 652.2541,593.0503 C661.9793,584.5941 669.3499,583.2038 675.0659,597.1354 C686.3201,584.9551 698.4739,583.3392 706,601 C707.258,600.7387 707.8731,601.1163 707.5928,602.4945 C723.085,608.4511 721.3378,619.0197 711.4529,628.7126 C722.5947,637.173 722.425,646.086 711.895,654.9121 C724.6628,664.0883 726.1326,673.6836 711.2797,682.2379 C723.8856,689.7429 723.3157,698.0351 713.5152,707.5212 C726.6055,717.7348 725.2057,727.7118 710.6796,735.0842 C724.1073,740.5254 725.3786,749.2266 715.5514,759.3388 C727.0259,768.9574 727.5082,778.0349 714.7851,786.9828 C727.436,795.4312 726.5433,805.9969 713.7236,813.4228 C726.7235,822.9014 727.2362,832.1108 712.8056,840.6651 C724.9531,848.2902 726.313,859.4295 714.002,868.1204 C725.0619,876.704 723.3149,884.2209 711.6165,890.3636 C722.9074,898.7474 722.7622,912.1554 708.7836,917.9436 C722.0326,925.6827 719.8234,936.5705 707.9978,943.5399 C722.8601,959.0305 716.0729,969.3617 699,976 C701.5277,976.5795 702.3633,978.3529 701.0935,980.6442 C692.4729,991.9563 684.6351,992.6001 677.0175,979.6489 C671.0759,993.8591 659.536,998.3995 648.5093,984.8762 C642.6107,995.6213 635.3264,996.5175 627.4891,986.875 C617.6994,999.8373 608.3964,998.5062 601.3317,984.2556 C594.3035,995.5511 581.0033,998.3678 573.9394,984.2942 C555.9391,994.2535 543.5163,991.1824 540,969 C542.5688,967.1423 544.7454,968.6196 544.9336,971.4862 C532.6241,965.5121 529.1368,953.3448 542.244,944.8083 C528.3654,936.3798 530.3831,926.8879 541.9541,918.1823 C529.9159,910.5388 530.4864,899.1169 542.8991,892.3685 C529.3231,887.7641 528.1672,875.9114 540.4561,868.6436 C527.0917,857.4493 530.0794,848.8917 543.8008,840.9712 C532.7863,834.0271 529.3498,822.3249 542.6665,814.3443 C530.0827,808.1201 526.7728,797.8101 538.672,787.8893 C526.6521,778.3494 526.3199,768.3505 539.9311,759.9664 C528.1592,753.1343 525.3353,740.1798 539.3754,732.8194 C527.0472,724.1826 524.6909,715.0108 539.1505,706.1481 C528.4118,697.0389 530.5026,688.0173 543.461,683.3981 C527.4306,676.8572 528.9564,661.896 541.6709,653.6266 C530.258,644.3561 530.702,636.0029 542.5799,627.544 C525.6545,615.0038 531.1142,602.2167 547,594 C550.6193,593.2859 552.7502,595.0935 551.7354,598.878" fill="none" style="stroke:#181818;stroke-width:1;"/><text fill="#000000" font-family="sans-serif" font-size="14" font-weight="bold" lengthAdjust="spacing" textLength="116.7441" x="564.6279" y="613.5332">External Services</text></g><!--entity DB--><g class="entity" data-qualified-name="WS.DB" data-source-line="11" id="ent0006"><path d="M563,289 C563,279 623.1997,279 623.1997,279 C623.1997,279 683.3994,279 683.3994,289 L683.3994,333.2188 C683.3994,343.2188 623.1997,343.2188 623.1997,343.2188 C623.1997,343.2188 563,343.2188 563,333.2188 L563,289" fill="#F1F1F1" style="stroke:#181818;stroke-width:0.5;"/><path d="M563,289 C563,299 623.1997,299 623.1997,299 C623.1997,299 683.3994,299 683.3994,289" fill="none" style="stroke:#181818;stroke-width:0.5;"/><text fill="#000000" font-family="sans-serif" font-size="14" lengthAdjust="spacing" textLength="42.7998" x="573" y="317.5332">SQLite</text><text fill="#000000" font-family="sans-serif" font-size="14" lengthAdjust="spacing" textLength="100.3994" x="573" y="335.1426">medimanage.db</text></g><!--entity APP--><g class="entity" data-qualified-name="WS.Desktop.APP" data-source-line="7" id="ent0004"><rect fill="#F1F1F1" height="40.6094" rx="2.5" ry="2.5" style="stroke:#181818;stroke-width:0.5;" width="179.4268" x="56" y="480.5"/><polygon fill="#F1F1F1" points="218.4268,485.5,218.4268,499.5,230.4268,499.5,230.4268,491.5,224.4268,485.5,218.4268,485.5" style="stroke:#181818;stroke-width:0.5;"/><line style="stroke:#181818;stroke-width:0.5;" x1="224.4268" x2="224.4268" y1="485.5" y2="491.5"/><line style="stroke:#181818;stroke-width:0.5;" x1="230.4268" x2="224.4268" y1="491.5" y2="491.5"/><text fill="#000000" font-family="sans-serif" font-size="14" lengthAdjust="spacing" textLength="149.4268" x="66" y="508.0332">MediManageApplication</text></g><!--entity UI--><g class="entity" data-qualified-name="WS.Desktop.UI" data-source-line="8" id="ent0005"><rect fill="#F1F1F1" height="40.6094" rx="2.5" ry="2.5" style="stroke:#181818;stroke-width:0.5;" width="192.2168" x="295.5" y="480.5"/><polygon fill="#F1F1F1" points="470.7168,485.5,470.7168,499.5,482.7168,499.5,482.7168,491.5,476.7168,485.5,470.7168,485.5" style="stroke:#181818;stroke-width:0.5;"/><line style="stroke:#181818;stroke-width:0.5;" x1="476.7168" x2="476.7168" y1="485.5" y2="491.5"/><line style="stroke:#181818;stroke-width:0.5;" x1="482.7168" x2="476.7168" y1="491.5" y2="491.5"/><text fill="#000000" font-family="sans-serif" font-size="14" lengthAdjust="spacing" textLength="162.2168" x="305.5" y="508.0332">FXML Views + Controllers</text></g><!--entity AI--><g class="entity" data-qualified-name="WS.PythonSidecar.AI" data-source-line="14" id="ent0008"><rect fill="#F1F1F1" height="58.2188" rx="2.5" ry="2.5" style="stroke:#181818;stroke-width:0.5;" width="160.7305" x="311" y="96"/><polygon fill="#F1F1F1" points="454.7305,101,454.7305,115,466.7305,115,466.7305,107,460.7305,101,454.7305,101" style="stroke:#181818;stroke-width:0.5;"/><line style="stroke:#181818;stroke-width:0.5;" x1="460.7305" x2="460.7305" y1="101" y2="107"/><line style="stroke:#181818;stroke-width:0.5;" x1="466.7305" x2="460.7305" y1="107" y2="107"/><text fill="#000000" font-family="sans-serif" font-size="14" lengthAdjust="spacing" textLength="98.0684" x="321" y="123.5332">Local AI Engine</text><text fill="#000000" font-family="sans-serif" font-size="14" lengthAdjust="spacing" textLength="130.7305" x="321" y="141.1426">HTTP localhost:5000</text></g><!--entity MCP--><g class="entity" data-qualified-name="WS.PythonSidecar.MCP" data-source-line="15" id="ent0009"><rect fill="#F1F1F1" height="58.2188" rx="2.5" ry="2.5" style="stroke:#181818;stroke-width:0.5;" width="193.4336" x="295" y="189"/><polygon fill="#F1F1F1" points="471.4336,194,471.4336,208,483.4336,208,483.4336,200,477.4336,194,471.4336,194" style="stroke:#181818;stroke-width:0.5;"/><line style="stroke:#181818;stroke-width:0.5;" x1="477.4336" x2="477.4336" y1="194" y2="200"/><line style="stroke:#181818;stroke-width:0.5;" x1="483.4336" x2="477.4336" y1="200" y2="200"/><text fill="#000000" font-family="sans-serif" font-size="14" lengthAdjust="spacing" textLength="76.2344" x="305" y="216.5332">MCP Server</text><text fill="#000000" font-family="sans-serif" font-size="14" lengthAdjust="spacing" textLength="163.4336" x="305" y="234.1426">SSE / stdio localhost:5001</text></g><!--entity MODELS--><g class="entity" data-qualified-name="WS.PythonSidecar.MODELS" data-source-line="16" id="ent0010"><path d="M554,97 L595,97 A3.75,3.75 0 0 1 597.5,99.5 L604.5,118 L691.8408,118 A2.5,2.5 0 0 1 694.3408,120.5 L694.3408,150.1094 A2.5,2.5 0 0 1 691.8408,152.6094 L554,152.6094 A2.5,2.5 0 0 1 551.5,150.1094 L551.5,99.5 A2.5,2.5 0 0 1 554,97" fill="#F1F1F1" style="stroke:#181818;stroke-width:0.5;"/><line style="stroke:#181818;stroke-width:0.5;" x1="551.5" x2="604.5" y1="118" y2="118"/><text fill="#000000" font-family="sans-serif" font-size="14" lengthAdjust="spacing" textLength="112.8408" x="561.5" y="139.5332">Local Model Store</text></g><!--entity WA--><g class="entity" data-qualified-name="WS.NodeSidecar.WA" data-source-line="20" id="ent0012"><rect fill="#F1F1F1" height="58.2188" rx="2.5" ry="2.5" style="stroke:#181818;stroke-width:0.5;" width="160.7305" x="311" y="341"/><polygon fill="#F1F1F1" points="454.7305,346,454.7305,360,466.7305,360,466.7305,352,460.7305,346,454.7305,346" style="stroke:#181818;stroke-width:0.5;"/><line style="stroke:#181818;stroke-width:0.5;" x1="460.7305" x2="460.7305" y1="346" y2="352"/><line style="stroke:#181818;stroke-width:0.5;" x1="466.7305" x2="460.7305" y1="352" y2="352"/><text fill="#000000" font-family="sans-serif" font-size="14" lengthAdjust="spacing" textLength="108.9443" x="321" y="368.5332">WhatsApp Bridge</text><text fill="#000000" font-family="sans-serif" font-size="14" lengthAdjust="spacing" textLength="130.7305" x="321" y="386.1426">HTTP localhost:3000</text></g><!--entity HOSTS--><g class="entity" data-qualified-name="External Services.HOSTS" data-source-line="25" id="ent0014"><rect fill="#F1F1F1" height="40.6094" rx="2.5" ry="2.5" style="stroke:#181818;stroke-width:0.5;" width="138.1514" x="554" y="774.5"/><polygon fill="#F1F1F1" points="675.1514,779.5,675.1514,793.5,687.1514,793.5,687.1514,785.5,681.1514,779.5,675.1514,779.5" style="stroke:#181818;stroke-width:0.5;"/><line style="stroke:#181818;stroke-width:0.5;" x1="681.1514" x2="681.1514" y1="779.5" y2="785.5"/><line style="stroke:#181818;stroke-width:0.5;" x1="687.1514" x2="681.1514" y1="785.5" y2="785.5"/><text fill="#000000" font-family="sans-serif" font-size="14" lengthAdjust="spacing" textLength="108.1514" x="564" y="802.0332">External AI Hosts</text></g><!--entity CloudAI--><g class="entity" data-qualified-name="External Services.CloudAI" data-source-line="26" id="ent0015"><rect fill="#F1F1F1" height="40.6094" rx="2.5" ry="2.5" style="stroke:#181818;stroke-width:0.5;" width="117.1514" x="564.5" y="698.5"/><polygon fill="#F1F1F1" points="664.6514,703.5,664.6514,717.5,676.6514,717.5,676.6514,709.5,670.6514,703.5,664.6514,703.5" style="stroke:#181818;stroke-width:0.5;"/><line style="stroke:#181818;stroke-width:0.5;" x1="670.6514" x2="670.6514" y1="703.5" y2="709.5"/><line style="stroke:#181818;stroke-width:0.5;" x1="676.6514" x2="670.6514" y1="709.5" y2="709.5"/><text fill="#000000" font-family="sans-serif" font-size="14" lengthAdjust="spacing" textLength="87.1514" x="574.5" y="726.0332">Cloud AI APIs</text></g><!--entity HF--><g class="entity" data-qualified-name="External Services.HF" data-source-line="27" id="ent0016"><rect fill="#F1F1F1" height="40.6094" rx="2.5" ry="2.5" style="stroke:#181818;stroke-width:0.5;" width="117.165" x="564.5" y="622.5"/><polygon fill="#F1F1F1" points="664.665,627.5,664.665,641.5,676.665,641.5,676.665,633.5,670.665,627.5,664.665,627.5" style="stroke:#181818;stroke-width:0.5;"/><line style="stroke:#181818;stroke-width:0.5;" x1="670.665" x2="670.665" y1="627.5" y2="633.5"/><line style="stroke:#181818;stroke-width:0.5;" x1="676.665" x2="670.665" y1="633.5" y2="633.5"/><text fill="#000000" font-family="sans-serif" font-size="14" lengthAdjust="spacing" textLength="87.165" x="574.5" y="650.0332">Hugging Face</text></g><!--entity SMTP--><g class="entity" data-qualified-name="External Services.SMTP" data-source-line="28" id="ent0017"><rect fill="#F1F1F1" height="40.6094" rx="2.5" ry="2.5" style="stroke:#181818;stroke-width:0.5;" width="114.0137" x="566" y="926.5"/><polygon fill="#F1F1F1" points="663.0137,931.5,663.0137,945.5,675.0137,945.5,675.0137,937.5,669.0137,931.5,663.0137,931.5" style="stroke:#181818;stroke-width:0.5;"/><line style="stroke:#181818;stroke-width:0.5;" x1="669.0137" x2="669.0137" y1="931.5" y2="937.5"/><line style="stroke:#181818;stroke-width:0.5;" x1="675.0137" x2="669.0137" y1="937.5" y2="937.5"/><text fill="#000000" font-family="sans-serif" font-size="14" lengthAdjust="spacing" textLength="84.0137" x="576" y="954.0332">SMTP Server</text></g><!--entity WAN--><g class="entity" data-qualified-name="External Services.WAN" data-source-line="29" id="ent0018"><rect fill="#F1F1F1" height="40.6094" rx="2.5" ry="2.5" style="stroke:#181818;stroke-width:0.5;" width="149.8203" x="548" y="850.5"/><polygon fill="#F1F1F1" points="680.8203,855.5,680.8203,869.5,692.8203,869.5,692.8203,861.5,686.8203,855.5,680.8203,855.5" style="stroke:#181818;stroke-width:0.5;"/><line style="stroke:#181818;stroke-width:0.5;" x1="686.8203" x2="686.8203" y1="855.5" y2="861.5"/><line style="stroke:#181818;stroke-width:0.5;" x1="692.8203" x2="686.8203" y1="861.5" y2="861.5"/><text fill="#000000" font-family="sans-serif" font-size="14" lengthAdjust="spacing" textLength="119.8203" x="558" y="878.0332">WhatsApp Network</text></g><!--link APP to UI--><g class="link" data-entity-1="ent0004" data-entity-2="ent0005" data-link-type="dependency" data-source-line="32" id="lnk19"><path d="M235.01,501 C254.65,501 269.53,501 289.42,501" fill="none" id="APP-to-UI" style="stroke:#181818;stroke-width:1;"/><polygon fill="#181818" points="295.42,501,286.42,497,290.42,501,286.42,505,295.42,501" style="stroke:#181818;stroke-width:1;"/></g><!--link APP to DB--><g class="link" data-entity-1="ent0004" data-entity-2="ent0006" data-link-type="dependency" data-source-line="33" id="lnk20"><path d="M163.5,480.18 C163.5,433.69 163.5,325.5 163.5,325.5 C163.5,325.5 432.38,325.5 556.93,325.5" fill="none" id="APP-to-DB" style="stroke:#181818;stroke-width:1;"/><polygon fill="#181818" points="562.93,325.5,553.93,321.5,557.93,325.5,553.93,329.5,562.93,325.5" style="stroke:#181818;stroke-width:1;"/><text fill="#000000" font-family="sans-serif" font-size="13" lengthAdjust="spacing" textLength="84.5254" x="200.87" y="339.9951">SQLite / JDBC</text></g><!--link APP to AI--><g class="link" data-entity-1="ent0004" data-entity-2="ent0008" data-link-type="dependency" data-source-line="34" id="lnk21"><path d="M92.5,480.25 C92.5,401.42 92.5,125 92.5,125 C92.5,125 216.42,125 304.98,125" fill="none" id="APP-to-AI" style="stroke:#181818;stroke-width:1;"/><polygon fill="#181818" points="310.98,125,301.98,121,305.98,125,301.98,129,310.98,125" style="stroke:#181818;stroke-width:1;"/><text fill="#000000" font-family="sans-serif" font-size="13" lengthAdjust="spacing" textLength="33.9409" x="58.5" y="207.8751">HTTP</text></g><!--link APP to WA--><g class="link" data-entity-1="ent0004" data-entity-2="ent0012" data-link-type="dependency" data-source-line="35" id="lnk22"><path d="M199.5,480.24 C199.5,443.3 199.5,370 199.5,370 C199.5,370 252.37,370 304.91,370" fill="none" id="APP-to-WA" style="stroke:#181818;stroke-width:1;"/><polygon fill="#181818" points="310.91,370,301.91,366,305.91,370,301.91,374,310.91,370" style="stroke:#181818;stroke-width:1;"/><text fill="#000000" font-family="sans-serif" font-size="13" lengthAdjust="spacing" textLength="33.9409" x="166.08" y="384.4951">HTTP</text></g><!--link APP to SMTP--><g class="link" data-entity-1="ent0004" data-entity-2="ent0017" data-link-type="dependency" data-source-line="36" id="lnk23"><path d="M145.5,521.62 C145.5,609.33 145.5,947 145.5,947 C145.5,947 433.13,947 559.88,947" fill="none" id="APP-to-SMTP" style="stroke:#181818;stroke-width:1;"/><polygon fill="#181818" points="565.88,947,556.88,943,560.88,947,556.88,951,565.88,947" style="stroke:#181818;stroke-width:1;"/><text fill="#000000" font-family="sans-serif" font-size="13" lengthAdjust="spacing" textLength="36.1118" x="108.5" y="958.9951">SMTP</text></g><!--link APP to MCP--><g class="link" data-entity-1="ent0004" data-entity-2="ent0009" data-link-type="dependency" data-source-line="37" id="lnk24"><path d="M128.5,480.19 C128.5,414.83 128.5,218 128.5,218 C128.5,218 213.7,218 288.69,218" fill="none" id="APP-to-MCP" style="stroke:#181818;stroke-width:1;stroke-dasharray:7,7;"/><polygon fill="#181818" points="294.69,218,285.69,214,289.69,218,285.69,222,294.69,218" style="stroke:#181818;stroke-width:1;"/><text fill="#000000" font-family="sans-serif" font-size="13" lengthAdjust="spacing" textLength="110.5444" x="17.5" y="280.4951">starts and monitors</text></g><!--link AI to DB--><g class="link" data-entity-1="ent0008" data-entity-2="ent0006" data-link-type="dependency" data-source-line="39" id="lnk25"><path d="M472.06,119.4 C505.43,119.4 536.5,119.4 536.5,119.4 C536.5,119.4 536.5,294.5 536.5,294.5 C536.5,294.5 542.16,294.5 556.92,294.5" fill="none" id="AI-to-DB" style="stroke:#181818;stroke-width:1;"/><polygon fill="#181818" points="562.92,294.5,553.92,290.5,557.92,294.5,553.92,298.5,562.92,294.5" style="stroke:#181818;stroke-width:1;"/><text fill="#000000" font-family="sans-serif" font-size="13" lengthAdjust="spacing" textLength="83.8145" x="537.5" y="202.4351">SQLite access</text></g><!--link AI to MODELS--><g class="link" data-entity-1="ent0008" data-entity-2="ent0010" data-link-type="dependency" data-source-line="40" id="lnk26"><path d="M472.14,108.2 C497.85,108.2 520.11,108.2 545.15,108.2" fill="none" id="AI-to-MODELS" style="stroke:#181818;stroke-width:1;"/><polygon fill="#181818" points="551.15,108.2,542.15,104.2,546.15,108.2,542.15,112.2,551.15,108.2" style="stroke:#181818;stroke-width:1;"/></g><!--link AI to CloudAI--><g class="link" data-entity-1="ent0008" data-entity-2="ent0015" data-link-type="dependency" data-source-line="41" id="lnk27"><path d="M472.21,141.8 C494.4,141.8 512.5,141.8 512.5,141.8 C512.5,141.8 512.5,719 512.5,719 C512.5,719 531.8,719 558.19,719" fill="none" id="AI-to-CloudAI" style="stroke:#181818;stroke-width:1;"/><polygon fill="#181818" points="564.19,719,555.19,715,559.19,719,555.19,723,564.19,719" style="stroke:#181818;stroke-width:1;"/></g><!--link AI to HF--><g class="link" data-entity-1="ent0008" data-entity-2="ent0016" data-link-type="dependency" data-source-line="42" id="lnk28"><path d="M472.32,130.6 C500.17,130.6 524.5,130.6 524.5,130.6 C524.5,130.6 524.5,643 524.5,643 C524.5,643 537.19,643 558.28,643" fill="none" id="AI-to-HF" style="stroke:#181818;stroke-width:1;"/><polygon fill="#181818" points="564.28,643,555.28,639,559.28,643,555.28,647,564.28,643" style="stroke:#181818;stroke-width:1;"/></g><!--link HOSTS to MCP--><g class="link" data-entity-1="ent0014" data-entity-2="ent0009" data-link-type="dependency" data-source-line="44" id="lnk29"><path d="M558.5,774.46 C558.5,671.68 558.5,218 558.5,218 C558.5,218 531.09,218 494.16,218" fill="none" id="HOSTS-to-MCP" style="stroke:#181818;stroke-width:1;"/><polygon fill="#181818" points="488.16,218,497.16,222,493.16,218,497.16,214,488.16,218" style="stroke:#181818;stroke-width:1;"/><text fill="#000000" font-family="sans-serif" font-size="13" lengthAdjust="spacing" textLength="28.8882" x="529.5" y="475.5551">MCP</text></g><!--link MCP to DB--><g class="link" data-entity-1="ent0009" data-entity-2="ent0006" data-link-type="dependency" data-source-line="45" id="lnk30"><path d="M480.5,247.11 C480.5,274.06 480.5,310 480.5,310 C480.5,310 518.04,310 556.98,310" fill="none" id="MCP-to-DB" style="stroke:#181818;stroke-width:1;"/><polygon fill="#181818" points="562.98,310,553.98,306,557.98,310,553.98,314,562.98,310" style="stroke:#181818;stroke-width:1;"/><text fill="#000000" font-family="sans-serif" font-size="13" lengthAdjust="spacing" textLength="83.8145" x="491.29" y="324.4951">SQLite access</text></g><!--link WA to WAN--><g class="link" data-entity-1="ent0012" data-entity-2="ent0018" data-link-type="dependency" data-source-line="46" id="lnk31"><path d="M472.15,371 C488.34,371 500.5,371 500.5,371 C500.5,371 500.5,871 500.5,871 C500.5,871 516.5,871 541.86,871" fill="none" id="WA-to-WAN" style="stroke:#181818;stroke-width:1;"/><polygon fill="#181818" points="547.86,871,538.86,867,542.86,871,538.86,875,547.86,871" style="stroke:#181818;stroke-width:1;"/></g><?plantuml-src TLDDZzem4BtdLuouLakfgbuuh1I-55R0fZ9jUk0o6vl4nTZ8zkvsLVM_TsmJAD2zHFRCyynxRoPAR3ru0rOshGSkhQYzD3fpEwaFQ74FhaLkNgLkO8lAYNyoIchXtmu2ZFMjoJ9jk81U9JNX7LJ6xfp7KAq7I7S6lpE017h05uI9S3jl3f0V3X7HtGCC0AsNMwmzz9Q2ooLgR0GXbQpFDVEolCBEVYmNy5qA8l01naPxQvGIraNujpcX_sJquUZn2HqnOLyNqekDtbEJVMpIvq-9pYWxyItVIA469hceqSPq2XqZDvmNfaO5-HockY6RDhfOhqjG8TeQvuTV1eD1aZ2_LZikWGdx8kn6CpQ5Z-0yb-RoxQVubg3nyTOeBcpNT4cC5J1lh4YenybqmJhbIS-AllsVxa9GYBqdfshHEt8VHbRovbREvqvEbST6rAfMvfb3R_hB2wk9Lj0aQq6J2CNFfKy0CgkWMcbKnIDRimlSEDOZK5xE4oP6edzdLF7SD65NPrWdzSNi8i-MwyxUc0xtxBzALyA_qWeVLQs295etkBkx3tlK7ISZ64BQ8PhKmsGqFgM8wX22JwT8bLz78frXOX5Y_Vvzc2g5wDUntW5g3dkZ9KtJ4O7vJLEioLFNPOwpFjuwWuvNiYABlYPeR1DMA9pUAKkC4_7LNm00?></g></svg>