<?plantuml 1.2026.2?><svg xmlns="http://www.w3.org/2000/svg" xmlns:xlink="http://www.w3.org/1999/xlink" contentStyleType="text/css" data-diagram-type="DESCRIPTION" height="1315px" preserveAspectRatio="none" style="width:1056px;height:1315px;background:#FFFFFF;" version="1.1" viewBox="0 0 1056 1315" width="1056px" zoomAndPan="magnify"><defs/><g><!--cluster Desktop Runtime--><g class="cluster" data-qualified-name="Desktop Runtime" data-source-line="7" id="ent0002"><rect fill="none" height="666" rx="2.5" ry="2.5" style="stroke:#181818;stroke-width:1;" width="1005" x="7" y="7"/><text fill="#000000" font-family="sans-serif" font-size="14" font-weight="bold" lengthAdjust="spacing" textLength="115.124" x="451.938" y="23.5332">Desktop Runtime</text></g><!--cluster Functional Modules--><g class="cluster" data-qualified-name="Desktop Runtime.Functional Modules" data-source-line="13" id="ent0007"><rect fill="none" height="598" rx="2.5" ry="2.5" style="stroke:#181818;stroke-width:1;" width="153" x="409" y="51"/><text fill="#000000" font-family="sans-serif" font-size="14" font-weight="bold" lengthAdjust="spacing" textLength="131.4414" x="419.7793" y="67.5332">Functional Modules</text></g><!--cluster Local Sidecars--><g class="cluster" data-qualified-name="Local Sidecars" data-source-line="24" id="ent0015"><rect fill="none" height="318" rx="2.5" ry="2.5" style="stroke:#181818;stroke-width:1;" width="181" x="590" y="697"/><text fill="#000000" font-family="sans-serif" font-size="14" font-weight="bold" lengthAdjust="spacing" textLength="98.8271" x="631.0864" y="713.5332">Local Sidecars</text></g><!--cluster External Services--><g class="cluster" data-qualified-name="External Services" data-source-line="30" id="ent0019"><path d="M855.9616,870.6274 C862.6335,858.9292 870.3315,855.9351 880.6592,866.5877 C886.6521,852.5021 897.4906,848.2673 909.3089,860.1643 C916.4117,848.197 924.2069,847.6761 934.0952,856.9073 C947.4773,845.225 957.1003,846.6565 964.1085,863.592 C972.6269,849.8713 984.3482,851.543 990.5118,865.8133 C1003.9528,854.439 1014.4011,858.48 1020.5,874 C1023.0047,873.7124 1024.0399,874.9197 1023.3907,877.352 C1034.5403,886.6302 1035.737,895.6446 1022.962,904.5456 C1038.271,914.1011 1036.1511,925.5466 1022.1497,934.302 C1036.2309,943.9833 1037.7158,953.9433 1023.36,964.7548 C1037.3533,973.2267 1037.8127,981.3391 1024.8616,991.3333 C1039.9706,1002.3272 1039.1308,1011.7168 1023.3877,1021.1876 C1037.4707,1029.7462 1037.1184,1040.197 1024.2095,1049.5379 C1035.7821,1060.093 1038.5952,1069.3316 1023.3241,1079.0822 C1036.612,1086.3812 1035.8482,1100.6822 1024.203,1108.7204 C1036.811,1117.2463 1040.1904,1128.8942 1024.5439,1137.7519 C1035.4538,1145.7749 1035.2474,1155.6808 1022.8821,1162.1164 C1039.7156,1171.6272 1038.1404,1186.3517 1021.3571,1194.268 C1034.9195,1201.4831 1037.8777,1216.1923 1021.8415,1223.8913 C1035.0508,1231.9801 1034.5043,1243.0506 1021.4478,1250.7546 C1036.4068,1265.0538 1031.2635,1276.7663 1013.5,1283 C1016.3034,1281.9297 1019.0577,1283.2451 1018.5181,1286.7039 C1011.3685,1301.9627 998.3745,1305.1329 988.0768,1289.8408 C980.7876,1302.5629 972.0047,1305.4139 961.892,1292.7536 C956.904,1306.0346 946.1037,1308.9593 936.1263,1298.0732 C924.8704,1308.2667 914.748,1307.5382 909.0706,1292.1689 C900.6069,1306.5498 885.6927,1304.6865 878.8926,1290.4167 C863.7457,1301.8131 846.4817,1296.0106 844.5,1276 C845.3628,1276.014 845.6505,1276.6793 845.2004,1277.3663 C834.1341,1269.2377 833.3702,1260.8699 843.73,1251.5222 C830.106,1244.5586 830.5297,1231.1911 843.4063,1223.9168 C830.6511,1212.5714 829.4675,1199.6679 846.5852,1191.2275 C832.0785,1186.4413 830.7438,1172.9165 841.5871,1163.5523 C830.0648,1154.4553 833.0147,1142.624 845.2391,1136.7644 C828.7226,1126.7066 831.2807,1116.9932 843.8111,1105.6042 C830.0511,1099.6528 831.616,1087.3089 841.9995,1079.671 C829.5403,1068.3705 829.492,1058.7864 844.6914,1049.9948 C830.768,1041.8829 828.0051,1029.601 843.0455,1019.9049 C830.4617,1011.7633 831.0917,997.7587 844.2181,990.6476 C830.2269,981.2772 832.1846,971.4646 844.0287,961.9238 C832.1083,952.0355 834.3793,943.1839 846.6963,935.7675 C829.3352,925.2594 830.5473,915.1411 845.5963,903.5272 C827.193,890.847 832.2022,873.5868 851.5,867 C854.6298,866.1855 855.982,867.5673 855.9616,870.6274" fill="none" style="stroke:#181818;stroke-width:1;"/><text fill="#000000" font-family="sans-serif" font-size="14" font-weight="bold" lengthAdjust="spacing" textLength="116.7441" x="874.1279" y="886.5332">External Services</text></g><!--entity Shell--><g class="entity" data-qualified-name="Desktop Runtime.Shell" data-source-line="8" id="ent0003"><rect fill="#F1F1F1" height="47.6094" rx="2.5" ry="2.5" style="stroke:#181818;stroke-width:0.5;" width="122.4824" x="23" y="336"/><rect fill="#F1F1F1" height="10" style="stroke:#181818;stroke-width:0.5;" width="15" x="125.4824" y="341"/><rect fill="#F1F1F1" height="2" style="stroke:#181818;stroke-width:0.5;" width="4" x="123.4824" y="343"/><rect fill="#F1F1F1" height="2" style="stroke:#181818;stroke-width:0.5;" width="4" x="123.4824" y="347"/><text fill="#000000" font-family="sans-serif" font-size="14" lengthAdjust="spacing" textLength="82.4824" x="38" y="370.5332">JavaFX Shell</text></g><!--entity Controllers--><g class="entity" data-qualified-name="Desktop Runtime.Controllers" data-source-line="9" id="ent0004"><rect fill="#F1F1F1" height="47.6094" rx="2.5" ry="2.5" style="stroke:#181818;stroke-width:0.5;" width="159.8271" x="205" y="336"/><rect fill="#F1F1F1" height="10" style="stroke:#181818;stroke-width:0.5;" width="15" x="344.8271" y="341"/><rect fill="#F1F1F1" height="2" style="stroke:#181818;stroke-width:0.5;" width="4" x="342.8271" y="343"/><rect fill="#F1F1F1" height="2" style="stroke:#181818;stroke-width:0.5;" width="4" x="342.8271" y="347"/><text fill="#000000" font-family="sans-serif" font-size="14" lengthAdjust="spacing" textLength="119.8271" x="220" y="370.5332">Feature Controllers</text></g><!--entity Services--><g class="entity" data-qualified-name="Desktop Runtime.Services" data-source-line="10" id="ent0005"><rect fill="#F1F1F1" height="47.6094" rx="2.5" ry="2.5" style="stroke:#181818;stroke-width:0.5;" width="142.7168" x="609" y="378"/><rect fill="#F1F1F1" height="10" style="stroke:#181818;stroke-width:0.5;" width="15" x="731.7168" y="383"/><rect fill="#F1F1F1" height="2" style="stroke:#181818;stroke-width:0.5;" width="4" x="729.7168" y="385"/><rect fill="#F1F1F1" height="2" style="stroke:#181818;stroke-width:0.5;" width="4" x="729.7168" y="389"/><text fill="#000000" font-family="sans-serif" font-size="14" lengthAdjust="spacing" textLength="102.7168" x="624" y="412.5332">Shared Services</text></g><!--entity DB--><g class="entity" data-qualified-name="Desktop Runtime.DB" data-source-line="11" id="ent0006"><path d="M869,617.5 C869,607.5 932.3101,607.5 932.3101,607.5 C932.3101,607.5 995.6201,607.5 995.6201,617.5 L995.6201,644.1094 C995.6201,654.1094 932.3101,654.1094 932.3101,654.1094 C932.3101,654.1094 869,654.1094 869,644.1094 L869,617.5" fill="#F1F1F1" style="stroke:#181818;stroke-width:0.5;"/><path d="M869,617.5 C869,627.5 932.3101,627.5 932.3101,627.5 C932.3101,627.5 995.6201,627.5 995.6201,617.5" fill="none" style="stroke:#181818;stroke-width:0.5;"/><text fill="#000000" font-family="sans-serif" font-size="14" lengthAdjust="spacing" textLength="106.6201" x="879" y="646.0332">SQLite Database</text></g><!--entity Billing--><g class="entity" data-qualified-name="Desktop Runtime.Functional Modules.Billing" data-source-line="14" id="ent0008"><rect fill="#F1F1F1" height="47.6094" rx="2.5" ry="2.5" style="stroke:#181818;stroke-width:0.5;" width="77.3516" x="447" y="585"/><rect fill="#F1F1F1" height="10" style="stroke:#181818;stroke-width:0.5;" width="15" x="504.3516" y="590"/><rect fill="#F1F1F1" height="2" style="stroke:#181818;stroke-width:0.5;" width="4" x="502.3516" y="592"/><rect fill="#F1F1F1" height="2" style="stroke:#181818;stroke-width:0.5;" width="4" x="502.3516" y="596"/><text fill="#000000" font-family="sans-serif" font-size="14" lengthAdjust="spacing" textLength="37.3516" x="462" y="619.5332">Billing</text></g><!--entity Inventory--><g class="entity" data-qualified-name="Desktop Runtime.Functional Modules.Inventory" data-source-line="15" id="ent0009"><rect fill="#F1F1F1" height="47.6094" rx="2.5" ry="2.5" style="stroke:#181818;stroke-width:0.5;" width="97.5859" x="436.5" y="87"/><rect fill="#F1F1F1" height="10" style="stroke:#181818;stroke-width:0.5;" width="15" x="514.0859" y="92"/><rect fill="#F1F1F1" height="2" style="stroke:#181818;stroke-width:0.5;" width="4" x="512.0859" y="94"/><rect fill="#F1F1F1" height="2" style="stroke:#181818;stroke-width:0.5;" width="4" x="512.0859" y="98"/><text fill="#000000" font-family="sans-serif" font-size="14" lengthAdjust="spacing" textLength="57.5859" x="451.5" y="121.5332">Inventory</text></g><!--entity Customers--><g class="entity" data-qualified-name="Desktop Runtime.Functional Modules.Customers" data-source-line="16" id="ent0010"><rect fill="#F1F1F1" height="47.6094" rx="2.5" ry="2.5" style="stroke:#181818;stroke-width:0.5;" width="107.6826" x="431.5" y="170"/><rect fill="#F1F1F1" height="10" style="stroke:#181818;stroke-width:0.5;" width="15" x="519.1826" y="175"/><rect fill="#F1F1F1" height="2" style="stroke:#181818;stroke-width:0.5;" width="4" x="517.1826" y="177"/><rect fill="#F1F1F1" height="2" style="stroke:#181818;stroke-width:0.5;" width="4" x="517.1826" y="181"/><text fill="#000000" font-family="sans-serif" font-size="14" lengthAdjust="spacing" textLength="67.6826" x="446.5" y="204.5332">Customers</text></g><!--entity Prescriptions--><g class="entity" data-qualified-name="Desktop Runtime.Functional Modules.Prescriptions" data-source-line="17" id="ent0011"><rect fill="#F1F1F1" height="47.6094" rx="2.5" ry="2.5" style="stroke:#181818;stroke-width:0.5;" width="120.917" x="425" y="253"/><rect fill="#F1F1F1" height="10" style="stroke:#181818;stroke-width:0.5;" width="15" x="525.917" y="258"/><rect fill="#F1F1F1" height="2" style="stroke:#181818;stroke-width:0.5;" width="4" x="523.917" y="260"/><rect fill="#F1F1F1" height="2" style="stroke:#181818;stroke-width:0.5;" width="4" x="523.917" y="264"/><text fill="#000000" font-family="sans-serif" font-size="14" lengthAdjust="spacing" textLength="80.917" x="440" y="287.5332">Prescriptions</text></g><!--entity Reports--><g class="entity" data-qualified-name="Desktop Runtime.Functional Modules.Reports" data-source-line="18" id="ent0012"><rect fill="#F1F1F1" height="47.6094" rx="2.5" ry="2.5" style="stroke:#181818;stroke-width:0.5;" width="89.0205" x="441" y="336"/><rect fill="#F1F1F1" height="10" style="stroke:#181818;stroke-width:0.5;" width="15" x="510.0205" y="341"/><rect fill="#F1F1F1" height="2" style="stroke:#181818;stroke-width:0.5;" width="4" x="508.0205" y="343"/><rect fill="#F1F1F1" height="2" style="stroke:#181818;stroke-width:0.5;" width="4" x="508.0205" y="347"/><text fill="#000000" font-family="sans-serif" font-size="14" lengthAdjust="spacing" textLength="49.0205" x="456" y="370.5332">Reports</text></g><!--entity Settings--><g class="entity" data-qualified-name="Desktop Runtime.Functional Modules.Settings" data-source-line="19" id="ent0013"><rect fill="#F1F1F1" height="47.6094" rx="2.5" ry="2.5" style="stroke:#181818;stroke-width:0.5;" width="90.5859" x="440" y="419"/><rect fill="#F1F1F1" height="10" style="stroke:#181818;stroke-width:0.5;" width="15" x="510.5859" y="424"/><rect fill="#F1F1F1" height="2" style="stroke:#181818;stroke-width:0.5;" width="4" x="508.5859" y="426"/><rect fill="#F1F1F1" height="2" style="stroke:#181818;stroke-width:0.5;" width="4" x="508.5859" y="430"/><text fill="#000000" font-family="sans-serif" font-size="14" lengthAdjust="spacing" textLength="50.5859" x="455" y="453.5332">Settings</text></g><!--entity AIAssistant--><g class="entity" data-qualified-name="Desktop Runtime.Functional Modules.AIAssistant" data-source-line="20" id="ent0014"><rect fill="#F1F1F1" height="47.6094" rx="2.5" ry="2.5" style="stroke:#181818;stroke-width:0.5;" width="113.917" x="428.5" y="502"/><rect fill="#F1F1F1" height="10" style="stroke:#181818;stroke-width:0.5;" width="15" x="522.417" y="507"/><rect fill="#F1F1F1" height="2" style="stroke:#181818;stroke-width:0.5;" width="4" x="520.417" y="509"/><rect fill="#F1F1F1" height="2" style="stroke:#181818;stroke-width:0.5;" width="4" x="520.417" y="513"/><text fill="#000000" font-family="sans-serif" font-size="14" lengthAdjust="spacing" textLength="73.917" x="443.5" y="536.5332">AI Assistant</text></g><!--entity LocalAI--><g class="entity" data-qualified-name="Local Sidecars.LocalAI" data-source-line="25" id="ent0016"><rect fill="#F1F1F1" height="65.2188" rx="2.5" ry="2.5" style="stroke:#181818;stroke-width:0.5;" width="138.0684" x="611.5" y="733.5"/><rect fill="#F1F1F1" height="10" style="stroke:#181818;stroke-width:0.5;" width="15" x="729.5684" y="738.5"/><rect fill="#F1F1F1" height="2" style="stroke:#181818;stroke-width:0.5;" width="4" x="727.5684" y="740.5"/><rect fill="#F1F1F1" height="2" style="stroke:#181818;stroke-width:0.5;" width="4" x="727.5684" y="744.5"/><text fill="#000000" font-family="sans-serif" font-size="14" lengthAdjust="spacing" textLength="98.0684" x="626.5" y="768.0332">Local AI Engine</text><text fill="#000000" font-family="sans-serif" font-size="14" lengthAdjust="spacing" textLength="75.4756" x="637.7964" y="785.6426">HTTP :5000</text></g><!--entity MCP--><g class="entity" data-qualified-name="Local Sidecars.MCP" data-source-line="26" id="ent0017"><rect fill="#F1F1F1" height="65.2188" rx="2.5" ry="2.5" style="stroke:#181818;stroke-width:0.5;" width="148.1787" x="606.5" y="833.5"/><rect fill="#F1F1F1" height="10" style="stroke:#181818;stroke-width:0.5;" width="15" x="734.6787" y="838.5"/><rect fill="#F1F1F1" height="2" style="stroke:#181818;stroke-width:0.5;" width="4" x="732.6787" y="840.5"/><rect fill="#F1F1F1" height="2" style="stroke:#181818;stroke-width:0.5;" width="4" x="732.6787" y="844.5"/><text fill="#000000" font-family="sans-serif" font-size="14" lengthAdjust="spacing" textLength="76.2344" x="637.4722" y="868.0332">MCP Server</text><text fill="#000000" font-family="sans-serif" font-size="14" lengthAdjust="spacing" textLength="108.1787" x="621.5" y="885.6426">SSE / stdio :5001</text></g><!--entity WA--><g class="entity" data-qualified-name="Local Sidecars.WA" data-source-line="27" id="ent0018"><rect fill="#F1F1F1" height="65.2188" rx="2.5" ry="2.5" style="stroke:#181818;stroke-width:0.5;" width="148.9443" x="606" y="933.5"/><rect fill="#F1F1F1" height="10" style="stroke:#181818;stroke-width:0.5;" width="15" x="734.9443" y="938.5"/><rect fill="#F1F1F1" height="2" style="stroke:#181818;stroke-width:0.5;" width="4" x="732.9443" y="940.5"/><rect fill="#F1F1F1" height="2" style="stroke:#181818;stroke-width:0.5;" width="4" x="732.9443" y="944.5"/><text fill="#000000" font-family="sans-serif" font-size="14" lengthAdjust="spacing" textLength="108.9443" x="621" y="968.0332">WhatsApp Bridge</text><text fill="#000000" font-family="sans-serif" font-size="14" lengthAdjust="spacing" textLength="75.4756" x="637.7344" y="985.6426">HTTP :3000</text></g><!--entity CloudAI--><g class="entity" data-qualified-name="External Services.CloudAI" data-source-line="31" id="ent0020"><rect fill="#F1F1F1" height="47.6094" rx="2.5" ry="2.5" style="stroke:#181818;stroke-width:0.5;" width="127.1514" x="869" y="978"/><rect fill="#F1F1F1" height="10" style="stroke:#181818;stroke-width:0.5;" width="15" x="976.1514" y="983"/><rect fill="#F1F1F1" height="2" style="stroke:#181818;stroke-width:0.5;" width="4" x="974.1514" y="985"/><rect fill="#F1F1F1" height="2" style="stroke:#181818;stroke-width:0.5;" width="4" x="974.1514" y="989"/><text fill="#000000" font-family="sans-serif" font-size="14" lengthAdjust="spacing" textLength="87.1514" x="884" y="1012.5332">Cloud AI APIs</text></g><!--entity HF--><g class="entity" data-qualified-name="External Services.HF" data-source-line="32" id="ent0021"><rect fill="#F1F1F1" height="47.6094" rx="2.5" ry="2.5" style="stroke:#181818;stroke-width:0.5;" width="127.165" x="869" y="895"/><rect fill="#F1F1F1" height="10" style="stroke:#181818;stroke-width:0.5;" width="15" x="976.165" y="900"/><rect fill="#F1F1F1" height="2" style="stroke:#181818;stroke-width:0.5;" width="4" x="974.165" y="902"/><rect fill="#F1F1F1" height="2" style="stroke:#181818;stroke-width:0.5;" width="4" x="974.165" y="906"/><text fill="#000000" font-family="sans-serif" font-size="14" lengthAdjust="spacing" textLength="87.165" x="884" y="929.5332">Hugging Face</text></g><!--entity SMTP--><g class="entity" data-qualified-name="External Services.SMTP" data-source-line="33" id="ent0022"><rect fill="#F1F1F1" height="47.6094" rx="2.5" ry="2.5" style="stroke:#181818;stroke-width:0.5;" width="124.0137" x="870.5" y="1227"/><rect fill="#F1F1F1" height="10" style="stroke:#181818;stroke-width:0.5;" width="15" x="974.5137" y="1232"/><rect fill="#F1F1F1" height="2" style="stroke:#181818;stroke-width:0.5;" width="4" x="972.5137" y="1234"/><rect fill="#F1F1F1" height="2" style="stroke:#181818;stroke-width:0.5;" width="4" x="972.5137" y="1238"/><text fill="#000000" font-family="sans-serif" font-size="14" lengthAdjust="spacing" textLength="84.0137" x="885.5" y="1261.5332">SMTP Server</text></g><!--entity WAN--><g class="entity" data-qualified-name="External Services.WAN" data-source-line="34" id="ent0023"><rect fill="#F1F1F1" height="47.6094" rx="2.5" ry="2.5" style="stroke:#181818;stroke-width:0.5;" width="159.8203" x="852.5" y="1144"/><rect fill="#F1F1F1" height="10" style="stroke:#181818;stroke-width:0.5;" width="15" x="992.3203" y="1149"/><rect fill="#F1F1F1" height="2" style="stroke:#181818;stroke-width:0.5;" width="4" x="990.3203" y="1151"/><rect fill="#F1F1F1" height="2" style="stroke:#181818;stroke-width:0.5;" width="4" x="990.3203" y="1155"/><text fill="#000000" font-family="sans-serif" font-size="14" lengthAdjust="spacing" textLength="119.8203" x="867.5" y="1178.5332">WhatsApp Network</text></g><!--entity AIHosts--><g class="entity" data-qualified-name="External Services.AIHosts" data-source-line="35" id="ent0024"><rect fill="#F1F1F1" height="47.6094" rx="2.5" ry="2.5" style="stroke:#181818;stroke-width:0.5;" width="148.1514" x="858.5" y="1061"/><rect fill="#F1F1F1" height="10" style="stroke:#181818;stroke-width:0.5;" width="15" x="986.6514" y="1066"/><rect fill="#F1F1F1" height="2" style="stroke:#181818;stroke-width:0.5;" width="4" x="984.6514" y="1068"/><rect fill="#F1F1F1" height="2" style="stroke:#181818;stroke-width:0.5;" width="4" x="984.6514" y="1072"/><text fill="#000000" font-family="sans-serif" font-size="14" lengthAdjust="spacing" textLength="108.1514" x="873.5" y="1095.5332">External AI Hosts</text></g><g class="entity" data-qualified-name="GMN50" data-source-line="67" id="ent0051"><path d="M826,689.5 L826,737 L749.69,741 L826,745 L826,748.5547 A0,0 0 0 0 826,748.5547 L1039.2134,748.5547 A0,0 0 0 0 1039.2134,748.5547 L1039.2134,699.5 L1029.2134,689.5 L826,689.5 A0,0 0 0 0 826,689.5" fill="#FEFFDD" style="stroke:#181818;stroke-width:0.5;"/><path d="M1029.2134,689.5 L1029.2134,699.5 L1039.2134,699.5 L1029.2134,689.5" fill="#FEFFDD" style="stroke:#181818;stroke-width:0.5;"/><text fill="#000000" font-family="sans-serif" font-size="13" lengthAdjust="spacing" textLength="192.2134" x="832" y="707.9951">Handles local chat, orchestration,</text><text fill="#000000" font-family="sans-serif" font-size="13" lengthAdjust="spacing" textLength="177.7725" x="839.2205" y="724.3467">model loading, and AI-assisted</text><text fill="#000000" font-family="sans-serif" font-size="13" lengthAdjust="spacing" textLength="121.3672" x="867.4231" y="740.6982">pharmacy workflows.</text></g><g class="entity" data-qualified-name="GMN53" data-source-line="73" id="ent0054"><path d="M815,783.5 L815,834.5547 L754.75,839.5 L815,842.5547 L815,842.5547 A0,0 0 0 0 815,842.5547 L1049.916,842.5547 A0,0 0 0 0 1049.916,842.5547 L1049.916,793.5 L1039.916,783.5 L815,783.5 A0,0 0 0 0 815,783.5" fill="#FEFFDD" style="stroke:#181818;stroke-width:0.5;"/><path d="M1039.916,783.5 L1039.916,793.5 L1049.916,793.5 L1039.916,783.5" fill="#FEFFDD" style="stroke:#181818;stroke-width:0.5;"/><text fill="#000000" font-family="sans-serif" font-size="13" lengthAdjust="spacing" textLength="213.916" x="821" y="801.9951">Exposes MediManage data and tools</text><text fill="#000000" font-family="sans-serif" font-size="13" lengthAdjust="spacing" textLength="158.9834" x="848.4663" y="818.3467">to external AI hosts through</text><text fill="#000000" font-family="sans-serif" font-size="13" lengthAdjust="spacing" textLength="160.418" x="847.749" y="834.6982">the Model Context Protocol.</text></g><!--link Shell to Controllers--><g class="link" data-entity-1="ent0003" data-entity-2="ent0004" data-link-type="dependency" data-source-line="38" id="lnk25"><path d="M145.13,360 C163.95,360 178.97,360 198.87,360" fill="none" id="Shell-to-Controllers" style="stroke:#181818;stroke-width:1;"/><polygon fill="#181818" points="204.87,360,195.87,356,199.87,360,195.87,364,204.87,360" style="stroke:#181818;stroke-width:1;"/></g><!--link Controllers to Billing--><g class="link" data-entity-1="ent0004" data-entity-2="ent0008" data-link-type="dependency" data-source-line="39" id="lnk26"><path d="M259,384.33 C259,446.98 259,609 259,609 C259,609 376.13,609 440.82,609" fill="none" id="Controllers-to-Billing" style="stroke:#181818;stroke-width:1;"/><polygon fill="#181818" points="446.82,609,437.82,605,441.82,609,437.82,613,446.82,609" style="stroke:#181818;stroke-width:1;"/></g><!--link Controllers to Inventory--><g class="link" data-entity-1="ent0004" data-entity-2="ent0009" data-link-type="dependency" data-source-line="40" id="lnk27"><path d="M259,335.67 C259,273.02 259,111 259,111 C259,111 363.74,111 430.35,111" fill="none" id="Controllers-to-Inventory" style="stroke:#181818;stroke-width:1;"/><polygon fill="#181818" points="436.35,111,427.35,107,431.35,111,427.35,115,436.35,111" style="stroke:#181818;stroke-width:1;"/></g><!--link Controllers to Customers--><g class="link" data-entity-1="ent0004" data-entity-2="ent0010" data-link-type="dependency" data-source-line="41" id="lnk28"><path d="M312,335.86 C312,289.82 312,194 312,194 C312,194 374.2,194 425.08,194" fill="none" id="Controllers-to-Customers" style="stroke:#181818;stroke-width:1;"/><polygon fill="#181818" points="431.08,194,422.08,190,426.08,194,422.08,198,431.08,194" style="stroke:#181818;stroke-width:1;"/></g><!--link Controllers to Prescriptions--><g class="link" data-entity-1="ent0004" data-entity-2="ent0011" data-link-type="dependency" data-source-line="42" id="lnk29"><path d="M365.01,348 C401.62,348 437,348 437,348 C437,348 437,327.64 437,307.04" fill="none" id="Controllers-to-Prescriptions" style="stroke:#181818;stroke-width:1;"/><polygon fill="#181818" points="437,301.04,433,310.04,437,306.04,441,310.04,437,301.04" style="stroke:#181818;stroke-width:1;"/></g><!--link Controllers to Reports--><g class="link" data-entity-1="ent0004" data-entity-2="ent0012" data-link-type="dependency" data-source-line="43" id="lnk30"><path d="M365.11,360 C390.96,360 412.67,360 434.99,360" fill="none" id="Controllers-to-Reports" style="stroke:#181818;stroke-width:1;"/><polygon fill="#181818" points="440.99,360,431.99,356,435.99,360,431.99,364,440.99,360" style="stroke:#181818;stroke-width:1;"/></g><!--link Controllers to Settings--><g class="link" data-entity-1="ent0004" data-entity-2="ent0013" data-link-type="dependency" data-source-line="44" id="lnk31"><path d="M312,384.01 C312,408.52 312,443 312,443 C312,443 382.51,443 433.91,443" fill="none" id="Controllers-to-Settings" style="stroke:#181818;stroke-width:1;"/><polygon fill="#181818" points="439.91,443,430.91,439,434.91,443,430.91,447,439.91,443" style="stroke:#181818;stroke-width:1;"/></g><!--link Controllers to AIAssistant--><g class="link" data-entity-1="ent0004" data-entity-2="ent0014" data-link-type="dependency" data-source-line="45" id="lnk32"><path d="M365.06,372 C399.94,372 433,372 433,372 C433,372 433,452.62 433,495.94" fill="none" id="Controllers-to-AIAssistant" style="stroke:#181818;stroke-width:1;"/><polygon fill="#181818" points="433,501.94,437,492.94,433,496.94,429,492.94,433,501.94" style="stroke:#181818;stroke-width:1;"/></g><!--link Billing to Services--><g class="link" data-entity-1="ent0008" data-entity-2="ent0005" data-link-type="dependency" data-source-line="47" id="lnk33"><path d="M524.12,596.25 C581.1,596.25 681,596.25 681,596.25 C681,596.25 681,484.28 681,432.21" fill="none" id="Billing-to-Services" style="stroke:#181818;stroke-width:1;"/><polygon fill="#181818" points="681,426.21,677,435.21,681,431.21,685,435.21,681,426.21" style="stroke:#181818;stroke-width:1;"/></g><!--link Inventory to Services--><g class="link" data-entity-1="ent0009" data-entity-2="ent0005" data-link-type="dependency" data-source-line="48" id="lnk34"><path d="M534.76,111 C599.48,111 705,111 705,111 C705,111 705,301.75 705,371.69" fill="none" id="Inventory-to-Services" style="stroke:#181818;stroke-width:1;"/><polygon fill="#181818" points="705,377.69,709,368.69,705,372.69,701,368.69,705,377.69" style="stroke:#181818;stroke-width:1;"/></g><!--link Customers to Services--><g class="link" data-entity-1="ent0010" data-entity-2="ent0005" data-link-type="dependency" data-source-line="49" id="lnk35"><path d="M539.76,194 C590.01,194 657,194 657,194 C657,194 657,316.86 657,371.73" fill="none" id="Customers-to-Services" style="stroke:#181818;stroke-width:1;"/><polygon fill="#181818" points="657,377.73,661,368.73,657,372.73,653,368.73,657,377.73" style="stroke:#181818;stroke-width:1;"/></g><!--link Prescriptions to Services--><g class="link" data-entity-1="ent0011" data-entity-2="ent0005" data-link-type="dependency" data-source-line="50" id="lnk36"><path d="M535,301.01 C535,335.69 535,395.67 535,395.67 C535,395.67 565.95,395.67 602.6,395.67" fill="none" id="Prescriptions-to-Services" style="stroke:#181818;stroke-width:1;"/><polygon fill="#181818" points="608.6,395.67,599.6,391.67,603.6,395.67,599.6,399.67,608.6,395.67" style="stroke:#181818;stroke-width:1;"/></g><!--link Reports to Services--><g class="link" data-entity-1="ent0012" data-entity-2="ent0005" data-link-type="dependency" data-source-line="51" id="lnk37"><path d="M486,384.22 C486,395.87 486,407.33 486,407.33 C486,407.33 547.45,407.33 602.9,407.33" fill="none" id="Reports-to-Services" style="stroke:#181818;stroke-width:1;"/><polygon fill="#181818" points="608.9,407.33,599.9,403.33,603.9,407.33,599.9,411.33,608.9,407.33" style="stroke:#181818;stroke-width:1;"/></g><!--link Settings to Services--><g class="link" data-entity-1="ent0013" data-entity-2="ent0005" data-link-type="dependency" data-source-line="52" id="lnk38"><path d="M531.22,421.33 C554.3,421.33 576.82,421.33 602.74,421.33" fill="none" id="Settings-to-Services" style="stroke:#181818;stroke-width:1;"/><polygon fill="#181818" points="608.74,421.33,599.74,417.33,603.74,421.33,599.74,425.33,608.74,421.33" style="stroke:#181818;stroke-width:1;"/></g><!--link AIAssistant to Services--><g class="link" data-entity-1="ent0014" data-entity-2="ent0005" data-link-type="dependency" data-source-line="53" id="lnk39"><path d="M539,501.75 C539,471.49 539,423.67 539,423.67 C539,423.67 567.82,423.67 602.92,423.67" fill="none" id="AIAssistant-to-Services" style="stroke:#181818;stroke-width:1;"/><polygon fill="#181818" points="608.92,423.67,599.92,419.67,603.92,423.67,599.92,427.67,608.92,423.67" style="stroke:#181818;stroke-width:1;"/></g><!--link Services to DB--><g class="link" data-entity-1="ent0005" data-entity-2="ent0006" data-link-type="dependency" data-source-line="55" id="lnk40"><path d="M715,426.19 C715,483.01 715,620.25 715,620.25 C715,620.25 798.53,620.25 862.71,620.25" fill="none" id="Services-to-DB" style="stroke:#181818;stroke-width:1;"/><polygon fill="#181818" points="868.71,620.25,859.71,616.25,863.71,620.25,859.71,624.25,868.71,620.25" style="stroke:#181818;stroke-width:1;"/></g><!--link AIAssistant to LocalAI--><g class="link" data-entity-1="ent0014" data-entity-2="ent0016" data-link-type="dependency" data-source-line="56" id="lnk41"><path d="M534,550.33 C534,611.35 534,766 534,766 C534,766 567.25,766 605.11,766" fill="none" id="AIAssistant-to-LocalAI" style="stroke:#181818;stroke-width:1;"/><polygon fill="#181818" points="611.11,766,602.11,762,606.11,766,602.11,770,611.11,766" style="stroke:#181818;stroke-width:1;"/></g><!--link LocalAI to DB--><g class="link" data-entity-1="ent0016" data-entity-2="ent0006" data-link-type="dependency" data-source-line="57" id="lnk42"><path d="M646,733.27 C646,695.98 646,640.17 646,640.17 C646,640.17 778.51,640.17 862.92,640.17" fill="none" id="LocalAI-to-DB" style="stroke:#181818;stroke-width:1;"/><polygon fill="#181818" points="868.92,640.17,859.92,636.17,863.92,640.17,859.92,644.17,868.92,640.17" style="stroke:#181818;stroke-width:1;"/></g><!--link LocalAI to CloudAI--><g class="link" data-entity-1="ent0016" data-entity-2="ent0020" data-link-type="dependency" data-source-line="58" id="lnk43"><path d="M749.69,793.5 C761.48,793.5 770,793.5 770,793.5 C770,793.5 770,988.25 770,988.25 C770,988.25 817.22,988.25 862.74,988.25" fill="none" id="LocalAI-to-CloudAI" style="stroke:#181818;stroke-width:1;"/><polygon fill="#181818" points="868.74,988.25,859.74,984.25,863.74,988.25,859.74,992.25,868.74,988.25" style="stroke:#181818;stroke-width:1;"/></g><!--link LocalAI to HF--><g class="link" data-entity-1="ent0016" data-entity-2="ent0021" data-link-type="dependency" data-source-line="59" id="lnk44"><path d="M749.67,788.5 C776.09,788.5 800,788.5 800,788.5 C800,788.5 800,916 800,916 C800,916 828.96,916 862.97,916" fill="none" id="LocalAI-to-HF" style="stroke:#181818;stroke-width:1;"/><polygon fill="#181818" points="868.97,916,859.97,912,863.97,916,859.97,920,868.97,916" style="stroke:#181818;stroke-width:1;"/></g><!--link Billing to WA--><g class="link" data-entity-1="ent0008" data-entity-2="ent0018" data-link-type="dependency" data-source-line="60" id="lnk45"><path d="M499,633.26 C499,713.61 499,966 499,966 C499,966 549.83,966 599.89,966" fill="none" id="Billing-to-WA" style="stroke:#181818;stroke-width:1;"/><polygon fill="#181818" points="605.89,966,596.89,962,600.89,966,596.89,970,605.89,966" style="stroke:#181818;stroke-width:1;"/></g><!--link Billing to SMTP--><g class="link" data-entity-1="ent0008" data-entity-2="ent0022" data-link-type="dependency" data-source-line="61" id="lnk46"><path d="M473,633.38 C473,750.65 473,1251 473,1251 C473,1251 738.42,1251 864.05,1251" fill="none" id="Billing-to-SMTP" style="stroke:#181818;stroke-width:1;"/><polygon fill="#181818" points="870.05,1251,861.05,1247,865.05,1251,861.05,1255,870.05,1251" style="stroke:#181818;stroke-width:1;"/></g><!--link WA to WAN--><g class="link" data-entity-1="ent0018" data-entity-2="ent0023" data-link-type="dependency" data-source-line="62" id="lnk47"><path d="M681,998.9 C681,1056.14 681,1168 681,1168 C681,1168 772.63,1168 846.23,1168" fill="none" id="WA-to-WAN" style="stroke:#181818;stroke-width:1;"/><polygon fill="#181818" points="852.23,1168,843.23,1164,847.23,1168,843.23,1172,852.23,1168" style="stroke:#181818;stroke-width:1;"/></g><!--link AIHosts to MCP--><g class="link" data-entity-1="ent0024" data-entity-2="ent0017" data-link-type="dependency" data-source-line="63" id="lnk48"><path d="M864,1060.61 C864,1004.06 864,868.75 864,868.75 C864,868.75 811.54,868.75 760.61,868.75" fill="none" id="AIHosts-to-MCP" style="stroke:#181818;stroke-width:1;"/><polygon fill="#181818" points="754.61,868.75,763.61,872.75,759.61,868.75,763.61,864.75,754.61,868.75" style="stroke:#181818;stroke-width:1;"/></g><!--link MCP to DB--><g class="link" data-entity-1="ent0017" data-entity-2="ent0006" data-link-type="dependency" data-source-line="64" id="lnk49"><path d="M754.77,836.5 C771.8,836.5 785,836.5 785,836.5 C785,836.5 785,647.33 785,647.33 C785,647.33 822.8,647.33 862.66,647.33" fill="none" id="MCP-to-DB" style="stroke:#181818;stroke-width:1;"/><polygon fill="#181818" points="868.66,647.33,859.66,643.33,863.66,647.33,859.66,651.33,868.66,647.33" style="stroke:#181818;stroke-width:1;"/></g><?plantuml-src NLLDRzim3BtxLn0vDrk6OPST1hXfWcHeYgmEq07j3fh5s48KoP3aji7G_pxgmuxjIoloFOkFqXCZyUZ0QJ2YgXrmOR1qGglCdeHgc65di3NZ-ase2evCMXmW3IjFhCB2NII2_v2fIWu9KYXqbmP16rVh0S3no5hf3lZkSYagTKRbeAG_QB8iRGkpExGdfnjuR9KJPvp1lmpW-ITxPUlVKDGevHzWDguyiaRcMeEmrCePBIKQ6mY3sDEAcXdaKA1v5IL6IXSGpfbZVvcb-iMlU-4Gxb9YvebtjnbnUedhLeNpOX9schSIRLH9PMw5fFwhi7rQHs2hNgbJRIu1wgC8BblhzBbNtaKHt1kqfH6DhnW9eqmaFM93nntXj8v0WSwHYAxX64Getq9khR1qWox0-RQFYV6HVGokvLwNr6uXE9RCf7wVOvBsMQcARlr5RGw7FNp_jbWimeO1pxUUkblkmtcZUL55iOBFO1qNEf2_138nFF6fPixcJGEtHl2gt_Dhj-TJxdMLKhSSPgjtCe-_X-ugax1bW7s3-sqwL9-9KZPjLNbdhrc90TkiWqDsXqvYF2oAHu8UqBrfSqeg7ZpMrwTI6stJ1UJRiFOwWqrXFlynykDW7R3EATFyrIPJvEgHAJ8snnJjl37DzywO0aDFP4bd-Y8zdbxaEDqh7AT7yiPGqZPETiB6sO6gCP1rgv2cTpjbTfPC_plQCEoiCioHHORDamb7P-6jyfGdw25B1WYnjxKtVogKAKtJ9GvUVHoya0rJd2O9oF2cIZBT3KtGiaRh3FEdTKEai-OeYS8ubRu1-eGkQCv2XyZzZA8nTsRb1RnJZrA_sKyP4ijNdTQE3sxrtcXBTNV8nOuf_zZzC0nxEwsb7nRqKu43fzUXELSRtLQrXslqWv2KUVSGaqoedIwrl1R_3m00?></g></svg>