<?plantuml 1.2026.2?><svg xmlns="http://www.w3.org/2000/svg" xmlns:xlink="http://www.w3.org/1999/xlink" contentStyleType="text/css" data-diagram-type="SEQUENCE" height="933px" preserveAspectRatio="none" style="width:2209px;height:933px;background:#FFFFFF;" version="1.1" viewBox="0 0 2209 933" width="2209px" zoomAndPan="magnify"><defs/><g><rect fill="#F8F8F8" height="921.0078" style="stroke:#181818;stroke-width:0.5;" width="1131.561" x="192.8354" y="6"/><text fill="#000000" font-family="sans-serif" font-size="13" font-weight="bold" lengthAdjust="spacing" textLength="80.1709" x="718.5305" y="19.4951">Desktop App</text><rect fill="#F8F8F8" height="921.0078" style="stroke:#181818;stroke-width:0.5;" width="605.3291" x="1326.3965" y="6"/><text fill="#000000" font-family="sans-serif" font-size="13" font-weight="bold" lengthAdjust="spacing" textLength="51.3018" x="1603.4102" y="19.4951">AI Layer</text><rect fill="#F8F8F8" height="921.0078" style="stroke:#181818;stroke-width:0.5;" width="263.3887" x="1933.7256" y="6"/><text fill="#000000" font-family="sans-serif" font-size="13" font-weight="bold" lengthAdjust="spacing" textLength="72.9917" x="2028.9241" y="19.4951">Persistence</text><g><title>BillDAO</title><rect fill="#FFFFFF" height="121.4063" style="stroke:#181818;stroke-width:1;" width="10" x="1964.229" y="515.8828"/></g><rect fill="none" height="79.0547" style="stroke:#000000;stroke-width:1.5;" width="876.437" x="10" y="106.9609"/><rect fill="none" height="230.8125" style="stroke:#000000;stroke-width:1.5;" width="1750.8901" x="186.8354" y="200.0156"/><rect fill="none" height="200.4609" style="stroke:#000000;stroke-width:1.5;" width="2016.2788" x="186.8354" y="444.8281"/><rect fill="none" height="109.4063" style="stroke:#000000;stroke-width:1.5;" width="1143.561" x="186.8354" y="659.2891"/><g class="participant-lifeline" data-entity-uid="part1" data-qualified-name="Cashier" id="part1-lifeline"><g><title>Cashier</title><rect fill="#000000" fill-opacity="0.00000" height="756.4375" width="8" x="43.1206" y="89.9609"/><line style="stroke:#181818;stroke-width:0.5;stroke-dasharray:5,5;" x1="47" x2="47" y1="89.9609" y2="846.3984"/></g></g><g class="participant-lifeline" data-entity-uid="part2" data-qualified-name="Customer" id="part2-lifeline"><g><title>Customer</title><rect fill="#000000" fill-opacity="0.00000" height="756.4375" width="8" x="149.4941" y="89.9609"/><line style="stroke:#181818;stroke-width:0.5;stroke-dasharray:5,5;" x1="153.1528" x2="153.1528" y1="89.9609" y2="846.3984"/></g></g><g class="participant-lifeline" data-entity-uid="part3" data-qualified-name="BC" id="part3-lifeline"><g><title>BillingController</title><rect fill="#000000" fill-opacity="0.00000" height="756.4375" width="8" x="248.856" y="89.9609"/><line style="stroke:#181818;stroke-width:0.5;stroke-dasharray:5,5;" x1="252.8354" x2="252.8354" y1="89.9609" y2="846.3984"/></g></g><g class="participant-lifeline" data-entity-uid="part4" data-qualified-name="BS" id="part4-lifeline"><g><title>BillingService</title><rect fill="#000000" fill-opacity="0.00000" height="756.4375" width="8" x="823.4199" y="89.9609"/><line style="stroke:#181818;stroke-width:0.5;stroke-dasharray:5,5;" x1="827.4028" x2="827.4028" y1="89.9609" y2="846.3984"/></g></g><g class="participant-lifeline" data-entity-uid="part5" data-qualified-name="RS" id="part5-lifeline"><g><title>ReportService</title><rect fill="#000000" fill-opacity="0.00000" height="756.4375" width="8" x="1265.0449" y="89.9609"/><line style="stroke:#181818;stroke-width:0.5;stroke-dasharray:5,5;" x1="1268.6934" x2="1268.6934" y1="89.9609" y2="846.3984"/></g></g><g class="participant-lifeline" data-entity-uid="part6" data-qualified-name="AI" id="part6-lifeline"><g><title>AIOrchestrator</title><rect fill="#000000" fill-opacity="0.00000" height="756.4375" width="8" x="1378.9102" y="89.9609"/><line style="stroke:#181818;stroke-width:0.5;stroke-dasharray:5,5;" x1="1382.3965" x2="1382.3965" y1="89.9609" y2="846.3984"/></g></g><g class="participant-lifeline" data-entity-uid="part7" data-qualified-name="LAS" id="part7-lifeline"><g><title>LocalAIService</title><rect fill="#000000" fill-opacity="0.00000" height="756.4375" width="8" x="1736.0415" y="89.9609"/><line style="stroke:#181818;stroke-width:0.5;stroke-dasharray:5,5;" x1="1739.3521" x2="1739.3521" y1="89.9609" y2="846.3984"/></g></g><g class="participant-lifeline" data-entity-uid="part8" data-qualified-name="PY" id="part8-lifeline"><g><title>Local AI Engine</title><rect fill="#000000" fill-opacity="0.00000" height="756.4375" width="8" x="1867.6914" y="89.9609"/><line style="stroke:#181818;stroke-width:0.5;stroke-dasharray:5,5;" x1="1871.6572" x2="1871.6572" y1="89.9609" y2="846.3984"/></g></g><g class="participant-lifeline" data-entity-uid="part9" data-qualified-name="DAO" id="part9-lifeline"><g><title>BillDAO</title><rect fill="#000000" fill-opacity="0.00000" height="756.4375" width="8" x="1965.229" y="89.9609"/><line style="stroke:#181818;stroke-width:0.5;stroke-dasharray:5,5;" x1="1968.7256" x2="1968.7256" y1="89.9609" y2="846.3984"/></g></g><g class="participant-lifeline" data-entity-uid="part10" data-qualified-name="DB" id="part10-lifeline"><g><title>SQLite</title><rect fill="#000000" fill-opacity="0.00000" height="756.4375" width="8" x="2164.7144" y="89.9609"/><line style="stroke:#181818;stroke-width:0.5;stroke-dasharray:5,5;" x1="2168.3145" x2="2168.3145" y1="89.9609" y2="846.3984"/></g></g><g class="participant participant-head" data-entity-uid="part1" data-qualified-name="Cashier" id="part1-head"><text fill="#000000" font-family="sans-serif" font-size="14" lengthAdjust="spacing" textLength="48.2412" x="20" y="86.8848">Cashier</text><ellipse cx="47.1206" cy="20.8516" fill="#E2E2F0" rx="8" ry="8" style="stroke:#181818;stroke-width:0.5;"/><path d="M47.1206,28.8516 L47.1206,55.8516 M34.1206,36.8516 L60.1206,36.8516 M47.1206,55.8516 L34.1206,70.8516 M47.1206,55.8516 L60.1206,70.8516" fill="none" style="stroke:#181818;stroke-width:0.5;"/></g><g class="participant participant-tail" data-entity-uid="part1" data-qualified-name="Cashier" id="part1-tail"><text fill="#000000" font-family="sans-serif" font-size="14" lengthAdjust="spacing" textLength="48.2412" x="20" y="859.9316">Cashier</text><ellipse cx="47.1206" cy="871.5078" fill="#E2E2F0" rx="8" ry="8" style="stroke:#181818;stroke-width:0.5;"/><path d="M47.1206,879.5078 L47.1206,906.5078 M34.1206,887.5078 L60.1206,887.5078 M47.1206,906.5078 L34.1206,921.5078 M47.1206,906.5078 L60.1206,921.5078" fill="none" style="stroke:#181818;stroke-width:0.5;"/></g><g class="participant participant-head" data-entity-uid="part2" data-qualified-name="Customer" id="part2-head"><text fill="#000000" font-family="sans-serif" font-size="14" lengthAdjust="spacing" textLength="60.6826" x="120.1528" y="86.8848">Customer</text><ellipse cx="153.4941" cy="20.8516" fill="#E2E2F0" rx="8" ry="8" style="stroke:#181818;stroke-width:0.5;"/><path d="M153.4941,28.8516 L153.4941,55.8516 M140.4941,36.8516 L166.4941,36.8516 M153.4941,55.8516 L140.4941,70.8516 M153.4941,55.8516 L166.4941,70.8516" fill="none" style="stroke:#181818;stroke-width:0.5;"/></g><g class="participant participant-tail" data-entity-uid="part2" data-qualified-name="Customer" id="part2-tail"><text fill="#000000" font-family="sans-serif" font-size="14" lengthAdjust="spacing" textLength="60.6826" x="120.1528" y="859.9316">Customer</text><ellipse cx="153.4941" cy="871.5078" fill="#E2E2F0" rx="8" ry="8" style="stroke:#181818;stroke-width:0.5;"/><path d="M153.4941,879.5078 L153.4941,906.5078 M140.4941,887.5078 L166.4941,887.5078 M153.4941,906.5078 L140.4941,921.5078 M153.4941,906.5078 L166.4941,921.5078" fill="none" style="stroke:#181818;stroke-width:0.5;"/></g><g class="participant participant-head" data-entity-uid="part3" data-qualified-name="BC" id="part3-head"><rect fill="#E2E2F0" height="31.6094" rx="2.5" ry="2.5" style="stroke:#181818;stroke-width:0.5;" width="112.041" x="196.8354" y="57.3516"/><text fill="#000000" font-family="sans-serif" font-size="14" lengthAdjust="spacing" textLength="98.041" x="203.8354" y="78.8848">BillingController</text></g><g class="participant participant-tail" data-entity-uid="part3" data-qualified-name="BC" id="part3-tail"><rect fill="#E2E2F0" height="31.6094" rx="2.5" ry="2.5" style="stroke:#181818;stroke-width:0.5;" width="112.041" x="196.8354" y="845.3984"/><text fill="#000000" font-family="sans-serif" font-size="14" lengthAdjust="spacing" textLength="98.041" x="203.8354" y="866.9316">BillingController</text></g><g class="participant participant-head" data-entity-uid="part4" data-qualified-name="BS" id="part4-head"><rect fill="#E2E2F0" height="31.6094" rx="2.5" ry="2.5" style="stroke:#181818;stroke-width:0.5;" width="98.0342" x="778.4028" y="57.3516"/><text fill="#000000" font-family="sans-serif" font-size="14" lengthAdjust="spacing" textLength="84.0342" x="785.4028" y="78.8848">BillingService</text></g><g class="participant participant-tail" data-entity-uid="part4" data-qualified-name="BS" id="part4-tail"><rect fill="#E2E2F0" height="31.6094" rx="2.5" ry="2.5" style="stroke:#181818;stroke-width:0.5;" width="98.0342" x="778.4028" y="845.3984"/><text fill="#000000" font-family="sans-serif" font-size="14" lengthAdjust="spacing" textLength="84.0342" x="785.4028" y="866.9316">BillingService</text></g><g class="participant participant-head" data-entity-uid="part5" data-qualified-name="RS" id="part5-head"><rect fill="#E2E2F0" height="31.6094" rx="2.5" ry="2.5" style="stroke:#181818;stroke-width:0.5;" width="102.7031" x="1217.6934" y="57.3516"/><text fill="#000000" font-family="sans-serif" font-size="14" lengthAdjust="spacing" textLength="88.7031" x="1224.6934" y="78.8848">ReportService</text></g><g class="participant participant-tail" data-entity-uid="part5" data-qualified-name="RS" id="part5-tail"><rect fill="#E2E2F0" height="31.6094" rx="2.5" ry="2.5" style="stroke:#181818;stroke-width:0.5;" width="102.7031" x="1217.6934" y="845.3984"/><text fill="#000000" font-family="sans-serif" font-size="14" lengthAdjust="spacing" textLength="88.7031" x="1224.6934" y="866.9316">ReportService</text></g><g class="participant participant-head" data-entity-uid="part6" data-qualified-name="AI" id="part6-head"><rect fill="#E2E2F0" height="31.6094" rx="2.5" ry="2.5" style="stroke:#181818;stroke-width:0.5;" width="105.0273" x="1330.3965" y="57.3516"/><text fill="#000000" font-family="sans-serif" font-size="14" lengthAdjust="spacing" textLength="91.0273" x="1337.3965" y="78.8848">AIOrchestrator</text></g><g class="participant participant-tail" data-entity-uid="part6" data-qualified-name="AI" id="part6-tail"><rect fill="#E2E2F0" height="31.6094" rx="2.5" ry="2.5" style="stroke:#181818;stroke-width:0.5;" width="105.0273" x="1330.3965" y="845.3984"/><text fill="#000000" font-family="sans-serif" font-size="14" lengthAdjust="spacing" textLength="91.0273" x="1337.3965" y="866.9316">AIOrchestrator</text></g><g class="participant participant-head" data-entity-uid="part7" data-qualified-name="LAS" id="part7-head"><rect fill="#E2E2F0" height="31.6094" rx="2.5" ry="2.5" style="stroke:#181818;stroke-width:0.5;" width="107.3789" x="1686.3521" y="57.3516"/><text fill="#000000" font-family="sans-serif" font-size="14" lengthAdjust="spacing" textLength="93.3789" x="1693.3521" y="78.8848">LocalAIService</text></g><g class="participant participant-tail" data-entity-uid="part7" data-qualified-name="LAS" id="part7-tail"><rect fill="#E2E2F0" height="31.6094" rx="2.5" ry="2.5" style="stroke:#181818;stroke-width:0.5;" width="107.3789" x="1686.3521" y="845.3984"/><text fill="#000000" font-family="sans-serif" font-size="14" lengthAdjust="spacing" textLength="93.3789" x="1693.3521" y="866.9316">LocalAIService</text></g><g class="participant participant-head" data-entity-uid="part8" data-qualified-name="PY" id="part8-head"><rect fill="#E2E2F0" height="31.6094" rx="2.5" ry="2.5" style="stroke:#181818;stroke-width:0.5;" width="112.0684" x="1815.6572" y="57.3516"/><text fill="#000000" font-family="sans-serif" font-size="14" lengthAdjust="spacing" textLength="98.0684" x="1822.6572" y="78.8848">Local AI Engine</text></g><g class="participant participant-tail" data-entity-uid="part8" data-qualified-name="PY" id="part8-tail"><rect fill="#E2E2F0" height="31.6094" rx="2.5" ry="2.5" style="stroke:#181818;stroke-width:0.5;" width="112.0684" x="1815.6572" y="845.3984"/><text fill="#000000" font-family="sans-serif" font-size="14" lengthAdjust="spacing" textLength="98.0684" x="1822.6572" y="866.9316">Local AI Engine</text></g><g class="participant participant-head" data-entity-uid="part9" data-qualified-name="DAO" id="part9-head"><rect fill="#E2E2F0" height="31.6094" rx="2.5" ry="2.5" style="stroke:#181818;stroke-width:0.5;" width="63.0068" x="1937.7256" y="57.3516"/><text fill="#000000" font-family="sans-serif" font-size="14" lengthAdjust="spacing" textLength="49.0068" x="1944.7256" y="78.8848">BillDAO</text></g><g class="participant participant-tail" data-entity-uid="part9" data-qualified-name="DAO" id="part9-tail"><rect fill="#E2E2F0" height="31.6094" rx="2.5" ry="2.5" style="stroke:#181818;stroke-width:0.5;" width="63.0068" x="1937.7256" y="845.3984"/><text fill="#000000" font-family="sans-serif" font-size="14" lengthAdjust="spacing" textLength="49.0068" x="1944.7256" y="866.9316">BillDAO</text></g><g class="participant participant-head" data-entity-uid="part10" data-qualified-name="DB" id="part10-head"><text fill="#000000" font-family="sans-serif" font-size="14" lengthAdjust="spacing" textLength="42.7998" x="2144.3145" y="86.8848">SQLite</text><path d="M2150.7144,36.3516 C2150.7144,26.3516 2168.7144,26.3516 2168.7144,26.3516 C2168.7144,26.3516 2186.7144,26.3516 2186.7144,36.3516 L2186.7144,62.3516 C2186.7144,72.3516 2168.7144,72.3516 2168.7144,72.3516 C2168.7144,72.3516 2150.7144,72.3516 2150.7144,62.3516 L2150.7144,36.3516" fill="#E2E2F0" style="stroke:#181818;stroke-width:0.5;"/><path d="M2150.7144,36.3516 C2150.7144,46.3516 2168.7144,46.3516 2168.7144,46.3516 C2168.7144,46.3516 2186.7144,46.3516 2186.7144,36.3516" fill="none" style="stroke:#181818;stroke-width:0.5;"/></g><g class="participant participant-tail" data-entity-uid="part10" data-qualified-name="DB" id="part10-tail"><text fill="#000000" font-family="sans-serif" font-size="14" lengthAdjust="spacing" textLength="42.7998" x="2144.3145" y="859.9316">SQLite</text><path d="M2150.7144,873.0078 C2150.7144,863.0078 2168.7144,863.0078 2168.7144,863.0078 C2168.7144,863.0078 2186.7144,863.0078 2186.7144,873.0078 L2186.7144,899.0078 C2186.7144,909.0078 2168.7144,909.0078 2168.7144,909.0078 C2168.7144,909.0078 2150.7144,909.0078 2150.7144,899.0078 L2150.7144,873.0078" fill="#E2E2F0" style="stroke:#181818;stroke-width:0.5;"/><path d="M2150.7144,873.0078 C2150.7144,883.0078 2168.7144,883.0078 2168.7144,883.0078 C2168.7144,883.0078 2186.7144,883.0078 2186.7144,873.0078" fill="none" style="stroke:#181818;stroke-width:0.5;"/></g><g><title>BillDAO</title><rect fill="#FFFFFF" height="121.4063" style="stroke:#181818;stroke-width:1;" width="10" x="1964.229" y="515.8828"/></g><path d="M10,106.9609 L164.1035,106.9609 L164.1035,115.3125 L154.1035,125.3125 L10,125.3125 L10,106.9609" fill="#EEEEEE" style="stroke:#000000;stroke-width:1.5;"/><rect fill="none" height="79.0547" style="stroke:#000000;stroke-width:1.5;" width="876.437" x="10" y="106.9609"/><text fill="#000000" font-family="sans-serif" font-size="13" font-weight="bold" lengthAdjust="spacing" textLength="109.1035" x="25" y="121.4561">Prepare checkout</text><g class="message" data-entity-1="part1" data-entity-2="part3" id="msg1"><polygon fill="#181818" points="240.856,143.6641,250.856,147.6641,240.856,151.6641,244.856,147.6641" style="stroke:#181818;stroke-width:1;"/><line style="stroke:#181818;stroke-width:1;" x1="47.1206" x2="246.856" y1="147.6641" y2="147.6641"/><text fill="#000000" font-family="sans-serif" font-size="13" lengthAdjust="spacing" textLength="98.2617" x="100.8574" y="142.8076">confirm checkout</text></g><g class="message" data-entity-1="part3" data-entity-2="part4" id="msg2"><polygon fill="#181818" points="815.4199,174.0156,825.4199,178.0156,815.4199,182.0156,819.4199,178.0156" style="stroke:#181818;stroke-width:1;"/><line style="stroke:#181818;stroke-width:1;" x1="252.856" x2="821.4199" y1="178.0156" y2="178.0156"/><text fill="#000000" font-family="sans-serif" font-size="13" lengthAdjust="spacing" textLength="229.7725" x="425.2517" y="173.1592">snapshotItems(billList, discountPercent)</text></g><path d="M186.8354,200.0156 L374.1626,200.0156 L374.1626,208.3672 L364.1626,218.3672 L186.8354,218.3672 L186.8354,200.0156" fill="#EEEEEE" style="stroke:#000000;stroke-width:1.5;"/><rect fill="none" height="230.8125" style="stroke:#000000;stroke-width:1.5;" width="1750.8901" x="186.8354" y="200.0156"/><text fill="#000000" font-family="sans-serif" font-size="13" font-weight="bold" lengthAdjust="spacing" textLength="142.3271" x="201.8354" y="214.5107">Generate care protocol</text><g class="message" data-entity-1="part3" data-entity-2="part4" id="msg3"><polygon fill="#181818" points="815.4199,236.7188,825.4199,240.7188,815.4199,244.7188,819.4199,240.7188" style="stroke:#181818;stroke-width:1;"/><line style="stroke:#181818;stroke-width:1;" x1="252.856" x2="821.4199" y1="240.7188" y2="240.7188"/><text fill="#000000" font-family="sans-serif" font-size="13" lengthAdjust="spacing" textLength="221.8252" x="429.2253" y="235.8623">generateCheckoutCareProtocol(items)</text></g><g class="message" data-entity-1="part4" data-entity-2="part6" id="msg4"><polygon fill="#181818" points="1370.9102,267.0703,1380.9102,271.0703,1370.9102,275.0703,1374.9102,271.0703" style="stroke:#181818;stroke-width:1;"/><line style="stroke:#181818;stroke-width:1;" x1="827.4199" x2="1376.9102" y1="271.0703" y2="271.0703"/><text fill="#000000" font-family="sans-serif" font-size="13" lengthAdjust="spacing" textLength="392.7676" x="908.7813" y="266.2139">processOrchestration("checkout_protocol", data, "cloud_only", false)</text></g><g class="message" data-entity-1="part6" data-entity-2="part7" id="msg5"><polygon fill="#181818" points="1728.0415,297.4219,1738.0415,301.4219,1728.0415,305.4219,1732.0415,301.4219" style="stroke:#181818;stroke-width:1;"/><line style="stroke:#181818;stroke-width:1;" x1="1382.9102" x2="1734.0415" y1="301.4219" y2="301.4219"/><text fill="#000000" font-family="sans-serif" font-size="13" lengthAdjust="spacing" textLength="333.1313" x="1394.9102" y="296.5654">orchestrate(action, data, cloudConfig, routing, useSearch)</text></g><g class="message" data-entity-1="part7" data-entity-2="part8" id="msg6"><polygon fill="#181818" points="1859.6914,327.7734,1869.6914,331.7734,1859.6914,335.7734,1863.6914,331.7734" style="stroke:#181818;stroke-width:1;"/><line style="stroke:#181818;stroke-width:1;" x1="1740.0415" x2="1865.6914" y1="331.7734" y2="331.7734"/><text fill="#000000" font-family="sans-serif" font-size="13" lengthAdjust="spacing" textLength="107.6499" x="1752.0415" y="326.917">POST /orchestrate</text></g><g class="message" data-entity-1="part8" data-entity-2="part7" id="msg7"><polygon fill="#181818" points="1751.0415,358.125,1741.0415,362.125,1751.0415,366.125,1747.0415,362.125" style="stroke:#181818;stroke-width:1;"/><line style="stroke:#181818;stroke-width:1;stroke-dasharray:2,2;" x1="1745.0415" x2="1870.6914" y1="362.125" y2="362.125"/><text fill="#000000" font-family="sans-serif" font-size="13" lengthAdjust="spacing" textLength="72.979" x="1769.377" y="357.2686">careProtocol</text></g><g class="message" data-entity-1="part7" data-entity-2="part6" id="msg8"><polygon fill="#181818" points="1393.9102,388.4766,1383.9102,392.4766,1393.9102,396.4766,1389.9102,392.4766" style="stroke:#181818;stroke-width:1;"/><line style="stroke:#181818;stroke-width:1;stroke-dasharray:2,2;" x1="1387.9102" x2="1739.0415" y1="392.4766" y2="392.4766"/><text fill="#000000" font-family="sans-serif" font-size="13" lengthAdjust="spacing" textLength="72.979" x="1524.9863" y="387.6201">careProtocol</text></g><g class="message" data-entity-1="part6" data-entity-2="part4" id="msg9"><polygon fill="#181818" points="838.4199,418.8281,828.4199,422.8281,838.4199,426.8281,834.4199,422.8281" style="stroke:#181818;stroke-width:1;"/><line style="stroke:#181818;stroke-width:1;stroke-dasharray:2,2;" x1="832.4199" x2="1381.9102" y1="422.8281" y2="422.8281"/><text fill="#000000" font-family="sans-serif" font-size="13" lengthAdjust="spacing" textLength="72.979" x="1068.6755" y="417.9717">careProtocol</text></g><path d="M186.8354,444.8281 L309.1372,444.8281 L309.1372,453.1797 L299.1372,463.1797 L186.8354,463.1797 L186.8354,444.8281" fill="#EEEEEE" style="stroke:#000000;stroke-width:1.5;"/><rect fill="none" height="200.4609" style="stroke:#000000;stroke-width:1.5;" width="2016.2788" x="186.8354" y="444.8281"/><text fill="#000000" font-family="sans-serif" font-size="13" font-weight="bold" lengthAdjust="spacing" textLength="77.3018" x="201.8354" y="459.3232">Commit sale</text><g class="message" data-entity-1="part3" data-entity-2="part4" id="msg10"><polygon fill="#181818" points="815.4199,481.5313,825.4199,485.5313,815.4199,489.5313,819.4199,485.5313" style="stroke:#181818;stroke-width:1;"/><line style="stroke:#181818;stroke-width:1;" x1="252.856" x2="821.4199" y1="485.5313" y2="485.5313"/><text fill="#000000" font-family="sans-serif" font-size="13" lengthAdjust="spacing" textLength="550.564" x="264.856" y="480.6748">completeCheckout(items, customer, userId, splits, paymentMode, careProtocol, redeemLoyalty)</text></g><g class="message" data-entity-1="part4" data-entity-2="part9" id="msg11"><polygon fill="#181818" points="1952.229,511.8828,1962.229,515.8828,1952.229,519.8828,1956.229,515.8828" style="stroke:#181818;stroke-width:1;"/><line style="stroke:#181818;stroke-width:1;" x1="827.4199" x2="1958.229" y1="515.8828" y2="515.8828"/><text fill="#000000" font-family="sans-serif" font-size="13" lengthAdjust="spacing" textLength="112.0044" x="1339.8223" y="511.0264">generateInvoice(...)</text></g><g class="message" data-entity-1="part9" data-entity-2="part10" id="msg12"><polygon fill="#181818" points="2156.7144,542.2344,2166.7144,546.2344,2156.7144,550.2344,2160.7144,546.2344" style="stroke:#181818;stroke-width:1;"/><line style="stroke:#181818;stroke-width:1;" x1="1974.229" x2="2162.7144" y1="546.2344" y2="546.2344"/><text fill="#000000" font-family="sans-serif" font-size="13" lengthAdjust="spacing" textLength="170.4854" x="1986.229" y="541.3779">persist bill, items, stock, splits</text></g><g class="message" data-entity-1="part10" data-entity-2="part9" id="msg13"><polygon fill="#181818" points="1985.229,572.5859,1975.229,576.5859,1985.229,580.5859,1981.229,576.5859" style="stroke:#181818;stroke-width:1;"/><line style="stroke:#181818;stroke-width:1;stroke-dasharray:2,2;" x1="1979.229" x2="2167.7144" y1="576.5859" y2="576.5859"/><text fill="#000000" font-family="sans-serif" font-size="13" lengthAdjust="spacing" textLength="26.7363" x="2058.1035" y="571.7295">billId</text></g><g class="message" data-entity-1="part4" data-entity-2="part9" id="msg14"><polygon fill="#181818" points="1952.229,602.9375,1962.229,606.9375,1952.229,610.9375,1956.229,606.9375" style="stroke:#181818;stroke-width:1;"/><line style="stroke:#181818;stroke-width:1;" x1="827.4199" x2="1958.229" y1="606.9375" y2="606.9375"/><text fill="#000000" font-family="sans-serif" font-size="13" lengthAdjust="spacing" textLength="231.207" x="1280.2209" y="602.0811">saveAICareProtocol(billId, careProtocol)</text></g><g class="message" data-entity-1="part9" data-entity-2="part10" id="msg15"><polygon fill="#181818" points="2156.7144,633.2891,2166.7144,637.2891,2156.7144,641.2891,2160.7144,637.2891" style="stroke:#181818;stroke-width:1;"/><line style="stroke:#181818;stroke-width:1;" x1="1969.229" x2="2162.7144" y1="637.2891" y2="637.2891"/><text fill="#000000" font-family="sans-serif" font-size="13" lengthAdjust="spacing" textLength="109.1289" x="2014.4072" y="632.4326">update bill protocol</text></g><path d="M186.8354,659.2891 L336.6035,659.2891 L336.6035,667.6406 L326.6035,677.6406 L186.8354,677.6406 L186.8354,659.2891" fill="#EEEEEE" style="stroke:#000000;stroke-width:1.5;"/><rect fill="none" height="109.4063" style="stroke:#000000;stroke-width:1.5;" width="1143.561" x="186.8354" y="659.2891"/><text fill="#000000" font-family="sans-serif" font-size="13" font-weight="bold" lengthAdjust="spacing" textLength="104.7681" x="201.8354" y="673.7842">Generate invoice</text><g class="message" data-entity-1="part4" data-entity-2="part5" id="msg16"><polygon fill="#181818" points="1257.0449,695.9922,1267.0449,699.9922,1257.0449,703.9922,1261.0449,699.9922" style="stroke:#181818;stroke-width:1;"/><line style="stroke:#181818;stroke-width:1;" x1="827.4199" x2="1263.0449" y1="699.9922" y2="699.9922"/><text fill="#000000" font-family="sans-serif" font-size="13" lengthAdjust="spacing" textLength="417.625" x="839.4199" y="695.1357">generateInvoicePDF(items, total, customerName, pdfPath, careProtocol)</text></g><g class="message" data-entity-1="part5" data-entity-2="part4" id="msg17"><polygon fill="#181818" points="838.4199,726.3438,828.4199,730.3438,838.4199,734.3438,834.4199,730.3438" style="stroke:#181818;stroke-width:1;"/><line style="stroke:#181818;stroke-width:1;stroke-dasharray:2,2;" x1="832.4199" x2="1268.0449" y1="730.3438" y2="730.3438"/><text fill="#000000" font-family="sans-serif" font-size="13" lengthAdjust="spacing" textLength="44.8145" x="1025.8252" y="725.4873">pdfPath</text></g><g class="message" data-entity-1="part4" data-entity-2="part3" id="msg18"><polygon fill="#181818" points="263.856,756.6953,253.856,760.6953,263.856,764.6953,259.856,760.6953" style="stroke:#181818;stroke-width:1;"/><line style="stroke:#181818;stroke-width:1;stroke-dasharray:2,2;" x1="257.856" x2="826.4199" y1="760.6953" y2="760.6953"/><text fill="#000000" font-family="sans-serif" font-size="13" lengthAdjust="spacing" textLength="91.7681" x="494.2539" y="755.8389">CheckoutResult</text></g><g class="message" data-entity-1="part3" data-entity-2="part1" id="msg19"><polygon fill="#181818" points="58.1206,794.0469,48.1206,798.0469,58.1206,802.0469,54.1206,798.0469" style="stroke:#181818;stroke-width:1;"/><line style="stroke:#181818;stroke-width:1;stroke-dasharray:2,2;" x1="52.1206" x2="251.856" y1="798.0469" y2="798.0469"/><text fill="#000000" font-family="sans-serif" font-size="13" lengthAdjust="spacing" textLength="80.9199" x="109.5283" y="793.1904">show success</text></g><g class="message" data-entity-1="part1" data-entity-2="part2" id="msg20"><polygon fill="#181818" points="141.4941,824.3984,151.4941,828.3984,141.4941,832.3984,145.4941,828.3984" style="stroke:#181818;stroke-width:1;"/><line style="stroke:#181818;stroke-width:1;stroke-dasharray:2,2;" x1="47.1206" x2="147.4941" y1="828.3984" y2="828.3984"/><text fill="#000000" font-family="sans-serif" font-size="13" lengthAdjust="spacing" textLength="82.3735" x="59.1206" y="823.542">deliver invoice</text></g><?plantuml-src TLJ1Rjim3BtxAuZiaW9fTnrw6E0aws0WNRrubvqALMOJ8RBeINAw_Fr8nuxjj4CFRSB7znuVgOQ3SRNogeAmLoMz6RU3LsK39c6eu9y6dSP7347jCBLcvq2ZY-X7A8-X9XTwr18jlQNUqnj4ts2IA1t9mqg5lU6-xbCJ8bNyCNcXlp1ROpX4gY6jwnbyUlWYFmcpHwDDhLo4fR6M7Qx8HK_MeWSLOBdw25EWFngDBQ2O0BPOau-Z-hP8q9N05ZeVQGORTKB_iOaqU_9wZo5w9JCmGPfD01lIogRPI66JJYtCMWZtmJUtCmvd0if_Nzd8qGSJeaJ__pZMwPCqyw-aL56zg81G_DoOs0glbmFdpbDJG-wHAH1u0dsW9YRGxmHkltAMS0-QtAlnrHZ2tqkru6fmgWvxYbd4AinVsCA6JIwWD45JuoAxbjku4U5Uz3iwvBHOLQHhJv4qsIdlhiEiEjKLG_CEEJSYTYCDXJHmSFT2e_dMXcKOSlDPR_gvLvcnDGvc0JDjgIcVoTaJVzSUkJ0o5pFoXfYIBbmuvmjbmhwvxLr9CBi5y4oHJsm1JS025JS9aL0mK_wRYVAduXTy7j5ndGkt5oKzcgxlxGUxged1FgH9QHJmYghAH0ZAuZHLJLLjSKZrd2JFqxsyTWQVbGi8jJMHAxKwLRo_HofnCT7ZkR54h3PqKZQUXct82GxxozoH-EpdTtTt0f4OZx9wkL1eiTAob0MUxnlaXXRG6MDR-j2xaOPbE_rPGv1PUIKSr17JR78kPzpK_isLUbENOakWuuiiSUBueoCsvmalDhR5-_7pzKCVTQIex93u3rLni7NvcgkuVsznMmpRxa2TKFyy-rLkCJGsdXtAnhdUlsGEPS__U4EZvOKabmSkaCu6OqgqviX_TVFy0m00?></g></svg>