<?plantuml 1.2026.2?><svg xmlns="http://www.w3.org/2000/svg" xmlns:xlink="http://www.w3.org/1999/xlink" contentStyleType="text/css" data-diagram-type="DESCRIPTION" height="627px" preserveAspectRatio="none" style="width:1155px;height:627px;background:#FFFFFF;" version="1.1" viewBox="0 0 1155 627" width="1155px" zoomAndPan="magnify"><defs/><g><!--cluster View--><g class="cluster" data-qualified-name="View" data-source-line="6" id="ent0002"><rect fill="none" height="349" rx="2.5" ry="2.5" style="stroke:#181818;stroke-width:1;" width="200" x="7" y="24.5"/><text fill="#000000" font-family="sans-serif" font-size="14" font-weight="bold" lengthAdjust="spacing" textLength="31.9033" x="91.0483" y="41.0332">View</text></g><!--cluster Controller--><g class="cluster" data-qualified-name="Controller" data-source-line="13" id="ent0007"><rect fill="none" height="349" rx="2.5" ry="2.5" style="stroke:#181818;stroke-width:1;" width="201" x="235" y="24.5"/><text fill="#000000" font-family="sans-serif" font-size="14" font-weight="bold" lengthAdjust="spacing" textLength="66.8896" x="302.0552" y="41.0332">Controller</text></g><!--cluster Model--><g class="cluster" data-qualified-name="Model" data-source-line="20" id="ent0012"><rect fill="none" height="183" rx="2.5" ry="2.5" style="stroke:#181818;stroke-width:1;" width="647" x="464" y="65.5"/><text fill="#000000" font-family="sans-serif" font-size="14" font-weight="bold" lengthAdjust="spacing" textLength="40.4414" x="767.2793" y="82.0332">Model</text></g><!--cluster Integrations--><g class="cluster" data-qualified-name="Integrations" data-source-line="27" id="ent0017"><rect fill="none" height="349" rx="2.5" ry="2.5" style="stroke:#181818;stroke-width:1;" width="421" x="690" y="272.5"/><text fill="#000000" font-family="sans-serif" font-size="14" font-weight="bold" lengthAdjust="spacing" textLength="80.1172" x="860.4414" y="289.0332">Integrations</text></g><!--entity LoginView--><g class="entity" data-qualified-name="View.LoginView" data-source-line="7" id="ent0003"><rect fill="#F1F1F1" height="47.6094" rx="2.5" ry="2.5" style="stroke:#181818;stroke-width:0.5;" width="131.7998" x="41" y="60.5"/><rect fill="#F1F1F1" height="10" style="stroke:#181818;stroke-width:0.5;" width="15" x="152.7998" y="65.5"/><rect fill="#F1F1F1" height="2" style="stroke:#181818;stroke-width:0.5;" width="4" x="150.7998" y="67.5"/><rect fill="#F1F1F1" height="2" style="stroke:#181818;stroke-width:0.5;" width="4" x="150.7998" y="71.5"/><text fill="#000000" font-family="sans-serif" font-size="14" lengthAdjust="spacing" textLength="91.7998" x="56" y="95.0332">login-view.fxml</text></g><!--entity BillingView--><g class="entity" data-qualified-name="View.BillingView" data-source-line="8" id="ent0004"><rect fill="#F1F1F1" height="47.6094" rx="2.5" ry="2.5" style="stroke:#181818;stroke-width:0.5;" width="138.0205" x="38" y="143.5"/><rect fill="#F1F1F1" height="10" style="stroke:#181818;stroke-width:0.5;" width="15" x="156.0205" y="148.5"/><rect fill="#F1F1F1" height="2" style="stroke:#181818;stroke-width:0.5;" width="4" x="154.0205" y="150.5"/><rect fill="#F1F1F1" height="2" style="stroke:#181818;stroke-width:0.5;" width="4" x="154.0205" y="154.5"/><text fill="#000000" font-family="sans-serif" font-size="14" lengthAdjust="spacing" textLength="98.0205" x="53" y="178.0332">billing-view.fxml</text></g><!--entity DashboardView--><g class="entity" data-qualified-name="View.DashboardView" data-source-line="9" id="ent0005"><rect fill="#F1F1F1" height="47.6094" rx="2.5" ry="2.5" style="stroke:#181818;stroke-width:0.5;" width="168.3857" x="23" y="226.5"/><rect fill="#F1F1F1" height="10" style="stroke:#181818;stroke-width:0.5;" width="15" x="171.3857" y="231.5"/><rect fill="#F1F1F1" height="2" style="stroke:#181818;stroke-width:0.5;" width="4" x="169.3857" y="233.5"/><rect fill="#F1F1F1" height="2" style="stroke:#181818;stroke-width:0.5;" width="4" x="169.3857" y="237.5"/><text fill="#000000" font-family="sans-serif" font-size="14" lengthAdjust="spacing" textLength="128.3857" x="38" y="261.0332">dashboard-view.fxml</text></g><!--entity SettingsView--><g class="entity" data-qualified-name="View.SettingsView" data-source-line="10" id="ent0006"><rect fill="#F1F1F1" height="47.6094" rx="2.5" ry="2.5" style="stroke:#181818;stroke-width:0.5;" width="150.4688" x="32" y="309.5"/><rect fill="#F1F1F1" height="10" style="stroke:#181818;stroke-width:0.5;" width="15" x="162.4688" y="314.5"/><rect fill="#F1F1F1" height="2" style="stroke:#181818;stroke-width:0.5;" width="4" x="160.4688" y="316.5"/><rect fill="#F1F1F1" height="2" style="stroke:#181818;stroke-width:0.5;" width="4" x="160.4688" y="320.5"/><text fill="#000000" font-family="sans-serif" font-size="14" lengthAdjust="spacing" textLength="110.4688" x="47" y="344.0332">settings-view.fxml</text></g><!--entity LoginController--><g class="entity" data-qualified-name="Controller.LoginController" data-source-line="14" id="ent0008"><rect fill="#F1F1F1" height="47.6094" rx="2.5" ry="2.5" style="stroke:#181818;stroke-width:0.5;" width="134.9443" x="268" y="60.5"/><rect fill="#F1F1F1" height="10" style="stroke:#181818;stroke-width:0.5;" width="15" x="382.9443" y="65.5"/><rect fill="#F1F1F1" height="2" style="stroke:#181818;stroke-width:0.5;" width="4" x="380.9443" y="67.5"/><rect fill="#F1F1F1" height="2" style="stroke:#181818;stroke-width:0.5;" width="4" x="380.9443" y="71.5"/><text fill="#000000" font-family="sans-serif" font-size="14" lengthAdjust="spacing" textLength="94.9443" x="283" y="95.0332">LoginController</text></g><!--entity BillingController--><g class="entity" data-qualified-name="Controller.BillingController" data-source-line="15" id="ent0009"><rect fill="#F1F1F1" height="47.6094" rx="2.5" ry="2.5" style="stroke:#181818;stroke-width:0.5;" width="138.041" x="266.5" y="143.5"/><rect fill="#F1F1F1" height="10" style="stroke:#181818;stroke-width:0.5;" width="15" x="384.541" y="148.5"/><rect fill="#F1F1F1" height="2" style="stroke:#181818;stroke-width:0.5;" width="4" x="382.541" y="150.5"/><rect fill="#F1F1F1" height="2" style="stroke:#181818;stroke-width:0.5;" width="4" x="382.541" y="154.5"/><text fill="#000000" font-family="sans-serif" font-size="14" lengthAdjust="spacing" textLength="98.041" x="281.5" y="178.0332">BillingController</text></g><!--entity DashboardController--><g class="entity" data-qualified-name="Controller.DashboardController" data-source-line="16" id="ent0010"><rect fill="#F1F1F1" height="47.6094" rx="2.5" ry="2.5" style="stroke:#181818;stroke-width:0.5;" width="169.1787" x="251" y="226.5"/><rect fill="#F1F1F1" height="10" style="stroke:#181818;stroke-width:0.5;" width="15" x="400.1787" y="231.5"/><rect fill="#F1F1F1" height="2" style="stroke:#181818;stroke-width:0.5;" width="4" x="398.1787" y="233.5"/><rect fill="#F1F1F1" height="2" style="stroke:#181818;stroke-width:0.5;" width="4" x="398.1787" y="237.5"/><text fill="#000000" font-family="sans-serif" font-size="14" lengthAdjust="spacing" textLength="129.1787" x="266" y="261.0332">DashboardController</text></g><!--entity SettingsController--><g class="entity" data-qualified-name="Controller.SettingsController" data-source-line="17" id="ent0011"><rect fill="#F1F1F1" height="47.6094" rx="2.5" ry="2.5" style="stroke:#181818;stroke-width:0.5;" width="151.2754" x="260" y="309.5"/><rect fill="#F1F1F1" height="10" style="stroke:#181818;stroke-width:0.5;" width="15" x="391.2754" y="314.5"/><rect fill="#F1F1F1" height="2" style="stroke:#181818;stroke-width:0.5;" width="4" x="389.2754" y="316.5"/><rect fill="#F1F1F1" height="2" style="stroke:#181818;stroke-width:0.5;" width="4" x="389.2754" y="320.5"/><text fill="#000000" font-family="sans-serif" font-size="14" lengthAdjust="spacing" textLength="111.2754" x="275" y="344.0332">SettingsController</text></g><!--entity Services--><g class="entity" data-qualified-name="Model.Services" data-source-line="21" id="ent0013"><rect fill="#F1F1F1" height="47.6094" rx="2.5" ry="2.5" style="stroke:#181818;stroke-width:0.5;" width="166.0615" x="480" y="184.5"/><rect fill="#F1F1F1" height="10" style="stroke:#181818;stroke-width:0.5;" width="15" x="626.0615" y="189.5"/><rect fill="#F1F1F1" height="2" style="stroke:#181818;stroke-width:0.5;" width="4" x="624.0615" y="191.5"/><rect fill="#F1F1F1" height="2" style="stroke:#181818;stroke-width:0.5;" width="4" x="624.0615" y="195.5"/><text fill="#000000" font-family="sans-serif" font-size="14" lengthAdjust="spacing" textLength="126.0615" x="495" y="219.0332">Application Services</text></g><!--entity Domain--><g class="entity" data-qualified-name="Model.Domain" data-source-line="22" id="ent0014"><rect fill="#F1F1F1" height="47.6094" rx="2.5" ry="2.5" style="stroke:#181818;stroke-width:0.5;" width="137.2617" x="712" y="184.5"/><rect fill="#F1F1F1" height="10" style="stroke:#181818;stroke-width:0.5;" width="15" x="829.2617" y="189.5"/><rect fill="#F1F1F1" height="2" style="stroke:#181818;stroke-width:0.5;" width="4" x="827.2617" y="191.5"/><rect fill="#F1F1F1" height="2" style="stroke:#181818;stroke-width:0.5;" width="4" x="827.2617" y="195.5"/><text fill="#000000" font-family="sans-serif" font-size="14" lengthAdjust="spacing" textLength="97.2617" x="727" y="219.0332">Domain Models</text></g><!--entity DAOs--><g class="entity" data-qualified-name="Model.DAOs" data-source-line="23" id="ent0015"><rect fill="#F1F1F1" height="47.6094" rx="2.5" ry="2.5" style="stroke:#181818;stroke-width:0.5;" width="109.248" x="726" y="101.5"/><rect fill="#F1F1F1" height="10" style="stroke:#181818;stroke-width:0.5;" width="15" x="815.248" y="106.5"/><rect fill="#F1F1F1" height="2" style="stroke:#181818;stroke-width:0.5;" width="4" x="813.248" y="108.5"/><rect fill="#F1F1F1" height="2" style="stroke:#181818;stroke-width:0.5;" width="4" x="813.248" y="112.5"/><text fill="#000000" font-family="sans-serif" font-size="14" lengthAdjust="spacing" textLength="69.248" x="741" y="136.0332">DAO Layer</text></g><!--entity SQLite--><g class="entity" data-qualified-name="Model.SQLite" data-source-line="24" id="ent0016"><path d="M968,154 C968,144 1031.3101,144 1031.3101,144 C1031.3101,144 1094.6201,144 1094.6201,154 L1094.6201,180.6094 C1094.6201,190.6094 1031.3101,190.6094 1031.3101,190.6094 C1031.3101,190.6094 968,190.6094 968,180.6094 L968,154" fill="#F1F1F1" style="stroke:#181818;stroke-width:0.5;"/><path d="M968,154 C968,164 1031.3101,164 1031.3101,164 C1031.3101,164 1094.6201,164 1094.6201,154" fill="none" style="stroke:#181818;stroke-width:0.5;"/><text fill="#000000" font-family="sans-serif" font-size="14" lengthAdjust="spacing" textLength="106.6201" x="978" y="182.5332">SQLite Database</text></g><!--entity LocalAI--><g class="entity" data-qualified-name="Integrations.LocalAI" data-source-line="28" id="ent0018"><rect fill="#F1F1F1" height="47.6094" rx="2.5" ry="2.5" style="stroke:#181818;stroke-width:0.5;" width="138.0684" x="711.5" y="308.5"/><rect fill="#F1F1F1" height="10" style="stroke:#181818;stroke-width:0.5;" width="15" x="829.5684" y="313.5"/><rect fill="#F1F1F1" height="2" style="stroke:#181818;stroke-width:0.5;" width="4" x="827.5684" y="315.5"/><rect fill="#F1F1F1" height="2" style="stroke:#181818;stroke-width:0.5;" width="4" x="827.5684" y="319.5"/><text fill="#000000" font-family="sans-serif" font-size="14" lengthAdjust="spacing" textLength="98.0684" x="726.5" y="343.0332">Local AI Engine</text></g><!--entity WhatsApp--><g class="entity" data-qualified-name="Integrations.WhatsApp" data-source-line="29" id="ent0019"><rect fill="#F1F1F1" height="47.6094" rx="2.5" ry="2.5" style="stroke:#181818;stroke-width:0.5;" width="148.9443" x="706" y="391.5"/><rect fill="#F1F1F1" height="10" style="stroke:#181818;stroke-width:0.5;" width="15" x="834.9443" y="396.5"/><rect fill="#F1F1F1" height="2" style="stroke:#181818;stroke-width:0.5;" width="4" x="832.9443" y="398.5"/><rect fill="#F1F1F1" height="2" style="stroke:#181818;stroke-width:0.5;" width="4" x="832.9443" y="402.5"/><text fill="#000000" font-family="sans-serif" font-size="14" lengthAdjust="spacing" textLength="108.9443" x="721" y="426.0332">WhatsApp Bridge</text></g><!--entity Mail--><g class="entity" data-qualified-name="Integrations.Mail" data-source-line="30" id="ent0020"><rect fill="#F1F1F1" height="47.6094" rx="2.5" ry="2.5" style="stroke:#181818;stroke-width:0.5;" width="129.4619" x="716" y="474.5"/><rect fill="#F1F1F1" height="10" style="stroke:#181818;stroke-width:0.5;" width="15" x="825.4619" y="479.5"/><rect fill="#F1F1F1" height="2" style="stroke:#181818;stroke-width:0.5;" width="4" x="823.4619" y="481.5"/><rect fill="#F1F1F1" height="2" style="stroke:#181818;stroke-width:0.5;" width="4" x="823.4619" y="485.5"/><text fill="#000000" font-family="sans-serif" font-size="14" lengthAdjust="spacing" textLength="89.4619" x="731" y="509.0332">SMTP Service</text></g><!--entity CloudAI--><g class="entity" data-qualified-name="Integrations.CloudAI" data-source-line="31" id="ent0021"><rect fill="#F1F1F1" height="47.6094" rx="2.5" ry="2.5" style="stroke:#181818;stroke-width:0.5;" width="127.1514" x="968" y="308.5"/><rect fill="#F1F1F1" height="10" style="stroke:#181818;stroke-width:0.5;" width="15" x="1075.1514" y="313.5"/><rect fill="#F1F1F1" height="2" style="stroke:#181818;stroke-width:0.5;" width="4" x="1073.1514" y="315.5"/><rect fill="#F1F1F1" height="2" style="stroke:#181818;stroke-width:0.5;" width="4" x="1073.1514" y="319.5"/><text fill="#000000" font-family="sans-serif" font-size="14" lengthAdjust="spacing" textLength="87.1514" x="983" y="343.0332">Cloud AI APIs</text></g><!--entity MCP--><g class="entity" data-qualified-name="Integrations.MCP" data-source-line="32" id="ent0022"><rect fill="#F1F1F1" height="47.6094" rx="2.5" ry="2.5" style="stroke:#181818;stroke-width:0.5;" width="116.2344" x="973.5" y="391.5"/><rect fill="#F1F1F1" height="10" style="stroke:#181818;stroke-width:0.5;" width="15" x="1069.7344" y="396.5"/><rect fill="#F1F1F1" height="2" style="stroke:#181818;stroke-width:0.5;" width="4" x="1067.7344" y="398.5"/><rect fill="#F1F1F1" height="2" style="stroke:#181818;stroke-width:0.5;" width="4" x="1067.7344" y="402.5"/><text fill="#000000" font-family="sans-serif" font-size="14" lengthAdjust="spacing" textLength="76.2344" x="988.5" y="426.0332">MCP Server</text></g><!--entity AIHosts--><g class="entity" data-qualified-name="Integrations.AIHosts" data-source-line="33" id="ent0023"><rect fill="#F1F1F1" height="47.6094" rx="2.5" ry="2.5" style="stroke:#181818;stroke-width:0.5;" width="148.1514" x="706.5" y="557.5"/><rect fill="#F1F1F1" height="10" style="stroke:#181818;stroke-width:0.5;" width="15" x="834.6514" y="562.5"/><rect fill="#F1F1F1" height="2" style="stroke:#181818;stroke-width:0.5;" width="4" x="832.6514" y="564.5"/><rect fill="#F1F1F1" height="2" style="stroke:#181818;stroke-width:0.5;" width="4" x="832.6514" y="568.5"/><text fill="#000000" font-family="sans-serif" font-size="14" lengthAdjust="spacing" textLength="108.1514" x="721.5" y="592.0332">External AI Hosts</text></g><g class="entity" data-qualified-name="GMN41" data-source-line="59" id="ent0042"><path d="M915,6 L915,48.7031 L1148.418,48.7031 L1148.418,16 L1138.418,6 L915,6" fill="#FEFFDD" style="stroke:#181818;stroke-width:0.5;"/><path d="M1138.418,6 L1138.418,16 L1148.418,16 L1138.418,6" fill="#FEFFDD" style="stroke:#181818;stroke-width:1;"/><text fill="#000000" font-family="sans-serif" font-size="13" lengthAdjust="spacing" textLength="196.5298" x="921" y="24.4951">MCP serves external AI hosts and</text><text fill="#000000" font-family="sans-serif" font-size="13" lengthAdjust="spacing" textLength="212.418" x="921" y="40.8467">sits outside the interactive MVC flow.</text></g><!--link LoginView to LoginController--><g class="link" data-entity-1="ent0003" data-entity-2="ent0008" data-link-type="dependency" data-source-line="36" id="lnk24"><path d="M173.09,84.5 C202.88,84.5 232.01,84.5 261.97,84.5" fill="none" id="LoginView-to-LoginController" style="stroke:#181818;stroke-width:1;"/><polygon fill="#181818" points="267.97,84.5,258.97,80.5,262.97,84.5,258.97,88.5,267.97,84.5" style="stroke:#181818;stroke-width:1;"/><text fill="#000000" font-family="sans-serif" font-size="13" lengthAdjust="spacing" textLength="38.3018" x="181.53" y="98.9951">events</text></g><!--link BillingView to BillingController--><g class="link" data-entity-1="ent0004" data-entity-2="ent0009" data-link-type="dependency" data-source-line="37" id="lnk25"><path d="M176.18,167.5 C204.68,167.5 231.64,167.5 260.16,167.5" fill="none" id="BillingView-to-BillingController" style="stroke:#181818;stroke-width:1;"/><polygon fill="#181818" points="266.16,167.5,257.16,163.5,261.16,167.5,257.16,171.5,266.16,167.5" style="stroke:#181818;stroke-width:1;"/><text fill="#000000" font-family="sans-serif" font-size="13" lengthAdjust="spacing" textLength="38.3018" x="182.17" y="181.9951">events</text></g><!--link DashboardView to DashboardController--><g class="link" data-entity-1="ent0005" data-entity-2="ent0010" data-link-type="dependency" data-source-line="38" id="lnk26"><path d="M191.11,250.5 C210.58,250.5 225.31,250.5 244.8,250.5" fill="none" id="DashboardView-to-DashboardController" style="stroke:#181818;stroke-width:1;"/><polygon fill="#181818" points="250.8,250.5,241.8,246.5,245.8,250.5,241.8,254.5,250.8,250.5" style="stroke:#181818;stroke-width:1;"/><text fill="#000000" font-family="sans-serif" font-size="13" lengthAdjust="spacing" textLength="38.3018" x="181.96" y="264.9951">events</text></g><!--link SettingsView to SettingsController--><g class="link" data-entity-1="ent0006" data-entity-2="ent0011" data-link-type="dependency" data-source-line="39" id="lnk27"><path d="M182.14,333.5 C207.11,333.5 228.92,333.5 253.93,333.5" fill="none" id="SettingsView-to-SettingsController" style="stroke:#181818;stroke-width:1;"/><polygon fill="#181818" points="259.93,333.5,250.93,329.5,254.93,333.5,250.93,337.5,259.93,333.5" style="stroke:#181818;stroke-width:1;"/><text fill="#000000" font-family="sans-serif" font-size="13" lengthAdjust="spacing" textLength="38.3018" x="182.03" y="347.9951">events</text></g><!--link LoginController to Services--><g class="link" data-entity-1="ent0008" data-entity-2="ent0013" data-link-type="dependency" data-source-line="41" id="lnk28"><path d="M403.1,105 C461.31,105 536,105 536,105 C536,105 536,147.92 536,178.49" fill="none" id="LoginController-to-Services" style="stroke:#181818;stroke-width:1;"/><polygon fill="#181818" points="536,184.49,540,175.49,536,179.49,532,175.49,536,184.49" style="stroke:#181818;stroke-width:1;"/><text fill="#000000" font-family="sans-serif" font-size="13" lengthAdjust="spacing" textLength="63.5781" x="445.3" y="119.4951">commands</text></g><!--link BillingController to Services--><g class="link" data-entity-1="ent0009" data-entity-2="ent0013" data-link-type="dependency" data-source-line="42" id="lnk29"><path d="M404.68,188 C428.35,188 449.06,188 473.72,188" fill="none" id="BillingController-to-Services" style="stroke:#181818;stroke-width:1;"/><polygon fill="#181818" points="479.72,188,470.72,184,474.72,188,470.72,192,479.72,188" style="stroke:#181818;stroke-width:1;"/><text fill="#000000" font-family="sans-serif" font-size="13" lengthAdjust="spacing" textLength="63.5781" x="378.2" y="202.4951">commands</text></g><!--link DashboardController to Services--><g class="link" data-entity-1="ent0010" data-entity-2="ent0013" data-link-type="dependency" data-source-line="43" id="lnk30"><path d="M413,226.36 C413,217.23 413,209 413,209 C413,209 439.14,209 473.67,209" fill="none" id="DashboardController-to-Services" style="stroke:#181818;stroke-width:1;"/><polygon fill="#181818" points="479.67,209,470.67,205,474.67,209,470.67,213,479.67,209" style="stroke:#181818;stroke-width:1;"/><text fill="#000000" font-family="sans-serif" font-size="13" lengthAdjust="spacing" textLength="42.6372" x="394.65" y="223.4951">queries</text></g><!--link SettingsController to Services--><g class="link" data-entity-1="ent0011" data-entity-2="ent0013" data-link-type="dependency" data-source-line="44" id="lnk31"><path d="M411.2,340.83 C459.85,340.83 514,340.83 514,340.83 C514,340.83 514,276.98 514,238.77" fill="none" id="SettingsController-to-Services" style="stroke:#181818;stroke-width:1;"/><polygon fill="#181818" points="514,232.77,510,241.77,514,237.77,518,241.77,514,232.77" style="stroke:#181818;stroke-width:1;"/><text fill="#000000" font-family="sans-serif" font-size="13" lengthAdjust="spacing" textLength="63.5781" x="450" y="352.6951">commands</text></g><!--link Services to Domain--><g class="link" data-entity-1="ent0013" data-entity-2="ent0014" data-link-type="dependency" data-source-line="46" id="lnk32"><path d="M646.16,208.5 C667.86,208.5 685.01,208.5 705.87,208.5" fill="none" id="Services-to-Domain" style="stroke:#181818;stroke-width:1;"/><polygon fill="#181818" points="711.87,208.5,702.87,204.5,706.87,208.5,702.87,212.5,711.87,208.5" style="stroke:#181818;stroke-width:1;"/><text fill="#000000" font-family="sans-serif" font-size="13" lengthAdjust="spacing" textLength="83.0972" x="595.01" y="222.9951">business rules</text></g><!--link Services to DAOs--><g class="link" data-entity-1="ent0013" data-entity-2="ent0015" data-link-type="dependency" data-source-line="47" id="lnk33"><path d="M591,184.19 C591,159.86 591,126 591,126 C591,126 663.96,126 719.94,126" fill="none" id="Services-to-DAOs" style="stroke:#181818;stroke-width:1;"/><polygon fill="#181818" points="725.94,126,716.94,122,720.94,126,716.94,130,725.94,126" style="stroke:#181818;stroke-width:1;"/><text fill="#000000" font-family="sans-serif" font-size="13" lengthAdjust="spacing" textLength="110.5508" x="518.37" y="140.4951">persistence access</text></g><!--link DAOs to SQLite--><g class="link" data-entity-1="ent0015" data-entity-2="ent0016" data-link-type="dependency" data-source-line="48" id="lnk34"><path d="M781,149.88 C781,156.15 781,161.17 781,161.17 C781,161.17 887.75,161.17 961.96,161.17" fill="none" id="DAOs-to-SQLite" style="stroke:#181818;stroke-width:1;"/><polygon fill="#181818" points="967.96,161.17,958.96,157.17,962.96,161.17,958.96,165.17,967.96,161.17" style="stroke:#181818;stroke-width:1;"/><text fill="#000000" font-family="sans-serif" font-size="13" lengthAdjust="spacing" textLength="37.5527" x="830.84" y="175.6651">CRUD</text></g><!--link Services to LocalAI--><g class="link" data-entity-1="ent0013" data-entity-2="ent0018" data-link-type="dependency" data-source-line="50" id="lnk35"><path d="M613,232.67 C613,266.85 613,325.17 613,325.17 C613,325.17 659.26,325.17 705.4,325.17" fill="none" id="Services-to-LocalAI" style="stroke:#181818;stroke-width:1;"/><polygon fill="#181818" points="711.4,325.17,702.4,321.17,706.4,325.17,702.4,329.17,711.4,325.17" style="stroke:#181818;stroke-width:1;"/><text fill="#000000" font-family="sans-serif" font-size="13" lengthAdjust="spacing" textLength="33.9409" x="581.96" y="339.6651">HTTP</text></g><!--link LocalAI to CloudAI--><g class="link" data-entity-1="ent0018" data-entity-2="ent0021" data-link-type="dependency" data-source-line="51" id="lnk36"><path d="M849.75,332.5 C886.61,332.5 925.63,332.5 961.64,332.5" fill="none" id="LocalAI-to-CloudAI" style="stroke:#181818;stroke-width:1;"/><polygon fill="#181818" points="967.64,332.5,958.64,328.5,962.64,332.5,958.64,336.5,967.64,332.5" style="stroke:#181818;stroke-width:1;"/><text fill="#000000" font-family="sans-serif" font-size="13" lengthAdjust="spacing" textLength="66.479" x="841.69" y="346.9951">routed calls</text></g><!--link Services to WhatsApp--><g class="link" data-entity-1="ent0013" data-entity-2="ent0019" data-link-type="dependency" data-source-line="52" id="lnk37"><path d="M580,232.65 C580,287.25 580,415.5 580,415.5 C580,415.5 642.84,415.5 699.84,415.5" fill="none" id="Services-to-WhatsApp" style="stroke:#181818;stroke-width:1;"/><polygon fill="#181818" points="705.84,415.5,696.84,411.5,700.84,415.5,696.84,419.5,705.84,415.5" style="stroke:#181818;stroke-width:1;"/><text fill="#000000" font-family="sans-serif" font-size="13" lengthAdjust="spacing" textLength="33.9409" x="546" y="401.4951">HTTP</text></g><!--link Services to Mail--><g class="link" data-entity-1="ent0013" data-entity-2="ent0020" data-link-type="dependency" data-source-line="53" id="lnk38"><path d="M547,232.73 C547,302.42 547,498.5 547,498.5 C547,498.5 640.66,498.5 709.77,498.5" fill="none" id="Services-to-Mail" style="stroke:#181818;stroke-width:1;"/><polygon fill="#181818" points="715.77,498.5,706.77,494.5,710.77,498.5,706.77,502.5,715.77,498.5" style="stroke:#181818;stroke-width:1;"/><text fill="#000000" font-family="sans-serif" font-size="13" lengthAdjust="spacing" textLength="36.1118" x="510" y="464.4951">SMTP</text></g><!--link AIHosts to MCP--><g class="link" data-entity-1="ent0023" data-entity-2="ent0022" data-link-type="dependency" data-source-line="55" id="lnk39"><path d="M854.6,581.5 C928.78,581.5 1032,581.5 1032,581.5 C1032,581.5 1032,491.68 1032,445.64" fill="none" id="AIHosts-to-MCP" style="stroke:#181818;stroke-width:1;"/><polygon fill="#181818" points="1032,439.64,1028,448.64,1032,444.64,1036,448.64,1032,439.64" style="stroke:#181818;stroke-width:1;"/><text fill="#000000" font-family="sans-serif" font-size="13" lengthAdjust="spacing" textLength="28.8882" x="985.23" y="595.9951">MCP</text></g><!--link MCP to SQLite--><g class="link" data-entity-1="ent0022" data-entity-2="ent0016" data-link-type="dependency" data-source-line="56" id="lnk40"><path d="M973.42,407.5 C960.73,407.5 951,407.5 951,407.5 C951,407.5 951,172.83 951,172.83 C951,172.83 951.91,172.83 961.68,172.83" fill="none" id="MCP-to-SQLite" style="stroke:#181818;stroke-width:1;"/><polygon fill="#181818" points="967.68,172.83,958.68,168.83,962.68,172.83,958.68,176.83,967.68,172.83" style="stroke:#181818;stroke-width:1;"/><text fill="#000000" font-family="sans-serif" font-size="13" lengthAdjust="spacing" textLength="65.0317" x="885" y="307.5351">tool access</text></g><!--link MCP to GMN41--><g class="link" data-entity-1="ent0022" data-entity-2="ent0042" data-link-type="association" data-source-line="59" id="lnk43"><path d="M973.35,423.5 C952.02,423.5 933,423.5 933,423.5 C933,423.5 933,131.71 933,49.07" fill="none" id="MCP-GMN41" style="stroke:#181818;stroke-width:1;stroke-dasharray:7,7;"/></g><?plantuml-src ZPJDRk8m58NtUOehzlG1M8oKqaf50fKEJ6SnceM9BubLnyxO1ef6y-vp_PDVM7INdFDT-zWv8F7em6amegmSS66mS4Ahp7u8rJ33Qh0Lu_eYL0b79YqEd8OL7wp4dRjA13_8L2c7W1GAtRL1qCPLEilI0CpU1Lvcy3S3-2LrATJyJCB3yREMlu5PM7lDCnuu24dhb1FaCQejn9cj3fePFi6UMhq5BJf7StR2xP8Si7-3f4kjdD5IeabvGxPUxVFsciTIlWbuetgqopY1x-WURwDEw5jvT8wDvYZJ4VAcaQ9W_ZlJc3cB0crQ8xw4LBfcGa6OYsvKWfU_mffTsvpvgv_WpB43ixJNxcqj75B-ACp2qa4RHLefXwK9CMntkGMJaA_WMT6DOhfSqlALjtzMp5bA3uz6y3BQhHQkPhFVjeS8veO9wOsbr2VkrystgtYOeCHLDyiub8v3hrvz_dHeL4ppegsBO_agFFjpT2M5-VpRj0Am03oZ8d9Gr03ULA17HsKDy9qAzFYmiu6-hK0FPzE0SI1-Ry8ANTTCyIxl5yXxuIRidnCQWNtKBwoQTMAuWDZ21HnEbWfXBPYJ30iE8IeW8GqQAwn3LI2mWaoAw9smKwpa0fRVVpnDzaW58_DblzzcxQktKal8Clhaa0DPSh9xLyeqFp9z0SdmnSooL9veKEaMeMl-QHJHQItR0sHAatRGpkaQz36LquzOtrWBEAXf5LQdMoJ42dgap5Pm15SX2Fgr6KP_xcU4pViIZb9V7Z9K7FmM_m40?></g></svg>