<?plantuml 1.2026.2?><svg xmlns="http://www.w3.org/2000/svg" xmlns:xlink="http://www.w3.org/1999/xlink" contentStyleType="text/css" data-diagram-type="DESCRIPTION" height="613px" preserveAspectRatio="none" style="width:672px;height:613px;background:#FFFFFF;" version="1.1" viewBox="0 0 672 613" width="672px" zoomAndPan="magnify"><defs/><g><!--cluster MediManage--><g class="cluster" data-qualified-name="MediManage" data-source-line="18" id="ent0012"><rect fill="none" height="504" rx="2.5" ry="2.5" style="stroke:#181818;stroke-width:1;" width="438" x="228" y="7"/><text fill="#000000" font-family="sans-serif" font-size="14" font-weight="bold" lengthAdjust="spacing" textLength="84.0137" x="404.9932" y="23.5332">MediManage</text></g><!--entity UC1--><g class="entity" data-qualified-name="MediManage.UC1" data-source-line="19" id="ent0013"><ellipse cx="327.9507" cy="405.1901" fill="#F1F1F1" rx="73.9507" ry="17.1901" style="stroke:#181818;stroke-width:0.5;"/><text fill="#000000" font-family="sans-serif" font-size="14" lengthAdjust="spacing" textLength="111.2822" x="272.3095" y="410.4948">Authenticate User</text></g><!--entity UC2--><g class="entity" data-qualified-name="MediManage.UC2" data-source-line="20" id="ent0014"><ellipse cx="327.7937" cy="61.0587" fill="#F1F1F1" rx="78.2937" ry="18.0587" style="stroke:#181818;stroke-width:0.5;"/><text fill="#000000" font-family="sans-serif" font-size="14" lengthAdjust="spacing" textLength="122.165" x="266.7112" y="66.3634">Manage Customers</text></g><!--entity UC3--><g class="entity" data-qualified-name="MediManage.UC3" data-source-line="21" id="ent0015"><ellipse cx="327.8239" cy="267.9517" fill="#F1F1F1" rx="61.3239" ry="15.4517" style="stroke:#181818;stroke-width:0.5;"/><text fill="#000000" font-family="sans-serif" font-size="14" lengthAdjust="spacing" textLength="82.4824" x="286.5827" y="273.2564">Process Sale</text></g><!--entity UC4--><g class="entity" data-qualified-name="MediManage.UC4" data-source-line="22" id="ent0016"><ellipse cx="561.1042" cy="268.2208" fill="#F1F1F1" rx="66.6042" ry="15.7208" style="stroke:#181818;stroke-width:0.5;"/><text fill="#000000" font-family="sans-serif" font-size="14" lengthAdjust="spacing" textLength="91.8135" x="515.1974" y="273.5255">Deliver Invoice</text></g><!--entity UC5--><g class="entity" data-qualified-name="MediManage.UC5" data-source-line="23" id="ent0017"><ellipse cx="327.7546" cy="476.1509" fill="#F1F1F1" rx="83.7546" ry="19.1509" style="stroke:#181818;stroke-width:0.5;"/><text fill="#000000" font-family="sans-serif" font-size="14" lengthAdjust="spacing" textLength="135.3994" x="260.0549" y="481.4556">Manage Prescriptions</text></g><!--entity UC6--><g class="entity" data-qualified-name="MediManage.UC6" data-source-line="24" id="ent0018"><ellipse cx="561.0424" cy="407.2085" fill="#F1F1F1" rx="89.0424" ry="20.2085" style="stroke:#181818;stroke-width:0.5;"/><text fill="#000000" font-family="sans-serif" font-size="14" lengthAdjust="spacing" textLength="147.8545" x="487.1152" y="412.5132">Generate Care Protocol</text></g><!--entity UC7--><g class="entity" data-qualified-name="MediManage.UC7" data-source-line="25" id="ent0019"><ellipse cx="327.7593" cy="131.7519" fill="#F1F1F1" rx="74.2593" ry="17.2519" style="stroke:#181818;stroke-width:0.5;"/><text fill="#000000" font-family="sans-serif" font-size="14" lengthAdjust="spacing" textLength="112.0684" x="271.7252" y="137.0566">Manage Inventory</text></g><!--entity UC8--><g class="entity" data-qualified-name="MediManage.UC8" data-source-line="26" id="ent0020"><ellipse cx="328.1747" cy="201.2349" fill="#F1F1F1" rx="69.1747" ry="16.2349" style="stroke:#181818;stroke-width:0.5;"/><text fill="#000000" font-family="sans-serif" font-size="14" lengthAdjust="spacing" textLength="98.8135" x="278.7679" y="206.5396">Review Reports</text></g><!--entity UC9--><g class="entity" data-qualified-name="MediManage.UC9" data-source-line="27" id="ent0021"><ellipse cx="327.9453" cy="336.1891" fill="#F1F1F1" rx="73.9453" ry="17.1891" style="stroke:#181818;stroke-width:0.5;"/><text fill="#000000" font-family="sans-serif" font-size="14" lengthAdjust="spacing" textLength="111.2686" x="272.311" y="341.4937">Configure System</text></g><!--entity User--><g class="entity" data-qualified-name="User" data-source-line="6" id="ent0002"><ellipse cx="26.7793" cy="256.5" fill="#F1F1F1" rx="8" ry="8" style="stroke:#181818;stroke-width:0.5;"/><path d="M26.7793,264.5 L26.7793,291.5 M13.7793,272.5 L39.7793,272.5 M26.7793,291.5 L13.7793,306.5 M26.7793,291.5 L39.7793,306.5" fill="none" style="stroke:#181818;stroke-width:0.5;"/><text fill="#000000" font-family="sans-serif" font-size="14" lengthAdjust="spacing" textLength="29.5586" x="12" y="322.5332">User</text></g><!--entity Cashier--><g class="entity" data-qualified-name="Cashier" data-source-line="7" id="ent0003"><ellipse cx="143.1206" cy="30.5" fill="#F1F1F1" rx="8" ry="8" style="stroke:#181818;stroke-width:0.5;"/><path d="M143.1206,38.5 L143.1206,65.5 M130.1206,46.5 L156.1206,46.5 M143.1206,65.5 L130.1206,80.5 M143.1206,65.5 L156.1206,80.5" fill="none" style="stroke:#181818;stroke-width:0.5;"/><text fill="#000000" font-family="sans-serif" font-size="14" lengthAdjust="spacing" textLength="48.2412" x="119" y="96.5332">Cashier</text></g><!--entity Pharmacist--><g class="entity" data-qualified-name="Pharmacist" data-source-line="8" id="ent0004"><ellipse cx="143.0103" cy="443.5" fill="#F1F1F1" rx="8" ry="8" style="stroke:#181818;stroke-width:0.5;"/><path d="M143.0103,451.5 L143.0103,478.5 M130.0103,459.5 L156.0103,459.5 M143.0103,478.5 L130.0103,493.5 M143.0103,478.5 L156.0103,493.5" fill="none" style="stroke:#181818;stroke-width:0.5;"/><text fill="#000000" font-family="sans-serif" font-size="14" lengthAdjust="spacing" textLength="70.0205" x="108" y="509.5332">Pharmacist</text></g><!--entity Manager--><g class="entity" data-qualified-name="Manager" data-source-line="9" id="ent0005"><ellipse cx="143.1274" cy="143.5" fill="#F1F1F1" rx="8" ry="8" style="stroke:#181818;stroke-width:0.5;"/><path d="M143.1274,151.5 L143.1274,178.5 M130.1274,159.5 L156.1274,159.5 M143.1274,178.5 L130.1274,193.5 M143.1274,178.5 L156.1274,193.5" fill="none" style="stroke:#181818;stroke-width:0.5;"/><text fill="#000000" font-family="sans-serif" font-size="14" lengthAdjust="spacing" textLength="55.2549" x="115.5" y="209.5332">Manager</text></g><!--entity Administrator--><g class="entity" data-qualified-name="Administrator" data-source-line="10" id="ent0006"><ellipse cx="143.2344" cy="256.5" fill="#F1F1F1" rx="8" ry="8" style="stroke:#181818;stroke-width:0.5;"/><path d="M143.2344,264.5 L143.2344,291.5 M130.2344,272.5 L156.2344,272.5 M143.2344,291.5 L130.2344,306.5 M143.2344,291.5 L156.2344,306.5" fill="none" style="stroke:#181818;stroke-width:0.5;"/><text fill="#000000" font-family="sans-serif" font-size="14" lengthAdjust="spacing" textLength="82.4688" x="102" y="322.5332">Administrator</text></g><!--entity Customer--><g class="entity" data-qualified-name="Customer" data-source-line="11" id="ent0007"><ellipse cx="327.8413" cy="538.5" fill="#F1F1F1" rx="8" ry="8" style="stroke:#181818;stroke-width:0.5;"/><path d="M327.8413,546.5 L327.8413,573.5 M314.8413,554.5 L340.8413,554.5 M327.8413,573.5 L314.8413,588.5 M327.8413,573.5 L340.8413,588.5" fill="none" style="stroke:#181818;stroke-width:0.5;"/><text fill="#000000" font-family="sans-serif" font-size="14" lengthAdjust="spacing" textLength="60.6826" x="297.5" y="604.5332">Customer</text></g><!--reverse link User to Cashier--><g class="link" data-entity-1="ent0002" data-entity-2="ent0003" data-link-type="extension" data-source-line="13" id="lnk8"><path d="M22,229.89 C22,165.21 22,61 22,61 C22,61 83.49,61 118.8,61" fill="none" id="User-backto-Cashier" style="stroke:#181818;stroke-width:1;"/><polygon fill="none" points="22,247.89,28,229.89,16,229.89,22,247.89" style="stroke:#181818;stroke-width:1;"/></g><!--reverse link User to Pharmacist--><g class="link" data-entity-1="ent0002" data-entity-2="ent0004" data-link-type="extension" data-source-line="14" id="lnk9"><path d="M22,344.2 C22,399.04 22,474 22,474 C22,474 71.96,474 107.68,474" fill="none" id="User-backto-Pharmacist" style="stroke:#181818;stroke-width:1;"/><polygon fill="none" points="22,326.2,16,344.2,28,344.2,22,326.2" style="stroke:#181818;stroke-width:1;"/></g><!--reverse link User to Manager--><g class="link" data-entity-1="ent0002" data-entity-2="ent0005" data-link-type="extension" data-source-line="15" id="lnk10"><path d="M32,229.8 C32,197.16 32,174 32,174 C32,174 82.4,174 115.28,174" fill="none" id="User-backto-Manager" style="stroke:#181818;stroke-width:1;"/><polygon fill="none" points="32,247.8,38,229.8,26,229.8,32,247.8" style="stroke:#181818;stroke-width:1;"/></g><!--reverse link User to Administrator--><g class="link" data-entity-1="ent0002" data-entity-2="ent0006" data-link-type="extension" data-source-line="16" id="lnk11"><path d="M60.16,287 C75.27,287 81.14,287 101.86,287" fill="none" id="User-backto-Administrator" style="stroke:#181818;stroke-width:1;"/><polygon fill="none" points="42.16,287,60.16,293,60.16,281,42.16,287" style="stroke:#181818;stroke-width:1;"/></g><!--link User to UC1--><g class="link" data-entity-1="ent0002" data-entity-2="ent0013" data-link-type="dependency" data-source-line="30" id="lnk22"><path d="M32,326.29 C32,360.62 32,405 32,405 C32,405 160.01,405 247.69,405" fill="none" id="User-to-UC1" style="stroke:#181818;stroke-width:1;"/><polygon fill="#181818" points="253.69,405,244.69,401,248.69,405,244.69,409,253.69,405" style="stroke:#181818;stroke-width:1;"/></g><!--link Cashier to UC2--><g class="link" data-entity-1="ent0003" data-entity-2="ent0014" data-link-type="dependency" data-source-line="31" id="lnk23"><path d="M167.19,55 C189.22,55 216.95,55 247.83,55" fill="none" id="Cashier-to-UC2" style="stroke:#181818;stroke-width:1;"/><polygon fill="#181818" points="253.83,55,244.83,51,248.83,55,244.83,59,253.83,55" style="stroke:#181818;stroke-width:1;"/></g><!--link Cashier to UC3--><g class="link" data-entity-1="ent0003" data-entity-2="ent0015" data-link-type="dependency" data-source-line="32" id="lnk24"><path d="M167.11,93 C184.16,93 204,93 204,93 C204,93 204,268 204,268 C204,268 229.24,268 260.36,268" fill="none" id="Cashier-to-UC3" style="stroke:#181818;stroke-width:1;"/><polygon fill="#181818" points="266.36,268,257.36,264,261.36,268,257.36,272,266.36,268" style="stroke:#181818;stroke-width:1;"/></g><!--link Cashier to UC4--><g class="link" data-entity-1="ent0003" data-entity-2="ent0016" data-link-type="dependency" data-source-line="33" id="lnk25"><path d="M167.28,86 C256.49,86 561,86 561,86 C561,86 561,202.47 561,246.48" fill="none" id="Cashier-to-UC4" style="stroke:#181818;stroke-width:1;"/><polygon fill="#181818" points="561,252.48,565,243.48,561,247.48,557,243.48,561,252.48" style="stroke:#181818;stroke-width:1;"/></g><!--link Pharmacist to UC3--><g class="link" data-entity-1="ent0004" data-entity-2="ent0015" data-link-type="dependency" data-source-line="35" id="lnk26"><path d="M178.29,442.33 C200.12,442.33 224,442.33 224,442.33 C224,442.33 224,275.75 224,275.75 C224,275.75 242.99,275.75 268.48,275.75" fill="none" id="Pharmacist-to-UC3" style="stroke:#181818;stroke-width:1;"/><polygon fill="#181818" points="274.48,275.75,265.48,271.75,269.48,275.75,265.48,279.75,274.48,275.75" style="stroke:#181818;stroke-width:1;"/></g><!--link Pharmacist to UC5--><g class="link" data-entity-1="ent0004" data-entity-2="ent0017" data-link-type="dependency" data-source-line="36" id="lnk27"><path d="M178.23,476 C196.89,476 214.68,476 237.77,476" fill="none" id="Pharmacist-to-UC5" style="stroke:#181818;stroke-width:1;"/><polygon fill="#181818" points="243.77,476,234.77,472,238.77,476,234.77,480,243.77,476" style="stroke:#181818;stroke-width:1;"/></g><!--link Pharmacist to UC6--><g class="link" data-entity-1="ent0004" data-entity-2="ent0018" data-link-type="dependency" data-source-line="37" id="lnk28"><path d="M178.28,449.67 C279.05,449.67 561,449.67 561,449.67 C561,449.67 561,444.32 561,433.33" fill="none" id="Pharmacist-to-UC6" style="stroke:#181818;stroke-width:1;"/><polygon fill="#181818" points="561,427.33,557,436.33,561,432.33,565,436.33,561,427.33" style="stroke:#181818;stroke-width:1;"/></g><!--link Manager to UC2--><g class="link" data-entity-1="ent0005" data-entity-2="ent0014" data-link-type="dependency" data-source-line="39" id="lnk29"><path d="M170.55,142.25 C173.24,142.25 175,142.25 175,142.25 C175,142.25 175,67 175,67 C175,67 208.76,67 247.74,67" fill="none" id="Manager-to-UC2" style="stroke:#181818;stroke-width:1;"/><polygon fill="#181818" points="253.74,67,244.74,63,248.74,67,244.74,71,253.74,67" style="stroke:#181818;stroke-width:1;"/></g><!--link Manager to UC7--><g class="link" data-entity-1="ent0005" data-entity-2="ent0019" data-link-type="dependency" data-source-line="40" id="lnk30"><path d="M170.7,138.62 C193.98,138.62 222.27,138.62 252.9,138.62" fill="none" id="Manager-to-UC7" style="stroke:#181818;stroke-width:1;"/><polygon fill="#181818" points="258.9,138.62,249.9,134.62,253.9,138.62,249.9,142.62,258.9,138.62" style="stroke:#181818;stroke-width:1;"/></g><!--link Manager to UC8--><g class="link" data-entity-1="ent0005" data-entity-2="ent0020" data-link-type="dependency" data-source-line="41" id="lnk31"><path d="M170.7,199 C194.08,199 222.57,199 253.3,199" fill="none" id="Manager-to-UC8" style="stroke:#181818;stroke-width:1;"/><polygon fill="#181818" points="259.3,199,250.3,195,254.3,199,250.3,203,259.3,199" style="stroke:#181818;stroke-width:1;"/></g><!--link Administrator to UC7--><g class="link" data-entity-1="ent0006" data-entity-2="ent0019" data-link-type="dependency" data-source-line="43" id="lnk32"><path d="M180,247.69 C180,205.93 180,145.88 180,145.88 C180,145.88 232.9,145.88 276.39,145.88" fill="none" id="Administrator-to-UC7" style="stroke:#181818;stroke-width:1;"/><polygon fill="#181818" points="282.39,145.88,273.39,141.88,277.39,145.88,273.39,149.88,282.39,145.88" style="stroke:#181818;stroke-width:1;"/></g><!--link Administrator to UC8--><g class="link" data-entity-1="ent0006" data-entity-2="ent0020" data-link-type="dependency" data-source-line="44" id="lnk33"><path d="M184.3,260.25 C219.01,260.25 263,260.25 263,260.25 C263,260.25 263,227.14 263,212.47" fill="none" id="Administrator-to-UC8" style="stroke:#181818;stroke-width:1;"/><polygon fill="#181818" points="263,206.47,259,215.47,263,211.47,267,215.47,263,206.47" style="stroke:#181818;stroke-width:1;"/></g><!--link Administrator to UC9--><g class="link" data-entity-1="ent0006" data-entity-2="ent0021" data-link-type="dependency" data-source-line="45" id="lnk34"><path d="M184.06,322.5 C213.33,322.5 246.68,322.5 276.84,322.5" fill="none" id="Administrator-to-UC9" style="stroke:#181818;stroke-width:1;"/><polygon fill="#181818" points="282.84,322.5,273.84,318.5,277.84,322.5,273.84,326.5,282.84,322.5" style="stroke:#181818;stroke-width:1;"/></g><!--link Customer to UC4--><g class="link" data-entity-1="ent0007" data-entity-2="ent0016" data-link-type="dependency" data-source-line="47" id="lnk35"><path d="M358.55,569 C392.32,569 442,569 442,569 C442,569 442,275.75 442,275.75 C442,275.75 466.92,275.75 497.24,275.75" fill="none" id="Customer-to-UC4" style="stroke:#181818;stroke-width:1;"/><polygon fill="#181818" points="503.24,275.75,494.24,271.75,498.24,275.75,494.24,279.75,503.24,275.75" style="stroke:#181818;stroke-width:1;"/></g><!--link UC3 to UC4--><g class="link" data-entity-1="ent0015" data-entity-2="ent0016" data-link-type="dependency" data-source-line="49" id="lnk36"><path d="M381.45,260.25 C417.87,260.25 460.03,260.25 497.31,260.25" fill="none" id="UC3-to-UC4" style="stroke:#181818;stroke-width:1;stroke-dasharray:7,7;"/><polygon fill="#181818" points="503.31,260.25,494.31,256.25,498.31,260.25,494.31,264.25,503.31,260.25" style="stroke:#181818;stroke-width:1;"/><text fill="#000000" font-family="sans-serif" font-size="13" lengthAdjust="spacing" textLength="55.6563" x="386.38" y="256.7451">&#171;include&#187;</text></g><!--link UC3 to UC6--><g class="link" data-entity-1="ent0015" data-entity-2="ent0018" data-link-type="dependency" data-source-line="50" id="lnk37"><path d="M389.66,268 C433.26,268 484,268 484,268 C484,268 484,358.23 484,390.55" fill="none" id="UC3-to-UC6" style="stroke:#181818;stroke-width:1;stroke-dasharray:7,7;"/><polygon fill="#181818" points="484,396.55,488,387.55,484,391.55,480,387.55,484,396.55" style="stroke:#181818;stroke-width:1;"/><text fill="#000000" font-family="sans-serif" font-size="13" lengthAdjust="spacing" textLength="55.6563" x="428" y="299.5951">&#171;include&#187;</text></g><?plantuml-src RP9XQy8m48Q_vrSSVkzWcpetH107Ony6elW3ZlHi3zEa9Ab3jlttfIvje_DRt_TzSdV9LT7UWpTWkIWzv6n9UZPQk0Fh6YrMu4hCpIVh0lQe72L9ZVA01MtzIH6q1r4NAWKKQ_Adci1ONneXK7fZOUV8niyLkf9xjIxHLYZP-MXye0xrktYPLwn3Q36eha3ZlAa28jggCF_Eihxeu2I51xChFZYN3KH_8nXzKCv__0Y-143ZIA8BmRBn9MdF4ZsTBpO2TB1RtQVGtyb-LXUPXvHPMoF9ETYYefW_flahAJw6GT_rqR3iaF6DDcjBJbgkspLshIOfzqQQR3ll2csB6s-aKP6StgWOUeOx6dkAp5FAREZ8z0aRgiEIktwpb5WPlUUY2Rss9-UfYiop-8bRoxB5-SdYug9-kDAFLteinB3NdlbdJVvRKo7YyljMb_hfIi-4kFWtUkoMExlfFWlHxN-OFmmCTtTd0IymdxEMgibfiKYIwMNo2m00?></g></svg>